<?xml version="1.0" encoding="UTF-8"?>
<svg xmlns="http://www.w3.org/2000/svg" width="346.6754" height="346.6754" xmlns:xlink="http://www.w3.org/1999/xlink" viewBox="0 0 346.6754 346.6754">
  <defs>
    <style>
      .cls-1 {
        fill: url(#linear-gradient);
      }

      .cls-2 {
        fill: #fff;
      }

      .cls-3 {
        mix-blend-mode: multiply;
      }

      .cls-4 {
        fill: url(#linear-gradient-8);
      }

      .cls-5 {
        fill: url(#linear-gradient-9);
      }

      .cls-6 {
        fill: url(#linear-gradient-3);
      }

      .cls-7 {
        fill: url(#linear-gradient-4);
      }

      .cls-8 {
        fill: url(#linear-gradient-2);
      }

      .cls-9 {
        fill: url(#linear-gradient-6);
      }

      .cls-10 {
        fill: url(#linear-gradient-7);
      }

      .cls-11 {
        fill: url(#linear-gradient-5);
      }

      .cls-12 {
        fill: url(#linear-gradient-12);
      }

      .cls-13 {
        fill: url(#linear-gradient-10);
      }

      .cls-14 {
        fill: url(#linear-gradient-11);
      }

      .cls-15 {
        isolation: isolate;
      }
    </style>
    <linearGradient id="linear-gradient" x1="234.8265" y1="67.8787" x2="120.9573" y2="243.5735" gradientUnits="userSpaceOnUse">
      <stop offset="0" stop-color="#c0f"/>
      <stop offset="1" stop-color="#00a4db"/>
    </linearGradient>
    <linearGradient id="linear-gradient-2" x1="116.4201" y1="208.4492" x2="201.9852" y2="208.9709" gradientUnits="userSpaceOnUse">
      <stop offset="0" stop-color="#bcbec0"/>
      <stop offset="1" stop-color="#fff"/>
    </linearGradient>
    <linearGradient id="linear-gradient-3" x1="165.3855" y1="74.3679" x2="118.0376" y2="163.5854" xlink:href="#linear-gradient-2"/>
    <linearGradient id="linear-gradient-4" x1="182.0082" y1="33.6466" x2="68.1385" y2="209.342" xlink:href="#linear-gradient"/>
    <linearGradient id="linear-gradient-5" x1="225.2892" y1="61.6978" x2="111.4195" y2="237.3933" xlink:href="#linear-gradient"/>
    <linearGradient id="linear-gradient-6" x1="247.2493" y1="159.3948" x2="215.1623" y2="93.6558" xlink:href="#linear-gradient-2"/>
    <linearGradient id="linear-gradient-7" x1="293.3634" y1="105.8168" x2="179.4938" y2="281.5121" xlink:href="#linear-gradient"/>
    <linearGradient id="linear-gradient-8" x1="258.3077" y1="83.0969" x2="144.4381" y2="258.7923" xlink:href="#linear-gradient"/>
    <linearGradient id="linear-gradient-9" x1="148.0353" y1="11.6283" x2="34.1655" y2="187.3239" xlink:href="#linear-gradient"/>
    <linearGradient id="linear-gradient-10" x1="281.5228" y1="98.143" x2="167.6532" y2="273.8384" xlink:href="#linear-gradient"/>
    <linearGradient id="linear-gradient-11" x1="234.6845" y1="67.7865" x2="120.8144" y2="243.4826" xlink:href="#linear-gradient"/>
    <linearGradient id="linear-gradient-12" x1="158.337" y1="213.1996" x2="199.3334" y2="213.1996" gradientUnits="userSpaceOnUse">
      <stop offset="0" stop-color="#fff"/>
      <stop offset="1" stop-color="#fff" stop-opacity="0"/>
    </linearGradient>
  </defs>
  <g class="cls-15">
    <g id="Layer_1" data-name="Layer 1">
      <g>
        <rect class="cls-2" width="346.6754" height="346.6754" rx="78.1477" ry="78.1477"/>
        <g>
          <g>
            <g>
              <path class="cls-1" d="M177.3889,248.1852c-45.6172,.002-85.2744-34.0732-91.0547-80.4843-6.2559-50.2461,29.5312-96.2129,79.7754-102.4707,50.2568-6.2617,96.2129,29.5312,102.4697,79.7763v-.0009c3.0313,24.3398-3.5977,48.4033-18.666,67.7578-15.0674,19.3535-36.7705,31.6806-61.1104,34.7119-3.833,.4775-7.6455,.7099-11.414,.7099Zm.1162-159.663c-2.7852,0-5.5957,.1718-8.4297,.5244-37.1123,4.622-63.5459,38.5752-58.9248,75.6885,4.6211,37.1123,38.5859,63.5498,75.6865,58.9238,17.9785-2.2383,34.0098-11.3438,45.1387-25.6397,11.1299-14.2949,16.0264-32.0693,13.7871-50.0468v-.001c-4.2676-34.2783-33.5645-59.4492-67.2578-59.4492Z"/>
              <g class="cls-3">
                <path class="cls-8" d="M223.569,206.0928c-10.3531,9.6386-23.4207,15.7843-37.7319,17.566-35.6436,4.4444-68.3761-19.7901-74.9907-54.6096h-24.3121c6.3766,45.7173,45.683,79.138,90.8546,79.136,3.7686,0,7.5811-.2324,11.4141-.71,24.3398-3.0312,46.0429-15.3584,61.1103-34.7119,1.6858-2.1652,3.2581-4.393,4.729-6.6705h-31.0733Z"/>
              </g>
              <g class="cls-3">
                <path class="cls-6" d="M86.4376,168.3971h24.2749c-.2175-1.2091-.4083-2.4287-.5619-3.6621-4.6211-37.1133,21.8125-71.0664,58.9248-75.6885,2.834-.3525,5.6446-.5244,8.4297-.5244,9.1063,0,17.882,1.8593,25.9384,5.2199,.0254-.1537,.0505-.3076,.0759-.4608,.1085-.6551,.3965-1.2879,.6866-1.8909v-22.8781c-11.9735-3.6644-24.8856-4.9281-38.0964-3.2821-50.2441,6.2578-86.0313,52.2246-79.7754,102.4707,.0292,.2342,.0724,.4629,.1034,.6963Z"/>
              </g>
              <path class="cls-7" d="M175.3216,62.8726c-12.9108-1.0081-25.8087-.0838-38.2537,2.3027-12.4528,2.4016-24.4785,6.2166-35.9586,11.0974-3.6167,1.5388-7.4394,3.41-10.9502,5.1615v22.5411c1.0425-.5506,2.3493-1.3065,3.4051-1.8354,4.9913-2.5085,10.1143-4.7754,15.3145-6.7932,10.4014-4.0354,21.1423-7.0442,31.9649-8.7715,10.8213-1.7156,21.7305-2.1121,32.3633-.9353,10.6359,1.1611,20.9597,3.9612,30.645,8.2339l9.3397-22.1082c-12.1006-4.8896-24.9654-7.9077-37.87-8.893Z"/>
              <path class="cls-11" d="M166.17,258.6634c-1-.6286,2.8442-4.9251,1.8563-5.576-4.668-3.0686-4.7657-3.3459-9.1134-6.8406-8.6954-6.99-16.6717-14.7873-23.5788-23.2964-6.8964-8.5136-12.6943-17.7631-16.9916-27.5598-4.3125-9.7915-7.0495-20.1323-8.1918-30.6562l-23.816,2.9656c1.8156,12.9243,5.6342,25.5744,11.2334,37.2426,5.5824,11.6853,12.8318,22.3931,21.1209,31.9776,4.8578,5.6048,10.5786,11.2846,16.0556,16.1672,3.888,3.4661,9.7765,3.5376,13.9145,6.6521,4.1626,3.1311,7.4466,3.2784,11.8369,6.0652,6.9303-2.3872,1.9058-.9574,5.674-7.1413Z"/>
            </g>
            <g class="cls-3">
              <path class="cls-9" d="M268.5794,145.0055v.001c-4.6565-37.3938-31.3096-66.7598-65.3515-76.7649v25.3987c21.8632,9.0257,38.4104,29.2323,41.5351,54.331v.001c2.1869,17.5569-2.4539,34.9085-13.0381,49.026,1.1348,1.8901,2.3071,3.7553,3.503,5.6048,3.2629,4.2958,6.4423,8.6466,9.1722,13.3077,.4342,.6015,.8624,1.207,1.2991,1.8069,1.4517-1.5987,2.8731-3.2321,4.2142-4.9544,15.0684-19.3545,21.6973-43.4179,18.666-67.7578Z"/>
            </g>
            <path class="cls-10" d="M266.6052,103.8699c-.0386,2.3071-.1145,4.6213-.2517,6.9368-.3233,5.5766-.9217,11.1469-1.7742,16.6594-1.7061,11.0254-4.4706,21.8318-8.3861,32.0681-3.9248,10.2292-9.0361,19.875-15.3717,28.4951-6.3235,8.6304-13.9103,16.1709-22.4531,22.4224l14.4763,19.1425c10.2849-8.0346,19.331-17.6669,26.6365-28.35,7.3284-10.6771,12.9769-22.3091,17.1326-34.2798,4.1468-11.9854,6.8555-24.3074,8.3688-36.69,.7551-6.1943,1.2205-12.4067,1.382-18.6372,.0697-2.5832,.0719-5.1716,.0318-7.7673h-19.7912Z"/>
            <g>
              <path class="cls-4" d="M266.6238,98.564v.0002c.0273,1.2927,.0376,2.5981,.0271,3.9087-.022,2.7727-.116,5.5622-.2811,8.3501-.1535,2.6477-.3736,5.2934-.6488,7.9328h20.3304c.1487-2.3651,.2681-4.7319,.3295-7.1023,.084-3.1155,.0897-6.2353,.0137-9.3711-.038-1.5683-.0977-3.1399-.1852-4.7265l-.1536-2.3985-.0976-1.227-.1296-1.366-.0002-.0012s-.6608-2.6069-1.2703-6.4231c-27.0226-27.2946-65.3441-21.1897-65.3441-21.1897,0,0,31.2781,7.9822,47.4098,33.6136Z"/>
              <path class="cls-5" d="M90.1591,81.4342c-2.2258,1.1002-4.4362,2.2308-6.6191,3.4169-2.7402,1.4851-5.4448,3.04-8.1223,4.6735-1.3394,.8172-2.6704,1.6546-4.0008,2.5237l-2.0004,1.3323-1.0137,.698-1.1184,.7952-.001,.0009-4.9272,4.3116c-9.1836,41.0344,14.3212,67.1845,14.3212,67.1845,0,0-8.3745-31.7932,5.4053-57.865,1.106-.6699,2.2312-1.3315,3.3716-1.9777,1.5469-.877,3.1206-1.7227,4.7048-2.5528l7.1278-12.4138-7.1278-10.1273Z"/>
              <path class="cls-13" d="M183.6227,262.3225l-.6751,.1402c-1.1332-.6228-2.269-1.2666-3.3987-1.931-2.3902-1.4055-4.7592-2.8818-7.0908-4.4184-1.4943-.9824-2.9679-1.997-4.4318-3.0259h-33.2817c3.7307,3.3008,7.581,6.4457,11.5393,9.4251,4.9869,3.7512,10.1344,7.2605,15.4493,10.5156,2.6563,1.6304,5.3552,3.1953,8.1088,4.6973,1.3772,.7512,2.768,1.4853,4.1859,2.2028l2.1539,1.0664,1.1116,.5288,1.2475,.5708,.0014,.0005,6.1975,2.1114v-.0002c39.5234-13.8767,51.0229-45.9947,51.0229-45.9947,0,0-16.5865,18.4224-52.14,24.1113Z"/>
            </g>
          </g>
          <g>
            <circle class="cls-14" cx="177.2837" cy="156.3533" r="68.0216"/>
            <path class="cls-2" d="M202.2256,185.5162c.8026-3.1955,3.0326-13.0109,4.4456-16.4669,.1524-.9675,.822-5.8942,1.0382-6.9899l7.0814-37.6994-2.0619-.9524c-6.035-2.7852-14.1227-4.3831-22.1888-4.3831-27.2141,0-49.3553,22.1405-49.3553,49.3551,0,18.1228,12.1123,27.6052,24.0777,27.6052,10.6606,0,19.2697-4.2197,26.1543-12.8608,1.4687,5.8312,4.9834,8.9171,7.6082,10.4655-.3692-7.7112,1.363-.7574,3.2006-8.0733Zm-11.22-30.2102l-.0045,.0239c-1.9889,11.2111-11.6102,24.2438-21.0355,24.2438-8.7173,0-10.0186-7.5043-10.0186-11.9773,0-17.5399,12.933-32.3578,28.2421-32.3578,2.236,0,4.39,.2079,6.4313,.6188l-3.6148,19.4486Z"/>
            <path class="cls-2" d="M245.3074,156.3548c0,6.63-1.74,13.0101-2.54,14.9001-2.1102,5.01-5.3201,9.37-9.0701,13-.96-7.5501,.3401-14.2801-2.35-21.43,.2201-1.2-2.4401-3.14-2.37-4.38,.03-.6701,.0501-1.38,.0501-2.0901,0-28.4099-23.1101-51.52-51.5201-51.52-28.14,0-51.25,22.89-51.51,51.0301-.13,13.69,5.0601,26.7999,15,36.51,5.4099,5.2899,11.11,9.19,16.9099,11.93v16.95c-27.8498-8.4201-48.1899-34.3301-48.1899-64.9001,0-37.39,30.41-67.7999,67.79-67.7999s67.8001,30.4099,67.8001,67.7999Z"/>
            <path class="cls-12" d="M180.2344,209.7074c-8.6222-.296-17.5881-2.5192-26.2371-7.4555v17.6856c7.3289,2.7188,15.2488,4.2098,23.5118,4.2098,3.8286,0,18.3579,.0371,30.5861-7.1346l-8.3153-10.7574c-7.3116,3.5217-16.6346,3.5521-19.5455,3.4521Z"/>
            <path class="cls-2" d="M191.4168,183.124c-1.6151,22.153,24.5238,27.048,37.4093,17.6181,11.8105-8.6433,16.4791-21.1684,16.4791-44.3904h-16.2825s-.4167,33.3384-14.5688,33.3384c-11.8044,0-9.3044-11.0763-7.7827-20.6408"/>
          </g>
        </g>
      </g>
    </g>
  </g>
</svg>