<?xml version="1.0" encoding="UTF-8"?>
<svg xmlns="http://www.w3.org/2000/svg" width="346.6754" height="346.6756" xmlns:xlink="http://www.w3.org/1999/xlink" viewBox="0 0 346.6754 346.6756">
  <defs>
    <style>
      .cls-1 {
        fill: url(#linear-gradient);
      }

      .cls-2 {
        fill: #fff;
      }

      .cls-3 {
        fill: url(#linear-gradient-6);
      }

      .cls-3, .cls-4, .cls-5 {
        mix-blend-mode: multiply;
      }

      .cls-4 {
        fill: url(#linear-gradient-8);
      }

      .cls-6 {
        fill: url(#linear-gradient-9);
      }

      .cls-7 {
        fill: url(#linear-gradient-3);
      }

      .cls-8 {
        fill: url(#linear-gradient-4);
      }

      .cls-9 {
        fill: url(#linear-gradient-2);
      }

      .cls-10 {
        fill: url(#linear-gradient-7);
      }

      .cls-11 {
        fill: url(#linear-gradient-5);
      }

      .cls-12 {
        fill: url(#linear-gradient-11);
      }

      .cls-13 {
        isolation: isolate;
      }

      .cls-5 {
        fill: url(#linear-gradient-10);
      }
    </style>
    <linearGradient id="linear-gradient" x1="232.5356" y1="72.5861" x2="121.4048" y2="240.5864" gradientUnits="userSpaceOnUse">
      <stop offset="0" stop-color="#c0f"/>
      <stop offset="1" stop-color="#00a4db"/>
    </linearGradient>
    <linearGradient id="linear-gradient-2" x1="216.7395" y1="62.1373" x2="105.6088" y2="230.1375" xlink:href="#linear-gradient"/>
    <linearGradient id="linear-gradient-3" x1="247.7034" y1="82.6196" x2="136.5729" y2="250.6195" xlink:href="#linear-gradient"/>
    <linearGradient id="linear-gradient-4" x1="243.6407" y1="79.9321" x2="132.5104" y2="247.9317" xlink:href="#linear-gradient"/>
    <linearGradient id="linear-gradient-5" x1="220.9225" y1="64.9041" x2="109.7918" y2="232.9043" xlink:href="#linear-gradient"/>
    <linearGradient id="linear-gradient-6" x1="271.0415" y1="162.1876" x2="218.3459" y2="149.6659" gradientUnits="userSpaceOnUse">
      <stop offset="0" stop-color="#bcbec0"/>
      <stop offset="1" stop-color="#fff"/>
    </linearGradient>
    <linearGradient id="linear-gradient-7" x1="264.8657" y1="93.9722" x2="153.7352" y2="261.972" xlink:href="#linear-gradient"/>
    <linearGradient id="linear-gradient-8" x1="126.1087" y1="78.0637" x2="155.8479" y2="131.2811" xlink:href="#linear-gradient-6"/>
    <linearGradient id="linear-gradient-9" x1="174.2875" y1="34.0556" x2="63.1566" y2="202.0562" xlink:href="#linear-gradient"/>
    <linearGradient id="linear-gradient-10" x1="131.3331" y1="230.613" x2="163.6158" y2="193.6348" xlink:href="#linear-gradient-6"/>
    <linearGradient id="linear-gradient-11" x1="243.0627" y1="79.55" x2="131.9319" y2="247.5503" xlink:href="#linear-gradient"/>
  </defs>
  <g class="cls-13">
    <g id="Layer_1" data-name="Layer 1">
      <g>
        <rect class="cls-2" width="346.6754" height="346.6756" rx="78.1478" ry="78.1478"/>
        <g>
          <g>
            <path class="cls-1" d="M177.028,248.1854c-45.6172,.0019-85.2744-34.0733-91.0547-80.4844-6.2558-50.2461,29.5313-96.2129,79.7754-102.4707,50.2569-6.2617,96.2129,29.5312,102.4698,79.7764v-.001c3.0312,24.3398-3.5977,48.4033-18.6661,67.7578-15.0673,19.3535-36.7705,31.6807-61.1103,34.7119-3.833,.4775-7.6455,.71-11.4141,.71Zm.1162-159.6631c-2.7851,0-5.5957,.1719-8.4297,.5244-37.1123,4.6221-63.5459,38.5752-58.9248,75.6885,4.6211,37.1123,38.586,63.5498,75.6866,58.9238,17.9785-2.2383,34.0097-11.3437,45.1386-25.6396,11.1299-14.295,16.0264-32.0694,13.7871-50.0469v-.001c-4.2675-34.2783-33.5644-59.4492-67.2578-59.4492Z"/>
            <g>
              <path class="cls-9" d="M151.7175,238.1873c-19.6514-42.4531-23.4131-104.1592-9.583-157.2031l16.4492,4.2891c-12.8955,49.4609-9.5352,106.6796,8.5615,145.7734l-15.4277,7.1406Z"/>
              <path class="cls-7" d="M198.8054,238.1873l-15.4278-7.1406c18.0957-39.0918,21.4561-96.3115,8.5616-145.7734l16.4492-4.2891c13.8301,53.0459,10.0683,114.751-9.583,157.2031Z"/>
            </g>
            <g>
              <path class="cls-8" d="M163.5388,200.2615c-22.25,0-44.9014-2.7168-66.1661-8.2617l4.2891-16.4492c49.46,12.8945,106.6777,9.5352,145.7734-8.5615l7.1407,15.4277c-25.4346,11.7735-57.7842,17.8447-91.0371,17.8447Z"/>
              <path class="cls-11" d="M247.4352,150.7567c-39.0927-18.0948-96.3125-21.4541-145.7734-8.5616l-4.2891-16.4492c53.045-13.8291,114.75-10.0674,157.2032,9.583l-7.1407,15.4278Z"/>
            </g>
          </g>
          <path class="cls-3" d="M268.2185,145.0057v.001c-4.1922-33.6643-26.2066-60.8384-55.3942-73.2256l-9.3333,22.0927-.0186,.0193c15.8054,6.7063,28.7602,19.2818,35.7746,35.3101-11.2748-3.8713-23.491-6.7981-36.2527-8.7581v17.1504c15.0327,2.503,29.1335,6.492,41.5596,11.8975,.6595,6.4477,.4111,12.8555-.7198,19.0757-12.2502,5.2466-26.0986,9.1277-40.8398,11.5825v17.1445c11.6429-1.7886,22.8335-4.3794,33.2688-7.7583-1.6555,2.937-3.5385,5.7725-5.6482,8.482-3.6931,4.7439-7.9358,8.9018-12.6004,12.4416l14.4693,19.1333,.0161,.0076c6.3128-4.791,12.0542-10.4185,17.0525-16.8384,15.0684-19.3545,21.6973-43.418,18.6661-67.7578Z"/>
          <path class="cls-10" d="M286.0174,102.2662c-.038-1.5684-.0977-3.1399-.1852-4.7266l-.1535-2.3984-.0977-1.2271-.1295-1.3659-.0003-.0013s-.6606-2.6068-1.2702-6.4231c-27.0226-27.2944-65.3441-21.1896-65.3441-21.1896,0,0,31.278,7.9821,47.4097,33.6137h0c.0273,1.2927,.0375,2.5982,.027,3.9087-.0219,2.7727-.1159,5.5623-.2811,8.3501-.3232,5.5767-.9216,11.147-1.7741,16.6594-1.7061,11.0254-4.4706,21.8318-8.3862,32.0681-3.9248,10.2293-9.0361,19.875-15.3717,28.4952-6.3234,8.6303-13.9102,16.1709-22.4531,22.4223l14.4763,19.1426c10.2849-8.0347,19.3311-17.667,26.6365-28.3501,7.3285-10.677,12.9769-22.3091,17.1327-34.2798,4.1467-11.9853,6.8555-24.3073,8.3688-36.6899,.7551-6.1944,1.2204-12.4068,1.3819-18.6372,.084-3.1155,.0898-6.2354,.0137-9.3711Z"/>
          <path class="cls-4" d="M185.6466,118.4139c-10.8594-.8987-21.9645-1.1443-33.102-.6975,1.0318-8.8242,2.5337-17.5799,4.5037-26.1438,3.7488-1.1585,7.64-2.0244,11.6662-2.5259,2.834-.3525,5.6446-.5244,8.4297-.5244,9.2515,0,18.1667,1.9079,26.3282,5.3708l.0186-.0193,9.3333-22.0927c-14.3759-6.1013-30.4909-8.6172-47.0756-6.5508-50.2439,6.2578-86.0307,52.2241-79.7755,102.4697h.0006l23.8159-2.9656c-1.0644-8.549-.4631-16.924,1.5191-24.8181,7.4931-1.6059,15.1181-2.8613,22.7954-3.7588-.223,5.5586-.2559,11.1062-.1421,16.6236h16.9347c-.1277-5.9766-.0592-11.9988,.2384-18.0325,11.6345-.574,23.2312-.3352,34.5114,.6641v-16.9988Zm-50.3061,.5386c-5.4151,.5615-10.8069,1.2939-16.155,2.1811,4.7778-7.8381,11.1025-14.6877,18.6257-20.0539-1.0213,5.9096-1.8491,11.8774-2.4707,17.8728Z"/>
          <path class="cls-6" d="M174.9608,62.8726c-12.9108-1.008-25.8088-.0837-38.2536,2.3028-12.4529,2.4016-24.4785,6.2165-35.9588,11.0974-5.7419,2.4431-11.3549,5.1465-16.8313,8.1218-2.7402,1.4851-5.4448,3.04-8.1223,4.6736-1.3393,.8171-2.6704,1.6545-4.0007,2.5237l-2.0005,1.3322-1.0137,.698-1.1184,.7952-.0009,.001-4.9273,4.3115c-9.1836,41.0344,14.3213,67.1846,14.3213,67.1846,0,0-8.3745-31.7932,5.4053-57.865h0c1.1059-.6699,2.2312-1.3316,3.3716-1.9778,2.4121-1.3674,4.8752-2.6809,7.3718-3.9316,4.9914-2.5086,10.1145-4.7754,15.3147-6.7933,10.4013-4.0354,21.1421-7.0441,31.9648-8.7714,10.8213-1.7156,21.7305-2.1121,32.3633-.9353,10.636,1.1611,20.9597,3.9611,30.645,8.2338l9.3396-22.1081c-12.1006-4.8897-24.9653-7.9077-37.8699-8.8931Z"/>
          <path class="cls-5" d="M218.0145,210.461c-3.5387,2.6851-7.3249,5.0071-11.3116,6.9395,2.1407-6.938,3.9462-14.1868,5.4014-21.6702,2.546-.4949,5.0548-1.0435,7.5416-1.6209-.9003-.7429-1.8024-1.4838-2.6943-2.2375-1.3828-1.168-2.7391-2.3672-4.1218-3.5349-.1509-.1275-.2589-.22-.348-.2971-.0976-.0738-.1982-.1502-.3263-.2481-1.9085-1.457-3.8322-2.8926-5.7257-4.3696-2.7956-2.1804-5.7809-4.6521-8.3915-7.4373-.197,1.6844-.4004,3.3655-.6341,5.0308-14.1601,1.9871-29.0253,2.6921-43.9731,2.0889-.7473-4.9827-1.3171-10.0647-1.7444-15.2039-5.6872-.1968-11.3729-.5054-17.0593-.9658,.3713,5.0159,.8662,9.9883,1.5187,14.883-7.8356-.8515-15.6247-2.0744-23.2829-3.6613-1.4514-4.2793-2.4939-8.7662-3.0735-13.4214v-.0008l-23.8159,2.9656h-.0006c0,.0005,0,.0008,0,.001,5.7803,46.4111,45.4375,80.4863,91.0547,80.4844,3.7686,0,7.5811-.2325,11.4141-.71,16.2656-2.0256,31.3408-8.2222,44.0578-17.8735l-.0161-.0076-14.4693-19.1333Zm-94.9972-13.2268c5.3325,.8052,10.7043,1.45,16.0913,1.9324,1.1418,5.4182,2.4717,10.7029,3.9802,15.8274-7.7746-4.5215-14.61-10.5608-20.0715-17.7598Zm63.5832,26.2661c-.3747,.053-.7478,.1118-1.1242,.1587-7.4693,.9314-14.8052,.584-21.8063-.8362-2.7587-7.1157-5.0857-14.7068-6.965-22.654,2.2808,.0571,4.5596,.0927,6.8338,.0927,10.3737,0,20.6593-.5915,30.6746-1.7619-2.0009,8.8069-4.5416,17.1987-7.6129,25.0007Z"/>
          <path class="cls-12" d="M179.1832,260.5318c-2.3902-1.4055-4.7592-2.8818-7.0908-4.4185-4.668-3.0686-9.1927-6.3718-13.5403-9.8664-8.6955-6.99-16.6718-14.7874-23.5789-23.2964-6.8963-8.5137-12.6942-17.7632-16.9916-27.5598-4.3125-9.7915-7.0494-20.1323-8.1917-30.6563l-23.8161,2.9656c1.8157,12.9243,5.6343,25.5745,11.2334,37.2427,5.5824,11.6853,12.8318,22.3931,21.121,31.9775,8.3063,9.5838,17.623,18.0906,27.59,25.5923,4.9869,3.7512,10.1344,7.2605,15.4493,10.5156,2.6562,1.6304,5.3552,3.1954,8.1088,4.6973,1.3772,.7512,2.768,1.4854,4.1859,2.2029l2.1539,1.0664,1.1116,.5288,1.2475,.5708,.0014,.0005,6.1975,2.1113h0c39.5234-13.8767,51.0229-45.9949,51.0229-45.9949,0,0-16.5865,18.4225-52.14,24.1114l-.6751,.1401c-1.1332-.6228-2.269-1.2666-3.3987-1.9309Z"/>
        </g>
      </g>
    </g>
  </g>
</svg>