<?xml version="1.0" encoding="UTF-8"?>
<svg xmlns="http://www.w3.org/2000/svg" width="347" height="347" xmlns:xlink="http://www.w3.org/1999/xlink" viewBox="0 0 347 347">
  <defs>
    <style>
      .cls-1 {
        fill: url(#linear-gradient);
      }

      .cls-2 {
        fill: #fff;
      }

      .cls-3 {
        mix-blend-mode: multiply;
      }

      .cls-4 {
        fill: url(#linear-gradient-8);
      }

      .cls-5 {
        fill: url(#linear-gradient-9);
      }

      .cls-6 {
        fill: url(#linear-gradient-3);
      }

      .cls-7 {
        fill: url(#linear-gradient-4);
      }

      .cls-8 {
        fill: url(#linear-gradient-2);
      }

      .cls-9 {
        fill: url(#linear-gradient-6);
      }

      .cls-10 {
        fill: url(#linear-gradient-7);
      }

      .cls-11 {
        fill: url(#linear-gradient-5);
      }

      .cls-12 {
        fill: url(#linear-gradient-12);
      }

      .cls-13 {
        fill: url(#linear-gradient-10);
      }

      .cls-14 {
        fill: url(#linear-gradient-11);
      }

      .cls-15 {
        isolation: isolate;
      }
    </style>
    <linearGradient id="linear-gradient" x1="234.7521" y1="81.09" x2="112.665" y2="244.6552" gradientUnits="userSpaceOnUse">
      <stop offset="0" stop-color="#c0f"/>
      <stop offset="1" stop-color="#00a4db"/>
    </linearGradient>
    <linearGradient id="linear-gradient-2" x1="112.459" y1="215.2171" x2="198.0242" y2="215.7388" gradientUnits="userSpaceOnUse">
      <stop offset="0" stop-color="#bcbec0"/>
      <stop offset="1" stop-color="#fff"/>
    </linearGradient>
    <linearGradient id="linear-gradient-3" x1="161.4245" y1="81.1359" x2="114.0766" y2="170.3533" xlink:href="#linear-gradient-2"/>
    <linearGradient id="linear-gradient-4" x1="182.2474" y1="41.9" x2="60.1601" y2="205.4656" xlink:href="#linear-gradient"/>
    <linearGradient id="linear-gradient-5" x1="229.8141" y1="77.4048" x2="107.7272" y2="240.9699" xlink:href="#linear-gradient"/>
    <linearGradient id="linear-gradient-6" x1="234.7364" y1="81.0785" x2="112.6496" y2="244.6434" xlink:href="#linear-gradient"/>
    <linearGradient id="linear-gradient-7" x1="234.7324" y1="81.0754" x2="112.6454" y2="244.6407" xlink:href="#linear-gradient"/>
    <linearGradient id="linear-gradient-8" x1="237.1491" y1="169.1593" x2="205.0621" y2="103.4202" xlink:href="#linear-gradient-2"/>
    <linearGradient id="linear-gradient-9" x1="287.9217" y1="120.7765" x2="165.8344" y2="284.3421" xlink:href="#linear-gradient"/>
    <linearGradient id="linear-gradient-10" x1="252.0948" y1="94.0349" x2="130.008" y2="257.5998" xlink:href="#linear-gradient"/>
    <linearGradient id="linear-gradient-11" x1="154.114" y1="20.9012" x2="32.0273" y2="184.4661" xlink:href="#linear-gradient"/>
    <linearGradient id="linear-gradient-12" x1="283.397" y1="117.3996" x2="161.31" y2="280.9648" xlink:href="#linear-gradient"/>
  </defs>
  <g class="cls-15">
    <g id="Layer_1" data-name="Layer 1">
      <rect class="cls-2" x="0" width="347" height="347" rx="78.1478" ry="78.1478"/>
      <g>
        <g>
          <path class="cls-1" d="M173.4279,254.9532c-45.6172,.0019-85.2744-34.0733-91.0547-80.4844-6.2559-50.2461,29.5312-96.2129,79.7754-102.4707,50.2568-6.2617,96.2129,29.5312,102.4697,79.7764v-.001c3.0313,24.3398-3.5976,48.4033-18.666,67.7578-15.0674,19.3535-36.7705,31.6807-61.1104,34.7119-3.833,.4775-7.6455,.71-11.414,.71Zm.1162-159.6631c-2.7852,0-5.5957,.1719-8.4297,.5244-37.1123,4.6221-63.5459,38.5752-58.9248,75.6885,4.6211,37.1123,38.5859,63.5498,75.6865,58.9238,17.9785-2.2383,34.0098-11.3437,45.1387-25.6396,11.1299-14.295,16.0264-32.0694,13.7871-50.0469v-.001c-4.2676-34.2783-33.5644-59.4492-67.2578-59.4492Z"/>
          <g class="cls-3">
            <path class="cls-8" d="M219.608,212.8607c-10.3531,9.6386-23.4207,15.7843-37.7319,17.5661-35.6436,4.4443-68.3761-19.7902-74.9907-54.6097h-24.3121c6.3766,45.7173,45.683,79.138,90.8546,79.136,3.7686,0,7.5811-.2324,11.4141-.7099,24.3398-3.0313,46.0429-15.3584,61.1103-34.7119,1.6858-2.1653,3.2581-4.3931,4.729-6.6706h-31.0733Z"/>
          </g>
          <g class="cls-3">
            <path class="cls-6" d="M82.4765,175.165h24.2749c-.2175-1.2091-.4083-2.4287-.5619-3.6621-4.6211-37.1132,21.8125-71.0664,58.9248-75.6884,2.834-.3526,5.6446-.5245,8.4297-.5245,9.1063,0,17.882,1.8593,25.9384,5.2199,.0254-.1537,.0505-.3076,.0759-.4608,.1085-.6551,.3965-1.2879,.6866-1.8909v-22.878c-11.9735-3.6645-24.8856-4.9281-38.0964-3.2821-50.2441,6.2578-86.0312,52.2246-79.7754,102.4707,.0292,.2341,.0724,.4628,.1034,.6962Z"/>
          </g>
          <path class="cls-7" d="M171.3606,69.6405c-12.9107-1.0081-25.8087-.0838-38.2536,2.3027-12.4529,2.4016-24.4786,6.2166-35.9587,11.0974-3.6167,1.5389-7.4394,3.41-10.9502,5.1615v22.5412c1.0425-.5507,2.3493-1.3065,3.4051-1.8355,4.9913-2.5085,10.1144-4.7754,15.3145-6.7932,10.4014-4.0354,21.1423-7.0442,31.9649-8.7715,10.8213-1.7156,21.7305-2.112,32.3633-.9353,10.636,1.1612,20.9597,3.9612,30.645,8.2339l9.3397-22.1081c-12.1006-4.8897-24.9654-7.9078-37.87-8.8931Z"/>
          <path class="cls-11" d="M162.2089,265.4313c-1-.6286,2.8442-4.9251,1.8563-5.576-4.668-3.0686-4.7657-3.3459-9.1134-6.8405-8.6954-6.99-16.6717-14.7874-23.5788-23.2964-6.8964-8.5137-12.6942-17.7632-16.9916-27.5598-4.3125-9.7915-7.0494-20.1324-8.1918-30.6563l-23.816,2.9656c1.8157,12.9243,5.6343,25.5744,11.2334,37.2427,5.5824,11.6853,12.8318,22.393,21.1209,31.9775,4.8578,5.6049,10.5786,11.2847,16.0556,16.1672,3.888,3.4661,9.7765,3.5377,13.9145,6.6521,4.1626,3.1311,7.4466,3.2784,11.837,6.0652,6.9303-2.3872,1.9057-.9574,5.6739-7.1413Z"/>
        </g>
        <circle class="cls-9" cx="173.4998" cy="163.1198" r="56.433"/>
        <path class="cls-10" d="M162.2789,227.0696h.0107c-1.6406-.2901-2.7305-1.8399-2.4404-3.4697h0c.2802-1.6407,1.83-2.7305,3.4599-2.4405h0c1.6397,.2803,2.7305,1.8301,2.4502,3.46h0c-.2597,1.4599-1.5302,2.4902-2.9599,2.4902h0c-.17,0-.3399-.0097-.5205-.04Zm19.0605-2.46c-.29-1.6299,.7998-3.1797,2.4297-3.4697h0c1.6396-.29,3.1904,.7998,3.4805,2.4297h0c.2793,1.6299-.8008,3.1904-2.4405,3.4805h0c-.1699,.0292-.3496,.04-.5195,.04h0c-1.4307,0-2.7002-1.0205-2.9502-2.4805Zm-40.2402-5.2402v.0107h0c-1.4405-.83-1.9297-2.6709-1.0996-4.1006h0c.8193-1.4394,2.6591-1.9296,4.0898-1.0996h.0098c1.4297,.8301,1.9199,2.6602,1.0898,4.0996h0c-.5498,.96-1.5596,1.5-2.5996,1.5h0c-.5098,0-1.0205-.1298-1.4902-.4101Zm60.79-1.1299c-.8301-1.4394-.3398-3.2695,1.0899-4.0996h0c1.4296-.8398,3.2705-.3506,4.1005,1.0898h0c.8291,1.4297,.3399,3.2696-1.0908,4.0996h0c-.4697,.2706-.9892,.4004-1.5,.4004h0c-1.04,0-2.04-.5302-2.5996-1.4902Zm-78.0703-13.3398c-1.0596-1.2598-.8994-3.1602,.3701-4.2198h0c1.2598-1.0703,3.1602-.9101,4.2197,.3594h0c1.0704,1.2705,.9102,3.1602-.3593,4.2305h0c-.5606,.4697-1.25,.7002-1.9307,.7002h0c-.8496,0-1.6992-.3604-2.2998-1.0703Zm95.1904,.2998c-1.2705-1.0596-1.4297-2.96-.3701-4.2295h0c1.0596-1.2705,2.96-1.4307,4.2295-.3604h0c1.2705,1.0596,1.4307,2.9502,.3701,4.2197h0c-.5996,.71-1.4492,1.0704-2.2998,1.0704h0c-.6797,0-1.3701-.2305-1.9297-.7002Zm-106.4902-19.7803c-.5703-1.5596,.2305-3.2793,1.79-3.8496h0c1.5498-.5703,3.2803,.2305,3.8496,1.7803h0c.5606,1.5595-.2392,3.2802-1.79,3.8496h0c-.3398,.1298-.6895,.1904-1.0293,.1904h0c-1.2305,0-2.3799-.7598-2.8203-1.9707Zm118.1504,1.6904c-1.5606-.5595-2.3604-2.2803-1.7901-3.8398h0c.5596-1.5606,2.2793-2.3604,3.8399-1.7998h0c1.5596,.5693,2.3603,2.29,1.79,3.8496h0c-.4404,1.2197-1.5898,1.9697-2.8203,1.9697h0c-.3398,0-.6797-.0498-1.0195-.1797Zm-122.0801-23.8799c0-1.6601,1.3398-3,2.9902-3.0097h0c1.6592,0,3.0098,1.3398,3.0098,3h0c0,1.6494-1.3398,3-3,3h0c-1.6504,.0097-3-1.3399-3-2.9903Zm123.8193-.1103v-.0996h0v-.1006h0c0-1.6494,1.3301-3,2.9903-3.0098h0c1.6601,0,3.0097,1.3399,3.0097,2.9903h0v.1201h0v.0996h0c0,1.6601-1.3398,3-3,3h0c-1.6591,0-3-1.3399-3-3Zm-118.1591-18.2598c-1.5606-.5595-2.3702-2.2803-1.8008-3.8398h0c.5605-1.5606,2.2803-2.3604,3.8408-1.7998h0c1.5596,.5595,2.3594,2.29,1.7998,3.8398h0c-.4404,1.2197-1.6006,1.9795-2.8203,1.9795h0c-.3399,0-.6895-.0596-1.0195-.1797Zm114.5595-2.0703c-.5703-1.5498,.2305-3.2793,1.7803-3.8496h0c1.5596-.5703,3.2793,.2295,3.8496,1.7803h0c.5801,1.5595-.2197,3.2793-1.7803,3.8496h0c-.3398,.1299-.6894,.1904-1.0293,.1904h0c-1.2207,0-2.3701-.75-2.8203-1.9707Zm-104.7402-17.0801c-1.2695-1.0595-1.4395-2.9492-.3799-4.2197h0c1.0703-1.2695,2.96-1.4394,4.2305-.3799h0c1.2695,1.0703,1.4394,2.96,.3799,4.2305h0c-.6006,.71-1.4502,1.0693-2.3106,1.0693h0c-.6797,0-1.3594-.2295-1.9199-.7002Zm94.4502-.5898c-1.0703-1.2598-.9102-3.1494,.3603-4.2197h0c1.2598-1.0704,3.1602-.92,4.2295,.3496h0c1.0703,1.2705,.9102,3.1601-.3593,4.2304h0c-.5606,.4795-1.25,.71-1.9307,.71h0c-.8594,0-1.7002-.3604-2.2998-1.0703Zm-78.6895-14.0498c-.83-1.4395-.3408-3.2695,1.0899-4.1104h0c1.4297-.8291,3.2695-.3398,4.0996,1.0909h0c.8301,1.4296,.3398,3.2695-1.0899,4.0996h0c-.4697,.2802-.9902,.4101-1.5,.4101h0c-1.0302,0-2.04-.54-2.5996-1.4902Zm62.9893,.9404h0c-1.4395-.8301-1.9297-2.6601-1.0996-4.1006h0c.8203-1.4297,2.6494-1.9297,4.0898-1.0996h0c1.4405,.8203,1.9297,2.6602,1.1104,4.0996h0c-.5606,.96-1.5703,1.5-2.6104,1.5h0c-.5,0-1.0195-.1299-1.4902-.3994Zm-43.1699-9.3203c-.2901-1.6299,.7998-3.1904,2.4306-3.4805h0c1.6299-.29,3.1895,.8008,3.4795,2.4307h0c.2901,1.6299-.7998,3.1894-2.4297,3.4795h0c-.1806,.0303-.3505,.04-.5302,.04h0c-1.4297,0-2.6905-1.0195-2.9502-2.4697Zm23.9404,2.3799c-1.6406-.2803-2.7305-1.8301-2.4502-3.4697h0c.2803-1.6299,1.8301-2.7305,3.4697-2.4405h0c1.6299,.2803,2.7207,1.8301,2.4405,3.46h0c-.25,1.4599-1.5205,2.4902-2.9502,2.4902h0c-.17,0-.3399-.0097-.5098-.04Z"/>
        <path class="cls-2" d="M173.4996,194.3137c-17.2002,0-31.1934-13.9941-31.1934-31.1943s13.9932-31.1934,31.1934-31.1934,31.1943,13.9932,31.1943,31.1934-13.9941,31.1943-31.1943,31.1943Zm0-53.3877c-12.2373,0-22.1934,9.9561-22.1934,22.1934s9.9561,22.1943,22.1934,22.1943,22.1943-9.956,22.1943-22.1943-9.9561-22.1934-22.1943-22.1934Z"/>
        <circle class="cls-2" cx="173.4999" cy="163.1198" r="10.7808"/>
        <rect class="cls-2" x="168.9995" y="113.2083" width="9" height="23.2177"/>
        <rect class="cls-2" x="135.8288" y="132.36" width="9.0007" height="23.2169" transform="translate(-54.5157 193.5134) rotate(-60.0002)"/>
        <rect class="cls-2" x="128.7206" y="177.771" width="23.2169" height="9.0006" transform="translate(-72.3318 94.5763) rotate(-29.9979)"/>
        <rect class="cls-2" x="168.9995" y="189.8137" width="9" height="23.2178"/>
        <rect class="cls-2" x="202.1706" y="170.6628" width="9.0006" height="23.2169" transform="translate(-54.5158 270.1188) rotate(-60.0002)"/>
        <rect class="cls-2" x="195.0624" y="139.4682" width="23.2169" height="9.0007" transform="translate(-44.2947 122.6128) rotate(-29.9975)"/>
        <g class="cls-3">
          <path class="cls-4" d="M264.6183,151.7734v.001c-4.6563-37.3938-31.3094-66.7597-65.3515-76.7649v25.3987c21.8634,9.0258,38.4104,29.2323,41.5351,54.3311v.0009c2.2393,17.9776-2.6572,35.752-13.7871,50.0469-2.7789,3.5698-5.8854,6.785-9.2344,9.6738,4.6823,6.5295,9.257,13.1431,13.8644,19.7331,5.2381-4.2924,10.0445-9.1869,14.3075-14.6627,15.0684-19.3545,21.6973-43.418,18.666-67.7579Z"/>
        </g>
        <path class="cls-5" d="M262.6442,110.6378c-.0386,2.3071-.1145,4.6213-.2517,6.9368-.3233,5.5766-.9217,11.1469-1.7742,16.6594-1.706,11.0254-4.4706,21.8318-8.3861,32.0681-3.9248,10.2293-9.0361,19.875-15.3717,28.4951-6.3235,8.6304-13.9103,16.1709-22.4531,22.4224l14.4763,19.1426c10.2849-8.0347,19.331-17.667,26.6365-28.3501,7.3285-10.677,12.9769-22.3091,17.1327-34.2798,4.1467-11.9854,6.8554-24.3074,8.3687-36.69,.7552-6.1943,1.2205-12.4067,1.382-18.6372,.0697-2.5832,.0719-5.1716,.0318-7.7673h-19.7912Z"/>
        <g>
          <path class="cls-13" d="M262.6628,105.332h0c.0274,1.2928,.0376,2.5982,.0271,3.9088-.022,2.7727-.116,5.5622-.2811,8.3501-.1535,2.6477-.3736,5.2934-.6488,7.9328h20.3304c.1487-2.3651,.2681-4.7319,.3295-7.1023,.084-3.1154,.0897-6.2353,.0137-9.3711-.038-1.5683-.0977-3.1398-.1852-4.7265l-.1536-2.3985-.0976-1.227-.1296-1.366-.0002-.0012s-.6608-2.6069-1.2703-6.4231c-27.0225-27.2945-65.3441-21.1897-65.3441-21.1897,0,0,31.2781,7.9822,47.4098,33.6137Z"/>
          <path class="cls-14" d="M86.198,88.2021c-2.2258,1.1002-4.4362,2.2308-6.6191,3.4169-2.7402,1.4851-5.4448,3.04-8.1223,4.6736-1.3394,.8171-2.6704,1.6545-4.0007,2.5236l-2.0005,1.3323-1.0137,.698-1.1184,.7952-.001,.001-4.9272,4.3115c-9.1836,41.0344,14.3213,67.1846,14.3213,67.1846,0,0-8.3746-31.7933,5.4052-57.865,1.106-.67,2.2312-1.3316,3.3716-1.9778,1.5469-.877,3.1206-1.7227,4.7048-2.5527l4.4351-15.4532-4.4351-7.088Z"/>
          <path class="cls-12" d="M179.6617,269.0904l-.6751,.1402c-1.1332-.6228-2.269-1.2666-3.3987-1.9309-2.3902-1.4055-4.7592-2.8819-7.0908-4.4185-1.4943-.9824-2.9679-1.9969-4.4318-3.0259h-33.2817c3.7307,3.3008,7.581,6.4457,11.5393,9.4251,4.9869,3.7512,10.1344,7.2605,15.4493,10.5156,2.6563,1.6304,5.3552,3.1953,8.1088,4.6973,1.3772,.7512,2.768,1.4853,4.1859,2.2029l2.1539,1.0664,1.1116,.5288,1.2475,.5708,.0014,.0005,6.1975,2.1113h.0001c39.5233-13.8768,51.0228-45.9949,51.0228-45.9949,0,0-16.5865,18.4224-52.14,24.1113Z"/>
        </g>
        <rect class="cls-2" x="172.6708" y="159.9095" width="65.738" height="6.2101"/>
      </g>
    </g>
  </g>
</svg>