<?xml version="1.0" encoding="UTF-8"?>
<svg width="218px" height="212px" viewBox="0 0 218 212" version="1.1" xmlns="http://www.w3.org/2000/svg" xmlns:xlink="http://www.w3.org/1999/xlink">
    <title>Archethic Logo Alone - Blue</title>
    <g id="Validated-logos" stroke="none" stroke-width="1" fill="none" fill-rule="evenodd">
        <g id="Validated-Logo" transform="translate(-218.000000, -1309.000000)" fill="#00A4DB" fill-rule="nonzero">
            <g id="Archethic-Logo-Alone---Blue" transform="translate(218.000000, 1309.000000)">
                <path d="M184.84367,70.42332 C175.9033,97.11759 153.89265,117.23239 129.76382,130.46017 C116.69521,137.48394 102.47683,142.36217 87.84614,144.828 C93.56945,153.99777 101.69764,161.22175 110.22153,167.70366 C141.32229,158.61536 170.08732,140.55504 190.85936,115.58528 C211.19111,90.60207 221.13149,57.12955 216.82029,25.12556 C192.75541,6.328682 161.03922,-2.086189 130.80064,1.847163 C152.7819,10.81916 172.93229,24.27562 189.60575,41.18085 C189.68865,51.10507 188.06581,61.03695 184.84367,70.42332 L184.84367,70.42332 Z" id="path3751"></path>
                <path d="M85.94327,160.78226 C67.22477,139.75533 60.71234,110.65787 61.22871,83.1459 C61.63041,68.31483 64.46536,53.55263 69.59847,39.63184 C58.79685,40.03979 48.4882,43.50168 38.62671,47.6758 C31.05287,79.17964 32.42509,113.11661 43.76587,143.55267 C55.33718,173.61337 79.44008,198.87738 109.35302,211.04532 C137.62542,199.50789 160.69268,176.17064 172.31093,147.97738 C153.59934,162.59068 131.90664,173.38615 108.94981,179.45035 C100.29735,174.58911 92.48614,168.24395 85.94327,160.78226 Z" id="path4564"></path>
                <path d="M57.19591,30.1973 C84.78068,24.57637 113.21127,33.56386 136.73977,47.83218 C149.36147,55.63055 160.70118,65.49819 170.1588,76.93021 C175.23273,67.38577 177.41846,56.73327 178.7637,46.1096 C155.32932,23.73362 125.2967,7.870352 93.28296,2.385131 C61.47796,-2.712177 27.52456,5.435628 1.975601,25.1864 C-2.252573,55.42815 6.336843,87.09752 24.8769,111.30721 C21.642275,87.78681 23.20637,63.60689 29.4964,40.7109 C38.04658,35.67191 47.45714,32.10581 57.19591,30.1973 Z" id="path3728"></path>
            </g>
        </g>
    </g>
</svg>