<?xml version="1.0" encoding="UTF-8"?>
<svg width="822px" height="118px" viewBox="0 0 822 118" version="1.1" xmlns="http://www.w3.org/2000/svg" xmlns:xlink="http://www.w3.org/1999/xlink">
    <title>Archethic Technologies - Colored - Outlines</title>
    <defs>
        <linearGradient x1="4.04232395%" y1="70.2946817%" x2="62.7200315%" y2="19.3357929%" id="linearGradient-1">
            <stop stop-color="#00A4DB" offset="0%"></stop>
            <stop stop-color="#CC00FF" offset="100%"></stop>
        </linearGradient>
        <linearGradient x1="-8.15998999%" y1="50.3615269%" x2="66.0973524%" y2="49.4537517%" id="linearGradient-2">
            <stop stop-color="#00A4DB" offset="0%"></stop>
            <stop stop-color="#CC00FF" offset="100%"></stop>
        </linearGradient>
        <linearGradient x1="-8.15998999%" y1="50.7556956%" x2="66.0973524%" y2="48.8581834%" id="linearGradient-3">
            <stop stop-color="#00A4DB" offset="0%"></stop>
            <stop stop-color="#CC00FF" offset="100%"></stop>
        </linearGradient>
        <linearGradient x1="-8.15998999%" y1="51.0711727%" x2="66.0973524%" y2="48.3815139%" id="linearGradient-4">
            <stop stop-color="#00A4DB" offset="0%"></stop>
            <stop stop-color="#CC00FF" offset="100%"></stop>
        </linearGradient>
        <linearGradient x1="50%" y1="0%" x2="50%" y2="100%" id="linearGradient-5">
            <stop stop-color="#00A4DB" offset="0%"></stop>
            <stop stop-color="#CC00FF" offset="100%"></stop>
        </linearGradient>
        <path d="M53.6306435,59.2177734 C54.3945169,58.0283203 54.4935375,56.7963867 53.9277054,55.5219727 L30.6720044,2.33642578 C29.9930058,0.778808594 28.8047583,0 27.1072619,0 C25.438057,0 24.2639554,0.778808594 23.5849568,2.33642578 L0.329255772,55.5219727 C-0.0951183341,56.5131836 -0.109264138,57.5043945 0.286818361,58.4956055 C0.654609253,59.4868164 1.33360782,60.1948242 2.32381407,60.6196289 C2.833063,60.8461914 3.35645773,60.9594727 3.89399826,60.9594727 C5.56320308,60.9594727 6.73730477,60.1806641 7.41630334,58.6230469 L27.1072619,13.5512695 L44.4641628,53.1855469 L21.5903985,53.1855469 C20.5153174,53.1855469 19.5958402,53.5678711 18.8319668,54.3325195 C18.096385,55.097168 17.7285941,56.0175781 17.7285941,57.09375 C17.7285941,58.1416016 18.096385,59.0478516 18.8319668,59.8125 C19.5958402,60.5771484 20.5153174,60.9594727 21.5903985,60.9594727 L50.3629629,60.9594727 C51.7775432,60.9594727 52.8667701,60.3789063 53.6306435,59.2177734 Z" id="path-6"></path>
        <linearGradient x1="50%" y1="0%" x2="50%" y2="100%" id="linearGradient-7">
            <stop stop-color="#00A4DB" offset="0%"></stop>
            <stop stop-color="#CC00FF" offset="100%"></stop>
        </linearGradient>
        <path d="M72.9198612,60.9594727 C73.9949423,60.9594727 74.9144195,60.5771484 75.6782929,59.8125 C76.4421663,59.0761719 76.824103,58.1699219 76.824103,57.09375 L76.824103,39.7617188 L88.7490153,39.7617188 L107.124414,59.7275391 C107.888288,60.5488281 108.836056,60.9594727 109.967721,60.9594727 C110.986219,60.9594727 111.863258,60.6196289 112.59884,59.9399414 C113.391005,59.2036133 113.815379,58.2973633 113.871962,57.2211914 C113.900254,56.1733398 113.546609,55.2529297 112.811027,54.4599609 L98.636932,39.0395508 C102.880673,37.878418 106.360541,35.5419922 109.076535,32.0302734 C111.849113,28.4619141 113.235401,24.4121094 113.235401,19.8808594 C113.235401,14.4150391 111.297426,9.72802734 107.421476,5.81982422 C103.545526,1.93994141 98.8632649,0 93.3746931,0 L72.9198612,0 C71.8447801,0 70.9394487,0.382324219 70.2038669,1.14697266 C69.4399935,1.91162109 69.0580568,2.81787109 69.0580568,3.86572266 C69.0580568,4.94189453 69.4399935,5.86230469 70.2038669,6.62695313 C70.9394487,7.39160156 71.8447801,7.77392578 72.9198612,7.77392578 L93.3746931,7.77392578 C96.7131027,7.77392578 99.5705551,8.94921875 101.94705,11.2998047 C104.295253,13.6787109 105.469355,16.5390625 105.469355,19.8808594 C105.469355,23.2226562 104.295253,26.0830078 101.94705,28.4619141 C99.5705551,30.8125 96.7131027,31.987793 93.3746931,31.987793 L72.9198612,31.987793 C71.8447801,31.987793 70.9394487,32.3701172 70.2038669,33.1347656 C69.4399935,33.8994141 69.0580568,34.8198242 69.0580568,35.8959961 L69.0580568,57.09375 C69.0580568,58.1699219 69.4399935,59.0761719 70.2038669,59.8125 C70.9394487,60.5771484 71.8447801,60.9594727 72.9198612,60.9594727 Z" id="path-8"></path>
        <linearGradient x1="50%" y1="0%" x2="50%" y2="100%" id="linearGradient-9">
            <stop stop-color="#00A4DB" offset="0%"></stop>
            <stop stop-color="#CC00FF" offset="100%"></stop>
        </linearGradient>
        <path d="M158.623626,60.9594727 C167.054525,60.9594727 174.240594,57.9858398 180.181831,52.0385742 C180.945704,51.2739258 181.327641,50.3535156 181.327641,49.2773438 C181.327641,48.2011719 180.945704,47.2949219 180.181831,46.5585938 C179.417958,45.7939453 178.49848,45.4116211 177.423399,45.4116211 C176.348318,45.4116211 175.442987,45.7939453 174.707405,46.5585938 C170.265623,50.9765625 164.904363,53.1855469 158.623626,53.1855469 C152.371181,53.1855469 147.024068,50.9765625 142.582285,46.5585938 C138.168795,42.1123047 135.962049,36.7597656 135.962049,30.5009766 C135.962049,24.2138672 138.168795,18.847168 142.582285,14.4008789 C147.024068,9.98291016 152.371181,7.77392578 158.623626,7.77392578 C164.904363,7.77392578 170.265623,9.98291016 174.707405,14.4008789 C175.442987,15.1655273 176.348318,15.5478516 177.423399,15.5478516 C178.49848,15.5478516 179.417958,15.1655273 180.181831,14.4008789 C180.945704,13.6645508 181.327641,12.7583008 181.327641,11.6821289 C181.327641,10.605957 180.945704,9.68554688 180.181831,8.92089844 C174.240594,2.97363281 167.054525,0 158.623626,0 C150.221019,0 143.049097,2.97363281 137.107859,8.92089844 C131.166622,14.8681641 128.196003,22.0615234 128.196003,30.5009766 C128.196003,38.9121094 131.166622,46.0913086 137.107859,52.0385742 C143.049097,57.9858398 150.221019,60.9594727 158.623626,60.9594727 Z" id="path-10"></path>
        <linearGradient x1="50%" y1="0%" x2="50%" y2="100%" id="linearGradient-11">
            <stop stop-color="#00A4DB" offset="0%"></stop>
            <stop stop-color="#CC00FF" offset="100%"></stop>
        </linearGradient>
        <path d="M199.471049,60.9594727 C200.54613,60.9594727 201.465607,60.5771484 202.22948,59.8125 C202.993354,59.0761719 203.375291,58.1699219 203.375291,57.09375 L203.375291,34.3666992 L234.3546,34.3666992 L234.3546,57.09375 C234.3546,58.1699219 234.736537,59.0761719 235.50041,59.8125 C236.264284,60.5771484 237.169615,60.9594727 238.216405,60.9594727 C239.291486,60.9594727 240.210963,60.5771484 240.974836,59.8125 C241.73871,59.0761719 242.120646,58.1699219 242.120646,57.09375 L242.120646,3.86572266 C242.120646,2.81787109 241.73871,1.91162109 240.974836,1.14697266 C240.210963,0.382324219 239.291486,0 238.216405,0 C237.169615,0 236.264284,0.382324219 235.50041,1.14697266 C234.736537,1.91162109 234.3546,2.81787109 234.3546,3.86572266 L234.3546,26.5927734 L203.375291,26.5927734 L203.375291,3.86572266 C203.375291,2.81787109 202.993354,1.91162109 202.22948,1.14697266 C201.465607,0.382324219 200.54613,0 199.471049,0 C198.395968,0 197.490636,0.382324219 196.755054,1.14697266 C195.991181,1.91162109 195.609244,2.81787109 195.609244,3.86572266 L195.609244,57.09375 C195.609244,58.1699219 195.991181,59.0761719 196.755054,59.8125 C197.490636,60.5771484 198.395968,60.9594727 199.471049,60.9594727 Z" id="path-12"></path>
        <linearGradient x1="50%" y1="0%" x2="50%" y2="100%" id="linearGradient-13">
            <stop stop-color="#00A4DB" offset="0%"></stop>
            <stop stop-color="#CC00FF" offset="100%"></stop>
        </linearGradient>
        <path d="M300.706906,57.09375 C300.706906,56.0175781 300.32497,55.097168 299.561096,54.3325195 C298.797223,53.5678711 297.877746,53.1855469 296.802665,53.1855469 L260.264054,53.1855469 C259.188973,53.1855469 258.283642,53.5678711 257.54806,54.3325195 C256.784186,55.097168 256.40225,56.0175781 256.40225,57.09375 C256.40225,58.1699219 256.784186,59.0761719 257.54806,59.8125 C258.283642,60.5771484 259.188973,60.9594727 260.264054,60.9594727 L296.802665,60.9594727 C297.877746,60.9594727 298.797223,60.5771484 299.561096,59.8125 C300.32497,59.0761719 300.706906,58.1699219 300.706906,57.09375 Z M260.264054,0 C259.188973,0 258.283642,0.382324219 257.54806,1.14697266 C256.784186,1.91162109 256.40225,2.81787109 256.40225,3.86572266 C256.40225,4.94189453 256.784186,5.86230469 257.54806,6.62695312 C258.283642,7.39160156 259.188973,7.77392578 260.264054,7.77392578 L296.802665,7.77392578 C297.877746,7.77392578 298.797223,7.39160156 299.561096,6.62695312 C300.32497,5.86230469 300.706906,4.94189453 300.706906,3.86572266 C300.706906,2.81787109 300.32497,1.91162109 299.561096,1.14697266 C298.797223,0.382324219 297.877746,0 296.802665,0 L260.264054,0 Z M260.264054,26.5927734 C259.188973,26.5927734 258.283642,26.9750977 257.54806,27.7397461 C256.784186,28.5043945 256.40225,29.4248047 256.40225,30.5009766 C256.40225,31.5488281 256.784186,32.4550781 257.54806,33.2197266 C258.283642,33.984375 259.188973,34.3666992 260.264054,34.3666992 L296.802665,34.3666992 C297.877746,34.3666992 298.797223,33.984375 299.561096,33.2197266 C300.32497,32.4550781 300.706906,31.5488281 300.706906,30.5009766 C300.706906,29.4248047 300.32497,28.5043945 299.561096,27.7397461 C298.797223,26.9750977 297.877746,26.5927734 296.802665,26.5927734 L260.264054,26.5927734 Z" id="path-14"></path>
        <linearGradient x1="50%" y1="0%" x2="50%" y2="100%" id="linearGradient-15">
            <stop stop-color="#00A4DB" offset="0%"></stop>
            <stop stop-color="#CC00FF" offset="100%"></stop>
        </linearGradient>
        <path d="M335.485779,7.77392578 L335.485779,57.09375 C335.485779,58.1699219 335.85357,59.0761719 336.589152,59.8125 C337.353025,60.5771484 338.272502,60.9594727 339.347583,60.9594727 C340.422664,60.9594727 341.342142,60.5771484 342.106015,59.8125 C342.841597,59.0761719 343.209388,58.1699219 343.209388,57.09375 L343.209388,7.77392578 L359.844853,7.77392578 C360.891642,7.77392578 361.796974,7.39160156 362.560847,6.62695313 C363.32472,5.86230469 363.706657,4.94189453 363.706657,3.86572266 C363.706657,2.81787109 363.32472,1.91162109 362.560847,1.14697266 C361.796974,0.382324219 360.891642,0 359.844853,0 L318.850314,0 C317.775233,0 316.869901,0.382324219 316.13432,1.14697266 C315.370446,1.91162109 314.98851,2.81787109 314.98851,3.86572266 C314.98851,4.94189453 315.370446,5.86230469 316.13432,6.62695313 C316.869901,7.39160156 317.775233,7.77392578 318.850314,7.77392578 L335.485779,7.77392578 Z" id="path-16"></path>
        <path d="M381.850065,60.9594727 C382.925146,60.9594727 383.844623,60.5771484 384.608496,59.8125 C385.37237,59.0761719 385.754306,58.1699219 385.754306,57.09375 L385.754306,34.3666992 L416.733616,34.3666992 L416.733616,57.09375 C416.733616,58.1699219 417.115553,59.0761719 417.879426,59.8125 C418.6433,60.5771484 419.548631,60.9594727 420.59542,60.9594727 C421.670502,60.9594727 422.589979,60.5771484 423.353852,59.8125 C424.117726,59.0761719 424.499662,58.1699219 424.499662,57.09375 L424.499662,3.86572266 C424.499662,2.81787109 424.117726,1.91162109 423.353852,1.14697266 C422.589979,0.382324219 421.670502,0 420.59542,0 C419.548631,0 418.6433,0.382324219 417.879426,1.14697266 C417.115553,1.91162109 416.733616,2.81787109 416.733616,3.86572266 L416.733616,26.5927734 L385.754306,26.5927734 L385.754306,3.86572266 C385.754306,2.81787109 385.37237,1.91162109 384.608496,1.14697266 C383.844623,0.382324219 382.925146,0 381.850065,0 C380.774984,0 379.869652,0.382324219 379.13407,1.14697266 C378.370197,1.91162109 377.98826,2.81787109 377.98826,3.86572266 L377.98826,57.09375 C377.98826,58.1699219 378.370197,59.0761719 379.13407,59.8125 C379.869652,60.5771484 380.774984,60.9594727 381.850065,60.9594727 Z" id="path-17"></path>
        <linearGradient x1="50%" y1="0%" x2="50%" y2="100%" id="linearGradient-18">
            <stop stop-color="#00A4DB" offset="0%"></stop>
            <stop stop-color="#CC00FF" offset="100%"></stop>
        </linearGradient>
        <path d="M442.64307,60.9594727 C443.718151,60.9594727 444.637628,60.5771484 445.401502,59.8125 C446.165375,59.0761719 446.547312,58.1699219 446.547312,57.09375 L446.547312,3.86572266 C446.547312,2.81787109 446.165375,1.91162109 445.401502,1.14697266 C444.637628,0.382324219 443.718151,0 442.64307,0 C441.567989,0 440.662657,0.382324219 439.927076,1.14697266 C439.163202,1.91162109 438.781266,2.81787109 438.781266,3.86572266 L438.781266,57.09375 C438.781266,58.1699219 439.163202,59.0761719 439.927076,59.8125 C440.662657,60.5771484 441.567989,60.9594727 442.64307,60.9594727 Z" id="path-19"></path>
        <path d="M491.256538,60.9594727 C499.687437,60.9594727 506.873505,57.9858398 512.814743,52.0385742 C513.578616,51.2739258 513.960553,50.3535156 513.960553,49.2773438 C513.960553,48.2011719 513.578616,47.2949219 512.814743,46.5585938 C512.050869,45.7939453 511.131392,45.4116211 510.056311,45.4116211 C508.98123,45.4116211 508.075899,45.7939453 507.340317,46.5585938 C502.898535,50.9765625 497.537275,53.1855469 491.256538,53.1855469 C485.004093,53.1855469 479.656979,50.9765625 475.215197,46.5585938 C470.801706,42.1123047 468.594961,36.7597656 468.594961,30.5009766 C468.594961,24.2138672 470.801706,18.847168 475.215197,14.4008789 C479.656979,9.98291016 485.004093,7.77392578 491.256538,7.77392578 C497.537275,7.77392578 502.898535,9.98291016 507.340317,14.4008789 C508.075899,15.1655273 508.98123,15.5478516 510.056311,15.5478516 C511.131392,15.5478516 512.050869,15.1655273 512.814743,14.4008789 C513.578616,13.6645508 513.960553,12.7583008 513.960553,11.6821289 C513.960553,10.605957 513.578616,9.68554688 512.814743,8.92089844 C506.873505,2.97363281 499.687437,0 491.256538,0 C482.853931,0 475.682009,2.97363281 469.740771,8.92089844 C463.799534,14.8681641 460.828915,22.0615234 460.828915,30.5009766 C460.828915,38.9121094 463.799534,46.0913086 469.740771,52.0385742 C475.682009,57.9858398 482.853931,60.9594727 491.256538,60.9594727 Z" id="path-20"></path>
        <linearGradient x1="50%" y1="0%" x2="50%" y2="100%" id="linearGradient-21">
            <stop stop-color="#00A4DB" offset="0%"></stop>
            <stop stop-color="#CC00FF" offset="100%"></stop>
        </linearGradient>
        <path d="M14.8428502,5.66142043 L14.8428502,41.3757759 C14.8428502,42.1550728 15.1091815,42.8113228 15.6418442,43.3445259 C16.1949939,43.8982368 16.8608222,44.1750923 17.6393292,44.1750923 C18.4178362,44.1750923 19.0836645,43.8982368 19.6368142,43.3445259 C20.1694769,42.8113228 20.4358082,42.1550728 20.4358082,41.3757759 L20.4358082,5.66142043 L32.4821794,5.66142043 C33.2401994,5.66142043 33.8957842,5.38456496 34.4489339,4.83085402 C35.0020836,4.27714309 35.2786584,3.61063918 35.2786584,2.83134231 C35.2786584,2.07255324 35.0020836,1.41630324 34.4489339,0.862592305 C33.8957842,0.308881368 33.2401994,0.032025899 32.4821794,0.032025899 L2.79647902,0.032025899 C2.01797204,0.032025899 1.36238722,0.308881368 0.829724545,0.862592305 C0.276574848,1.41630324 0,2.07255324 0,2.83134231 C0,3.61063918 0.276574848,4.27714309 0.829724545,4.83085402 C1.36238722,5.38456496 2.01797204,5.66142043 2.79647902,5.66142043 L14.8428502,5.66142043 Z" id="path-22"></path>
        <linearGradient x1="50%" y1="0%" x2="50%" y2="100%" id="linearGradient-23">
            <stop stop-color="#00A4DB" offset="0%"></stop>
            <stop stop-color="#CC00FF" offset="100%"></stop>
        </linearGradient>
        <path d="M77.7031915,41.3757759 C77.7031915,40.596479 77.4266166,39.9299751 76.8734669,39.3762642 C76.3203172,38.8225532 75.6544889,38.5456978 74.8759819,38.5456978 L48.4169881,38.5456978 C47.6384811,38.5456978 46.9828963,38.8225532 46.4502336,39.3762642 C45.8970839,39.9299751 45.6205091,40.596479 45.6205091,41.3757759 C45.6205091,42.1550728 45.8970839,42.8113228 46.4502336,43.3445259 C46.9828963,43.8982368 47.6384811,44.1750923 48.4169881,44.1750923 L74.8759819,44.1750923 C75.6544889,44.1750923 76.3203172,43.8982368 76.8734669,43.3445259 C77.4266166,42.8113228 77.7031915,42.1550728 77.7031915,41.3757759 Z M48.4169881,0.032025899 C47.6384811,0.032025899 46.9828963,0.308881368 46.4502336,0.862592305 C45.8970839,1.41630324 45.6205091,2.07255324 45.6205091,2.83134231 C45.6205091,3.61063918 45.8970839,4.27714309 46.4502336,4.83085402 C46.9828963,5.38456496 47.6384811,5.66142043 48.4169881,5.66142043 L74.8759819,5.66142043 C75.6544889,5.66142043 76.3203172,5.38456496 76.8734669,4.83085402 C77.4266166,4.27714309 77.7031915,3.61063918 77.7031915,2.83134231 C77.7031915,2.07255324 77.4266166,1.41630324 76.8734669,0.862592305 C76.3203172,0.308881368 75.6544889,0.032025899 74.8759819,0.032025899 L48.4169881,0.032025899 Z M48.4169881,19.2888618 C47.6384811,19.2888618 46.9828963,19.5657173 46.4502336,20.1194282 C45.8970839,20.6731392 45.6205091,21.3396431 45.6205091,22.11894 C45.6205091,22.877729 45.8970839,23.533979 46.4502336,24.08769 C46.9828963,24.6414009 47.6384811,24.9182564 48.4169881,24.9182564 L74.8759819,24.9182564 C75.6544889,24.9182564 76.3203172,24.6414009 76.8734669,24.08769 C77.4266166,23.533979 77.7031915,22.877729 77.7031915,22.11894 C77.7031915,21.3396431 77.4266166,20.6731392 76.8734669,20.1194282 C76.3203172,19.5657173 75.6544889,19.2888618 74.8759819,19.2888618 L48.4169881,19.2888618 Z" id="path-24"></path>
        <linearGradient x1="50%" y1="0%" x2="50%" y2="100%" id="linearGradient-25">
            <stop stop-color="#00A4DB" offset="0%"></stop>
            <stop stop-color="#CC00FF" offset="100%"></stop>
        </linearGradient>
        <path d="M110.078838,44.1750923 C116.183972,44.1750923 121.387677,42.021772 125.689952,37.7151314 C126.243102,37.1614204 126.519677,36.4949165 126.519677,35.7156196 C126.519677,34.9363228 126.243102,34.2800728 125.689952,33.7468696 C125.136802,33.1931587 124.470974,32.9163032 123.692467,32.9163032 C122.91396,32.9163032 122.258375,33.1931587 121.725713,33.7468696 C118.509249,36.9460884 114.626958,38.5456978 110.078838,38.5456978 C105.551206,38.5456978 101.679158,36.9460884 98.4626947,33.7468696 C95.2667187,30.5271431 93.6687307,26.6511665 93.6687307,22.11894 C93.6687307,17.5662056 95.2667187,13.6799751 98.4626947,10.4602486 C101.679158,7.26102981 105.551206,5.66142043 110.078838,5.66142043 C114.626958,5.66142043 118.509249,7.26102981 121.725713,10.4602486 C122.258375,11.0139595 122.91396,11.290815 123.692467,11.290815 C124.470974,11.290815 125.136802,11.0139595 125.689952,10.4602486 C126.243102,9.92704543 126.519677,9.27079543 126.519677,8.49149856 C126.519677,7.71220168 126.243102,7.04569777 125.689952,6.49198684 C121.387677,2.18534621 116.183972,0.032025899 110.078838,0.032025899 C103.994192,0.032025899 98.8007307,2.18534621 94.4984552,6.49198684 C90.1961798,10.7986275 88.0450421,16.0076118 88.0450421,22.11894 C88.0450421,28.2097603 90.1961798,33.4084907 94.4984552,37.7151314 C98.8007307,42.021772 103.994192,44.1750923 110.078838,44.1750923 Z" id="path-26"></path>
        <linearGradient x1="50%" y1="0%" x2="50%" y2="100%" id="linearGradient-27">
            <stop stop-color="#00A4DB" offset="0%"></stop>
            <stop stop-color="#CC00FF" offset="100%"></stop>
        </linearGradient>
        <path d="M139.658006,44.1750923 C140.436513,44.1750923 141.102342,43.8982368 141.655491,43.3445259 C142.208641,42.8113228 142.485216,42.1550728 142.485216,41.3757759 L142.485216,24.9182564 L164.918509,24.9182564 L164.918509,41.3757759 C164.918509,42.1550728 165.195084,42.8113228 165.748234,43.3445259 C166.301383,43.8982368 166.956968,44.1750923 167.714988,44.1750923 C168.493495,44.1750923 169.159323,43.8982368 169.712473,43.3445259 C170.265623,42.8113228 170.542198,42.1550728 170.542198,41.3757759 L170.542198,2.83134231 C170.542198,2.07255324 170.265623,1.41630324 169.712473,0.862592305 C169.159323,0.308881368 168.493495,0.032025899 167.714988,0.032025899 C166.956968,0.032025899 166.301383,0.308881368 165.748234,0.862592305 C165.195084,1.41630324 164.918509,2.07255324 164.918509,2.83134231 L164.918509,19.2888618 L142.485216,19.2888618 L142.485216,2.83134231 C142.485216,2.07255324 142.208641,1.41630324 141.655491,0.862592305 C141.102342,0.308881368 140.436513,0.032025899 139.658006,0.032025899 C138.879499,0.032025899 138.223914,0.308881368 137.691252,0.862592305 C137.138102,1.41630324 136.861527,2.07255324 136.861527,2.83134231 L136.861527,41.3757759 C136.861527,42.1550728 137.138102,42.8113228 137.691252,43.3445259 C138.223914,43.8982368 138.879499,44.1750923 139.658006,44.1750923 Z" id="path-28"></path>
        <linearGradient x1="50%" y1="0%" x2="50%" y2="100%" id="linearGradient-29">
            <stop stop-color="#00A4DB" offset="0%"></stop>
            <stop stop-color="#CC00FF" offset="100%"></stop>
        </linearGradient>
        <path d="M183.680527,44.1750923 C184.459034,44.1750923 185.124863,43.8982368 185.678012,43.3445259 C186.231162,42.8113228 186.507737,42.1550728 186.507737,41.3757759 L186.507737,11.0754829 L211.122898,43.0676704 C211.696535,43.8059517 212.444312,44.1750923 213.366228,44.1750923 C213.673533,44.1750923 213.970595,44.1238228 214.257413,44.0212837 C215.527609,43.5906196 216.162707,42.7087837 216.162707,41.3757759 L216.162707,2.83134231 C216.162707,2.07255324 215.886132,1.41630324 215.332982,0.862592305 C214.779832,0.308881368 214.124248,0.032025899 213.366228,0.032025899 C212.587721,0.032025899 211.921892,0.308881368 211.368743,0.862592305 C210.815593,1.41630324 210.539018,2.07255324 210.539018,2.83134231 L210.539018,33.1316353 L185.923857,1.13944777 C185.104376,0.073041524 184.059537,-0.24482957 182.789342,0.185834493 C181.519146,0.616498555 180.884048,1.49833449 180.884048,2.83134231 L180.884048,41.3757759 C180.884048,42.1550728 181.160623,42.8113228 181.713773,43.3445259 C182.246435,43.8982368 182.90202,44.1750923 183.680527,44.1750923 Z" id="path-30"></path>
        <linearGradient x1="50%" y1="0%" x2="50%" y2="100%" id="linearGradient-31">
            <stop stop-color="#00A4DB" offset="0%"></stop>
            <stop stop-color="#CC00FF" offset="100%"></stop>
        </linearGradient>
        <path d="M248.538354,5.66142043 C253.086473,5.66142043 256.958521,7.27128371 260.154497,10.4910103 C263.37096,13.690229 264.979192,17.5662056 264.979192,22.11894 C264.979192,26.6511665 263.37096,30.5271431 260.154497,33.7468696 C256.958521,36.9460884 253.086473,38.5456978 248.538354,38.5456978 C244.010721,38.5456978 240.138673,36.9460884 236.92221,33.7468696 C233.726234,30.5271431 232.128246,26.6511665 232.128246,22.11894 C232.128246,17.5662056 233.726234,13.690229 236.92221,10.4910103 C240.138673,7.27128371 244.010721,5.66142043 248.538354,5.66142043 Z M248.538354,44.1750923 C254.643487,44.1750923 259.847192,42.021772 264.149467,37.7151314 C268.451743,33.4084907 270.60288,28.2097603 270.60288,22.11894 C270.60288,16.0076118 268.451743,10.7986275 264.149467,6.49198684 C259.847192,2.18534621 254.643487,0.032025899 248.538354,0.032025899 C242.453707,0.032025899 237.260246,2.18534621 232.95797,6.49198684 C228.655695,10.7986275 226.504557,16.0076118 226.504557,22.11894 C226.504557,28.2097603 228.655695,33.4084907 232.95797,37.7151314 C237.260246,42.021772 242.453707,44.1750923 248.538354,44.1750923 Z" id="path-32"></path>
        <linearGradient x1="50%" y1="0%" x2="50%" y2="100%" id="linearGradient-33">
            <stop stop-color="#00A4DB" offset="0%"></stop>
            <stop stop-color="#CC00FF" offset="100%"></stop>
        </linearGradient>
        <path d="M310.999198,44.1750923 C311.777705,44.1750923 312.443533,43.8982368 312.996683,43.3445259 C313.549833,42.8113228 313.826407,42.1550728 313.826407,41.3757759 C313.826407,40.596479 313.549833,39.9299751 312.996683,39.3762642 C312.443533,38.8225532 311.777705,38.5456978 310.999198,38.5456978 L286.56842,38.5456978 L286.56842,2.83134231 C286.56842,2.07255324 286.291845,1.41630324 285.738695,0.862592305 C285.185545,0.308881368 284.519717,0.032025899 283.74121,0.032025899 C282.962703,0.032025899 282.307118,0.308881368 281.774456,0.862592305 C281.221306,1.41630324 280.944731,2.07255324 280.944731,2.83134231 L280.944731,41.3757759 C280.944731,42.1550728 281.221306,42.8113228 281.774456,43.3445259 C282.307118,43.8982368 282.962703,44.1750923 283.74121,44.1750923 L310.999198,44.1750923 Z" id="path-34"></path>
        <path d="M342.207084,5.66142043 C346.755204,5.66142043 350.627252,7.27128371 353.823228,10.4910103 C357.039691,13.690229 358.647923,17.5662056 358.647923,22.11894 C358.647923,26.6511665 357.039691,30.5271431 353.823228,33.7468696 C350.627252,36.9460884 346.755204,38.5456978 342.207084,38.5456978 C337.679452,38.5456978 333.807404,36.9460884 330.590941,33.7468696 C327.394965,30.5271431 325.796977,26.6511665 325.796977,22.11894 C325.796977,17.5662056 327.394965,13.690229 330.590941,10.4910103 C333.807404,7.27128371 337.679452,5.66142043 342.207084,5.66142043 Z M342.207084,44.1750923 C348.312218,44.1750923 353.515923,42.021772 357.818198,37.7151314 C362.120473,33.4084907 364.271611,28.2097603 364.271611,22.11894 C364.271611,16.0076118 362.120473,10.7986275 357.818198,6.49198684 C353.515923,2.18534621 348.312218,0.032025899 342.207084,0.032025899 C336.122438,0.032025899 330.928977,2.18534621 326.626701,6.49198684 C322.324426,10.7986275 320.173288,16.0076118 320.173288,22.11894 C320.173288,28.2097603 322.324426,33.4084907 326.626701,37.7151314 C330.928977,42.021772 336.122438,44.1750923 342.207084,44.1750923 Z" id="path-35"></path>
        <linearGradient x1="50%" y1="0%" x2="50%" y2="100%" id="linearGradient-36">
            <stop stop-color="#00A4DB" offset="0%"></stop>
            <stop stop-color="#CC00FF" offset="100%"></stop>
        </linearGradient>
        <path d="M381.066875,37.7151314 C385.36915,42.021772 390.562611,44.1750923 396.647258,44.1750923 C402.752392,44.1750923 407.956096,42.021772 412.258372,37.7151314 C412.791034,37.1614204 413.057366,36.4949165 413.057366,35.7156196 L413.057366,22.11894 C413.057366,21.3396431 412.791034,20.6731392 412.258372,20.1194282 C411.705222,19.5657173 411.039394,19.2888618 410.260887,19.2888618 L395.848264,19.2888618 C395.090244,19.2888618 394.434659,19.5657173 393.88151,20.1194282 C393.32836,20.6731392 393.051785,21.3396431 393.051785,22.11894 C393.051785,22.877729 393.32836,23.533979 393.88151,24.08769 C394.434659,24.6414009 395.090244,24.9182564 395.848264,24.9182564 L407.464408,24.9182564 L407.464408,34.5159126 C404.227458,37.3459907 400.447601,38.6892525 396.124839,38.5456978 C391.802076,38.4021431 388.104168,36.8025337 385.031114,33.7468696 C381.835138,30.5271431 380.23715,26.6511665 380.23715,22.11894 C380.23715,17.5662056 381.835138,13.6799751 385.031114,10.4602486 C388.247577,7.26102981 392.119625,5.66142043 396.647258,5.66142043 C401.195378,5.66142043 405.077669,7.26102981 408.294132,10.4602486 C408.826795,11.0139595 409.48238,11.290815 410.260887,11.290815 C411.039394,11.290815 411.705222,11.0139595 412.258372,10.4602486 C412.791034,9.92704543 413.057366,9.27079543 413.057366,8.49149856 C413.057366,7.71220168 412.791034,7.04569777 412.258372,6.49198684 C407.956096,2.18534621 402.752392,0.032025899 396.647258,0.032025899 C390.562611,0.032025899 385.36915,2.18534621 381.066875,6.49198684 C376.764599,10.7986275 374.613462,16.0076118 374.613462,22.11894 C374.613462,28.2097603 376.764599,33.4084907 381.066875,37.7151314 Z" id="path-37"></path>
        <linearGradient x1="50%" y1="0%" x2="50%" y2="100%" id="linearGradient-38">
            <stop stop-color="#00A4DB" offset="0%"></stop>
            <stop stop-color="#CC00FF" offset="100%"></stop>
        </linearGradient>
        <path d="M426.195695,44.1750923 C426.974202,44.1750923 427.640031,43.8982368 428.19318,43.3445259 C428.74633,42.8113228 429.022905,42.1550728 429.022905,41.3757759 L429.022905,2.83134231 C429.022905,2.07255324 428.74633,1.41630324 428.19318,0.862592305 C427.640031,0.308881368 426.974202,0.032025899 426.195695,0.032025899 C425.417188,0.032025899 424.761604,0.308881368 424.228941,0.862592305 C423.675791,1.41630324 423.399216,2.07255324 423.399216,2.83134231 L423.399216,41.3757759 C423.399216,42.1550728 423.675791,42.8113228 424.228941,43.3445259 C424.761604,43.8982368 425.417188,44.1750923 426.195695,44.1750923 Z" id="path-39"></path>
        <path d="M471.447438,41.3757759 C471.447438,40.596479 471.170863,39.9299751 470.617713,39.3762642 C470.064564,38.8225532 469.398735,38.5456978 468.620228,38.5456978 L442.161235,38.5456978 C441.382728,38.5456978 440.727143,38.8225532 440.19448,39.3762642 C439.64133,39.9299751 439.364756,40.596479 439.364756,41.3757759 C439.364756,42.1550728 439.64133,42.8113228 440.19448,43.3445259 C440.727143,43.8982368 441.382728,44.1750923 442.161235,44.1750923 L468.620228,44.1750923 C469.398735,44.1750923 470.064564,43.8982368 470.617713,43.3445259 C471.170863,42.8113228 471.447438,42.1550728 471.447438,41.3757759 Z M442.161235,0.032025899 C441.382728,0.032025899 440.727143,0.308881368 440.19448,0.862592305 C439.64133,1.41630324 439.364756,2.07255324 439.364756,2.83134231 C439.364756,3.61063918 439.64133,4.27714309 440.19448,4.83085402 C440.727143,5.38456496 441.382728,5.66142043 442.161235,5.66142043 L468.620228,5.66142043 C469.398735,5.66142043 470.064564,5.38456496 470.617713,4.83085402 C471.170863,4.27714309 471.447438,3.61063918 471.447438,2.83134231 C471.447438,2.07255324 471.170863,1.41630324 470.617713,0.862592305 C470.064564,0.308881368 469.398735,0.032025899 468.620228,0.032025899 L442.161235,0.032025899 Z M442.161235,19.2888618 C441.382728,19.2888618 440.727143,19.5657173 440.19448,20.1194282 C439.64133,20.6731392 439.364756,21.3396431 439.364756,22.11894 C439.364756,22.877729 439.64133,23.533979 440.19448,24.08769 C440.727143,24.6414009 441.382728,24.9182564 442.161235,24.9182564 L468.620228,24.9182564 C469.398735,24.9182564 470.064564,24.6414009 470.617713,24.08769 C471.170863,23.533979 471.447438,22.877729 471.447438,22.11894 C471.447438,21.3396431 471.170863,20.6731392 470.617713,20.1194282 C470.064564,19.5657173 469.398735,19.2888618 468.620228,19.2888618 L442.161235,19.2888618 Z" id="path-40"></path>
        <linearGradient x1="50%" y1="0%" x2="50%" y2="100%" id="linearGradient-41">
            <stop stop-color="#00A4DB" offset="0%"></stop>
            <stop stop-color="#CC00FF" offset="100%"></stop>
        </linearGradient>
        <path d="M494.204426,38.5456978 C492.340107,38.5456978 490.742119,37.8791939 489.410462,36.5461861 C488.078805,35.2131782 487.412977,33.6135689 487.412977,31.7473579 C487.412977,30.9680611 487.136402,30.3015571 486.583253,29.7478462 C486.030103,29.1941353 485.364275,28.9172798 484.585768,28.9172798 C483.807261,28.9172798 483.151676,29.1941353 482.619013,29.7478462 C482.065863,30.3015571 481.789289,30.9680611 481.789289,31.7473579 C481.789289,35.1721626 483.008267,38.0945259 485.446223,40.5144478 C487.863692,42.9548775 490.783093,44.1750923 494.204426,44.1750923 L501.85633,44.1750923 C505.277664,44.1750923 508.207308,42.9548775 510.645264,40.5144478 C513.08322,38.0945259 514.302199,35.1721626 514.302199,31.7473579 C514.302199,28.3020454 513.08322,25.3694282 510.645264,22.9495064 C508.207308,20.5090767 505.277664,19.2888618 501.85633,19.2888618 L494.204426,19.2888618 C492.340107,19.2888618 490.742119,18.6223579 489.410462,17.2893501 C488.078805,15.9563423 487.412977,14.346479 487.412977,12.4597603 C487.412977,10.5935493 488.078805,8.99393996 489.410462,7.66093215 C490.742119,6.32792434 492.340107,5.66142043 494.204426,5.66142043 L501.85633,5.66142043 C503.741137,5.66142043 505.349368,6.32792434 506.681025,7.66093215 C508.012682,8.99393996 508.67851,10.5935493 508.67851,12.4597603 C508.67851,13.2390571 508.955085,13.9055611 509.508234,14.459272 C510.040897,15.0129829 510.696482,15.2898384 511.474989,15.2898384 C512.253496,15.2898384 512.919324,15.0129829 513.472474,14.459272 C514.025624,13.9055611 514.302199,13.2390571 514.302199,12.4597603 C514.302199,9.03495559 513.08322,6.11259231 510.645264,3.69267043 C508.207308,1.25224074 505.277664,0.032025899 501.85633,0.032025899 L494.204426,0.032025899 C490.783093,0.032025899 487.863692,1.25224074 485.446223,3.69267043 C483.008267,6.11259231 481.789289,9.03495559 481.789289,12.4597603 C481.789289,15.9050728 483.008267,18.83769 485.446223,21.2576118 C487.863692,23.6980415 490.783093,24.9182564 494.204426,24.9182564 L501.85633,24.9182564 C503.741137,24.9182564 505.349368,25.5847603 506.681025,26.9177681 C508.012682,28.2507759 508.67851,29.8606392 508.67851,31.7473579 C508.67851,33.6135689 508.012682,35.2131782 506.681025,36.5461861 C505.349368,37.8791939 503.741137,38.5456978 501.85633,38.5456978 L494.204426,38.5456978 Z" id="path-42"></path>
        <linearGradient x1="-8.15998999%" y1="57.9758335%" x2="66.0973524%" y2="37.9489309%" id="linearGradient-43">
            <stop stop-color="#00A4DB" offset="0%"></stop>
            <stop stop-color="#CC00FF" offset="100%"></stop>
        </linearGradient>
        <linearGradient x1="11.6831133%" y1="70.2946817%" x2="60.6052361%" y2="19.3357929%" id="linearGradient-44">
            <stop stop-color="#00A4DB" offset="0%"></stop>
            <stop stop-color="#CC00FF" offset="100%"></stop>
        </linearGradient>
        <linearGradient x1="14.2378765%" y1="70.2946817%" x2="59.8981362%" y2="19.3357929%" id="linearGradient-45">
            <stop stop-color="#00A4DB" offset="0%"></stop>
            <stop stop-color="#CC00FF" offset="100%"></stop>
        </linearGradient>
    </defs>
    <g id="Validated-logos" stroke="none" stroke-width="1" fill="none" fill-rule="evenodd">
        <g id="Validated-Logo" transform="translate(-1146.000000, -337.000000)">
            <g id="Archethic-Technologies---Colored---Outlines" transform="translate(1146.000000, 337.000000)">
                <g id="AE" transform="translate(102.895599, 0.000000)">
                    <path d="M97.3081704,118 C100.041334,118 102.14587,116.87619 103.621779,114.628571 C105.097687,112.326132 105.289009,109.941463 104.195743,107.474564 L59.2625305,4.52264808 C57.9506119,1.50754936 55.6547543,0 52.3749578,0 C49.1498245,0 46.8812986,1.50754936 45.56938,4.52264808 L0.636167432,107.474564 C-0.183781703,109.393264 -0.21111334,111.311963 0.554172518,113.230662 C1.2647951,115.149361 2.57671372,116.519861 4.48992836,117.34216 C5.47386732,117.78072 6.48513792,118 7.52374016,118 C10.7488734,118 13.0173994,116.492451 14.329318,113.477352 L52.3749578,26.2313589 L85.9108774,102.951916 L41.7156191,102.951916 C39.6384146,102.951916 37.8618581,103.691986 36.3859497,105.172125 C34.9647045,106.652265 34.2540819,108.433914 34.2540819,110.517073 C34.2540819,112.545412 34.9647045,114.299652 36.3859497,115.779791 C37.8618581,117.25993 39.6384146,118 41.7156191,118 L97.3081704,118 Z" id="Path" fill="url(#linearGradient-1)"></path>
                    <path d="M176.567976,14 C179.113286,14 181.290196,13.3114754 183.098706,11.9344262 C184.907216,10.557377 185.811471,8.89981785 185.811471,6.96174863 C185.811471,5.07468124 184.907216,3.44262295 183.098706,2.06557377 C181.290196,0.68852459 179.113286,0 176.567976,0 L90.0609206,0 C87.5156104,0 85.3721913,0.68852459 83.6306633,2.06557377 C81.8221534,3.44262295 80.9178985,5.07468124 80.9178985,6.96174863 C80.9178985,8.89981785 81.8221534,10.557377 83.6306633,11.9344262 C85.3721913,13.3114754 87.5156104,14 90.0609206,14 L176.567976,14 Z" id="Path" fill="url(#linearGradient-2)"></path>
                    <path d="M177.505722,67 C179.517729,67 181.238524,66.2131148 182.668108,64.6393443 C184.097692,63.0655738 184.812484,61.2003643 184.812484,59.0437158 C184.812484,56.8287796 184.097692,54.9344262 182.668108,53.3606557 C181.238524,51.7868852 179.517729,51 177.505722,51 L109.123954,51 C107.111947,51 105.417625,51.7868852 104.040989,53.3606557 C102.611405,54.9344262 101.896613,56.8287796 101.896613,59.0437158 C101.896613,61.2003643 102.611405,63.0655738 104.040989,64.6393443 C105.417625,66.2131148 107.111947,67 109.123954,67 L177.505722,67 Z" id="Path" fill="url(#linearGradient-3)"></path>
                    <path d="M179.442454,118 C180.921158,118 182.185839,117.311475 183.236497,115.934426 C184.287155,114.608379 184.812484,112.976321 184.812484,111.038251 C184.812484,109.100182 184.287155,107.442623 183.236497,106.065574 C182.185839,104.688525 180.921158,104 179.442454,104 L129.185974,104 C127.70727,104 126.462046,104.688525 125.450301,106.065574 C124.399643,107.442623 123.874314,109.100182 123.874314,111.038251 C123.874314,112.976321 124.399643,114.608379 125.450301,115.934426 C126.462046,117.311475 127.70727,118 129.185974,118 L179.442454,118 Z" id="Path" fill="url(#linearGradient-4)"></path>
                </g>
                <g id="Group-6" transform="translate(307.697801, 0.040527)" fill-rule="nonzero">
                    <g id="ARCHETHIC" transform="translate(0.002790, 0.000000)">
                        <g id="Path">
                            <use fill="#00A4DB" xlink:href="#path-6"></use>
                            <use fill="url(#linearGradient-5)" xlink:href="#path-6"></use>
                        </g>
                        <g id="Path">
                            <use fill="#00A4DB" xlink:href="#path-8"></use>
                            <use fill="url(#linearGradient-7)" xlink:href="#path-8"></use>
                        </g>
                        <g id="Path">
                            <use fill="#00A4DB" xlink:href="#path-10"></use>
                            <use fill="url(#linearGradient-9)" xlink:href="#path-10"></use>
                        </g>
                        <g id="Path">
                            <use fill="#00A4DB" xlink:href="#path-12"></use>
                            <use fill="url(#linearGradient-11)" xlink:href="#path-12"></use>
                        </g>
                        <g id="Shape">
                            <use fill="#00A4DB" xlink:href="#path-14"></use>
                            <use fill="url(#linearGradient-13)" xlink:href="#path-14"></use>
                        </g>
                        <g id="Path">
                            <use fill="#00A4DB" xlink:href="#path-16"></use>
                            <use fill="url(#linearGradient-15)" xlink:href="#path-16"></use>
                        </g>
                        <g id="Path">
                            <use fill="#00A4DB" xlink:href="#path-17"></use>
                            <use fill="url(#linearGradient-11)" xlink:href="#path-17"></use>
                        </g>
                        <g id="Path">
                            <use fill="#00A4DB" xlink:href="#path-19"></use>
                            <use fill="url(#linearGradient-18)" xlink:href="#path-19"></use>
                        </g>
                        <g id="Path">
                            <use fill="#00A4DB" xlink:href="#path-20"></use>
                            <use fill="url(#linearGradient-9)" xlink:href="#path-20"></use>
                        </g>
                    </g>
                    <g id="TECHNOLOGIES" transform="translate(0.000000, 73.784380)">
                        <g id="Path">
                            <use fill="#00A4DB" xlink:href="#path-22"></use>
                            <use fill="url(#linearGradient-21)" xlink:href="#path-22"></use>
                        </g>
                        <g id="Shape">
                            <use fill="#00A4DB" xlink:href="#path-24"></use>
                            <use fill="url(#linearGradient-23)" xlink:href="#path-24"></use>
                        </g>
                        <g id="Path">
                            <use fill="#00A4DB" xlink:href="#path-26"></use>
                            <use fill="url(#linearGradient-25)" xlink:href="#path-26"></use>
                        </g>
                        <g id="Path">
                            <use fill="#00A4DB" xlink:href="#path-28"></use>
                            <use fill="url(#linearGradient-27)" xlink:href="#path-28"></use>
                        </g>
                        <g id="Path">
                            <use fill="#00A4DB" xlink:href="#path-30"></use>
                            <use fill="url(#linearGradient-29)" xlink:href="#path-30"></use>
                        </g>
                        <g id="Shape">
                            <use fill="#00A4DB" xlink:href="#path-32"></use>
                            <use fill="url(#linearGradient-31)" xlink:href="#path-32"></use>
                        </g>
                        <g id="Path">
                            <use fill="#00A4DB" xlink:href="#path-34"></use>
                            <use fill="url(#linearGradient-33)" xlink:href="#path-34"></use>
                        </g>
                        <g id="Shape">
                            <use fill="#00A4DB" xlink:href="#path-35"></use>
                            <use fill="url(#linearGradient-31)" xlink:href="#path-35"></use>
                        </g>
                        <g id="Path">
                            <use fill="#00A4DB" xlink:href="#path-37"></use>
                            <use fill="url(#linearGradient-36)" xlink:href="#path-37"></use>
                        </g>
                        <g id="Path">
                            <use fill="#00A4DB" xlink:href="#path-39"></use>
                            <use fill="url(#linearGradient-38)" xlink:href="#path-39"></use>
                        </g>
                        <g id="Shape">
                            <use fill="#00A4DB" xlink:href="#path-40"></use>
                            <use fill="url(#linearGradient-23)" xlink:href="#path-40"></use>
                        </g>
                        <g id="Path">
                            <use fill="#00A4DB" xlink:href="#path-42"></use>
                            <use fill="url(#linearGradient-41)" xlink:href="#path-42"></use>
                        </g>
                    </g>
                </g>
                <g id="Group-7" fill-rule="nonzero">
                    <path d="M31.2946605,16.4557988 C32.583608,16.2001383 36.5753068,15.4566418 41.6618716,15.5074029 C50.0026216,15.590731 56.4638379,17.7579415 60.4230032,19.1209041 C64.9990006,20.6960574 75.139715,24.6968277 85.3958166,33.6860271 C89.266333,37.0782855 92.152152,40.3037849 94.1143857,42.6968949 C95.0296295,40.8599593 95.8163591,38.9755826 96.4555507,37.0881729 C97.2957736,34.6069582 97.9152278,32.0420256 98.2964919,29.4653634 L98.8996537,25.3907498 C96.4567219,23.0173462 93.1729476,20.0891177 89.0409991,17.0710452 C87.0753203,15.6353146 80.8203709,11.1863395 72.8182875,7.59839237 C66.473137,4.75332054 51.7104925,-1.86600947 32.7254186,0.502334725 C18.6348812,2.2600935 8.73001839,8.15658876 6.44274098,9.56542445 C4.77474372,10.5927101 3.15702336,11.6974847 1.63395094,12.8495976 L0.586129048,13.6421158 L0.430304524,14.9546515 C0.204194168,16.8580062 0.0654425926,18.8255481 0.0176180183,20.8013967 C-0.138202223,27.3047203 0.666597577,37.3575251 5.38613234,48.3159414 C6.74837804,51.4797855 8.38183484,54.5903367 10.2412451,57.5612464 C10.7563692,58.3841942 11.7890614,59.9655806 13.3217565,62 C13.1636536,60.8486753 13.0259627,59.6963399 12.9114586,58.5600009 C12.24079,51.9136089 12.2454061,45.1257163 12.9244161,38.3854876 C13.4863084,32.8087757 14.4204069,28.3297012 15.0907955,25.5019282 C15.3954907,24.21696 15.6778263,23.1414965 15.8907035,22.3593112 C17.7086829,21.2787926 20.0127532,20.0690172 22.773338,18.970977 C24.4687477,18.2964914 27.4424853,17.2200726 31.2946605,16.4557988 Z" id="Path" fill="url(#linearGradient-43)"></path>
                    <path d="M75.5746332,94.9143584 C70.4417175,97.2039521 66.0743301,98.6219895 63.2762054,99.4469077 C62.0047252,99.8219096 60.9266468,100.111714 60.1388585,100.315945 C58.2781185,99.2699883 56.058709,97.8646077 53.7050391,96.0058689 C52.2595015,94.8642105 49.8165448,92.8086278 47.1998659,89.8320152 C46.3243138,88.8359251 43.6549885,85.7273399 41.1211626,81.2684848 C36.9666147,73.9572254 35.5762006,67.2454483 34.754482,63.1154172 C33.804807,58.341965 32.1435486,47.5091668 34.7604597,34.0898651 C35.7481253,29.0257633 37.0896687,24.9029575 38.1756948,22 C36.114853,22.1176459 34.0779649,22.3711884 32.1131098,22.7546876 C29.5302499,23.2589157 26.9866233,23.997317 24.553248,24.9490747 L20.7052255,26.4540345 C19.8800106,29.7662357 18.9984809,34.0879094 18.4687994,39.193363 C18.2168385,41.6222137 17.5191243,49.2913426 18.4554378,58.0541677 C19.1977953,65.0025868 20.9249456,81.1686407 32.6054804,96.535782 C41.2746554,107.941262 51.4206498,113.635685 53.8045866,114.927121 C55.5429526,115.868973 57.3234804,116.728376 59.096792,117.481676 L60.3168038,118 L61.5368246,117.481676 C63.3061279,116.73005 65.0869398,115.870646 66.8289185,114.927514 C72.561579,111.822286 80.8932266,106.11068 88.0281877,96.5355598 C90.0882469,93.7714111 91.9645984,90.7974801 93.6049994,87.6962224 C94.0593708,86.8370409 94.9108574,85.1486708 95.9026945,82.7990227 C94.9818841,83.5105606 94.0499011,84.2050267 93.1199569,84.8710112 C87.6817585,88.767979 81.7784118,92.1469563 75.5746332,94.9143584 Z" id="Path" fill="url(#linearGradient-44)"></path>
                    <path d="M121.860932,20.5840257 C121.813237,18.6259829 121.673389,16.6728443 121.444708,14.7786378 L121.287477,13.4754494 L120.2301,12.6885752 C118.696629,11.5474022 117.063896,10.4502146 115.377903,9.42767995 C109.827814,6.06392259 100.720986,1.77190924 88.8551012,0.429524954 C85.4295106,0.0416109353 81.9131279,-0.0844454602 78.4037583,0.05498819 C77.4314706,0.0937374885 75.5416555,0.205293741 73.0076644,0.525866499 C74.0838279,0.960224337 75.1506838,1.41270203 76.1918849,1.87755741 C82.2828895,4.59476311 88.1553694,7.96844382 93.6465286,11.9041552 C98.1898641,15.1604779 101.595135,18.1951385 103.704373,20.1809439 C104.662747,21.0833344 105.451197,21.8624589 106.020628,22.4355273 C106.038576,24.5503963 105.923097,27.1513116 105.480723,30.093195 C105.209006,31.9000434 104.640243,35.0162093 103.358023,38.7400629 C102.928989,39.9862757 101.558486,43.8208476 98.9479599,48.2119375 C94.6675302,55.4121084 89.5318758,59.9458095 86.3546678,62.7066731 C82.6825011,65.8976578 74.1031369,72.7159333 61.1481069,77.1576993 C56.2591488,78.8339742 52.0114974,79.7384276 48.9503337,80.2539591 C50.0783026,81.9604507 51.3123225,83.5789711 52.6232284,85.0709851 C54.3469413,87.0320902 56.2542677,88.8432349 58.2919465,90.4534952 L61.514332,93 C64.801256,92.057299 68.992452,90.659832 73.689208,88.5708327 C75.9238157,87.5769536 82.9303702,84.3548591 90.0732971,79.1886642 C95.7372458,75.0921111 108.914722,65.5610792 116.443962,47.902241 C122.032087,34.7960997 121.926198,23.269343 121.860932,20.5840257 Z" id="Path" fill="url(#linearGradient-45)"></path>
                </g>
            </g>
        </g>
    </g>
</svg>