<?xml version="1.0" encoding="UTF-8"?>
<svg width="822px" height="118px" viewBox="0 0 822 118" version="1.1" xmlns="http://www.w3.org/2000/svg" xmlns:xlink="http://www.w3.org/1999/xlink">
    <title>Archethic Foundation - Colored - Outlines</title>
    <defs>
        <linearGradient x1="3.99040637%" y1="70.2946817%" x2="62.7344011%" y2="19.3357929%" id="linearGradient-1">
            <stop stop-color="#00A4DB" offset="0%"></stop>
            <stop stop-color="#CC00FF" offset="100%"></stop>
        </linearGradient>
        <linearGradient x1="-8.15998999%" y1="50.3611189%" x2="66.0973524%" y2="49.4543681%" id="linearGradient-2">
            <stop stop-color="#00A4DB" offset="0%"></stop>
            <stop stop-color="#CC00FF" offset="100%"></stop>
        </linearGradient>
        <linearGradient x1="-8.15998999%" y1="50.7548428%" x2="66.0973524%" y2="48.8594718%" id="linearGradient-3">
            <stop stop-color="#00A4DB" offset="0%"></stop>
            <stop stop-color="#CC00FF" offset="100%"></stop>
        </linearGradient>
        <linearGradient x1="-8.15998999%" y1="51.069964%" x2="66.0973524%" y2="48.3833402%" id="linearGradient-4">
            <stop stop-color="#00A4DB" offset="0%"></stop>
            <stop stop-color="#CC00FF" offset="100%"></stop>
        </linearGradient>
        <linearGradient x1="50%" y1="0%" x2="50%" y2="100%" id="linearGradient-5">
            <stop stop-color="#00A4DB" offset="0%"></stop>
            <stop stop-color="#CC00FF" offset="100%"></stop>
        </linearGradient>
        <path d="M53.6607159,59.2046174 C54.4250176,58.0154285 54.5240937,56.7837686 53.9579443,55.5096377 L30.6892031,2.33590671 C30.0098238,0.778635571 28.82091,0 27.1224618,0 C25.452321,0 24.2775609,0.778635571 23.5981816,2.33590671 L0.329440396,55.5096377 C-0.0951716699,56.5006284 -0.109325405,57.4916192 0.286979189,58.4826099 C0.654976313,59.4736006 1.33435562,60.1814511 2.32511711,60.6061614 C2.83465158,60.8326736 3.3583398,60.9459297 3.89618175,60.9459297 C5.56632254,60.9459297 6.74108259,60.1672941 7.4204619,58.610023 L27.1224618,13.5482589 L44.4890953,53.173731 L21.6025049,53.173731 C20.526821,53.173731 19.6068282,53.5559703 18.8425265,54.3204488 C18.1065322,55.0849274 17.7385351,56.0051331 17.7385351,57.0810659 C17.7385351,58.1286846 18.1065322,59.0347333 18.8425265,59.7992119 C19.6068282,60.5636904 20.526821,60.9459297 21.6025049,60.9459297 L50.391203,60.9459297 C51.8065765,60.9459297 52.8964142,60.3654923 53.6607159,59.2046174 Z" id="path-6"></path>
        <linearGradient x1="50%" y1="0%" x2="50%" y2="100%" id="linearGradient-7">
            <stop stop-color="#00A4DB" offset="0%"></stop>
            <stop stop-color="#CC00FF" offset="100%"></stop>
        </linearGradient>
        <path d="M72.9607496,60.9459297 C74.0364335,60.9459297 74.9564264,60.5636904 75.7207281,59.7992119 C76.4850298,59.0630473 76.8671806,58.1569986 76.8671806,57.0810659 L76.8671806,39.7528852 L88.7987797,39.7528852 L107.184482,59.7142698 C107.948784,60.5353764 108.897084,60.9459297 110.029383,60.9459297 C111.048452,60.9459297 111.925984,60.6061614 112.661978,59.9266249 C113.454587,59.1904604 113.879199,58.2844117 113.935814,57.208479 C113.964121,56.1608602 113.610278,55.2406545 112.874284,54.4478619 L98.6922408,39.0308776 C102.938361,37.8700028 106.42018,35.5340961 109.137698,32.0231575 C111.91183,28.4555909 113.298896,24.4066859 113.298896,19.8764426 C113.298896,14.4118366 111.359834,9.72586613 107.481711,5.81853127 C103.603587,1.93951042 98.9187006,0 93.4270512,0 L72.9607496,0 C71.8850657,0 70.9792267,0.38223928 70.2432324,1.14671784 C69.4789307,1.9111964 69.0967798,2.81724507 69.0967798,3.86486383 C69.0967798,4.94079662 69.4789307,5.8610023 70.2432324,6.62548086 C70.9792267,7.38995942 71.8850657,7.7721987 72.9607496,7.7721987 L93.4270512,7.7721987 C96.7673328,7.7721987 99.6263874,8.94723056 102.004215,11.2972943 C104.353735,13.675672 105.528495,16.5353881 105.528495,19.8764426 C105.528495,23.217497 104.353735,26.0772131 102.004215,28.4555909 C99.6263874,30.8056546 96.7673328,31.9806865 93.4270512,31.9806865 L72.9607496,31.9806865 C71.8850657,31.9806865 70.9792267,32.3629257 70.2432324,33.1274043 C69.4789307,33.8918829 69.0967798,34.8120885 69.0967798,35.8880213 L69.0967798,57.0810659 C69.0967798,58.1569986 69.4789307,59.0630473 70.2432324,59.7992119 C70.9792267,60.5636904 71.8850657,60.9459297 72.9607496,60.9459297 Z" id="path-8"></path>
        <linearGradient x1="50%" y1="0%" x2="50%" y2="100%" id="linearGradient-9">
            <stop stop-color="#00A4DB" offset="0%"></stop>
            <stop stop-color="#CC00FF" offset="100%"></stop>
        </linearGradient>
        <path d="M158.712572,60.9459297 C167.148198,60.9459297 174.338296,57.9729575 180.282865,52.0270132 C181.047166,51.2625346 181.429317,50.3423289 181.429317,49.2663961 C181.429317,48.1904633 181.047166,47.2844147 180.282865,46.5482501 C179.518563,45.7837716 178.59857,45.4015323 177.522886,45.4015323 C176.447202,45.4015323 175.541363,45.7837716 174.805369,46.5482501 C170.361096,50.9652374 164.99683,53.173731 158.712572,53.173731 C152.456621,53.173731 147.106509,50.9652374 142.662236,46.5482501 C138.24627,42.1029489 136.038287,36.751599 136.038287,30.4942004 C136.038287,24.2084878 138.24627,18.8429808 142.662236,14.3976796 C147.106509,9.98069232 152.456621,7.7721987 158.712572,7.7721987 C164.99683,7.7721987 170.361096,9.98069232 174.805369,14.3976796 C175.541363,15.1621581 176.447202,15.5443974 177.522886,15.5443974 C178.59857,15.5443974 179.518563,15.1621581 180.282865,14.3976796 C181.047166,13.661515 181.429317,12.7554664 181.429317,11.6795336 C181.429317,10.6036008 181.047166,9.6833951 180.282865,8.91891654 C174.338296,2.97297218 167.148198,0 158.712572,0 C150.305253,0 143.129309,2.97297218 137.18474,8.91891654 C131.240171,14.8648609 128.267887,22.0566222 128.267887,30.4942004 C128.267887,38.9034645 131.240171,46.0810688 137.18474,52.0270132 C143.129309,57.9729575 150.305253,60.9459297 158.712572,60.9459297 Z" id="path-10"></path>
        <linearGradient x1="50%" y1="0%" x2="50%" y2="100%" id="linearGradient-11">
            <stop stop-color="#00A4DB" offset="0%"></stop>
            <stop stop-color="#CC00FF" offset="100%"></stop>
        </linearGradient>
        <path d="M199.582898,60.9459297 C200.658582,60.9459297 201.578575,60.5636904 202.342877,59.7992119 C203.107179,59.0630473 203.489329,58.1569986 203.489329,57.0810659 L203.489329,34.3590642 L234.48601,34.3590642 L234.48601,57.0810659 C234.48601,58.1569986 234.868161,59.0630473 235.632463,59.7992119 C236.396765,60.5636904 237.302604,60.9459297 238.34998,60.9459297 C239.425664,60.9459297 240.345657,60.5636904 241.109958,59.7992119 C241.87426,59.0630473 242.256411,58.1569986 242.256411,57.0810659 L242.256411,3.86486383 C242.256411,2.81724507 241.87426,1.9111964 241.109958,1.14671784 C240.345657,0.38223928 239.425664,0 238.34998,0 C237.302604,0 236.396765,0.38223928 235.632463,1.14671784 C234.868161,1.9111964 234.48601,2.81724507 234.48601,3.86486383 L234.48601,26.5868655 L203.489329,26.5868655 L203.489329,3.86486383 C203.489329,2.81724507 203.107179,1.9111964 202.342877,1.14671784 C201.578575,0.38223928 200.658582,0 199.582898,0 C198.507215,0 197.601375,0.38223928 196.865381,1.14671784 C196.10108,1.9111964 195.718929,2.81724507 195.718929,3.86486383 L195.718929,57.0810659 C195.718929,58.1569986 196.10108,59.0630473 196.865381,59.7992119 C197.601375,60.5636904 198.507215,60.9459297 199.582898,60.9459297 Z" id="path-12"></path>
        <linearGradient x1="50%" y1="0%" x2="50%" y2="100%" id="linearGradient-13">
            <stop stop-color="#00A4DB" offset="0%"></stop>
            <stop stop-color="#CC00FF" offset="100%"></stop>
        </linearGradient>
        <path d="M300.875522,57.0810659 C300.875522,56.0051331 300.493371,55.0849274 299.72907,54.3204488 C298.964768,53.5559703 298.044775,53.173731 296.969091,53.173731 L260.409992,53.173731 C259.334308,53.173731 258.428469,53.5559703 257.692475,54.3204488 C256.928173,55.0849274 256.546022,56.0051331 256.546022,57.0810659 C256.546022,58.1569986 256.928173,59.0630473 257.692475,59.7992119 C258.428469,60.5636904 259.334308,60.9459297 260.409992,60.9459297 L296.969091,60.9459297 C298.044775,60.9459297 298.964768,60.5636904 299.72907,59.7992119 C300.493371,59.0630473 300.875522,58.1569986 300.875522,57.0810659 Z M260.409992,0 C259.334308,0 258.428469,0.38223928 257.692475,1.14671784 C256.928173,1.9111964 256.546022,2.81724507 256.546022,3.86486383 C256.546022,4.94079662 256.928173,5.8610023 257.692475,6.62548086 C258.428469,7.38995942 259.334308,7.7721987 260.409992,7.7721987 L296.969091,7.7721987 C298.044775,7.7721987 298.964768,7.38995942 299.72907,6.62548086 C300.493371,5.8610023 300.875522,4.94079662 300.875522,3.86486383 C300.875522,2.81724507 300.493371,1.9111964 299.72907,1.14671784 C298.964768,0.38223928 298.044775,0 296.969091,0 L260.409992,0 Z M260.409992,26.5868655 C259.334308,26.5868655 258.428469,26.9691048 257.692475,27.7335833 C256.928173,28.4980619 256.546022,29.4182676 256.546022,30.4942004 C256.546022,31.5418191 256.928173,32.4478678 257.692475,33.2123464 C258.428469,33.9768249 259.334308,34.3590642 260.409992,34.3590642 L296.969091,34.3590642 C298.044775,34.3590642 298.964768,33.9768249 299.72907,33.2123464 C300.493371,32.4478678 300.875522,31.5418191 300.875522,30.4942004 C300.875522,29.4182676 300.493371,28.4980619 299.72907,27.7335833 C298.964768,26.9691048 298.044775,26.5868655 296.969091,26.5868655 L260.409992,26.5868655 Z" id="path-14"></path>
        <linearGradient x1="50%" y1="0%" x2="50%" y2="100%" id="linearGradient-15">
            <stop stop-color="#00A4DB" offset="0%"></stop>
            <stop stop-color="#CC00FF" offset="100%"></stop>
        </linearGradient>
        <path d="M335.673896,7.7721987 L335.673896,57.0810659 C335.673896,58.1569986 336.041893,59.0630473 336.777888,59.7992119 C337.542189,60.5636904 338.462182,60.9459297 339.537866,60.9459297 C340.61355,60.9459297 341.533543,60.5636904 342.297845,59.7992119 C343.033839,59.0630473 343.401836,58.1569986 343.401836,57.0810659 L343.401836,7.7721987 L360.046629,7.7721987 C361.094005,7.7721987 361.999844,7.38995942 362.764146,6.62548086 C363.528448,5.8610023 363.910599,4.94079662 363.910599,3.86486383 C363.910599,2.81724507 363.528448,1.9111964 362.764146,1.14671784 C361.999844,0.38223928 361.094005,0 360.046629,0 L319.029103,0 C317.953419,0 317.04758,0.38223928 316.311586,1.14671784 C315.547284,1.9111964 315.165134,2.81724507 315.165134,3.86486383 C315.165134,4.94079662 315.547284,5.8610023 316.311586,6.62548086 C317.04758,7.38995942 317.953419,7.7721987 319.029103,7.7721987 L335.673896,7.7721987 Z" id="path-16"></path>
        <path d="M382.06418,60.9459297 C383.139864,60.9459297 384.059857,60.5636904 384.824158,59.7992119 C385.58846,59.0630473 385.970611,58.1569986 385.970611,57.0810659 L385.970611,34.3590642 L416.967292,34.3590642 L416.967292,57.0810659 C416.967292,58.1569986 417.349443,59.0630473 418.113744,59.7992119 C418.878046,60.5636904 419.783885,60.9459297 420.831262,60.9459297 C421.906945,60.9459297 422.826938,60.5636904 423.59124,59.7992119 C424.355542,59.0630473 424.737693,58.1569986 424.737693,57.0810659 L424.737693,3.86486383 C424.737693,2.81724507 424.355542,1.9111964 423.59124,1.14671784 C422.826938,0.38223928 421.906945,0 420.831262,0 C419.783885,0 418.878046,0.38223928 418.113744,1.14671784 C417.349443,1.9111964 416.967292,2.81724507 416.967292,3.86486383 L416.967292,26.5868655 L385.970611,26.5868655 L385.970611,3.86486383 C385.970611,2.81724507 385.58846,1.9111964 384.824158,1.14671784 C384.059857,0.38223928 383.139864,0 382.06418,0 C380.988496,0 380.082657,0.38223928 379.346663,1.14671784 C378.582361,1.9111964 378.20021,2.81724507 378.20021,3.86486383 L378.20021,57.0810659 C378.20021,58.1569986 378.582361,59.0630473 379.346663,59.7992119 C380.082657,60.5636904 380.988496,60.9459297 382.06418,60.9459297 Z" id="path-17"></path>
        <linearGradient x1="50%" y1="0%" x2="50%" y2="100%" id="linearGradient-18">
            <stop stop-color="#00A4DB" offset="0%"></stop>
            <stop stop-color="#CC00FF" offset="100%"></stop>
        </linearGradient>
        <path d="M442.891274,60.9459297 C443.966958,60.9459297 444.88695,60.5636904 445.651252,59.7992119 C446.415554,59.0630473 446.797705,58.1569986 446.797705,57.0810659 L446.797705,3.86486383 C446.797705,2.81724507 446.415554,1.9111964 445.651252,1.14671784 C444.88695,0.38223928 443.966958,0 442.891274,0 C441.81559,0 440.909751,0.38223928 440.173756,1.14671784 C439.409455,1.9111964 439.027304,2.81724507 439.027304,3.86486383 L439.027304,57.0810659 C439.027304,58.1569986 439.409455,59.0630473 440.173756,59.7992119 C440.909751,60.5636904 441.81559,60.9459297 442.891274,60.9459297 Z" id="path-19"></path>
        <path d="M491.532001,60.9459297 C499.967628,60.9459297 507.157725,57.9729575 513.102294,52.0270132 C513.866596,51.2625346 514.248747,50.3423289 514.248747,49.2663961 C514.248747,48.1904633 513.866596,47.2844147 513.102294,46.5482501 C512.337992,45.7837716 511.418,45.4015323 510.342316,45.4015323 C509.266632,45.4015323 508.360793,45.7837716 507.624799,46.5482501 C503.180526,50.9652374 497.81626,53.173731 491.532001,53.173731 C485.27605,53.173731 479.925938,50.9652374 475.481665,46.5482501 C471.0657,42.1029489 468.857717,36.751599 468.857717,30.4942004 C468.857717,24.2084878 471.0657,18.8429808 475.481665,14.3976796 C479.925938,9.98069232 485.27605,7.7721987 491.532001,7.7721987 C497.81626,7.7721987 503.180526,9.98069232 507.624799,14.3976796 C508.360793,15.1621581 509.266632,15.5443974 510.342316,15.5443974 C511.418,15.5443974 512.337992,15.1621581 513.102294,14.3976796 C513.866596,13.661515 514.248747,12.7554664 514.248747,11.6795336 C514.248747,10.6036008 513.866596,9.6833951 513.102294,8.91891654 C507.157725,2.97297218 499.967628,0 491.532001,0 C483.124682,0 475.948738,2.97297218 470.004169,8.91891654 C464.059601,14.8648609 461.087316,22.0566222 461.087316,30.4942004 C461.087316,38.9034645 464.059601,46.0810688 470.004169,52.0270132 C475.948738,57.9729575 483.124682,60.9459297 491.532001,60.9459297 Z" id="path-20"></path>
        <linearGradient x1="50%" y1="0%" x2="50%" y2="100%" id="linearGradient-21">
            <stop stop-color="#00A4DB" offset="0%"></stop>
            <stop stop-color="#CC00FF" offset="100%"></stop>
        </linearGradient>
        <path d="M2.79805814,44.1648962 C3.57700473,44.1648962 4.24320905,43.8881046 4.7966711,43.3345215 C5.35013315,42.8014414 5.62686418,42.1453429 5.62686418,41.3662259 L5.62686418,24.9125049 L22.8764314,24.9125049 C23.6348794,24.9125049 24.2908344,24.6357134 24.8442965,24.0821302 C25.3977585,23.5285471 25.6744896,22.8724486 25.6744896,22.1138346 C25.6744896,21.3347176 25.3977585,20.6683676 24.8442965,20.1147844 C24.2908344,19.5612013 23.6348794,19.2844097 22.8764314,19.2844097 L5.62686418,19.2844097 L5.62686418,5.66011371 L29.2719929,5.66011371 C30.0509395,5.66011371 30.7171438,5.38332214 31.2706058,4.829739 C31.8240679,4.27615587 32.1007989,3.6098058 32.1007989,2.8306888 C32.1007989,2.07207487 31.8240679,1.41597634 31.2706058,0.862393208 C30.7171438,0.308810074 30.0509395,0.032018507 29.2719929,0.032018507 L2.79805814,0.032018507 C2.01911155,0.032018507 1.36315653,0.308810074 0.830193076,0.862393208 C0.276731025,1.41597634 0,2.07207487 0,2.8306888 L0,41.3662259 C0,42.1453429 0.276731025,42.8014414 0.830193076,43.3345215 C1.36315653,43.8881046 2.01911155,44.1648962 2.79805814,44.1648962 Z" id="path-22"></path>
        <linearGradient x1="50%" y1="0%" x2="50%" y2="100%" id="linearGradient-23">
            <stop stop-color="#00A4DB" offset="0%"></stop>
            <stop stop-color="#CC00FF" offset="100%"></stop>
        </linearGradient>
        <path d="M72.6348953,5.66011371 C77.1855833,5.66011371 81.0598176,7.26960541 84.2575984,10.4885888 C87.4758777,13.6870692 89.0850174,17.5621511 89.0850174,22.1138346 C89.0850174,26.6450151 87.4758777,30.5200971 84.2575984,33.7390805 C81.0598176,36.9375608 77.1855833,38.536801 72.6348953,38.536801 C68.1047059,38.536801 64.2304716,36.9375608 61.0121922,33.7390805 C57.8144115,30.5200971 56.2155211,26.6450151 56.2155211,22.1138346 C56.2155211,17.5621511 57.8144115,13.6870692 61.0121922,10.4885888 C64.2304716,7.26960541 68.1047059,5.66011371 72.6348953,5.66011371 Z M72.6348953,44.1648962 C78.7434765,44.1648962 83.9501194,42.0120729 88.2548243,37.7064263 C92.5595291,33.4007797 94.7118815,28.2032491 94.7118815,22.1138346 C94.7118815,16.0039171 92.5595291,10.796135 88.2548243,6.49048841 C83.9501194,2.18484181 78.7434765,0.032018507 72.6348953,0.032018507 C66.5468128,0.032018507 61.3504191,2.18484181 57.0457142,6.49048841 C52.7410094,10.796135 50.588657,16.0039171 50.588657,22.1138346 C50.588657,28.2032491 52.7410094,33.4007797 57.0457142,37.7064263 C61.3504191,42.0120729 66.5468128,44.1648962 72.6348953,44.1648962 Z" id="path-24"></path>
        <linearGradient x1="50%" y1="0%" x2="50%" y2="100%" id="linearGradient-25">
            <stop stop-color="#00A4DB" offset="0%"></stop>
            <stop stop-color="#CC00FF" offset="100%"></stop>
        </linearGradient>
        <path d="M133.124373,44.1648962 C137.757056,44.1648962 141.723534,42.5143983 145.023807,39.2134026 C148.324081,35.9329099 149.974218,31.9655641 149.974218,27.3113652 L149.974218,2.8306888 C149.974218,2.07207487 149.697487,1.41597634 149.144025,0.862393208 C148.590563,0.308810074 147.924359,0.032018507 147.145412,0.032018507 C146.386964,0.032018507 145.731009,0.308810074 145.177547,0.862393208 C144.624085,1.41597634 144.347354,2.07207487 144.347354,2.8306888 L144.347354,27.3113652 C144.347354,30.4073301 143.250679,33.0522273 141.057329,35.2460568 C138.86398,37.4398862 136.219661,38.536801 133.124373,38.536801 C130.029086,38.536801 127.384767,37.4398862 125.191417,35.2460568 C122.998068,33.0522273 121.901393,30.4073301 121.901393,27.3113652 L121.901393,2.8306888 C121.901393,2.07207487 121.624662,1.41597634 121.0712,0.862393208 C120.517738,0.308810074 119.851533,0.032018507 119.072587,0.032018507 C118.29364,0.032018507 117.637685,0.308810074 117.104722,0.862393208 C116.55126,1.41597634 116.274529,2.07207487 116.274529,2.8306888 L116.274529,27.3113652 C116.274529,31.9655641 117.924666,35.9329099 121.224939,39.2134026 C124.504714,42.5143983 128.471192,44.1648962 133.124373,44.1648962 Z" id="path-26"></path>
        <linearGradient x1="50%" y1="0%" x2="50%" y2="100%" id="linearGradient-27">
            <stop stop-color="#00A4DB" offset="0%"></stop>
            <stop stop-color="#CC00FF" offset="100%"></stop>
        </linearGradient>
        <path d="M174.334923,44.1648962 C175.11387,44.1648962 175.780074,43.8881046 176.333536,43.3345215 C176.886998,42.8014414 177.163729,42.1453429 177.163729,41.3662259 L177.163729,11.0729266 L201.792791,43.0577299 C202.366751,43.7958407 203.11495,44.1648962 204.037387,44.1648962 C204.344866,44.1648962 204.642095,44.1136385 204.929076,44.0111231 C206.199988,43.5805584 206.835445,42.698926 206.835445,41.3662259 L206.835445,2.8306888 C206.835445,2.07207487 206.558714,1.41597634 206.005252,0.862393208 C205.45179,0.308810074 204.795835,0.032018507 204.037387,0.032018507 C203.25844,0.032018507 202.592236,0.308810074 202.038774,0.862393208 C201.485312,1.41597634 201.208581,2.07207487 201.208581,2.8306888 L201.208581,33.1239881 L176.579519,1.13918478 C175.759576,0.0730246651 174.714147,-0.24477306 173.443235,0.1857916 C172.172322,0.61635626 171.536865,1.49798866 171.536865,2.8306888 L171.536865,41.3662259 C171.536865,42.1453429 171.813596,42.8014414 172.367058,43.3345215 C172.900022,43.8881046 173.555977,44.1648962 174.334923,44.1648962 Z" id="path-28"></path>
        <linearGradient x1="50%" y1="0%" x2="50%" y2="100%" id="linearGradient-29">
            <stop stop-color="#00A4DB" offset="0%"></stop>
            <stop stop-color="#CC00FF" offset="100%"></stop>
        </linearGradient>
        <path d="M262.897227,22.1138346 C262.897227,16.0039171 260.744874,10.796135 256.440169,6.49048841 C252.135465,2.18484181 246.928822,0.032018507 240.82024,0.032018507 L231.19615,0.032018507 C230.417204,0.032018507 229.761249,0.308810074 229.228285,0.862393208 C228.674823,1.41597634 228.398092,2.07207487 228.398092,2.8306888 C228.398092,3.6098058 228.674823,4.27615587 229.228285,4.829739 C229.761249,5.38332214 230.417204,5.66011371 231.19615,5.66011371 L240.82024,5.66011371 C245.370928,5.66011371 249.245163,7.26960541 252.442943,10.4885888 C255.661223,13.6870692 257.270362,17.5621511 257.270362,22.1138346 C257.270362,26.6450151 255.661223,30.5200971 252.442943,33.7390805 C249.245163,36.9375608 245.370928,38.536801 240.82024,38.536801 L231.19615,38.536801 C230.417204,38.536801 229.761249,38.8135925 229.228285,39.3671757 C228.674823,39.9207588 228.398092,40.5871089 228.398092,41.3662259 C228.398092,42.1453429 228.674823,42.8014414 229.228285,43.3345215 C229.761249,43.8881046 230.417204,44.1648962 231.19615,44.1648962 L240.82024,44.1648962 C246.928822,44.1648962 252.135465,42.0120729 256.440169,37.7064263 C260.744874,33.4007797 262.897227,28.2032491 262.897227,22.1138346 Z" id="path-30"></path>
        <linearGradient x1="50%" y1="0%" x2="50%" y2="100%" id="linearGradient-31">
            <stop stop-color="#00A4DB" offset="0%"></stop>
            <stop stop-color="#CC00FF" offset="100%"></stop>
        </linearGradient>
        <path d="M318.92826,42.9039568 C319.481722,42.0428275 319.553468,41.1509435 319.143496,40.228305 L302.293651,1.72352253 C301.801685,0.595853181 300.940744,0.032018507 299.710828,0.032018507 C298.501411,0.032018507 297.650719,0.595853181 297.158753,1.72352253 L280.308908,40.228305 C280.00143,40.9459127 279.99118,41.6635205 280.278161,42.3811283 C280.544642,43.098736 281.036609,43.611313 281.754059,43.9188592 C282.123034,44.0828838 282.502258,44.1648962 282.891731,44.1648962 C284.101148,44.1648962 284.95184,43.6010615 285.443806,42.4733921 L299.710828,9.84274183 L312.286716,38.536801 L295.713602,38.536801 C294.934656,38.536801 294.268451,38.8135925 293.714989,39.3671757 C293.182026,39.9207588 292.915544,40.5871089 292.915544,41.3662259 C292.915544,42.1248398 293.182026,42.7809383 293.714989,43.3345215 C294.268451,43.8881046 294.934656,44.1648962 295.713602,44.1648962 L316.560673,44.1648962 C317.585602,44.1648962 318.374798,43.744583 318.92826,42.9039568 Z" id="path-32"></path>
        <linearGradient x1="50%" y1="0%" x2="50%" y2="100%" id="linearGradient-33">
            <stop stop-color="#00A4DB" offset="0%"></stop>
            <stop stop-color="#CC00FF" offset="100%"></stop>
        </linearGradient>
        <path d="M343.873176,5.66011371 L343.873176,41.3662259 C343.873176,42.1453429 344.139657,42.8014414 344.672621,43.3345215 C345.226083,43.8881046 345.892287,44.1648962 346.671234,44.1648962 C347.45018,44.1648962 348.116385,43.8881046 348.669847,43.3345215 C349.20281,42.8014414 349.469292,42.1453429 349.469292,41.3662259 L349.469292,5.66011371 L361.522466,5.66011371 C362.280914,5.66011371 362.936869,5.38332214 363.490331,4.829739 C364.043793,4.27615587 364.320524,3.6098058 364.320524,2.8306888 C364.320524,2.07207487 364.043793,1.41597634 363.490331,0.862393208 C362.936869,0.308810074 362.280914,0.032018507 361.522466,0.032018507 L331.820002,0.032018507 C331.041056,0.032018507 330.385101,0.308810074 329.852137,0.862393208 C329.298675,1.41597634 329.021944,2.07207487 329.021944,2.8306888 C329.021944,3.6098058 329.298675,4.27615587 329.852137,4.829739 C330.385101,5.38332214 331.041056,5.66011371 331.820002,5.66011371 L343.873176,5.66011371 Z" id="path-34"></path>
        <linearGradient x1="50%" y1="0%" x2="50%" y2="100%" id="linearGradient-35">
            <stop stop-color="#00A4DB" offset="0%"></stop>
            <stop stop-color="#CC00FF" offset="100%"></stop>
        </linearGradient>
        <path d="M388.681229,44.1648962 C389.460176,44.1648962 390.12638,43.8881046 390.679842,43.3345215 C391.233304,42.8014414 391.510035,42.1453429 391.510035,41.3662259 L391.510035,2.8306888 C391.510035,2.07207487 391.233304,1.41597634 390.679842,0.862393208 C390.12638,0.308810074 389.460176,0.032018507 388.681229,0.032018507 C387.902282,0.032018507 387.246327,0.308810074 386.713364,0.862393208 C386.159902,1.41597634 385.883171,2.07207487 385.883171,2.8306888 L385.883171,41.3662259 C385.883171,42.1453429 386.159902,42.8014414 386.713364,43.3345215 C387.246327,43.8881046 387.902282,44.1648962 388.681229,44.1648962 Z" id="path-36"></path>
        <path d="M435.118921,5.66011371 C439.669609,5.66011371 443.543843,7.26960541 446.741624,10.4885888 C449.959903,13.6870692 451.569043,17.5621511 451.569043,22.1138346 C451.569043,26.6450151 449.959903,30.5200971 446.741624,33.7390805 C443.543843,36.9375608 439.669609,38.536801 435.118921,38.536801 C430.588731,38.536801 426.714497,36.9375608 423.496218,33.7390805 C420.298437,30.5200971 418.699546,26.6450151 418.699546,22.1138346 C418.699546,17.5621511 420.298437,13.6870692 423.496218,10.4885888 C426.714497,7.26960541 430.588731,5.66011371 435.118921,5.66011371 Z M435.118921,44.1648962 C441.227502,44.1648962 446.434145,42.0120729 450.73885,37.7064263 C455.043554,33.4007797 457.195907,28.2032491 457.195907,22.1138346 C457.195907,16.0039171 455.043554,10.796135 450.73885,6.49048841 C446.434145,2.18484181 441.227502,0.032018507 435.118921,0.032018507 C429.030838,0.032018507 423.834444,2.18484181 419.52974,6.49048841 C415.225035,10.796135 413.072682,16.0039171 413.072682,22.1138346 C413.072682,28.2032491 415.225035,33.4007797 419.52974,37.7064263 C423.834444,42.0120729 429.030838,44.1648962 435.118921,44.1648962 Z" id="path-37"></path>
        <path d="M481.556612,44.1648962 C482.335559,44.1648962 483.001763,43.8881046 483.555225,43.3345215 C484.108687,42.8014414 484.385418,42.1453429 484.385418,41.3662259 L484.385418,11.0729266 L509.014479,43.0577299 C509.58844,43.7958407 510.336639,44.1648962 511.259076,44.1648962 C511.566554,44.1648962 511.863784,44.1136385 512.150764,44.0111231 C513.421677,43.5805584 514.057134,42.698926 514.057134,41.3662259 L514.057134,2.8306888 C514.057134,2.07207487 513.780403,1.41597634 513.226941,0.862393208 C512.673479,0.308810074 512.017524,0.032018507 511.259076,0.032018507 C510.480129,0.032018507 509.813925,0.308810074 509.260463,0.862393208 C508.707001,1.41597634 508.43027,2.07207487 508.43027,2.8306888 L508.43027,33.1239881 L483.801208,1.13918478 C482.981265,0.0730246651 481.935836,-0.24477306 480.664923,0.1857916 C479.39401,0.61635626 478.758554,1.49798866 478.758554,2.8306888 L478.758554,41.3662259 C478.758554,42.1453429 479.035285,42.8014414 479.588747,43.3345215 C480.121711,43.8881046 480.777666,44.1648962 481.556612,44.1648962 Z" id="path-38"></path>
        <linearGradient x1="-8.15998999%" y1="57.9668335%" x2="66.0973524%" y2="37.9625294%" id="linearGradient-39">
            <stop stop-color="#00A4DB" offset="0%"></stop>
            <stop stop-color="#CC00FF" offset="100%"></stop>
        </linearGradient>
        <linearGradient x1="11.6398273%" y1="70.2946817%" x2="60.6172167%" y2="19.3357929%" id="linearGradient-40">
            <stop stop-color="#00A4DB" offset="0%"></stop>
            <stop stop-color="#CC00FF" offset="100%"></stop>
        </linearGradient>
        <linearGradient x1="14.1974766%" y1="70.2946817%" x2="59.909318%" y2="19.3357929%" id="linearGradient-41">
            <stop stop-color="#00A4DB" offset="0%"></stop>
            <stop stop-color="#CC00FF" offset="100%"></stop>
        </linearGradient>
    </defs>
    <g id="Validated-logos" stroke="none" stroke-width="1" fill="none" fill-rule="evenodd">
        <g id="Validated-Logo" transform="translate(-1146.000000, -531.000000)">
            <g id="Archethic-Foundation---Colored---Outlines" transform="translate(1146.000000, 531.000000)">
                <g id="AE" transform="translate(102.953703, 0.000000)">
                    <path d="M97.3631185,118 C100.097826,118 102.20355,116.87619 103.680292,114.628571 C105.157034,112.326132 105.348463,109.941463 104.254581,107.474564 L59.295995,4.52264808 C57.9833356,1.50754936 55.6861816,0 52.404533,0 C49.1775786,0 46.9077716,1.50754936 45.5951122,4.52264808 L0.636526664,107.474564 C-0.183885481,109.393264 -0.211232552,111.311963 0.554485449,113.230662 C1.26550931,115.149361 2.57816874,116.519861 4.49246374,117.34216 C5.47695832,117.78072 6.48879996,118 7.52798868,118 C10.7549431,118 13.02475,116.492451 14.3374095,113.477352 L52.404533,26.2313589 L85.9593897,102.951916 L41.7391751,102.951916 C39.6607977,102.951916 37.883238,103.691986 36.4064962,105.172125 C34.9844485,106.652265 34.2734246,108.433914 34.2734246,110.517073 C34.2734246,112.545412 34.9844485,114.299652 36.4064962,115.779791 C37.883238,117.25993 39.6607977,118 41.7391751,118 L97.3631185,118 Z" id="Path" fill="url(#linearGradient-1)"></path>
                    <path d="M176.66768,14 C179.214428,14 181.392567,13.3114754 183.202098,11.9344262 C185.011629,10.557377 185.916395,8.89981785 185.916395,6.96174863 C185.916395,5.07468124 185.011629,3.44262295 183.202098,2.06557377 C181.392567,0.68852459 179.214428,0 176.66768,0 L90.1117764,0 C87.5650289,0 85.4203994,0.68852459 83.677888,2.06557377 C81.8683569,3.44262295 80.9635914,5.07468124 80.9635914,6.96174863 C80.9635914,8.89981785 81.8683569,10.557377 83.677888,11.9344262 C85.4203994,13.3114754 87.5650289,14 90.1117764,14 L176.66768,14 Z" id="Path" fill="url(#linearGradient-2)"></path>
                    <path d="M177.605956,67 C179.619099,67 181.340866,66.2131148 182.771258,64.6393443 C184.201649,63.0655738 184.916844,61.2003643 184.916844,59.0437158 C184.916844,56.8287796 184.201649,54.9344262 182.771258,53.3606557 C181.340866,51.7868852 179.619099,51 177.605956,51 L109.185575,51 C107.172431,51 105.477153,51.7868852 104.099739,53.3606557 C102.669348,54.9344262 101.954152,56.8287796 101.954152,59.0437158 C101.954152,61.2003643 102.669348,63.0655738 104.099739,64.6393443 C105.477153,66.2131148 107.172431,67 109.185575,67 L177.605956,67 Z" id="Path" fill="url(#linearGradient-3)"></path>
                    <path d="M179.543782,118 C181.023321,118 182.288716,117.311475 183.339967,115.934426 C184.391219,114.608379 184.916844,112.976321 184.916844,111.038251 C184.916844,109.100182 184.391219,107.442623 183.339967,106.065574 C182.288716,104.688525 181.023321,104 179.543782,104 L129.258923,104 C127.779384,104 126.533457,104.688525 125.52114,106.065574 C124.469889,107.442623 123.944263,109.100182 123.944263,111.038251 C123.944263,112.976321 124.469889,114.608379 125.52114,115.934426 C126.533457,117.311475 127.779384,118 129.258923,118 L179.543782,118 Z" id="Path" fill="url(#linearGradient-4)"></path>
                </g>
                <g id="Group-6" transform="translate(307.746726, 0.012767)" fill-rule="nonzero">
                    <g id="ARCHETHIC" transform="translate(0.004527, 0.000000)">
                        <g id="Path">
                            <use fill="#00A4DB" xlink:href="#path-6"></use>
                            <use fill="url(#linearGradient-5)" xlink:href="#path-6"></use>
                        </g>
                        <g id="Path">
                            <use fill="#00A4DB" xlink:href="#path-8"></use>
                            <use fill="url(#linearGradient-7)" xlink:href="#path-8"></use>
                        </g>
                        <g id="Path">
                            <use fill="#00A4DB" xlink:href="#path-10"></use>
                            <use fill="url(#linearGradient-9)" xlink:href="#path-10"></use>
                        </g>
                        <g id="Path">
                            <use fill="#00A4DB" xlink:href="#path-12"></use>
                            <use fill="url(#linearGradient-11)" xlink:href="#path-12"></use>
                        </g>
                        <g id="Shape">
                            <use fill="#00A4DB" xlink:href="#path-14"></use>
                            <use fill="url(#linearGradient-13)" xlink:href="#path-14"></use>
                        </g>
                        <g id="Path">
                            <use fill="#00A4DB" xlink:href="#path-16"></use>
                            <use fill="url(#linearGradient-15)" xlink:href="#path-16"></use>
                        </g>
                        <g id="Path">
                            <use fill="#00A4DB" xlink:href="#path-17"></use>
                            <use fill="url(#linearGradient-11)" xlink:href="#path-17"></use>
                        </g>
                        <g id="Path">
                            <use fill="#00A4DB" xlink:href="#path-19"></use>
                            <use fill="url(#linearGradient-18)" xlink:href="#path-19"></use>
                        </g>
                        <g id="Path">
                            <use fill="#00A4DB" xlink:href="#path-20"></use>
                            <use fill="url(#linearGradient-9)" xlink:href="#path-20"></use>
                        </g>
                    </g>
                    <g id="FOUNDATION" transform="translate(0.000000, 73.795104)">
                        <g id="Path">
                            <use fill="#00A4DB" xlink:href="#path-22"></use>
                            <use fill="url(#linearGradient-21)" xlink:href="#path-22"></use>
                        </g>
                        <g id="Shape">
                            <use fill="#00A4DB" xlink:href="#path-24"></use>
                            <use fill="url(#linearGradient-23)" xlink:href="#path-24"></use>
                        </g>
                        <g id="Path">
                            <use fill="#00A4DB" xlink:href="#path-26"></use>
                            <use fill="url(#linearGradient-25)" xlink:href="#path-26"></use>
                        </g>
                        <g id="Path">
                            <use fill="#00A4DB" xlink:href="#path-28"></use>
                            <use fill="url(#linearGradient-27)" xlink:href="#path-28"></use>
                        </g>
                        <g id="Path">
                            <use fill="#00A4DB" xlink:href="#path-30"></use>
                            <use fill="url(#linearGradient-29)" xlink:href="#path-30"></use>
                        </g>
                        <g id="Path">
                            <use fill="#00A4DB" xlink:href="#path-32"></use>
                            <use fill="url(#linearGradient-31)" xlink:href="#path-32"></use>
                        </g>
                        <g id="Path">
                            <use fill="#00A4DB" xlink:href="#path-34"></use>
                            <use fill="url(#linearGradient-33)" xlink:href="#path-34"></use>
                        </g>
                        <g id="Path">
                            <use fill="#00A4DB" xlink:href="#path-36"></use>
                            <use fill="url(#linearGradient-35)" xlink:href="#path-36"></use>
                        </g>
                        <g id="Shape">
                            <use fill="#00A4DB" xlink:href="#path-37"></use>
                            <use fill="url(#linearGradient-23)" xlink:href="#path-37"></use>
                        </g>
                        <g id="Path">
                            <use fill="#00A4DB" xlink:href="#path-38"></use>
                            <use fill="url(#linearGradient-27)" xlink:href="#path-38"></use>
                        </g>
                    </g>
                </g>
                <g id="Group-7" fill-rule="nonzero">
                    <path d="M31.312332,16.4557988 C32.6020073,16.2001383 36.5959602,15.4566418 41.6853973,15.5074029 C50.0308572,15.590731 56.495722,17.7579415 60.457123,19.1209041 C65.0357043,20.6960574 75.182145,24.6968277 85.444038,33.6860271 C89.31674,37.0782855 92.2041887,40.3037849 94.1675304,42.6968949 C95.083291,40.8599593 95.8704649,38.9755826 96.5100174,37.0881729 C97.3507148,34.6069582 97.9705187,32.0420256 98.3519982,29.4653634 L98.9555006,25.3907498 C96.5111892,23.0173462 93.2255606,20.0891177 89.0912789,17.0710452 C87.1244902,15.6353146 80.8660086,11.1863395 72.8594066,7.59839237 C66.5106732,4.75332054 51.7396925,-1.86600947 32.743898,0.502334725 C18.645404,2.2600935 8.73494807,8.15658876 6.44637908,9.56542445 C4.77743993,10.5927101 3.15880608,11.6974847 1.6348736,12.8495976 L0.586460024,13.6421158 L0.430547509,14.9546515 C0.204309473,16.8580062 0.0654795469,18.8255481 0.0176279669,20.8013967 C-0.138280263,27.3047203 0.666973993,37.3575251 5.38917379,48.3159414 C6.75218872,51.4797855 8.38656791,54.5903367 10.2470281,57.5612464 C10.7624431,58.3841942 11.7957185,59.9655806 13.329279,62 C13.1710869,60.8486753 13.0333182,59.6963399 12.9187495,58.5600009 C12.2477021,51.9136089 12.2523209,45.1257163 12.9317143,38.3854876 C13.4939239,32.8087757 14.4285498,28.3297012 15.099317,25.5019282 C15.4041842,24.21696 15.6866793,23.1414965 15.8996767,22.3593112 C17.7186827,21.2787926 20.0240541,20.0690172 22.7861977,18.970977 C24.4825647,18.2964914 27.4579816,17.2200726 31.312332,16.4557988 Z" id="Path" fill="url(#linearGradient-39)"></path>
                    <path d="M75.6173088,94.9143584 C70.4814947,97.2039521 66.111641,98.6219895 63.3119363,99.4469077 C62.0397381,99.8219096 60.9610509,100.111714 60.1728179,100.315945 C58.3110271,99.2699883 56.0903644,97.8646077 53.7353654,96.0058689 C52.2890114,94.8642105 49.8446753,92.8086278 47.2265188,89.8320152 C46.3504723,88.8359251 43.6796396,85.7273399 41.144383,81.2684848 C36.9874891,73.9572254 35.5962899,67.2454483 34.7741073,63.1154172 C33.8238959,58.341965 32.1616995,47.5091668 34.7800883,34.0898651 C35.7683116,29.0257633 37.1106126,24.9029575 38.1972519,22 C36.1352464,22.1176459 34.0972081,22.3711884 32.1312435,22.7546876 C29.5469251,23.2589157 27.0018621,23.997317 24.5671128,24.9490747 L20.7169174,26.4540345 C19.8912365,29.7662357 19.009209,34.0879094 18.4792284,39.193363 C18.2271252,41.6222137 17.529017,49.2913426 18.4658592,58.0541677 C19.2086359,65.0025868 20.9367616,81.1686407 32.6238921,96.535782 C41.2979624,107.941262 51.4496861,113.635685 53.8349691,114.927121 C55.5743167,115.868973 57.3558499,116.728376 59.1301629,117.481676 L60.3508636,118 L61.5715733,117.481676 C63.3418757,116.73005 65.1236932,115.870646 66.8666556,114.927514 C72.6025532,111.822286 80.9389055,106.11068 88.0778956,96.5355598 C90.1391181,93.7714111 92.0165291,90.7974801 93.6578565,87.6962224 C94.1124844,86.8370409 94.9644518,85.1486708 95.956849,82.7990227 C95.0355186,83.5105606 94.1030094,84.2050267 93.1725401,84.8710112 C87.7312708,88.767979 81.8245905,92.1469563 75.6173088,94.9143584 Z" id="Path" fill="url(#linearGradient-40)"></path>
                    <path d="M121.929745,20.5840257 C121.882023,18.6259829 121.742095,16.6728443 121.513286,14.7786378 L121.355966,13.4754494 L120.297992,12.6885752 C118.763654,11.5474022 117.13,10.4502146 115.443055,9.42767995 C109.889832,6.06392259 100.777862,1.77190924 88.905276,0.429524954 C85.4777511,0.0416109353 81.9593828,-0.0844454602 78.4480314,0.05498819 C77.4751948,0.0937374885 75.5843125,0.205293741 73.0488905,0.525866499 C74.1256617,0.960224337 75.19312,1.41270203 76.2349091,1.87755741 C82.3293531,4.59476311 88.2051491,7.96844382 93.6994091,11.9041552 C98.2453101,15.1604779 101.652503,18.1951385 103.762933,20.1809439 C104.721848,21.0833344 105.510744,21.8624589 106.080496,22.4355273 C106.098454,24.5503963 105.98291,27.1513116 105.540286,30.093195 C105.268415,31.9000434 104.699331,35.0162093 103.416387,38.7400629 C102.987111,39.9862757 101.615834,43.8208476 99.003834,48.2119375 C94.7209872,55.4121084 89.5824328,59.9458095 86.4034307,62.7066731 C82.7291904,65.8976578 74.1449816,72.7159333 61.1826362,77.1576993 C56.2909174,78.8339742 52.0408673,79.7384276 48.977975,80.2539591 C50.1065809,81.9604507 51.3412976,83.5789711 52.6529438,85.0709851 C54.3776301,87.0320902 56.2860335,88.8432349 58.3248629,90.4534952 L61.549068,93 C64.8378481,92.057299 69.0314108,90.659832 73.7308189,88.5708327 C75.9666885,87.5769536 82.9771995,84.3548591 90.1241599,79.1886642 C95.7913068,75.0921111 108.976224,65.5610792 116.509716,47.902241 C122.100996,34.7960997 121.995048,23.269343 121.929745,20.5840257 Z" id="Path" fill="url(#linearGradient-41)"></path>
                </g>
            </g>
        </g>
    </g>
</svg>