<?xml version="1.0" encoding="UTF-8"?>
<svg width="822px" height="118px" viewBox="0 0 822 118" version="1.1" xmlns="http://www.w3.org/2000/svg" xmlns:xlink="http://www.w3.org/1999/xlink">
    <title>Archethic Public Blockchain - Colored - Outlines</title>
    <defs>
        <linearGradient x1="4.03229744%" y1="70.2946817%" x2="62.7228066%" y2="19.3357929%" id="linearGradient-1">
            <stop stop-color="#00A4DB" offset="0%"></stop>
            <stop stop-color="#CC00FF" offset="100%"></stop>
        </linearGradient>
        <linearGradient x1="-8.15998999%" y1="50.361448%" x2="66.0973524%" y2="49.4538709%" id="linearGradient-2">
            <stop stop-color="#00A4DB" offset="0%"></stop>
            <stop stop-color="#CC00FF" offset="100%"></stop>
        </linearGradient>
        <linearGradient x1="-8.15998999%" y1="50.7555307%" x2="66.0973524%" y2="48.8584324%" id="linearGradient-3">
            <stop stop-color="#00A4DB" offset="0%"></stop>
            <stop stop-color="#CC00FF" offset="100%"></stop>
        </linearGradient>
        <linearGradient x1="-8.15998999%" y1="51.070939%" x2="66.0973524%" y2="48.3818669%" id="linearGradient-4">
            <stop stop-color="#00A4DB" offset="0%"></stop>
            <stop stop-color="#CC00FF" offset="100%"></stop>
        </linearGradient>
        <linearGradient x1="50%" y1="0%" x2="50%" y2="100%" id="linearGradient-5">
            <stop stop-color="#00A4DB" offset="0%"></stop>
            <stop stop-color="#CC00FF" offset="100%"></stop>
        </linearGradient>
        <path d="M13.3753893,4.27751766 C15.2021207,4.27751766 16.7579385,4.92055151 18.0428428,6.20661922 C19.3432279,7.50818172 19.9934204,9.07315568 19.9934204,10.9015411 C19.9934204,12.7299265 19.3432279,14.2949005 18.0428428,15.596463 C16.7579385,16.8825307 15.2021207,17.5255645 13.3753893,17.5255645 L2.11312573,17.5255645 C1.5248563,17.5255645 1.02947151,17.7347442 0.626971371,18.1531036 C0.208990457,18.571463 0,19.0750437 0,19.6638458 L0,31.2616973 C0,31.8504994 0.208990457,32.3463328 0.626971371,32.7491973 C1.02947151,33.1675567 1.5248563,33.3767364 2.11312573,33.3767364 C2.70139517,33.3767364 3.20452034,33.1675567 3.62250126,32.7491973 C4.04048217,32.3463328 4.24947263,31.8504994 4.24947263,31.2616973 L4.24947263,21.7788848 L13.3753893,21.7788848 C16.3631787,21.7788848 18.9175066,20.7174916 21.0383727,18.5947052 C23.1747196,16.4719187 24.242893,13.9075307 24.242893,10.9015411 C24.242893,7.9110463 23.1747196,5.34665828 21.0383727,3.20837703 C18.9175066,1.08559058 16.3631787,0.0241973459 13.3753893,0.0241973459 L2.11312573,0.0241973459 C1.5248563,0.0241973459 1.02947151,0.233377033 0.626971371,0.651736408 C0.208990457,1.07009578 0,1.56592912 0,2.13923641 C0,2.72803849 0.208990457,3.23161922 0.626971371,3.6499786 C1.02947151,4.06833797 1.5248563,4.27751766 2.11312573,4.27751766 L13.3753893,4.27751766 Z" id="path-6"></path>
        <linearGradient x1="50%" y1="0%" x2="50%" y2="100%" id="linearGradient-7">
            <stop stop-color="#00A4DB" offset="0%"></stop>
            <stop stop-color="#CC00FF" offset="100%"></stop>
        </linearGradient>
        <path d="M44.7827848,33.3767364 C48.2814398,33.3767364 51.2769697,32.1294057 53.7693744,29.6347442 C56.2617791,27.1555776 57.5079815,24.1573354 57.5079815,20.6400177 L57.5079815,2.13923641 C57.5079815,1.56592912 57.298991,1.07009578 56.8810101,0.651736408 C56.4630292,0.233377033 55.959904,0.0241973459 55.3716346,0.0241973459 C54.7988459,0.0241973459 54.3034611,0.233377033 53.8854802,0.651736408 C53.4674993,1.07009578 53.2585088,1.56592912 53.2585088,2.13923641 L53.2585088,20.6400177 C53.2585088,22.9797312 52.4302874,24.9785593 50.7738445,26.636502 C49.1174016,28.2944447 47.1203817,29.1234161 44.7827848,29.1234161 C42.4451878,29.1234161 40.4481679,28.2944447 38.791725,26.636502 C37.1352821,24.9785593 36.3070607,22.9797312 36.3070607,20.6400177 L36.3070607,2.13923641 C36.3070607,1.56592912 36.0980702,1.07009578 35.6800893,0.651736408 C35.2621084,0.233377033 34.7589832,0.0241973459 34.1707138,0.0241973459 C33.5824443,0.0241973459 33.0870595,0.233377033 32.6845594,0.651736408 C32.2665785,1.07009578 32.057588,1.56592912 32.057588,2.13923641 L32.057588,20.6400177 C32.057588,24.1573354 33.3037904,27.1555776 35.7961951,29.6347442 C38.273119,32.1294057 41.2686489,33.3767364 44.7827848,33.3767364 Z" id="path-8"></path>
        <path d="M69.5721491,18.827127 L81.3684994,18.827127 C82.7927306,18.827127 84.0079714,19.3307078 85.0142218,20.3378692 C86.0204721,21.3450307 86.5235973,22.5613718 86.5235973,23.9868927 C86.5235973,25.3969187 86.0204721,26.6055125 85.0142218,27.6126739 C84.0079714,28.6198354 82.7927306,29.1234161 81.3684994,29.1234161 L69.5721491,29.1234161 L69.5721491,18.827127 Z M69.5721491,4.27751766 L78.9534985,4.27751766 C80.3777298,4.27751766 81.5929706,4.78109839 82.5992209,5.78825985 C83.6054713,6.7954213 84.1085965,8.00401505 84.1085965,9.4140411 C84.1085965,10.8395619 83.6054713,12.0559031 82.5992209,13.0630645 C81.5929706,14.070226 80.3777298,14.5738067 78.9534985,14.5738067 L69.5721491,14.5738067 L69.5721491,4.27751766 Z M81.3684994,33.3767364 C83.9692695,33.3767364 86.1830203,32.4547963 88.0097517,30.6109161 C89.8519638,28.7825307 90.7730699,26.5745229 90.7730699,23.9868927 C90.7730699,22.2359812 90.3241275,20.6167755 89.4262425,19.1292755 C88.5438384,17.6882598 87.3672995,16.5571401 85.8966259,15.7359161 C87.5221073,13.9540151 88.3348479,11.8467234 88.3348479,9.4140411 C88.3348479,6.82641089 87.4214822,4.61840308 85.5947508,2.79001766 C83.7525386,0.94613745 81.5387879,0.0241973459 78.9534985,0.0241973459 L67.4358022,0.0241973459 C66.8475328,0.0241973459 66.352148,0.233377033 65.9496479,0.651736408 C65.5316669,1.07009578 65.3226765,1.56592912 65.3226765,2.13923641 L65.3226765,31.2616973 C65.3226765,31.8504994 65.5316669,32.3463328 65.9496479,32.7491973 C66.352148,33.1675567 66.8475328,33.3767364 67.4358022,33.3767364 L81.3684994,33.3767364 Z" id="path-9"></path>
        <linearGradient x1="50%" y1="0%" x2="50%" y2="100%" id="linearGradient-10">
            <stop stop-color="#00A4DB" offset="0%"></stop>
            <stop stop-color="#CC00FF" offset="100%"></stop>
        </linearGradient>
        <path d="M121.298061,33.3767364 C121.886331,33.3767364 122.389456,33.1675567 122.807437,32.7491973 C123.225418,32.3463328 123.434408,31.8504994 123.434408,31.2616973 C123.434408,30.6728953 123.225418,30.1693145 122.807437,29.7509552 C122.389456,29.3325958 121.886331,29.1234161 121.298061,29.1234161 L102.837238,29.1234161 L102.837238,2.13923641 C102.837238,1.56592912 102.628247,1.07009578 102.210266,0.651736408 C101.792285,0.233377033 101.28916,0.0241973459 100.700891,0.0241973459 C100.112621,0.0241973459 99.6172365,0.233377033 99.2147363,0.651736408 C98.7967554,1.07009578 98.5877649,1.56592912 98.5877649,2.13923641 L98.5877649,31.2616973 C98.5877649,31.8504994 98.7967554,32.3463328 99.2147363,32.7491973 C99.6172365,33.1675567 100.112621,33.3767364 100.700891,33.3767364 L121.298061,33.3767364 Z" id="path-11"></path>
        <linearGradient x1="50%" y1="0%" x2="50%" y2="100%" id="linearGradient-12">
            <stop stop-color="#00A4DB" offset="0%"></stop>
            <stop stop-color="#CC00FF" offset="100%"></stop>
        </linearGradient>
        <path d="M133.362229,33.3767364 C133.950498,33.3767364 134.453624,33.1675567 134.871604,32.7491973 C135.289585,32.3463328 135.498576,31.8504994 135.498576,31.2616973 L135.498576,2.13923641 C135.498576,1.56592912 135.289585,1.07009578 134.871604,0.651736408 C134.453624,0.233377033 133.950498,0.0241973459 133.362229,0.0241973459 C132.773959,0.0241973459 132.278575,0.233377033 131.876075,0.651736408 C131.458094,1.07009578 131.249103,1.56592912 131.249103,2.13923641 L131.249103,31.2616973 C131.249103,31.8504994 131.458094,32.3463328 131.876075,32.7491973 C132.278575,33.1675567 132.773959,33.3767364 133.362229,33.3767364 Z" id="path-13"></path>
        <linearGradient x1="50%" y1="0%" x2="50%" y2="100%" id="linearGradient-14">
            <stop stop-color="#00A4DB" offset="0%"></stop>
            <stop stop-color="#CC00FF" offset="100%"></stop>
        </linearGradient>
        <path d="M159.962844,33.3767364 C164.576115,33.3767364 168.508231,31.7497833 171.759194,28.495877 C172.177175,28.0775177 172.386166,27.5739369 172.386166,26.9851348 C172.386166,26.3963328 172.177175,25.9004994 171.759194,25.4976348 C171.341213,25.0792755 170.838088,24.8700958 170.249819,24.8700958 C169.661549,24.8700958 169.166164,25.0792755 168.763664,25.4976348 C166.333183,27.9148223 163.399576,29.1234161 159.962844,29.1234161 C156.541593,29.1234161 153.615726,27.9148223 151.185245,25.4976348 C148.770244,23.0649526 147.562743,20.1364369 147.562743,16.712088 C147.562743,13.2722442 148.770244,10.3359812 151.185245,7.90329891 C153.615726,5.48611141 156.541593,4.27751766 159.962844,4.27751766 C163.399576,4.27751766 166.333183,5.48611141 168.763664,7.90329891 C169.166164,8.32165828 169.661549,8.53083797 170.249819,8.53083797 C170.838088,8.53083797 171.341213,8.32165828 171.759194,7.90329891 C172.177175,7.50043433 172.386166,7.00460099 172.386166,6.41579891 C172.386166,5.82699683 172.177175,5.3234161 171.759194,4.90505672 C168.508231,1.65115047 164.576115,0.0241973459 159.962844,0.0241973459 C155.365054,0.0241973459 151.440677,1.65115047 148.189715,4.90505672 C144.938752,8.15896297 143.313271,12.0946401 143.313271,16.712088 C143.313271,21.3140411 144.938752,25.2419708 148.189715,28.495877 C151.440677,31.7497833 155.365054,33.3767364 159.962844,33.3767364 Z" id="path-15"></path>
        <path d="M199.417146,18.827127 L211.213496,18.827127 C212.637728,18.827127 213.852968,19.3307078 214.859219,20.3378692 C215.865469,21.3450307 216.368594,22.5613718 216.368594,23.9868927 C216.368594,25.3969187 215.865469,26.6055125 214.859219,27.6126739 C213.852968,28.6198354 212.637728,29.1234161 211.213496,29.1234161 L199.417146,29.1234161 L199.417146,18.827127 Z M199.417146,4.27751766 L208.798495,4.27751766 C210.222727,4.27751766 211.437968,4.78109839 212.444218,5.78825985 C213.450468,6.7954213 213.953593,8.00401505 213.953593,9.4140411 C213.953593,10.8395619 213.450468,12.0559031 212.444218,13.0630645 C211.437968,14.070226 210.222727,14.5738067 208.798495,14.5738067 L199.417146,14.5738067 L199.417146,4.27751766 Z M211.213496,33.3767364 C213.814266,33.3767364 216.028017,32.4547963 217.854749,30.6109161 C219.696961,28.7825307 220.618067,26.5745229 220.618067,23.9868927 C220.618067,22.2359812 220.169124,20.6167755 219.271239,19.1292755 C218.388835,17.6882598 217.212296,16.5571401 215.741623,15.7359161 C217.367104,13.9540151 218.179845,11.8467234 218.179845,9.4140411 C218.179845,6.82641089 217.266479,4.61840308 215.439748,2.79001766 C213.597536,0.94613745 211.383785,0.0241973459 208.798495,0.0241973459 L197.280799,0.0241973459 C196.69253,0.0241973459 196.197145,0.233377033 195.794645,0.651736408 C195.376664,1.07009578 195.167673,1.56592912 195.167673,2.13923641 L195.167673,31.2616973 C195.167673,31.8504994 195.376664,32.3463328 195.794645,32.7491973 C196.197145,33.1675567 196.69253,33.3767364 197.280799,33.3767364 L211.213496,33.3767364 Z" id="path-16"></path>
        <path d="M251.143058,33.3767364 C251.731328,33.3767364 252.234453,33.1675567 252.652434,32.7491973 C253.070415,32.3463328 253.279405,31.8504994 253.279405,31.2616973 C253.279405,30.6728953 253.070415,30.1693145 252.652434,29.7509552 C252.234453,29.3325958 251.731328,29.1234161 251.143058,29.1234161 L232.682235,29.1234161 L232.682235,2.13923641 C232.682235,1.56592912 232.473244,1.07009578 232.055263,0.651736408 C231.637282,0.233377033 231.134157,0.0241973459 230.545888,0.0241973459 C229.957618,0.0241973459 229.462233,0.233377033 229.059733,0.651736408 C228.641752,1.07009578 228.432762,1.56592912 228.432762,2.13923641 L228.432762,31.2616973 C228.432762,31.8504994 228.641752,32.3463328 229.059733,32.7491973 C229.462233,33.1675567 229.957618,33.3767364 230.545888,33.3767364 L251.143058,33.3767364 Z" id="path-17"></path>
        <linearGradient x1="50%" y1="0%" x2="50%" y2="100%" id="linearGradient-18">
            <stop stop-color="#00A4DB" offset="0%"></stop>
            <stop stop-color="#CC00FF" offset="100%"></stop>
        </linearGradient>
        <path d="M274.724922,4.27751766 C278.161654,4.27751766 281.087521,5.4938588 283.502521,7.9265411 C285.933003,10.3437286 287.148244,13.2722442 287.148244,16.712088 C287.148244,20.1364369 285.933003,23.0649526 283.502521,25.4976348 C281.087521,27.9148223 278.161654,29.1234161 274.724922,29.1234161 C271.303671,29.1234161 268.377805,27.9148223 265.947323,25.4976348 C263.532322,23.0649526 262.324822,20.1364369 262.324822,16.712088 C262.324822,13.2722442 263.532322,10.3437286 265.947323,7.9265411 C268.377805,5.4938588 271.303671,4.27751766 274.724922,4.27751766 Z M274.724922,33.3767364 C279.338193,33.3767364 283.27031,31.7497833 286.521272,28.495877 C289.772235,25.2419708 291.397716,21.3140411 291.397716,16.712088 C291.397716,12.0946401 289.772235,8.15896297 286.521272,4.90505672 C283.27031,1.65115047 279.338193,0.0241973459 274.724922,0.0241973459 C270.127132,0.0241973459 266.202756,1.65115047 262.951793,4.90505672 C259.70083,8.15896297 258.075349,12.0946401 258.075349,16.712088 C258.075349,21.3140411 259.70083,25.2419708 262.951793,28.495877 C266.202756,31.7497833 270.127132,33.3767364 274.724922,33.3767364 Z" id="path-19"></path>
        <path d="M315.861984,33.3767364 C320.475255,33.3767364 324.407372,31.7497833 327.658335,28.495877 C328.076316,28.0775177 328.285306,27.5739369 328.285306,26.9851348 C328.285306,26.3963328 328.076316,25.9004994 327.658335,25.4976348 C327.240354,25.0792755 326.737229,24.8700958 326.148959,24.8700958 C325.56069,24.8700958 325.065305,25.0792755 324.662805,25.4976348 C322.232323,27.9148223 319.298716,29.1234161 315.861984,29.1234161 C312.440733,29.1234161 309.514867,27.9148223 307.084385,25.4976348 C304.669384,23.0649526 303.461884,20.1364369 303.461884,16.712088 C303.461884,13.2722442 304.669384,10.3359812 307.084385,7.90329891 C309.514867,5.48611141 312.440733,4.27751766 315.861984,4.27751766 C319.298716,4.27751766 322.232323,5.48611141 324.662805,7.90329891 C325.065305,8.32165828 325.56069,8.53083797 326.148959,8.53083797 C326.737229,8.53083797 327.240354,8.32165828 327.658335,7.90329891 C328.076316,7.50043433 328.285306,7.00460099 328.285306,6.41579891 C328.285306,5.82699683 328.076316,5.3234161 327.658335,4.90505672 C324.407372,1.65115047 320.475255,0.0241973459 315.861984,0.0241973459 C311.264194,0.0241973459 307.339818,1.65115047 304.088855,4.90505672 C300.837893,8.15896297 299.212411,12.0946401 299.212411,16.712088 C299.212411,21.3140411 300.837893,25.2419708 304.088855,28.495877 C307.339818,31.7497833 311.264194,33.3767364 315.861984,33.3767364 Z" id="path-20"></path>
        <linearGradient x1="50%" y1="0%" x2="50%" y2="100%" id="linearGradient-21">
            <stop stop-color="#00A4DB" offset="0%"></stop>
            <stop stop-color="#CC00FF" offset="100%"></stop>
        </linearGradient>
        <path d="M336.100001,31.2616973 C336.100001,31.8504994 336.308992,32.3463328 336.726972,32.7491973 C337.129473,33.1675567 337.624857,33.3767364 338.213127,33.3767364 C338.801396,33.3767364 339.304521,33.1675567 339.722502,32.7491973 C340.140483,32.3463328 340.349474,31.8504994 340.349474,31.2616973 L340.349474,20.6632598 L342.857359,18.3855255 L356.046979,32.702713 C356.46496,33.1520619 356.983566,33.3767364 357.602797,33.3767364 C358.160105,33.3767364 358.640009,33.1907989 359.042509,32.8189239 C359.475971,32.4160593 359.700442,31.920226 359.715923,31.3314239 C359.746884,30.7581166 359.561115,30.2545359 359.158615,29.8206817 L345.992216,15.5499786 L359.019288,3.71970516 C359.45275,3.33233537 359.684961,2.84424943 359.715923,2.25544735 C359.746884,1.66664526 359.568855,1.15531714 359.181836,0.721462971 C358.779336,0.287608804 358.291692,0.0551869292 357.718903,0.0241973459 C357.130633,-0.00679223744 356.619768,0.179145263 356.186306,0.582009846 L340.349474,14.9456817 L340.349474,2.13923641 C340.349474,1.56592912 340.140483,1.07009578 339.722502,0.651736408 C339.304521,0.233377033 338.801396,0.0241973459 338.213127,0.0241973459 C337.624857,0.0241973459 337.129473,0.233377033 336.726972,0.651736408 C336.308992,1.07009578 336.100001,1.56592912 336.100001,2.13923641 L336.100001,31.2616973 Z" id="path-22"></path>
        <path d="M384.226633,33.3767364 C388.839904,33.3767364 392.772021,31.7497833 396.022983,28.495877 C396.440964,28.0775177 396.649955,27.5739369 396.649955,26.9851348 C396.649955,26.3963328 396.440964,25.9004994 396.022983,25.4976348 C395.605003,25.0792755 395.101877,24.8700958 394.513608,24.8700958 C393.925338,24.8700958 393.429954,25.0792755 393.027454,25.4976348 C390.596972,27.9148223 387.663365,29.1234161 384.226633,29.1234161 C380.805382,29.1234161 377.879516,27.9148223 375.449034,25.4976348 C373.034033,23.0649526 371.826533,20.1364369 371.826533,16.712088 C371.826533,13.2722442 373.034033,10.3359812 375.449034,7.90329891 C377.879516,5.48611141 380.805382,4.27751766 384.226633,4.27751766 C387.663365,4.27751766 390.596972,5.48611141 393.027454,7.90329891 C393.429954,8.32165828 393.925338,8.53083797 394.513608,8.53083797 C395.101877,8.53083797 395.605003,8.32165828 396.022983,7.90329891 C396.440964,7.50043433 396.649955,7.00460099 396.649955,6.41579891 C396.649955,5.82699683 396.440964,5.3234161 396.022983,4.90505672 C392.772021,1.65115047 388.839904,0.0241973459 384.226633,0.0241973459 C379.628843,0.0241973459 375.704467,1.65115047 372.453504,4.90505672 C369.202541,8.15896297 367.57706,12.0946401 367.57706,16.712088 C367.57706,21.3140411 369.202541,25.2419708 372.453504,28.495877 C375.704467,31.7497833 379.628843,33.3767364 384.226633,33.3767364 Z" id="path-23"></path>
        <path d="M406.577776,33.3767364 C407.166045,33.3767364 407.66917,33.1675567 408.087151,32.7491973 C408.505132,32.3463328 408.714122,31.8504994 408.714122,31.2616973 L408.714122,18.827127 L425.665571,18.827127 L425.665571,31.2616973 C425.665571,31.8504994 425.874561,32.3463328 426.292542,32.7491973 C426.710523,33.1675567 427.205908,33.3767364 427.778696,33.3767364 C428.366966,33.3767364 428.870091,33.1675567 429.288072,32.7491973 C429.706053,32.3463328 429.915043,31.8504994 429.915043,31.2616973 L429.915043,2.13923641 C429.915043,1.56592912 429.706053,1.07009578 429.288072,0.651736408 C428.870091,0.233377033 428.366966,0.0241973459 427.778696,0.0241973459 C427.205908,0.0241973459 426.710523,0.233377033 426.292542,0.651736408 C425.874561,1.07009578 425.665571,1.56592912 425.665571,2.13923641 L425.665571,14.5738067 L408.714122,14.5738067 L408.714122,2.13923641 C408.714122,1.56592912 408.505132,1.07009578 408.087151,0.651736408 C407.66917,0.233377033 407.166045,0.0241973459 406.577776,0.0241973459 C405.989506,0.0241973459 405.494121,0.233377033 405.091621,0.651736408 C404.67364,1.07009578 404.46465,1.56592912 404.46465,2.13923641 L404.46465,31.2616973 C404.46465,31.8504994 404.67364,32.3463328 405.091621,32.7491973 C405.494121,33.1675567 405.989506,33.3767364 406.577776,33.3767364 Z" id="path-24"></path>
        <linearGradient x1="50%" y1="0%" x2="50%" y2="100%" id="linearGradient-25">
            <stop stop-color="#00A4DB" offset="0%"></stop>
            <stop stop-color="#CC00FF" offset="100%"></stop>
        </linearGradient>
        <path d="M447.505847,19.4314239 L452.730609,7.43845516 L457.978591,19.4314239 L447.505847,19.4314239 Z M454.681186,1.30251766 C454.309648,0.450304117 453.659455,0.0241973459 452.730609,0.0241973459 C451.817243,0.0241973459 451.174791,0.450304117 450.803252,1.30251766 L438.078056,30.4017364 C437.845844,30.9285593 437.838104,31.470877 438.054835,32.0286895 C438.256085,32.5710072 438.627623,32.958377 439.16945,33.1907989 C439.711277,33.4232208 440.253105,33.4309682 440.794932,33.2140411 C441.336759,33.0126088 441.723778,32.6407338 441.95599,32.0984161 L445.648154,23.661502 L459.836284,23.661502 L463.528449,32.0984161 C463.899988,32.9506296 464.54244,33.3767364 465.455806,33.3767364 C465.74994,33.3767364 466.036335,33.3147572 466.314989,33.1907989 C466.856816,32.958377 467.228354,32.5710072 467.429604,32.0286895 C467.646335,31.470877 467.638595,30.9285593 467.406383,30.4017364 L454.681186,1.30251766 Z" id="path-26"></path>
        <path d="M477.682521,33.3767364 C478.270791,33.3767364 478.773916,33.1675567 479.191897,32.7491973 C479.609878,32.3463328 479.818868,31.8504994 479.818868,31.2616973 L479.818868,2.13923641 C479.818868,1.56592912 479.609878,1.07009578 479.191897,0.651736408 C478.773916,0.233377033 478.270791,0.0241973459 477.682521,0.0241973459 C477.094252,0.0241973459 476.598867,0.233377033 476.196367,0.651736408 C475.778386,1.07009578 475.569396,1.56592912 475.569396,2.13923641 L475.569396,31.2616973 C475.569396,31.8504994 475.778386,32.3463328 476.196367,32.7491973 C476.598867,33.1675567 477.094252,33.3767364 477.682521,33.3767364 Z" id="path-27"></path>
        <linearGradient x1="50%" y1="0%" x2="50%" y2="100%" id="linearGradient-28">
            <stop stop-color="#00A4DB" offset="0%"></stop>
            <stop stop-color="#CC00FF" offset="100%"></stop>
        </linearGradient>
        <path d="M489.746689,33.3767364 C490.334958,33.3767364 490.838084,33.1675567 491.256065,32.7491973 C491.674045,32.3463328 491.883036,31.8504994 491.883036,31.2616973 L491.883036,8.36814266 L510.483187,32.5400177 C510.916648,33.0978302 511.481697,33.3767364 512.178331,33.3767364 C512.410543,33.3767364 512.635014,33.3379994 512.851745,33.2605255 C513.811553,32.9351348 514.291457,32.2688588 514.291457,31.2616973 L514.291457,2.13923641 C514.291457,1.56592912 514.082467,1.07009578 513.664486,0.651736408 C513.246505,0.233377033 512.75112,0.0241973459 512.178331,0.0241973459 C511.590062,0.0241973459 511.086937,0.233377033 510.668956,0.651736408 C510.250975,1.07009578 510.041984,1.56592912 510.041984,2.13923641 L510.041984,25.0327911 L491.441834,0.860916096 C490.822603,0.0551869292 490.033083,-0.184982342 489.073275,0.140408283 C488.113467,0.465798908 487.633563,1.13207495 487.633563,2.13923641 L487.633563,31.2616973 C487.633563,31.8504994 487.842554,32.3463328 488.260535,32.7491973 C488.663035,33.1675567 489.15842,33.3767364 489.746689,33.3767364 Z" id="path-29"></path>
        <linearGradient x1="50%" y1="0%" x2="50%" y2="100%" id="linearGradient-30">
            <stop stop-color="#00A4DB" offset="0%"></stop>
            <stop stop-color="#CC00FF" offset="100%"></stop>
        </linearGradient>
        <path d="M53.6364934,59.2177734 C54.4004501,58.0283203 54.4994816,56.7963867 53.9335877,55.5219727 L30.67535,2.33642578 C29.9962774,0.778808594 28.8079003,0 27.1102187,0 C25.4408318,0 24.266602,0.778808594 23.5875294,2.33642578 L0.329291687,55.5219727 C-0.0951287094,56.5131836 -0.109276056,57.5043945 0.286849647,58.4956055 C0.654680657,59.4868164 1.33375329,60.1948242 2.32406755,60.6196289 C2.83337202,60.8461914 3.35682384,60.9594727 3.89442301,60.9594727 C5.5638099,60.9594727 6.73803967,60.1806641 7.4171123,58.6230469 L27.1102187,13.5512695 L44.4690129,53.1855469 L21.5927535,53.1855469 C20.5175552,53.1855469 19.5979777,53.5678711 18.834021,54.3325195 C18.0983589,55.097168 17.7305279,56.0175781 17.7305279,57.09375 C17.7305279,58.1416016 18.0983589,59.0478516 18.834021,59.8125 C19.5979777,60.5771484 20.5175552,60.9594727 21.5927535,60.9594727 L50.3684564,60.9594727 C51.783191,60.9594727 52.8725367,60.3789062 53.6364934,59.2177734 Z" id="path-31"></path>
        <linearGradient x1="50%" y1="0%" x2="50%" y2="100%" id="linearGradient-32">
            <stop stop-color="#00A4DB" offset="0%"></stop>
            <stop stop-color="#CC00FF" offset="100%"></stop>
        </linearGradient>
        <path d="M72.9278152,60.9594727 C74.0030135,60.9594727 74.922591,60.5771484 75.6865477,59.8125 C76.4505044,59.0761719 76.8324828,58.1699219 76.8324828,57.09375 L76.8324828,39.7617188 L88.7586959,39.7617188 L107.136099,59.7275391 C107.900056,60.5488281 108.847928,60.9594727 109.979716,60.9594727 C110.998325,60.9594727 111.87546,60.6196289 112.611122,59.9399414 C113.403374,59.2036133 113.827794,58.2973633 113.884383,57.2211914 C113.912678,56.1733398 113.558994,55.2529297 112.823332,54.4599609 L98.6476912,39.0395508 C102.891895,37.878418 106.372142,35.5419922 109.088433,32.0302734 C111.861313,28.4619141 113.247753,24.4121094 113.247753,19.8808594 C113.247753,14.4150391 111.309566,9.72802734 107.433193,5.81982422 C103.55682,1.93994141 98.8740487,0 93.3848782,0 L72.9278152,0 C71.8526168,0 70.9471866,0.382324219 70.2115246,1.14697266 C69.4475679,1.91162109 69.0655896,2.81787109 69.0655896,3.86572266 C69.0655896,4.94189453 69.4475679,5.86230469 70.2115246,6.62695312 C70.9471866,7.39160156 71.8526168,7.77392578 72.9278152,7.77392578 L93.3848782,7.77392578 C96.723652,7.77392578 99.581416,8.94921875 101.95817,11.2998047 C104.30663,13.6787109 105.48086,16.5390625 105.48086,19.8808594 C105.48086,23.2226562 104.30663,26.0830078 101.95817,28.4619141 C99.581416,30.8125 96.723652,31.987793 93.3848782,31.987793 L72.9278152,31.987793 C71.8526168,31.987793 70.9471866,32.3701172 70.2115246,33.1347656 C69.4475679,33.8994141 69.0655896,34.8198242 69.0655896,35.8959961 L69.0655896,57.09375 C69.0655896,58.1699219 69.4475679,59.0761719 70.2115246,59.8125 C70.9471866,60.5771484 71.8526168,60.9594727 72.9278152,60.9594727 Z" id="path-33"></path>
        <linearGradient x1="50%" y1="0%" x2="50%" y2="100%" id="linearGradient-34">
            <stop stop-color="#00A4DB" offset="0%"></stop>
            <stop stop-color="#CC00FF" offset="100%"></stop>
        </linearGradient>
        <path d="M158.640929,60.9594727 C167.072747,60.9594727 174.259599,57.9858398 180.201485,52.0385742 C180.965442,51.2739258 181.34742,50.3535156 181.34742,49.2773438 C181.34742,48.2011719 180.965442,47.2949219 180.201485,46.5585938 C179.437528,45.7939453 178.517951,45.4116211 177.442752,45.4116211 C176.367554,45.4116211 175.462124,45.7939453 174.726462,46.5585938 C170.284195,50.9765625 164.922351,53.1855469 158.640929,53.1855469 C152.387802,53.1855469 147.040105,50.9765625 142.597838,46.5585938 C138.183866,42.1123047 135.97688,36.7597656 135.97688,30.5009766 C135.97688,24.2138672 138.183866,18.847168 142.597838,14.4008789 C147.040105,9.98291016 152.387802,7.77392578 158.640929,7.77392578 C164.922351,7.77392578 170.284195,9.98291016 174.726462,14.4008789 C175.462124,15.1655273 176.367554,15.5478516 177.442752,15.5478516 C178.517951,15.5478516 179.437528,15.1655273 180.201485,14.4008789 C180.965442,13.6645508 181.34742,12.7583008 181.34742,11.6821289 C181.34742,10.605957 180.965442,9.68554688 180.201485,8.92089844 C174.259599,2.97363281 167.072747,0 158.640929,0 C150.237405,0 143.0647,2.97363281 137.122815,8.92089844 C131.180929,14.8681641 128.209986,22.0615234 128.209986,30.5009766 C128.209986,38.9121094 131.180929,46.0913086 137.122815,52.0385742 C143.0647,57.9858398 150.237405,60.9594727 158.640929,60.9594727 Z" id="path-35"></path>
        <linearGradient x1="50%" y1="0%" x2="50%" y2="100%" id="linearGradient-36">
            <stop stop-color="#00A4DB" offset="0%"></stop>
            <stop stop-color="#CC00FF" offset="100%"></stop>
        </linearGradient>
        <path d="M199.492807,60.9594727 C200.568005,60.9594727 201.487583,60.5771484 202.251539,59.8125 C203.015496,59.0761719 203.397474,58.1699219 203.397474,57.09375 L203.397474,34.3666992 L234.380163,34.3666992 L234.380163,57.09375 C234.380163,58.1699219 234.762142,59.0761719 235.526098,59.8125 C236.290055,60.5771484 237.195485,60.9594727 238.242389,60.9594727 C239.317587,60.9594727 240.237165,60.5771484 241.001121,59.8125 C241.765078,59.0761719 242.147057,58.1699219 242.147057,57.09375 L242.147057,3.86572266 C242.147057,2.81787109 241.765078,1.91162109 241.001121,1.14697266 C240.237165,0.382324219 239.317587,0 238.242389,0 C237.195485,0 236.290055,0.382324219 235.526098,1.14697266 C234.762142,1.91162109 234.380163,2.81787109 234.380163,3.86572266 L234.380163,26.5927734 L203.397474,26.5927734 L203.397474,3.86572266 C203.397474,2.81787109 203.015496,1.91162109 202.251539,1.14697266 C201.487583,0.382324219 200.568005,0 199.492807,0 C198.417608,0 197.512178,0.382324219 196.776516,1.14697266 C196.012559,1.91162109 195.630581,2.81787109 195.630581,3.86572266 L195.630581,57.09375 C195.630581,58.1699219 196.012559,59.0761719 196.776516,59.8125 C197.512178,60.5771484 198.417608,60.9594727 199.492807,60.9594727 Z" id="path-37"></path>
        <linearGradient x1="50%" y1="0%" x2="50%" y2="100%" id="linearGradient-38">
            <stop stop-color="#00A4DB" offset="0%"></stop>
            <stop stop-color="#CC00FF" offset="100%"></stop>
        </linearGradient>
        <path d="M300.739707,57.09375 C300.739707,56.0175781 300.357729,55.097168 299.593772,54.3325195 C298.829815,53.5678711 297.910238,53.1855469 296.835039,53.1855469 L260.292443,53.1855469 C259.217245,53.1855469 258.311815,53.5678711 257.576153,54.3325195 C256.812196,55.097168 256.430218,56.0175781 256.430218,57.09375 C256.430218,58.1699219 256.812196,59.0761719 257.576153,59.8125 C258.311815,60.5771484 259.217245,60.9594727 260.292443,60.9594727 L296.835039,60.9594727 C297.910238,60.9594727 298.829815,60.5771484 299.593772,59.8125 C300.357729,59.0761719 300.739707,58.1699219 300.739707,57.09375 Z M260.292443,0 C259.217245,0 258.311815,0.382324219 257.576153,1.14697266 C256.812196,1.91162109 256.430218,2.81787109 256.430218,3.86572266 C256.430218,4.94189453 256.812196,5.86230469 257.576153,6.62695312 C258.311815,7.39160156 259.217245,7.77392578 260.292443,7.77392578 L296.835039,7.77392578 C297.910238,7.77392578 298.829815,7.39160156 299.593772,6.62695312 C300.357729,5.86230469 300.739707,4.94189453 300.739707,3.86572266 C300.739707,2.81787109 300.357729,1.91162109 299.593772,1.14697266 C298.829815,0.382324219 297.910238,0 296.835039,0 L260.292443,0 Z M260.292443,26.5927734 C259.217245,26.5927734 258.311815,26.9750977 257.576153,27.7397461 C256.812196,28.5043945 256.430218,29.4248047 256.430218,30.5009766 C256.430218,31.5488281 256.812196,32.4550781 257.576153,33.2197266 C258.311815,33.984375 259.217245,34.3666992 260.292443,34.3666992 L296.835039,34.3666992 C297.910238,34.3666992 298.829815,33.984375 299.593772,33.2197266 C300.357729,32.4550781 300.739707,31.5488281 300.739707,30.5009766 C300.739707,29.4248047 300.357729,28.5043945 299.593772,27.7397461 C298.829815,26.9750977 297.910238,26.5927734 296.835039,26.5927734 L260.292443,26.5927734 Z" id="path-39"></path>
        <linearGradient x1="50%" y1="0%" x2="50%" y2="100%" id="linearGradient-40">
            <stop stop-color="#00A4DB" offset="0%"></stop>
            <stop stop-color="#CC00FF" offset="100%"></stop>
        </linearGradient>
        <path d="M335.522373,7.77392578 L335.522373,57.09375 C335.522373,58.1699219 335.890204,59.0761719 336.625866,59.8125 C337.389823,60.5771484 338.3094,60.9594727 339.384599,60.9594727 C340.459797,60.9594727 341.379375,60.5771484 342.143331,59.8125 C342.878993,59.0761719 343.246824,58.1699219 343.246824,57.09375 L343.246824,7.77392578 L359.884104,7.77392578 C360.931007,7.77392578 361.836438,7.39160156 362.600394,6.62695312 C363.364351,5.86230469 363.746329,4.94189453 363.746329,3.86572266 C363.746329,2.81787109 363.364351,1.91162109 362.600394,1.14697266 C361.836438,0.382324219 360.931007,0 359.884104,0 L318.885094,0 C317.809895,0 316.904465,0.382324219 316.168803,1.14697266 C315.404846,1.91162109 315.022868,2.81787109 315.022868,3.86572266 C315.022868,4.94189453 315.404846,5.86230469 316.168803,6.62695312 C316.904465,7.39160156 317.809895,7.77392578 318.885094,7.77392578 L335.522373,7.77392578 Z" id="path-41"></path>
        <path d="M381.891716,60.9594727 C382.966914,60.9594727 383.886492,60.5771484 384.650449,59.8125 C385.414405,59.0761719 385.796384,58.1699219 385.796384,57.09375 L385.796384,34.3666992 L416.779073,34.3666992 L416.779073,57.09375 C416.779073,58.1699219 417.161051,59.0761719 417.925008,59.8125 C418.688964,60.5771484 419.594395,60.9594727 420.641298,60.9594727 C421.716497,60.9594727 422.636074,60.5771484 423.400031,59.8125 C424.163988,59.0761719 424.545966,58.1699219 424.545966,57.09375 L424.545966,3.86572266 C424.545966,2.81787109 424.163988,1.91162109 423.400031,1.14697266 C422.636074,0.382324219 421.716497,0 420.641298,0 C419.594395,0 418.688964,0.382324219 417.925008,1.14697266 C417.161051,1.91162109 416.779073,2.81787109 416.779073,3.86572266 L416.779073,26.5927734 L385.796384,26.5927734 L385.796384,3.86572266 C385.796384,2.81787109 385.414405,1.91162109 384.650449,1.14697266 C383.886492,0.382324219 382.966914,0 381.891716,0 C380.816518,0 379.911088,0.382324219 379.175426,1.14697266 C378.411469,1.91162109 378.02949,2.81787109 378.02949,3.86572266 L378.02949,57.09375 C378.02949,58.1699219 378.411469,59.0761719 379.175426,59.8125 C379.911088,60.5771484 380.816518,60.9594727 381.891716,60.9594727 Z" id="path-42"></path>
        <linearGradient x1="50%" y1="0%" x2="50%" y2="100%" id="linearGradient-43">
            <stop stop-color="#00A4DB" offset="0%"></stop>
            <stop stop-color="#CC00FF" offset="100%"></stop>
        </linearGradient>
        <path d="M442.691353,60.9594727 C443.766551,60.9594727 444.686128,60.5771484 445.450085,59.8125 C446.214042,59.0761719 446.59602,58.1699219 446.59602,57.09375 L446.59602,3.86572266 C446.59602,2.81787109 446.214042,1.91162109 445.450085,1.14697266 C444.686128,0.382324219 443.766551,0 442.691353,0 C441.616154,0 440.710724,0.382324219 439.975062,1.14697266 C439.211105,1.91162109 438.829127,2.81787109 438.829127,3.86572266 L438.829127,57.09375 C438.829127,58.1699219 439.211105,59.0761719 439.975062,59.8125 C440.710724,60.5771484 441.616154,60.9594727 442.691353,60.9594727 Z" id="path-44"></path>
        <path d="M491.310124,60.9594727 C499.741942,60.9594727 506.928794,57.9858398 512.87068,52.0385742 C513.634636,51.2739258 514.016615,50.3535156 514.016615,49.2773438 C514.016615,48.2011719 513.634636,47.2949219 512.87068,46.5585938 C512.106723,45.7939453 511.187146,45.4116211 510.111947,45.4116211 C509.036749,45.4116211 508.131319,45.7939453 507.395657,46.5585938 C502.95339,50.9765625 497.591546,53.1855469 491.310124,53.1855469 C485.056996,53.1855469 479.709299,50.9765625 475.267033,46.5585938 C470.853061,42.1123047 468.646075,36.7597656 468.646075,30.5009766 C468.646075,24.2138672 470.853061,18.847168 475.267033,14.4008789 C479.709299,9.98291016 485.056996,7.77392578 491.310124,7.77392578 C497.591546,7.77392578 502.95339,9.98291016 507.395657,14.4008789 C508.131319,15.1655273 509.036749,15.5478516 510.111947,15.5478516 C511.187146,15.5478516 512.106723,15.1655273 512.87068,14.4008789 C513.634636,13.6645508 514.016615,12.7583008 514.016615,11.6821289 C514.016615,10.605957 513.634636,9.68554688 512.87068,8.92089844 C506.928794,2.97363281 499.741942,0 491.310124,0 C482.9066,0 475.733895,2.97363281 469.79201,8.92089844 C463.850124,14.8681641 460.879181,22.0615234 460.879181,30.5009766 C460.879181,38.9121094 463.850124,46.0913086 469.79201,52.0385742 C475.733895,57.9858398 482.9066,60.9594727 491.310124,60.9594727 Z" id="path-45"></path>
        <linearGradient x1="-8.15998999%" y1="57.9740938%" x2="66.0973524%" y2="37.9515595%" id="linearGradient-46">
            <stop stop-color="#00A4DB" offset="0%"></stop>
            <stop stop-color="#CC00FF" offset="100%"></stop>
        </linearGradient>
        <linearGradient x1="11.6747537%" y1="70.2946817%" x2="60.6075499%" y2="19.3357929%" id="linearGradient-47">
            <stop stop-color="#00A4DB" offset="0%"></stop>
            <stop stop-color="#CC00FF" offset="100%"></stop>
        </linearGradient>
        <linearGradient x1="14.2300743%" y1="70.2946817%" x2="59.9002957%" y2="19.3357929%" id="linearGradient-48">
            <stop stop-color="#00A4DB" offset="0%"></stop>
            <stop stop-color="#CC00FF" offset="100%"></stop>
        </linearGradient>
    </defs>
    <g id="Validated-logos" stroke="none" stroke-width="1" fill="none" fill-rule="evenodd">
        <g id="Validated-Logo" transform="translate(-1146.000000, -143.000000)">
            <g id="Archethic-Public-Blockchain---Colored---Outlines" transform="translate(1146.000000, 143.000000)">
                <g id="AE" transform="translate(102.906823, 0.000000)">
                    <path d="M97.3187846,118 C100.052246,118 102.157012,116.87619 103.633082,114.628571 C105.109151,112.326132 105.300493,109.941463 104.207109,107.474564 L59.2689948,4.52264808 C57.9569331,1.50754936 55.6608251,0 52.3806708,0 C49.1551857,0 46.8864123,1.50754936 45.5743506,4.52264808 L0.636236824,107.474564 C-0.183801749,109.393264 -0.211136368,111.311963 0.554232966,113.230662 C1.26493306,115.149361 2.57699478,116.519861 4.49041812,117.34216 C5.4744644,117.78072 6.48584531,118 7.52456084,118 C10.7500459,118 13.0188193,116.492451 14.330881,113.477352 L52.3806708,26.2313589 L85.9202484,102.951916 L41.7201693,102.951916 C39.6427383,102.951916 37.865988,103.691986 36.3899186,105.172125 C34.9685184,106.652265 34.2578183,108.433914 34.2578183,110.517073 C34.2578183,112.545412 34.9685184,114.299652 36.3899186,115.779791 C37.865988,117.25993 39.6427383,118 41.7201693,118 L97.3187846,118 Z" id="Path" fill="url(#linearGradient-1)"></path>
                    <path d="M176.587236,14 C179.132823,14 181.309971,13.3114754 183.118678,11.9344262 C184.927385,10.557377 185.831739,8.89981785 185.831739,6.96174863 C185.831739,5.07468124 184.927385,3.44262295 183.118678,2.06557377 C181.309971,0.68852459 179.132823,0 176.587236,0 L90.0707443,0 C87.5251565,0 85.3815036,0.68852459 83.6397856,2.06557377 C81.8310785,3.44262295 80.9267249,5.07468124 80.9267249,6.96174863 C80.9267249,8.89981785 81.8310785,10.557377 83.6397856,11.9344262 C85.3815036,13.3114754 87.5251565,14 90.0707443,14 L176.587236,14 Z" id="Path" fill="url(#linearGradient-2)"></path>
                    <path d="M177.525084,66 C179.53731,66 181.258293,65.2131148 182.688033,63.6393443 C184.117773,62.0655738 184.832643,60.2003643 184.832643,58.0437158 C184.832643,55.8287796 184.117773,53.9344262 182.688033,52.3606557 C181.258293,50.7868852 179.53731,50 177.525084,50 L109.135857,50 C107.123631,50 105.429124,50.7868852 104.052338,52.3606557 C102.622598,53.9344262 101.907728,55.8287796 101.907728,58.0437158 C101.907728,60.2003643 102.622598,62.0655738 104.052338,63.6393443 C105.429124,65.2131148 107.123631,66 109.135857,66 L177.525084,66 Z" id="Path" fill="url(#linearGradient-3)"></path>
                    <path d="M179.462027,118 C180.940892,118 182.205711,117.311475 183.256484,115.934426 C184.307257,114.608379 184.832643,112.976321 184.832643,111.038251 C184.832643,109.100182 184.307257,107.442623 183.256484,106.065574 C182.205711,104.688525 180.940892,104 179.462027,104 L129.200066,104 C127.7212,104 126.47584,104.688525 125.463985,106.065574 C124.413212,107.442623 123.887826,109.100182 123.887826,111.038251 C123.887826,112.976321 124.413212,114.608379 125.463985,115.934426 C126.47584,117.311475 127.7212,118 129.200066,118 L179.462027,118 Z" id="Path" fill="url(#linearGradient-4)"></path>
                </g>
                <g id="Group-6" transform="translate(307.708543, 0.040527)" fill-rule="nonzero">
                    <g id="PUBLIC-Blockchain" transform="translate(0.000000, 84.582736)">
                        <g id="Path">
                            <use fill="#00A4DB" xlink:href="#path-6"></use>
                            <use fill="url(#linearGradient-5)" xlink:href="#path-6"></use>
                        </g>
                        <g id="Path">
                            <use fill="#00A4DB" xlink:href="#path-8"></use>
                            <use fill="url(#linearGradient-7)" xlink:href="#path-8"></use>
                        </g>
                        <g id="Shape">
                            <use fill="#00A4DB" xlink:href="#path-9"></use>
                            <use fill="url(#linearGradient-7)" xlink:href="#path-9"></use>
                        </g>
                        <g id="Path">
                            <use fill="#00A4DB" xlink:href="#path-11"></use>
                            <use fill="url(#linearGradient-10)" xlink:href="#path-11"></use>
                        </g>
                        <g id="Path">
                            <use fill="#00A4DB" xlink:href="#path-13"></use>
                            <use fill="url(#linearGradient-12)" xlink:href="#path-13"></use>
                        </g>
                        <g id="Path">
                            <use fill="#00A4DB" xlink:href="#path-15"></use>
                            <use fill="url(#linearGradient-14)" xlink:href="#path-15"></use>
                        </g>
                        <g id="Shape">
                            <use fill="#00A4DB" xlink:href="#path-16"></use>
                            <use fill="url(#linearGradient-7)" xlink:href="#path-16"></use>
                        </g>
                        <g id="Path">
                            <use fill="#00A4DB" xlink:href="#path-17"></use>
                            <use fill="url(#linearGradient-10)" xlink:href="#path-17"></use>
                        </g>
                        <g id="Shape">
                            <use fill="#00A4DB" xlink:href="#path-19"></use>
                            <use fill="url(#linearGradient-18)" xlink:href="#path-19"></use>
                        </g>
                        <g id="Path">
                            <use fill="#00A4DB" xlink:href="#path-20"></use>
                            <use fill="url(#linearGradient-14)" xlink:href="#path-20"></use>
                        </g>
                        <g id="Path">
                            <use fill="#00A4DB" xlink:href="#path-22"></use>
                            <use fill="url(#linearGradient-21)" xlink:href="#path-22"></use>
                        </g>
                        <g id="Path">
                            <use fill="#00A4DB" xlink:href="#path-23"></use>
                            <use fill="url(#linearGradient-14)" xlink:href="#path-23"></use>
                        </g>
                        <g id="Path">
                            <use fill="#00A4DB" xlink:href="#path-24"></use>
                            <use fill="url(#linearGradient-7)" xlink:href="#path-24"></use>
                        </g>
                        <g id="Shape">
                            <use fill="#00A4DB" xlink:href="#path-26"></use>
                            <use fill="url(#linearGradient-25)" xlink:href="#path-26"></use>
                        </g>
                        <g id="Path">
                            <use fill="#00A4DB" xlink:href="#path-27"></use>
                            <use fill="url(#linearGradient-12)" xlink:href="#path-27"></use>
                        </g>
                        <g id="Path">
                            <use fill="#00A4DB" xlink:href="#path-29"></use>
                            <use fill="url(#linearGradient-28)" xlink:href="#path-29"></use>
                        </g>
                    </g>
                    <g id="ARCHETHIC" transform="translate(0.002790, 0.000000)">
                        <g id="Path">
                            <use fill="#00A4DB" xlink:href="#path-31"></use>
                            <use fill="url(#linearGradient-30)" xlink:href="#path-31"></use>
                        </g>
                        <g id="Path">
                            <use fill="#00A4DB" xlink:href="#path-33"></use>
                            <use fill="url(#linearGradient-32)" xlink:href="#path-33"></use>
                        </g>
                        <g id="Path">
                            <use fill="#00A4DB" xlink:href="#path-35"></use>
                            <use fill="url(#linearGradient-34)" xlink:href="#path-35"></use>
                        </g>
                        <g id="Path">
                            <use fill="#00A4DB" xlink:href="#path-37"></use>
                            <use fill="url(#linearGradient-36)" xlink:href="#path-37"></use>
                        </g>
                        <g id="Shape">
                            <use fill="#00A4DB" xlink:href="#path-39"></use>
                            <use fill="url(#linearGradient-38)" xlink:href="#path-39"></use>
                        </g>
                        <g id="Path">
                            <use fill="#00A4DB" xlink:href="#path-41"></use>
                            <use fill="url(#linearGradient-40)" xlink:href="#path-41"></use>
                        </g>
                        <g id="Path">
                            <use fill="#00A4DB" xlink:href="#path-42"></use>
                            <use fill="url(#linearGradient-36)" xlink:href="#path-42"></use>
                        </g>
                        <g id="Path">
                            <use fill="#00A4DB" xlink:href="#path-44"></use>
                            <use fill="url(#linearGradient-43)" xlink:href="#path-44"></use>
                        </g>
                        <g id="Path">
                            <use fill="#00A4DB" xlink:href="#path-45"></use>
                            <use fill="url(#linearGradient-34)" xlink:href="#path-45"></use>
                        </g>
                    </g>
                </g>
                <g id="Group-7" fill-rule="nonzero">
                    <path d="M31.298074,16.4557988 C32.5871621,16.2001383 36.5792964,15.4566418 41.666416,15.5074029 C50.0080758,15.590731 56.4699969,17.7579415 60.429594,19.1209041 C65.0060905,20.6960574 75.1479111,24.6968277 85.4051314,33.6860271 C89.27607,37.0782855 92.1622038,40.3037849 94.1246516,42.6968949 C95.0399951,40.8599593 95.8268106,38.9755826 96.4660719,37.0881729 C97.3063865,34.6069582 97.9259082,32.0420256 98.3072139,29.4653634 L98.9104415,25.3907498 C96.4672432,23.0173462 93.1831107,20.0891177 89.0507115,17.0710452 C87.0848183,15.6353146 80.8291866,11.1863395 72.8262303,7.59839237 C66.4803878,4.75332054 51.716133,-1.86600947 32.7289882,0.502334725 C18.6369139,2.2600935 8.73097064,8.15658876 6.44344374,9.56542445 C4.77526454,10.5927101 3.15736772,11.6974847 1.63412916,12.8495976 L0.586192982,13.6421158 L0.430351461,14.9546515 C0.204216441,16.8580062 0.065449731,18.8255481 0.0176199401,20.8013967 C-0.138217298,27.3047203 0.666670289,37.3575251 5.38671985,48.3159414 C6.74911414,51.4797855 8.38274912,54.5903367 10.2423622,57.5612464 C10.7575425,58.3841942 11.7903473,59.9655806 13.3232096,62 C13.1650894,60.8486753 13.0273836,59.6963399 12.912867,58.5600009 C12.2421252,51.9136089 12.2467418,45.1257163 12.9258259,38.3854876 C13.4877795,32.8087757 14.4219798,28.3297012 15.0924416,25.5019282 C15.39717,24.21696 15.6795364,23.1414965 15.8924368,22.3593112 C17.7106146,21.2787926 20.0149362,20.0690172 22.775822,18.970977 C24.4714167,18.2964914 27.4454787,17.2200726 31.298074,16.4557988 Z" id="Path" fill="url(#linearGradient-46)"></path>
                    <path d="M75.5828767,94.9143584 C70.4494012,97.2039521 66.0815373,98.6219895 63.2831074,99.4469077 C62.0114886,99.8219096 60.9332925,100.111714 60.1454184,100.315945 C58.2844753,99.2699883 56.0648238,97.8646077 53.7108972,96.0058689 C52.2652018,94.8642105 49.8219787,92.8086278 47.2050143,89.8320152 C46.3293668,88.8359251 43.6597503,85.7273399 41.1256481,81.2684848 C36.970647,73.9572254 35.5800812,67.2454483 34.758273,63.1154172 C33.8084943,58.341965 32.1470547,47.5091668 34.7642513,34.0898651 C35.7520246,29.0257633 37.0937144,24.9029575 38.179859,22 C36.1187924,22.1176459 34.081682,22.3711884 32.1166127,22.7546876 C29.533471,23.2589157 26.9895669,23.997317 24.5559263,24.9490747 L20.707484,26.4540345 C19.8821791,29.7662357 19.0005533,34.0879094 18.4708139,39.193363 C18.2188256,41.6222137 17.5210352,49.2913426 18.4574509,58.0541677 C19.1998893,65.0025868 20.9272281,81.1686407 32.6090369,96.535782 C41.2791575,107.941262 51.4262586,113.635685 53.8104555,114.927121 C55.5490111,115.868973 57.3297331,116.728376 59.1032382,117.481676 L60.323383,118 L61.5435369,117.481676 C63.3130332,116.73005 65.0940393,115.870646 66.8362081,114.927514 C72.5694939,111.822286 80.9020502,106.11068 88.0377896,96.5355598 C90.0980735,93.7714111 91.9746297,90.7974801 93.6152097,87.6962224 C94.0696306,86.8370409 94.9212101,85.1486708 95.9131554,82.7990227 C94.9922446,83.5105606 94.0601599,84.2050267 93.1301143,84.8710112 C87.6913226,88.767979 81.787332,92.1469563 75.5828767,94.9143584 Z" id="Path" fill="url(#linearGradient-47)"></path>
                    <path d="M121.874225,20.5840257 C121.826524,18.6259829 121.68666,16.6728443 121.457955,14.7786378 L121.300707,13.4754494 L120.243215,12.6885752 C118.709576,11.5474022 117.076665,10.4502146 115.390488,9.42767995 C109.839794,6.06392259 100.731973,1.77190924 88.8647933,0.429524954 C85.4388291,0.0416109353 81.9220628,-0.0844454602 78.4123104,0.05498819 C77.4399167,0.0937374885 75.5498955,0.205293741 73.015628,0.525866499 C74.0919089,0.960224337 75.1588811,1.41270203 76.2001958,1.87755741 C82.2918647,4.59476311 88.1649852,7.96844382 93.6567434,11.9041552 C98.2005745,15.1604779 101.606216,18.1951385 103.715685,20.1809439 C104.674163,21.0833344 105.4627,21.8624589 106.032193,22.4355273 C106.050142,24.5503963 105.934651,27.1513116 105.492228,30.093195 C105.220482,31.9000434 104.651657,35.0162093 103.369297,38.7400629 C102.940216,39.9862757 101.569564,43.8208476 98.958753,48.2119375 C94.6778563,55.4121084 89.5416418,59.9458095 86.3640872,62.7066731 C82.6915199,65.8976578 74.1112199,72.7159333 61.1547769,77.1576993 C56.2652855,78.8339742 52.0171707,79.7384276 48.9556731,80.2539591 C50.083765,81.9604507 51.3179195,83.5789711 52.6289684,85.0709851 C54.3528694,87.0320902 56.2604038,88.8432349 58.2983049,90.4534952 L61.5210418,93 C64.8083244,92.057299 68.9999776,90.659832 73.6972459,88.5708327 C75.9320973,87.5769536 82.9394161,84.3548591 90.0831222,79.1886642 C95.7476886,75.0921111 108.926602,65.5610792 116.456664,47.902241 C122.045398,34.7960997 121.939498,23.269343 121.874225,20.5840257 Z" id="Path" fill="url(#linearGradient-48)"></path>
                </g>
            </g>
        </g>
    </g>
</svg>