<?xml version="1.0" encoding="UTF-8"?>
<svg width="218px" height="212px" viewBox="0 0 218 212" version="1.1" xmlns="http://www.w3.org/2000/svg" xmlns:xlink="http://www.w3.org/1999/xlink">
    <title>Archethic Logo Alone - Colored</title>
    <defs>
        <linearGradient x1="-8.15998999%" y1="57.9917419%" x2="66.0973524%" y2="37.9248941%" id="linearGradient-1">
            <stop stop-color="#00A4DB" offset="0%"></stop>
            <stop stop-color="#CC00FF" offset="100%"></stop>
        </linearGradient>
        <linearGradient x1="11.6896223%" y1="70.2946817%" x2="60.6034346%" y2="19.3357929%" id="linearGradient-2">
            <stop stop-color="#00A4DB" offset="0%"></stop>
            <stop stop-color="#CC00FF" offset="100%"></stop>
        </linearGradient>
        <linearGradient x1="14.7375494%" y1="70.2946817%" x2="59.7598382%" y2="19.3357929%" id="linearGradient-3">
            <stop stop-color="#00A4DB" offset="0%"></stop>
            <stop stop-color="#CC00FF" offset="100%"></stop>
        </linearGradient>
    </defs>
    <g id="Validated-logos" stroke="none" stroke-width="1" fill="none" fill-rule="evenodd">
        <g id="Validated-Logo" transform="translate(-1151.000000, -1309.000000)" fill-rule="nonzero">
            <g id="Archethic-Logo-Alone---Colored" transform="translate(1151.000000, 1309.000000)">
                <path d="M55.9717452,29.4611881 C58.277079,29.0034734 65.4163912,27.6723749 74.5139146,27.7632536 C89.4316778,27.9124378 100.98782,31.7924436 108.068945,34.2325863 C116.253298,37.052619 134.390369,44.2152884 152.733815,60.308855 C159.656388,66.3820918 164.81779,72.1567763 168.327323,76.4412151 C169.964273,73.1525077 171.37137,69.7788657 172.514589,66.3997935 C174.017362,61.9576187 175.12528,57.365562 175.807186,52.7525055 L176.885965,45.4576328 C172.516684,41.2084747 166.643523,35.966001 159.253369,30.5626777 C155.737674,27.9922567 144.550448,20.0271562 130.238404,13.6035734 C118.88985,8.50997709 92.4862729,-3.34075889 58.5307129,0.899341201 C33.3292264,4.04629642 15.6139852,14.602925 11.5230985,17.1251954 C8.53981908,18.9643681 5.64646187,20.9422711 2.92238625,23.0049247 L1.04831512,24.423788 L0.769616759,26.7736502 C0.365209392,30.1812692 0.11704668,33.7038038 0.0315105267,37.2412102 C-0.247180173,48.8842574 1.19223628,66.8820207 9.63331195,86.5011208 C12.0697426,92.1654224 14.991245,97.7343125 18.3168742,103.053199 C19.2381942,104.526541 21.0852053,107.357733 23.8264914,111 C23.5437181,108.938757 23.2974525,106.875705 23.0926574,104.841292 C21.8931398,92.9421062 21.901396,80.7895889 23.1158323,68.7224053 C24.1207991,58.738292 25.7914713,50.7193038 26.9904881,45.6566779 C27.5354475,43.3561703 28.040416,41.4307438 28.4211553,40.0303798 C31.6726839,38.095903 35.7936053,35.9300146 40.7310209,33.9641685 C43.7633286,32.7566218 49.0819767,30.8294848 55.9717452,29.4611881 Z" id="Path" fill="url(#linearGradient-1)"></path>
                <path d="M135.687247,170.638226 C126.491554,174.740414 118.667316,177.281065 113.654435,178.759043 C111.37656,179.430921 109.445167,179.950154 108.033833,180.316068 C104.70029,178.442062 100.724186,175.924089 96.5075524,172.593848 C93.9178507,170.548377 89.5412585,166.865458 84.8534403,161.532361 C83.2848761,159.747699 78.5027411,154.178151 73.9633554,146.189369 C66.5204227,133.090029 64.0294757,121.064762 62.5573549,113.665122 C60.8559983,105.112687 57.8798298,85.7039239 62.5680641,61.6610083 C64.3374812,52.5878259 66.7408756,45.2011321 68.6865072,40 C64.9944792,40.2107823 61.3453646,40.6650459 57.8252983,41.3521485 C53.1980674,42.2555573 48.6411235,43.5785264 44.2816965,45.2837589 L37.3879084,47.9801452 C35.9095239,53.9145056 34.3302508,61.6575044 33.3813186,70.8047753 C32.929927,75.1564662 31.6799619,88.8969889 33.3573811,104.59705 C34.6873253,117.046301 37.7815402,146.010481 58.7073874,173.543276 C74.2383399,193.978095 92.4150357,204.180602 96.6858932,206.494426 C99.800201,208.18191 102.990042,209.721674 106.166956,211.071336 L108.352624,212 L110.538309,211.071336 C113.708042,209.724673 116.898392,208.184908 120.019172,206.49513 C130.289317,200.931596 145.215584,190.698303 157.99797,173.542878 C161.688596,168.590445 165.050107,163.262152 167.988909,157.705732 C168.802922,156.166365 170.328373,153.141369 172.105263,148.931582 C170.455618,150.206421 168.785957,151.450673 167.119948,152.643895 C157.377337,159.625962 146.801406,165.679963 135.687247,170.638226 Z" id="Path" fill="url(#linearGradient-2)"></path>
                <path d="M217.972525,36.9627129 C217.887479,33.4466574 217.638113,29.9394086 217.230351,26.537984 L216.949992,24.19785 L215.064572,22.7848608 C212.330223,20.7356577 209.418882,18.7654391 206.41257,16.9292748 C196.516153,10.8889793 180.277677,3.18181551 159.119499,0.771297497 C153.011295,0.0747207117 146.741198,-0.151638622 140.483606,0.0987422337 C138.74991,0.168324307 135.380162,0.368645751 130.861778,0.944297907 C132.780695,1.72427381 134.683017,2.53678751 136.539593,3.37152782 C147.400523,8.25081117 157.871801,14.308926 167.663141,21.3762786 C175.764408,27.2236538 181.836379,32.6729906 185.597384,36.2388992 C187.306269,37.859321 188.712164,39.2583939 189.727521,40.2874522 C189.759524,44.0851202 189.553612,48.755581 188.76481,54.038318 C188.280309,57.2828736 187.266142,62.8785694 184.979803,69.5654892 C184.214788,71.8033124 181.771031,78.6890489 177.116176,86.5741244 C169.483699,99.5034635 160.326263,107.644626 154.660952,112.602306 C148.113075,118.332353 132.815125,130.575923 109.714883,138.551998 C100.997333,141.562083 93.4233036,143.186209 87.9649123,144.111948 C89.9762048,147.176293 92.1765979,150.082669 94.5140873,152.761876 C97.587657,156.283431 100.98863,159.535701 104.622035,162.427244 L110.367902,167 C116.228849,165.307193 123.702213,162.797763 132.077045,159.046549 C136.061596,157.261841 148.555053,151.47593 161.291677,142.198999 C171.39112,134.842823 194.888008,117.727959 208.313472,86.0180026 C218.277711,62.4833188 218.088901,41.7847342 217.972525,36.9627129 Z" id="Path" fill="url(#linearGradient-3)"></path>
            </g>
        </g>
    </g>
</svg>