<?xml version="1.0" encoding="UTF-8"?>
<svg width="773px" height="118px" viewBox="0 0 773 118" version="1.1" xmlns="http://www.w3.org/2000/svg" xmlns:xlink="http://www.w3.org/1999/xlink">
    <title>AE Public Blockchain</title>
    <defs>
        <linearGradient x1="3.94901683%" y1="70.2946817%" x2="62.7458568%" y2="19.3357929%" id="linearGradient-1">
            <stop stop-color="#00A4DB" offset="0%"></stop>
            <stop stop-color="#CC00FF" offset="100%"></stop>
        </linearGradient>
        <linearGradient x1="3.94901683%" y1="70.2946817%" x2="62.7458568%" y2="19.3357929%" id="linearGradient-2">
            <stop stop-color="#FFFFFF" offset="0%"></stop>
            <stop stop-color="#FFFFFF" offset="100%"></stop>
        </linearGradient>
        <linearGradient x1="-8.15998999%" y1="50.3607943%" x2="66.0973524%" y2="49.4548585%" id="linearGradient-3">
            <stop stop-color="#00A4DB" offset="0%"></stop>
            <stop stop-color="#CC00FF" offset="100%"></stop>
        </linearGradient>
        <linearGradient x1="-8.15998999%" y1="50.3607943%" x2="66.0973524%" y2="49.4548585%" id="linearGradient-4">
            <stop stop-color="#FFFFFF" offset="0%"></stop>
            <stop stop-color="#FFFFFF" offset="100%"></stop>
        </linearGradient>
        <linearGradient x1="-8.15998999%" y1="50.7541644%" x2="66.0973524%" y2="48.8604969%" id="linearGradient-5">
            <stop stop-color="#00A4DB" offset="0%"></stop>
            <stop stop-color="#CC00FF" offset="100%"></stop>
        </linearGradient>
        <linearGradient x1="-8.15998999%" y1="50.7541644%" x2="66.0973524%" y2="48.8604969%" id="linearGradient-6">
            <stop stop-color="#FFFFFF" offset="0%"></stop>
            <stop stop-color="#FFFFFF" offset="100%"></stop>
        </linearGradient>
        <linearGradient x1="-8.15998999%" y1="51.0690023%" x2="66.0973524%" y2="48.3847932%" id="linearGradient-7">
            <stop stop-color="#00A4DB" offset="0%"></stop>
            <stop stop-color="#CC00FF" offset="100%"></stop>
        </linearGradient>
        <linearGradient x1="-8.15998999%" y1="51.0690023%" x2="66.0973524%" y2="48.3847932%" id="linearGradient-8">
            <stop stop-color="#FFFFFF" offset="0%"></stop>
            <stop stop-color="#FFFFFF" offset="100%"></stop>
        </linearGradient>
        <linearGradient x1="50%" y1="0%" x2="50%" y2="100%" id="linearGradient-9">
            <stop stop-color="#00A4DB" offset="0%"></stop>
            <stop stop-color="#CC00FF" offset="100%"></stop>
        </linearGradient>
        <path d="M47.946311,52.8875977 C48.6292211,51.825293 48.7177465,50.7250488 48.2118871,49.5868652 L27.4210668,2.08666992 C26.8140356,0.695556641 25.7517309,0 24.2341527,0 C22.7418676,0 21.6922094,0.695556641 21.0851781,2.08666992 L0.294357826,49.5868652 C-0.0850367053,50.4721191 -0.0976831897,51.357373 0.256418373,52.242627 C0.585226967,53.1278809 1.19225822,53.7602051 2.07751212,54.1395996 C2.53278556,54.3419434 3.00070548,54.4431152 3.48127189,54.4431152 C4.97355704,54.4431152 6.02321525,53.7475586 6.6302465,52.3564453 L24.2341527,12.1026855 L39.7513891,47.5001953 L19.3020238,47.5001953 C18.340891,47.5001953 17.5188695,47.8416504 16.8359594,48.5245605 C16.1783422,49.2074707 15.8495336,50.0294922 15.8495336,50.990625 C15.8495336,51.9264648 16.1783422,52.7358398 16.8359594,53.41875 C17.5188695,54.1016602 18.340891,54.4431152 19.3020238,54.4431152 L45.0249731,54.4431152 C46.2896215,54.4431152 47.2634008,53.9246094 47.946311,52.8875977 Z" id="path-10"></path>
        <linearGradient x1="50%" y1="0%" x2="50%" y2="100%" id="linearGradient-11">
            <stop stop-color="#FFFFFF" offset="0%"></stop>
            <stop stop-color="#FFFFFF" offset="100%"></stop>
        </linearGradient>
        <linearGradient x1="50%" y1="0%" x2="50%" y2="100%" id="linearGradient-12">
            <stop stop-color="#00A4DB" offset="0%"></stop>
            <stop stop-color="#CC00FF" offset="100%"></stop>
        </linearGradient>
        <path d="M65.191057,54.4431152 C66.1521899,54.4431152 66.9742113,54.1016602 67.6571215,53.41875 C68.3400317,52.7611328 68.6814867,51.9517578 68.6814867,50.990625 L68.6814867,35.5113281 L79.3424731,35.5113281 L95.7702563,53.3428711 C96.4531664,54.0763672 97.3004809,54.4431152 98.3121996,54.4431152 C99.2227465,54.4431152 100.006829,54.1395996 100.664446,53.5325684 C101.372649,52.8749512 101.752043,52.0655762 101.802629,51.1044434 C101.827922,50.1686035 101.51176,49.346582 100.854143,48.6383789 L88.1823656,34.8663574 C91.976311,33.8293457 95.0873461,31.7426758 97.5154711,28.6063477 C99.994182,25.4194336 101.233538,21.8025391 101.233538,17.7556641 C101.233538,12.8741211 99.5009692,8.68813477 96.0358324,5.19770508 C92.5706957,1.73256836 88.3847094,0 83.4778735,0 L65.191057,0 C64.2299242,0 63.4205492,0.341455078 62.762932,1.02436523 C62.0800219,1.70727539 61.7385668,2.51665039 61.7385668,3.45249023 C61.7385668,4.41362305 62.0800219,5.23564453 62.762932,5.91855469 C63.4205492,6.60146484 64.2299242,6.94291992 65.191057,6.94291992 L83.4778735,6.94291992 C86.4624438,6.94291992 89.0170336,7.99257812 91.141643,10.0918945 C93.2409594,12.2165039 94.2906176,14.7710937 94.2906176,17.7556641 C94.2906176,20.7402344 93.2409594,23.2948242 91.141643,25.4194336 C89.0170336,27.51875 86.4624438,28.5684082 83.4778735,28.5684082 L65.191057,28.5684082 C64.2299242,28.5684082 63.4205492,28.9098633 62.762932,29.5927734 C62.0800219,30.2756836 61.7385668,31.0977051 61.7385668,32.0588379 L61.7385668,50.990625 C61.7385668,51.9517578 62.0800219,52.7611328 62.762932,53.41875 C63.4205492,54.1016602 64.2299242,54.4431152 65.191057,54.4431152 Z" id="path-13"></path>
        <linearGradient x1="50%" y1="0%" x2="50%" y2="100%" id="linearGradient-14">
            <stop stop-color="#FFFFFF" offset="0%"></stop>
            <stop stop-color="#FFFFFF" offset="100%"></stop>
        </linearGradient>
        <linearGradient x1="50%" y1="0%" x2="50%" y2="100%" id="linearGradient-15">
            <stop stop-color="#00A4DB" offset="0%"></stop>
            <stop stop-color="#CC00FF" offset="100%"></stop>
        </linearGradient>
        <path d="M141.811047,54.4431152 C149.348352,54.4431152 155.772766,51.7873535 161.084289,46.4758301 C161.7672,45.7929199 162.108655,44.9708984 162.108655,44.0097656 C162.108655,43.0486328 161.7672,42.2392578 161.084289,41.5816406 C160.401379,40.8987305 159.579358,40.5572754 158.618225,40.5572754 C157.657092,40.5572754 156.847717,40.8987305 156.1901,41.5816406 C152.219104,45.5273438 147.426086,47.5001953 141.811047,47.5001953 C136.221301,47.5001953 131.44093,45.5273438 127.469934,41.5816406 C123.524231,37.6106445 121.551379,32.8302734 121.551379,27.2405273 C121.551379,21.6254883 123.524231,16.8324707 127.469934,12.8614746 C131.44093,8.91577148 136.221301,6.94291992 141.811047,6.94291992 C147.426086,6.94291992 152.219104,8.91577148 156.1901,12.8614746 C156.847717,13.5443848 157.657092,13.8858398 158.618225,13.8858398 C159.579358,13.8858398 160.401379,13.5443848 161.084289,12.8614746 C161.7672,12.2038574 162.108655,11.3944824 162.108655,10.4333496 C162.108655,9.4722168 161.7672,8.65019531 161.084289,7.96728516 C155.772766,2.65576172 149.348352,0 141.811047,0 C134.299036,0 127.887268,2.65576172 122.575745,7.96728516 C117.264221,13.2788086 114.608459,19.7032227 114.608459,27.2405273 C114.608459,34.7525391 117.264221,41.1643066 122.575745,46.4758301 C127.887268,51.7873535 134.299036,54.4431152 141.811047,54.4431152 Z" id="path-16"></path>
        <linearGradient x1="50%" y1="0%" x2="50%" y2="100%" id="linearGradient-17">
            <stop stop-color="#FFFFFF" offset="0%"></stop>
            <stop stop-color="#FFFFFF" offset="100%"></stop>
        </linearGradient>
        <linearGradient x1="50%" y1="0%" x2="50%" y2="100%" id="linearGradient-18">
            <stop stop-color="#00A4DB" offset="0%"></stop>
            <stop stop-color="#CC00FF" offset="100%"></stop>
        </linearGradient>
        <path d="M178.329036,54.4431152 C179.290168,54.4431152 180.11219,54.1016602 180.7951,53.41875 C181.47801,52.7611328 181.819465,51.9517578 181.819465,50.990625 L181.819465,30.6930176 L209.515266,30.6930176 L209.515266,50.990625 C209.515266,51.9517578 209.856721,52.7611328 210.539631,53.41875 C211.222541,54.1016602 212.031916,54.4431152 212.967756,54.4431152 C213.928889,54.4431152 214.750911,54.1016602 215.433821,53.41875 C216.116731,52.7611328 216.458186,51.9517578 216.458186,50.990625 L216.458186,3.45249023 C216.458186,2.51665039 216.116731,1.70727539 215.433821,1.02436523 C214.750911,0.341455078 213.928889,0 212.967756,0 C212.031916,0 211.222541,0.341455078 210.539631,1.02436523 C209.856721,1.70727539 209.515266,2.51665039 209.515266,3.45249023 L209.515266,23.7500977 L181.819465,23.7500977 L181.819465,3.45249023 C181.819465,2.51665039 181.47801,1.70727539 180.7951,1.02436523 C180.11219,0.341455078 179.290168,0 178.329036,0 C177.367903,0 176.558528,0.341455078 175.900911,1.02436523 C175.218,1.70727539 174.876545,2.51665039 174.876545,3.45249023 L174.876545,50.990625 C174.876545,51.9517578 175.218,52.7611328 175.900911,53.41875 C176.558528,54.1016602 177.367903,54.4431152 178.329036,54.4431152 Z" id="path-19"></path>
        <linearGradient x1="50%" y1="0%" x2="50%" y2="100%" id="linearGradient-20">
            <stop stop-color="#FFFFFF" offset="0%"></stop>
            <stop stop-color="#FFFFFF" offset="100%"></stop>
        </linearGradient>
        <linearGradient x1="50%" y1="0%" x2="50%" y2="100%" id="linearGradient-21">
            <stop stop-color="#00A4DB" offset="0%"></stop>
            <stop stop-color="#CC00FF" offset="100%"></stop>
        </linearGradient>
        <path d="M268.834866,50.990625 C268.834866,50.0294922 268.493411,49.2074707 267.8105,48.5245605 C267.12759,47.8416504 266.305569,47.5001953 265.344436,47.5001953 L232.678567,47.5001953 C231.717434,47.5001953 230.908059,47.8416504 230.250442,48.5245605 C229.567532,49.2074707 229.226077,50.0294922 229.226077,50.990625 C229.226077,51.9517578 229.567532,52.7611328 230.250442,53.41875 C230.908059,54.1016602 231.717434,54.4431152 232.678567,54.4431152 L265.344436,54.4431152 C266.305569,54.4431152 267.12759,54.1016602 267.8105,53.41875 C268.493411,52.7611328 268.834866,51.9517578 268.834866,50.990625 Z M232.678567,0 C231.717434,0 230.908059,0.341455078 230.250442,1.02436523 C229.567532,1.70727539 229.226077,2.51665039 229.226077,3.45249023 C229.226077,4.41362305 229.567532,5.23564453 230.250442,5.91855469 C230.908059,6.60146484 231.717434,6.94291992 232.678567,6.94291992 L265.344436,6.94291992 C266.305569,6.94291992 267.12759,6.60146484 267.8105,5.91855469 C268.493411,5.23564453 268.834866,4.41362305 268.834866,3.45249023 C268.834866,2.51665039 268.493411,1.70727539 267.8105,1.02436523 C267.12759,0.341455078 266.305569,0 265.344436,0 L232.678567,0 Z M232.678567,23.7500977 C231.717434,23.7500977 230.908059,24.0915527 230.250442,24.7744629 C229.567532,25.457373 229.226077,26.2793945 229.226077,27.2405273 C229.226077,28.1763672 229.567532,28.9857422 230.250442,29.6686523 C230.908059,30.3515625 231.717434,30.6930176 232.678567,30.6930176 L265.344436,30.6930176 C266.305569,30.6930176 267.12759,30.3515625 267.8105,29.6686523 C268.493411,28.9857422 268.834866,28.1763672 268.834866,27.2405273 C268.834866,26.2793945 268.493411,25.457373 267.8105,24.7744629 C267.12759,24.0915527 266.305569,23.7500977 265.344436,23.7500977 L232.678567,23.7500977 Z" id="path-22"></path>
        <linearGradient x1="50%" y1="0%" x2="50%" y2="100%" id="linearGradient-23">
            <stop stop-color="#FFFFFF" offset="0%"></stop>
            <stop stop-color="#FFFFFF" offset="100%"></stop>
        </linearGradient>
        <linearGradient x1="50%" y1="0%" x2="50%" y2="100%" id="linearGradient-24">
            <stop stop-color="#00A4DB" offset="0%"></stop>
            <stop stop-color="#CC00FF" offset="100%"></stop>
        </linearGradient>
        <path d="M299.927512,6.94291992 L299.927512,50.990625 C299.927512,51.9517578 300.256321,52.7611328 300.913938,53.41875 C301.596848,54.1016602 302.41887,54.4431152 303.380002,54.4431152 C304.341135,54.4431152 305.163157,54.1016602 305.846067,53.41875 C306.503684,52.7611328 306.832493,51.9517578 306.832493,50.990625 L306.832493,6.94291992 L321.704758,6.94291992 C322.640598,6.94291992 323.449973,6.60146484 324.132883,5.91855469 C324.815793,5.23564453 325.157248,4.41362305 325.157248,3.45249023 C325.157248,2.51665039 324.815793,1.70727539 324.132883,1.02436523 C323.449973,0.341455078 322.640598,0 321.704758,0 L285.055246,0 C284.094114,0 283.284739,0.341455078 282.627121,1.02436523 C281.944211,1.70727539 281.602756,2.51665039 281.602756,3.45249023 C281.602756,4.41362305 281.944211,5.23564453 282.627121,5.91855469 C283.284739,6.60146484 284.094114,6.94291992 285.055246,6.94291992 L299.927512,6.94291992 Z" id="path-25"></path>
        <linearGradient x1="50%" y1="0%" x2="50%" y2="100%" id="linearGradient-26">
            <stop stop-color="#FFFFFF" offset="0%"></stop>
            <stop stop-color="#FFFFFF" offset="100%"></stop>
        </linearGradient>
        <path d="M341.377629,54.4431152 C342.338762,54.4431152 343.160784,54.1016602 343.843694,53.41875 C344.526604,52.7611328 344.868059,51.9517578 344.868059,50.990625 L344.868059,30.6930176 L372.56386,30.6930176 L372.56386,50.990625 C372.56386,51.9517578 372.905315,52.7611328 373.588225,53.41875 C374.271135,54.1016602 375.08051,54.4431152 376.01635,54.4431152 C376.977483,54.4431152 377.799504,54.1016602 378.482414,53.41875 C379.165325,52.7611328 379.50678,51.9517578 379.50678,50.990625 L379.50678,3.45249023 C379.50678,2.51665039 379.165325,1.70727539 378.482414,1.02436523 C377.799504,0.341455078 376.977483,0 376.01635,0 C375.08051,0 374.271135,0.341455078 373.588225,1.02436523 C372.905315,1.70727539 372.56386,2.51665039 372.56386,3.45249023 L372.56386,23.7500977 L344.868059,23.7500977 L344.868059,3.45249023 C344.868059,2.51665039 344.526604,1.70727539 343.843694,1.02436523 C343.160784,0.341455078 342.338762,0 341.377629,0 C340.416496,0 339.607121,0.341455078 338.949504,1.02436523 C338.266594,1.70727539 337.925139,2.51665039 337.925139,3.45249023 L337.925139,50.990625 C337.925139,51.9517578 338.266594,52.7611328 338.949504,53.41875 C339.607121,54.1016602 340.416496,54.4431152 341.377629,54.4431152 Z" id="path-27"></path>
        <linearGradient x1="50%" y1="0%" x2="50%" y2="100%" id="linearGradient-28">
            <stop stop-color="#00A4DB" offset="0%"></stop>
            <stop stop-color="#CC00FF" offset="100%"></stop>
        </linearGradient>
        <path d="M395.727161,54.4431152 C396.688293,54.4431152 397.510315,54.1016602 398.193225,53.41875 C398.876135,52.7611328 399.21759,51.9517578 399.21759,50.990625 L399.21759,3.45249023 C399.21759,2.51665039 398.876135,1.70727539 398.193225,1.02436523 C397.510315,0.341455078 396.688293,0 395.727161,0 C394.766028,0 393.956653,0.341455078 393.299036,1.02436523 C392.616125,1.70727539 392.27467,2.51665039 392.27467,3.45249023 L392.27467,50.990625 C392.27467,51.9517578 392.616125,52.7611328 393.299036,53.41875 C393.956653,54.1016602 394.766028,54.4431152 395.727161,54.4431152 Z" id="path-29"></path>
        <linearGradient x1="50%" y1="0%" x2="50%" y2="100%" id="linearGradient-30">
            <stop stop-color="#FFFFFF" offset="0%"></stop>
            <stop stop-color="#FFFFFF" offset="100%"></stop>
        </linearGradient>
        <path d="M439.188069,54.4431152 C446.725373,54.4431152 453.149788,51.7873535 458.461311,46.4758301 C459.144221,45.7929199 459.485676,44.9708984 459.485676,44.0097656 C459.485676,43.0486328 459.144221,42.2392578 458.461311,41.5816406 C457.778401,40.8987305 456.956379,40.5572754 455.995246,40.5572754 C455.034114,40.5572754 454.224739,40.8987305 453.567121,41.5816406 C449.596125,45.5273438 444.803108,47.5001953 439.188069,47.5001953 C433.598323,47.5001953 428.817952,45.5273438 424.846955,41.5816406 C420.901252,37.6106445 418.928401,32.8302734 418.928401,27.2405273 C418.928401,21.6254883 420.901252,16.8324707 424.846955,12.8614746 C428.817952,8.91577148 433.598323,6.94291992 439.188069,6.94291992 C444.803108,6.94291992 449.596125,8.91577148 453.567121,12.8614746 C454.224739,13.5443848 455.034114,13.8858398 455.995246,13.8858398 C456.956379,13.8858398 457.778401,13.5443848 458.461311,12.8614746 C459.144221,12.2038574 459.485676,11.3944824 459.485676,10.4333496 C459.485676,9.4722168 459.144221,8.65019531 458.461311,7.96728516 C453.149788,2.65576172 446.725373,0 439.188069,0 C431.676057,0 425.264289,2.65576172 419.952766,7.96728516 C414.641243,13.2788086 411.985481,19.7032227 411.985481,27.2405273 C411.985481,34.7525391 414.641243,41.1643066 419.952766,46.4758301 C425.264289,51.7873535 431.676057,54.4431152 439.188069,54.4431152 Z" id="path-31"></path>
        <linearGradient x1="50%" y1="0%" x2="50%" y2="100%" id="linearGradient-32">
            <stop stop-color="#00A4DB" offset="0%"></stop>
            <stop stop-color="#CC00FF" offset="100%"></stop>
        </linearGradient>
        <path d="M3.11035156,49.0834359 C3.97623698,49.0834359 4.71679688,48.7758187 5.33203125,48.1605843 C5.94726562,47.5681364 6.25488281,46.8389697 6.25488281,45.9730843 L6.25488281,27.6869515 L25.4296875,27.6869515 C26.2727865,27.6869515 27.0019531,27.3793343 27.6171875,26.7641 C28.2324219,26.1488656 28.5400391,25.4196989 28.5400391,24.5766 C28.5400391,23.7107145 28.2324219,22.9701546 27.6171875,22.3549203 C27.0019531,21.7396859 26.2727865,21.4320687 25.4296875,21.4320687 L6.25488281,21.4320687 L6.25488281,6.29046714 L32.5390625,6.29046714 C33.4049479,6.29046714 34.1455078,5.98284996 34.7607422,5.36761558 C35.3759766,4.75238121 35.6835938,4.01182131 35.6835938,3.14593589 C35.6835938,2.30283694 35.3759766,1.57367027 34.7607422,0.958435895 C34.1455078,0.34320152 33.4049479,0.0355843322 32.5390625,0.0355843322 L3.11035156,0.0355843322 C2.24446615,0.0355843322 1.51529948,0.34320152 0.922851562,0.958435895 C0.307617188,1.57367027 0,2.30283694 0,3.14593589 L0,45.9730843 C0,46.8389697 0.307617188,47.5681364 0.922851562,48.1605843 C1.51529948,48.7758187 2.24446615,49.0834359 3.11035156,49.0834359 Z" id="path-33"></path>
        <linearGradient x1="50%" y1="0%" x2="50%" y2="100%" id="linearGradient-34">
            <stop stop-color="#FFFFFF" offset="0%"></stop>
            <stop stop-color="#FFFFFF" offset="100%"></stop>
        </linearGradient>
        <linearGradient x1="50%" y1="0%" x2="50%" y2="100%" id="linearGradient-35">
            <stop stop-color="#00A4DB" offset="0%"></stop>
            <stop stop-color="#CC00FF" offset="100%"></stop>
        </linearGradient>
        <path d="M68.2750651,6.29046714 C73.3336589,6.29046714 77.6402995,8.07920412 81.194987,11.6566781 C84.7724609,15.2113656 86.5611979,19.5180062 86.5611979,24.5766 C86.5611979,29.6124072 84.7724609,33.9190479 81.194987,37.4965218 C77.6402995,41.0512093 73.3336589,42.8285531 68.2750651,42.8285531 C63.2392578,42.8285531 58.9326172,41.0512093 55.3551432,37.4965218 C51.8004557,33.9190479 50.023112,29.6124072 50.023112,24.5766 C50.023112,19.5180062 51.8004557,15.2113656 55.3551432,11.6566781 C58.9326172,8.07920412 63.2392578,6.29046714 68.2750651,6.29046714 Z M68.2750651,49.0834359 C75.0654297,49.0834359 80.8531901,46.6908578 85.6383464,41.9057015 C90.4235026,37.1205453 92.8160807,31.3441781 92.8160807,24.5766 C92.8160807,17.7862354 90.4235026,11.998475 85.6383464,7.21331871 C80.8531901,2.42816246 75.0654297,0.0355843322 68.2750651,0.0355843322 C61.507487,0.0355843322 55.7311198,2.42816246 50.9459635,7.21331871 C46.1608073,11.998475 43.7682292,17.7862354 43.7682292,24.5766 C43.7682292,31.3441781 46.1608073,37.1205453 50.9459635,41.9057015 C55.7311198,46.6908578 61.507487,49.0834359 68.2750651,49.0834359 Z" id="path-36"></path>
        <linearGradient x1="50%" y1="0%" x2="50%" y2="100%" id="linearGradient-37">
            <stop stop-color="#FFFFFF" offset="0%"></stop>
            <stop stop-color="#FFFFFF" offset="100%"></stop>
        </linearGradient>
        <linearGradient x1="50%" y1="0%" x2="50%" y2="100%" id="linearGradient-38">
            <stop stop-color="#00A4DB" offset="0%"></stop>
            <stop stop-color="#CC00FF" offset="100%"></stop>
        </linearGradient>
        <path d="M123.049154,49.0834359 C128.198893,49.0834359 132.608073,47.249126 136.276693,43.5805062 C139.945313,39.9346729 141.779622,35.5254932 141.779622,30.3529671 L141.779622,3.14593589 C141.779622,2.30283694 141.472005,1.57367027 140.856771,0.958435895 C140.241536,0.34320152 139.500977,0.0355843322 138.635091,0.0355843322 C137.791992,0.0355843322 137.062826,0.34320152 136.447591,0.958435895 C135.832357,1.57367027 135.52474,2.30283694 135.52474,3.14593589 L135.52474,30.3529671 C135.52474,33.7937224 134.305664,36.7331755 131.867513,39.1713265 C129.429362,41.6094776 126.489909,42.8285531 123.049154,42.8285531 C119.608398,42.8285531 116.668945,41.6094776 114.230794,39.1713265 C111.792643,36.7331755 110.573568,33.7937224 110.573568,30.3529671 L110.573568,3.14593589 C110.573568,2.30283694 110.265951,1.57367027 109.650716,0.958435895 C109.035482,0.34320152 108.294922,0.0355843322 107.429036,0.0355843322 C106.563151,0.0355843322 105.833984,0.34320152 105.241536,0.958435895 C104.626302,1.57367027 104.318685,2.30283694 104.318685,3.14593589 L104.318685,30.3529671 C104.318685,35.5254932 106.152995,39.9346729 109.821615,43.5805062 C113.467448,47.249126 117.876628,49.0834359 123.049154,49.0834359 Z" id="path-39"></path>
        <linearGradient x1="50%" y1="0%" x2="50%" y2="100%" id="linearGradient-40">
            <stop stop-color="#FFFFFF" offset="0%"></stop>
            <stop stop-color="#FFFFFF" offset="100%"></stop>
        </linearGradient>
        <linearGradient x1="50%" y1="0%" x2="50%" y2="100%" id="linearGradient-41">
            <stop stop-color="#00A4DB" offset="0%"></stop>
            <stop stop-color="#CC00FF" offset="100%"></stop>
        </linearGradient>
        <path d="M156.392578,49.0834359 C157.258464,49.0834359 157.999023,48.7758187 158.614258,48.1605843 C159.229492,47.5681364 159.537109,46.8389697 159.537109,45.9730843 L159.537109,12.3060921 L186.915039,47.8529671 C187.55306,48.6732796 188.384766,49.0834359 189.410156,49.0834359 C189.751953,49.0834359 190.082357,49.0264697 190.401367,48.9125375 C191.814128,48.4340218 192.520508,47.4542041 192.520508,45.9730843 L192.520508,3.14593589 C192.520508,2.30283694 192.212891,1.57367027 191.597656,0.958435895 C190.982422,0.34320152 190.253255,0.0355843322 189.410156,0.0355843322 C188.544271,0.0355843322 187.803711,0.34320152 187.188477,0.958435895 C186.573242,1.57367027 186.265625,2.30283694 186.265625,3.14593589 L186.265625,36.8129281 L158.887695,1.26605308 C157.976237,0.0811572489 156.814128,-0.272032855 155.401367,0.20648277 C153.988607,0.684998395 153.282227,1.6648161 153.282227,3.14593589 L153.282227,45.9730843 C153.282227,46.8389697 153.589844,47.5681364 154.205078,48.1605843 C154.797526,48.7758187 155.526693,49.0834359 156.392578,49.0834359 Z" id="path-42"></path>
        <linearGradient x1="50%" y1="0%" x2="50%" y2="100%" id="linearGradient-43">
            <stop stop-color="#FFFFFF" offset="0%"></stop>
            <stop stop-color="#FFFFFF" offset="100%"></stop>
        </linearGradient>
        <linearGradient x1="50%" y1="0%" x2="50%" y2="100%" id="linearGradient-44">
            <stop stop-color="#00A4DB" offset="0%"></stop>
            <stop stop-color="#CC00FF" offset="100%"></stop>
        </linearGradient>
        <path d="M242.372721,24.5766 C242.372721,17.7862354 239.980143,11.998475 235.194987,7.21331871 C230.409831,2.42816246 224.62207,0.0355843322 217.831706,0.0355843322 L207.133464,0.0355843322 C206.267578,0.0355843322 205.538411,0.34320152 204.945964,0.958435895 C204.330729,1.57367027 204.023112,2.30283694 204.023112,3.14593589 C204.023112,4.01182131 204.330729,4.75238121 204.945964,5.36761558 C205.538411,5.98284996 206.267578,6.29046714 207.133464,6.29046714 L217.831706,6.29046714 C222.890299,6.29046714 227.19694,8.07920412 230.751628,11.6566781 C234.329102,15.2113656 236.117839,19.5180062 236.117839,24.5766 C236.117839,29.6124072 234.329102,33.9190479 230.751628,37.4965218 C227.19694,41.0512093 222.890299,42.8285531 217.831706,42.8285531 L207.133464,42.8285531 C206.267578,42.8285531 205.538411,43.1361703 204.945964,43.7514046 C204.330729,44.366639 204.023112,45.1071989 204.023112,45.9730843 C204.023112,46.8389697 204.330729,47.5681364 204.945964,48.1605843 C205.538411,48.7758187 206.267578,49.0834359 207.133464,49.0834359 L217.831706,49.0834359 C224.62207,49.0834359 230.409831,46.6908578 235.194987,41.9057015 C239.980143,37.1205453 242.372721,31.3441781 242.372721,24.5766 Z" id="path-45"></path>
        <linearGradient x1="50%" y1="0%" x2="50%" y2="100%" id="linearGradient-46">
            <stop stop-color="#FFFFFF" offset="0%"></stop>
            <stop stop-color="#FFFFFF" offset="100%"></stop>
        </linearGradient>
        <linearGradient x1="50%" y1="0%" x2="50%" y2="100%" id="linearGradient-47">
            <stop stop-color="#00A4DB" offset="0%"></stop>
            <stop stop-color="#CC00FF" offset="100%"></stop>
        </linearGradient>
        <path d="M292.190755,47.6820687 C292.80599,46.7250375 292.885742,45.7338265 292.430013,44.7084359 L273.699544,1.91546714 C273.152669,0.662211936 272.195638,0.0355843322 270.828451,0.0355843322 C269.484049,0.0355843322 268.538411,0.662211936 267.991536,1.91546714 L249.261068,44.7084359 C248.919271,45.5059619 248.907878,46.303488 249.226888,47.101014 C249.523112,47.8985401 250.069987,48.4682015 250.867513,48.8099984 C251.277669,48.9922901 251.699219,49.0834359 252.132161,49.0834359 C253.476562,49.0834359 254.422201,48.4568083 254.969076,47.2035531 L270.828451,10.9389046 L284.807943,42.8285531 L266.385091,42.8285531 C265.519206,42.8285531 264.778646,43.1361703 264.163411,43.7514046 C263.570964,44.366639 263.27474,45.1071989 263.27474,45.9730843 C263.27474,46.8161833 263.570964,47.54535 264.163411,48.1605843 C264.778646,48.7758187 265.519206,49.0834359 266.385091,49.0834359 L289.558919,49.0834359 C290.698242,49.0834359 291.575521,48.6163135 292.190755,47.6820687 Z" id="path-48"></path>
        <linearGradient x1="50%" y1="0%" x2="50%" y2="100%" id="linearGradient-49">
            <stop stop-color="#FFFFFF" offset="0%"></stop>
            <stop stop-color="#FFFFFF" offset="100%"></stop>
        </linearGradient>
        <linearGradient x1="50%" y1="0%" x2="50%" y2="100%" id="linearGradient-50">
            <stop stop-color="#00A4DB" offset="0%"></stop>
            <stop stop-color="#CC00FF" offset="100%"></stop>
        </linearGradient>
        <path d="M307.453125,6.29046714 L307.453125,45.9730843 C307.453125,46.8389697 307.749349,47.5681364 308.341797,48.1605843 C308.957031,48.7758187 309.697591,49.0834359 310.563477,49.0834359 C311.429362,49.0834359 312.169922,48.7758187 312.785156,48.1605843 C313.377604,47.5681364 313.673828,46.8389697 313.673828,45.9730843 L313.673828,6.29046714 L327.072266,6.29046714 C327.915365,6.29046714 328.644531,5.98284996 329.259766,5.36761558 C329.875,4.75238121 330.182617,4.01182131 330.182617,3.14593589 C330.182617,2.30283694 329.875,1.57367027 329.259766,0.958435895 C328.644531,0.34320152 327.915365,0.0355843322 327.072266,0.0355843322 L294.054688,0.0355843322 C293.188802,0.0355843322 292.459635,0.34320152 291.867188,0.958435895 C291.251953,1.57367027 290.944336,2.30283694 290.944336,3.14593589 C290.944336,4.01182131 291.251953,4.75238121 291.867188,5.36761558 C292.459635,5.98284996 293.188802,6.29046714 294.054688,6.29046714 L307.453125,6.29046714 Z" id="path-51"></path>
        <linearGradient x1="50%" y1="0%" x2="50%" y2="100%" id="linearGradient-52">
            <stop stop-color="#FFFFFF" offset="0%"></stop>
            <stop stop-color="#FFFFFF" offset="100%"></stop>
        </linearGradient>
        <linearGradient x1="50%" y1="0%" x2="50%" y2="100%" id="linearGradient-53">
            <stop stop-color="#00A4DB" offset="0%"></stop>
            <stop stop-color="#CC00FF" offset="100%"></stop>
        </linearGradient>
        <path d="M344.795573,49.0834359 C345.661458,49.0834359 346.402018,48.7758187 347.017253,48.1605843 C347.632487,47.5681364 347.940104,46.8389697 347.940104,45.9730843 L347.940104,3.14593589 C347.940104,2.30283694 347.632487,1.57367027 347.017253,0.958435895 C346.402018,0.34320152 345.661458,0.0355843322 344.795573,0.0355843322 C343.929687,0.0355843322 343.200521,0.34320152 342.608073,0.958435895 C341.992839,1.57367027 341.685221,2.30283694 341.685221,3.14593589 L341.685221,45.9730843 C341.685221,46.8389697 341.992839,47.5681364 342.608073,48.1605843 C343.200521,48.7758187 343.929687,49.0834359 344.795573,49.0834359 Z" id="path-54"></path>
        <linearGradient x1="50%" y1="0%" x2="50%" y2="100%" id="linearGradient-55">
            <stop stop-color="#FFFFFF" offset="0%"></stop>
            <stop stop-color="#FFFFFF" offset="100%"></stop>
        </linearGradient>
        <path d="M383.949544,6.29046714 C389.008138,6.29046714 393.314779,8.07920412 396.869466,11.6566781 C400.44694,15.2113656 402.235677,19.5180062 402.235677,24.5766 C402.235677,29.6124072 400.44694,33.9190479 396.869466,37.4965218 C393.314779,41.0512093 389.008138,42.8285531 383.949544,42.8285531 C378.913737,42.8285531 374.607096,41.0512093 371.029622,37.4965218 C367.474935,33.9190479 365.697591,29.6124072 365.697591,24.5766 C365.697591,19.5180062 367.474935,15.2113656 371.029622,11.6566781 C374.607096,8.07920412 378.913737,6.29046714 383.949544,6.29046714 Z M383.949544,49.0834359 C390.739909,49.0834359 396.527669,46.6908578 401.312826,41.9057015 C406.097982,37.1205453 408.49056,31.3441781 408.49056,24.5766 C408.49056,17.7862354 406.097982,11.998475 401.312826,7.21331871 C396.527669,2.42816246 390.739909,0.0355843322 383.949544,0.0355843322 C377.181966,0.0355843322 371.405599,2.42816246 366.620443,7.21331871 C361.835286,11.998475 359.442708,17.7862354 359.442708,24.5766 C359.442708,31.3441781 361.835286,37.1205453 366.620443,41.9057015 C371.405599,46.6908578 377.181966,49.0834359 383.949544,49.0834359 Z" id="path-56"></path>
        <path d="M423.103516,49.0834359 C423.969401,49.0834359 424.709961,48.7758187 425.325195,48.1605843 C425.94043,47.5681364 426.248047,46.8389697 426.248047,45.9730843 L426.248047,12.3060921 L453.625977,47.8529671 C454.263997,48.6732796 455.095703,49.0834359 456.121094,49.0834359 C456.462891,49.0834359 456.793294,49.0264697 457.112305,48.9125375 C458.525065,48.4340218 459.231445,47.4542041 459.231445,45.9730843 L459.231445,3.14593589 C459.231445,2.30283694 458.923828,1.57367027 458.308594,0.958435895 C457.693359,0.34320152 456.964193,0.0355843322 456.121094,0.0355843322 C455.255208,0.0355843322 454.514648,0.34320152 453.899414,0.958435895 C453.28418,1.57367027 452.976562,2.30283694 452.976562,3.14593589 L452.976562,36.8129281 L425.598633,1.26605308 C424.687174,0.0811572489 423.525065,-0.272032855 422.112305,0.20648277 C420.699544,0.684998395 419.993164,1.6648161 419.993164,3.14593589 L419.993164,45.9730843 C419.993164,46.8389697 420.300781,47.5681364 420.916016,48.1605843 C421.508464,48.7758187 422.23763,49.0834359 423.103516,49.0834359 Z" id="path-57"></path>
        <linearGradient x1="-8.15998999%" y1="57.9596731%" x2="66.0973524%" y2="37.9733484%" id="linearGradient-58">
            <stop stop-color="#00A4DB" offset="0%"></stop>
            <stop stop-color="#CC00FF" offset="100%"></stop>
        </linearGradient>
        <linearGradient x1="-8.15998999%" y1="57.9596731%" x2="66.0973524%" y2="37.9733484%" id="linearGradient-59">
            <stop stop-color="#FFFFFF" offset="0%"></stop>
            <stop stop-color="#FFFFFF" offset="100%"></stop>
        </linearGradient>
        <linearGradient x1="11.6053191%" y1="70.2946817%" x2="60.6267678%" y2="19.3357929%" id="linearGradient-60">
            <stop stop-color="#00A4DB" offset="0%"></stop>
            <stop stop-color="#CC00FF" offset="100%"></stop>
        </linearGradient>
        <linearGradient x1="11.6053191%" y1="70.2946817%" x2="60.6267678%" y2="19.3357929%" id="linearGradient-61">
            <stop stop-color="#FFFFFF" offset="0%"></stop>
            <stop stop-color="#FFFFFF" offset="100%"></stop>
        </linearGradient>
        <linearGradient x1="14.1652692%" y1="70.2946817%" x2="59.9182323%" y2="19.3357929%" id="linearGradient-62">
            <stop stop-color="#00A4DB" offset="0%"></stop>
            <stop stop-color="#CC00FF" offset="100%"></stop>
        </linearGradient>
        <linearGradient x1="14.1652692%" y1="70.2946817%" x2="59.9182323%" y2="19.3357929%" id="linearGradient-63">
            <stop stop-color="#FFFFFF" offset="0%"></stop>
            <stop stop-color="#FFFFFF" offset="100%"></stop>
        </linearGradient>
    </defs>
    <g id="logos" stroke="none" stroke-width="1" fill="none" fill-rule="evenodd">
        <g id="Validated-Logo" transform="translate(-3097.000000, -531.000000)">
            <g id="AE-Public-Blockchain" transform="translate(3097.000000, 531.000000)">
                <g id="AE" transform="translate(103.000000, 0.000000)">
                    <path d="M97.4069019,118 C100.142839,118 102.24951,116.87619 103.726916,114.628571 C105.204322,112.326132 105.395838,109.941463 104.301463,107.474564 L59.3226599,4.52264808 C58.0094102,1.50754936 55.7112232,0 52.4280989,0 C49.1996933,0 46.9288656,1.50754936 45.6156159,4.52264808 L0.636812904,107.474564 C-0.183968172,109.393264 -0.211327542,111.311963 0.554734797,113.230662 C1.2660784,115.149361 2.57932812,116.519861 4.49448397,117.34216 C5.47942126,117.78072 6.49171792,118 7.53137395,118 C10.7597795,118 13.0306072,116.492451 14.3438569,113.477352 L52.4280989,26.2313589 L85.9980449,102.951916 L41.7579449,102.951916 C39.6786328,102.951916 37.9002738,103.691986 36.4228679,105.172125 C35.0001807,106.652265 34.2888371,108.433914 34.2888371,110.517073 C34.2888371,112.545412 35.0001807,114.299652 36.4228679,115.779791 C37.9002738,117.25993 39.6786328,118 41.7579449,118 L97.4069019,118 Z" id="Path" fill="url(#linearGradient-2)"></path>
                    <path d="M176.747126,14 C179.295019,14 181.474138,13.3114754 183.284483,11.9344262 C185.094828,10.557377 186,8.89981785 186,6.96174863 C186,5.07468124 185.094828,3.44262295 183.284483,2.06557377 C181.474138,0.68852459 179.295019,0 176.747126,0 L90.1522989,0 C87.6044061,0 85.4588123,0.68852459 83.7155172,2.06557377 C81.9051724,3.44262295 81,5.07468124 81,6.96174863 C81,8.89981785 81.9051724,10.557377 83.7155172,11.9344262 C85.4588123,13.3114754 87.6044061,14 90.1522989,14 L176.747126,14 Z" id="Path" fill="url(#linearGradient-4)"></path>
                    <path d="M177.685824,67 C179.699872,67 181.422414,66.2131148 182.853448,64.6393443 C184.284483,63.0655738 185,61.2003643 185,59.0437158 C185,56.8287796 184.284483,54.9344262 182.853448,53.3606557 C181.422414,51.7868852 179.699872,51 177.685824,51 L109.234674,51 C107.220626,51 105.524585,51.7868852 104.146552,53.3606557 C102.715517,54.9344262 102,56.8287796 102,59.0437158 C102,61.2003643 102.715517,63.0655738 104.146552,64.6393443 C105.524585,66.2131148 107.220626,67 109.234674,67 L177.685824,67 Z" id="Path" fill="url(#linearGradient-6)"></path>
                    <path d="M179.624521,118 C181.104725,118 182.37069,117.311475 183.422414,115.934426 C184.474138,114.608379 185,112.976321 185,111.038251 C185,109.100182 184.474138,107.442623 183.422414,106.065574 C182.37069,104.688525 181.104725,104 179.624521,104 L129.31705,104 C127.836845,104 126.590358,104.688525 125.577586,106.065574 C124.525862,107.442623 124,109.100182 124,111.038251 C124,112.976321 124.525862,114.608379 125.577586,115.934426 C126.590358,117.311475 127.836845,118 129.31705,118 L179.624521,118 Z" id="Path" fill="url(#linearGradient-8)"></path>
                </g>
                <g id="Group-6" transform="translate(313.050944, 0.012767)" fill-rule="nonzero">
                    <g id="ARCHETHIC" transform="translate(0.253585, 0.000000)">
                        <g id="Path">
                            <use fill="#FFFFFF" xlink:href="#path-10"></use>
                            <use fill="url(#linearGradient-11)" xlink:href="#path-10"></use>
                        </g>
                        <g id="Path">
                            <use fill="#FFFFFF" xlink:href="#path-13"></use>
                            <use fill="url(#linearGradient-14)" xlink:href="#path-13"></use>
                        </g>
                        <g id="Path">
                            <use fill="#FFFFFF" xlink:href="#path-16"></use>
                            <use fill="url(#linearGradient-17)" xlink:href="#path-16"></use>
                        </g>
                        <g id="Path">
                            <use fill="#FFFFFF" xlink:href="#path-19"></use>
                            <use fill="url(#linearGradient-20)" xlink:href="#path-19"></use>
                        </g>
                        <g id="Shape">
                            <use fill="#FFFFFF" xlink:href="#path-22"></use>
                            <use fill="url(#linearGradient-23)" xlink:href="#path-22"></use>
                        </g>
                        <g id="Path">
                            <use fill="#FFFFFF" xlink:href="#path-25"></use>
                            <use fill="url(#linearGradient-26)" xlink:href="#path-25"></use>
                        </g>
                        <g id="Path">
                            <use fill="#FFFFFF" xlink:href="#path-27"></use>
                            <use fill="url(#linearGradient-20)" xlink:href="#path-27"></use>
                        </g>
                        <g id="Path">
                            <use fill="#FFFFFF" xlink:href="#path-29"></use>
                            <use fill="url(#linearGradient-30)" xlink:href="#path-29"></use>
                        </g>
                        <g id="Path">
                            <use fill="#FFFFFF" xlink:href="#path-31"></use>
                            <use fill="url(#linearGradient-17)" xlink:href="#path-31"></use>
                        </g>
                    </g>
                    <g id="FOUNDATION" transform="translate(-0.000000, 67.396444)">
                        <g id="Path">
                            <use fill="#FFFFFF" xlink:href="#path-33"></use>
                            <use fill="url(#linearGradient-34)" xlink:href="#path-33"></use>
                        </g>
                        <g id="Shape">
                            <use fill="#FFFFFF" xlink:href="#path-36"></use>
                            <use fill="url(#linearGradient-37)" xlink:href="#path-36"></use>
                        </g>
                        <g id="Path">
                            <use fill="#FFFFFF" xlink:href="#path-39"></use>
                            <use fill="url(#linearGradient-40)" xlink:href="#path-39"></use>
                        </g>
                        <g id="Path">
                            <use fill="#FFFFFF" xlink:href="#path-42"></use>
                            <use fill="url(#linearGradient-43)" xlink:href="#path-42"></use>
                        </g>
                        <g id="Path">
                            <use fill="#FFFFFF" xlink:href="#path-45"></use>
                            <use fill="url(#linearGradient-46)" xlink:href="#path-45"></use>
                        </g>
                        <g id="Path">
                            <use fill="#FFFFFF" xlink:href="#path-48"></use>
                            <use fill="url(#linearGradient-49)" xlink:href="#path-48"></use>
                        </g>
                        <g id="Path">
                            <use fill="#FFFFFF" xlink:href="#path-51"></use>
                            <use fill="url(#linearGradient-52)" xlink:href="#path-51"></use>
                        </g>
                        <g id="Path">
                            <use fill="#FFFFFF" xlink:href="#path-54"></use>
                            <use fill="url(#linearGradient-55)" xlink:href="#path-54"></use>
                        </g>
                        <g id="Shape">
                            <use fill="#FFFFFF" xlink:href="#path-56"></use>
                            <use fill="url(#linearGradient-37)" xlink:href="#path-56"></use>
                        </g>
                        <g id="Path">
                            <use fill="#FFFFFF" xlink:href="#path-57"></use>
                            <use fill="url(#linearGradient-43)" xlink:href="#path-57"></use>
                        </g>
                    </g>
                </g>
                <g id="Group-7" fill-rule="nonzero">
                    <path d="M31.3264129,16.4557988 C32.6166682,16.2001383 36.6124171,15.4566418 41.7041428,15.5074029 C50.0533556,15.590731 56.5211277,17.7579415 60.48431,19.1209041 C65.0649503,20.6960574 75.2159538,24.6968277 85.4824615,33.6860271 C89.356905,37.0782855 92.2456521,40.3037849 94.2098767,42.6968949 C95.1260491,40.8599593 95.913577,38.9755826 96.5534171,37.0881729 C97.3944925,34.6069582 98.0145752,32.0420256 98.3962262,29.4653634 L99,25.3907498 C96.5545895,23.0173462 93.2674834,20.0891177 89.1313425,17.0710452 C87.1636693,15.6353146 80.9023734,11.1863395 72.8921709,7.59839237 C66.5405825,4.75332054 51.7629594,-1.86600947 32.7586227,0.502334725 C18.6537887,2.2600935 8.7388761,8.15658876 6.44927796,9.56542445 C4.7795883,10.5927101 3.16022656,11.6974847 1.63560879,12.8495976 L0.58672375,13.6421158 L0.430741123,14.9546515 C0.204401349,16.8580062 0.0655089924,18.8255481 0.0176358941,20.8013967 C-0.138342447,27.3047203 0.667273925,37.3575251 5.39159725,48.3159414 C6.75522512,51.4797855 8.39033928,54.5903367 10.2516361,57.5612464 C10.7672829,58.3841942 11.8010229,59.9655806 13.3352731,62 C13.1770098,60.8486753 13.0391792,59.6963399 12.9245589,58.5600009 C12.2532098,51.9136089 12.2578306,45.1257163 12.9375296,38.3854876 C13.5,32.8087757 14.4350382,28.3297012 15.1061071,25.5019282 C15.4111113,24.21696 15.6937334,23.1414965 15.9068266,22.3593112 C17.7266506,21.2787926 20.0330587,20.0690172 22.7964444,18.970977 C24.4935743,18.2964914 27.4703292,17.2200726 31.3264129,16.4557988 Z" id="Path" fill="url(#linearGradient-59)"></path>
                    <path d="M75.6513133,94.9143584 C70.5131896,97.2039521 66.1413709,98.6219895 63.3404071,99.4469077 C62.0676369,99.8219096 60.9884646,100.111714 60.1998771,100.315945 C58.337249,99.2699883 56.1155877,97.8646077 53.7595297,96.0058689 C52.3125254,94.8642105 49.86709,92.8086278 47.2477561,89.8320152 C46.3713157,88.8359251 43.699282,85.7273399 41.1628853,81.2684848 C37.0041221,73.9572254 35.6122972,67.2454483 34.7897449,63.1154172 C33.8391062,58.341965 32.1761623,47.5091668 34.7957286,34.0898651 C35.7843963,29.0257633 37.1273009,24.9029575 38.2144289,22 C36.1514961,22.1176459 34.1125413,22.3711884 32.1456926,22.7546876 C29.5602121,23.2589157 27.0140046,23.997317 24.5781604,24.9490747 L20.7262336,26.4540345 C19.9001814,29.7662357 19.0177573,34.0879094 18.4875383,39.193363 C18.2353218,41.6222137 17.5368997,49.2913426 18.4741632,58.0541677 C19.2172739,65.0025868 20.9461766,81.1686407 32.6385628,96.535782 C41.3165337,107.941262 51.4728225,113.635685 53.8591782,114.927121 C55.599308,115.868973 57.3816423,116.728376 59.1567532,117.481676 L60.3780028,118 L61.5992615,117.481676 C63.37036,116.73005 65.1529787,115.870646 66.896725,114.927514 C72.6352019,111.822286 80.975303,106.11068 88.1175035,96.5355598 C90.1796528,93.7714111 92.0579082,90.7974801 93.6999736,87.6962224 C94.154806,86.8370409 95.0071565,85.1486708 96,82.7990227 C95.0782553,83.5105606 94.1453267,84.2050267 93.214439,84.8710112 C87.7707228,88.767979 81.8613863,92.1469563 75.6513133,94.9143584 Z" id="Path" fill="url(#linearGradient-61)"></path>
                    <path d="M121.984576,20.5840257 C121.936832,18.6259829 121.796842,16.6728443 121.567929,14.7786378 L121.410539,13.4754494 L120.352089,12.6885752 C118.817061,11.5474022 117.182672,10.4502146 115.494968,9.42767995 C109.939249,6.06392259 100.823181,1.77190924 88.945256,0.429524954 C85.5161897,0.0416109353 81.9962392,-0.0844454602 78.4833088,0.05498819 C77.5100347,0.0937374885 75.6183021,0.205293741 73.08174,0.525866499 C74.1589954,0.960224337 75.2269337,1.41270203 76.2691912,1.87755741 C82.3663759,4.59476311 88.2448142,7.96844382 93.7415449,11.9041552 C98.2894902,15.1604779 101.698216,18.1951385 103.809595,20.1809439 C104.76894,21.0833344 105.558191,21.8624589 106.1282,22.4355273 C106.146165,24.5503963 106.030569,27.1513116 105.587746,30.093195 C105.315754,31.9000434 104.746414,35.0162093 103.462893,38.7400629 C103.033423,39.9862757 101.66153,43.8208476 99.0483552,48.2119375 C94.7635824,55.4121084 89.6227173,59.9458095 86.4422856,62.7066731 C82.766393,65.8976578 74.1783239,72.7159333 61.2101495,77.1576993 C56.3162309,78.8339742 52.0642696,79.7384276 49,80.2539591 C50.1291134,81.9604507 51.3643853,83.5789711 52.6766213,85.0709851 C54.4020832,87.0320902 56.3113448,88.8432349 58.3510911,90.4534952 L61.5767461,93 C64.8670051,92.057299 69.0624536,90.659832 73.763975,88.5708327 C76.0008501,87.5769536 83.0145136,84.3548591 90.1646879,79.1886642 C95.8343834,75.0921111 109.02523,65.5610792 116.562109,47.902241 C122.155904,34.7960997 122.049908,23.269343 121.984576,20.5840257 Z" id="Path" fill="url(#linearGradient-63)"></path>
                </g>
            </g>
        </g>
    </g>
</svg>