<?xml version="1.0" encoding="UTF-8"?>
<svg width="289px" height="118px" viewBox="0 0 289 118" version="1.1" xmlns="http://www.w3.org/2000/svg" xmlns:xlink="http://www.w3.org/1999/xlink">
    <title>AE Public Blockchain</title>
    <defs>
        <linearGradient x1="3.94901683%" y1="70.2946817%" x2="62.7458568%" y2="19.3357929%" id="linearGradient-1">
            <stop stop-color="#00A4DB" offset="0%"></stop>
            <stop stop-color="#CC00FF" offset="100%"></stop>
        </linearGradient>
        <linearGradient x1="3.94901683%" y1="70.2946817%" x2="62.7458568%" y2="19.3357929%" id="linearGradient-2">
            <stop stop-color="#000000" offset="0%"></stop>
            <stop stop-color="#000000" offset="100%"></stop>
        </linearGradient>
        <linearGradient x1="-8.15998999%" y1="50.3607943%" x2="66.0973524%" y2="49.4548585%" id="linearGradient-3">
            <stop stop-color="#00A4DB" offset="0%"></stop>
            <stop stop-color="#CC00FF" offset="100%"></stop>
        </linearGradient>
        <linearGradient x1="-8.15998999%" y1="50.3607943%" x2="66.0973524%" y2="49.4548585%" id="linearGradient-4">
            <stop stop-color="#000000" offset="0%"></stop>
            <stop stop-color="#000000" offset="100%"></stop>
        </linearGradient>
        <linearGradient x1="-8.15998999%" y1="50.7541644%" x2="66.0973524%" y2="48.8604969%" id="linearGradient-5">
            <stop stop-color="#00A4DB" offset="0%"></stop>
            <stop stop-color="#CC00FF" offset="100%"></stop>
        </linearGradient>
        <linearGradient x1="-8.15998999%" y1="50.7541644%" x2="66.0973524%" y2="48.8604969%" id="linearGradient-6">
            <stop stop-color="#000000" offset="0%"></stop>
            <stop stop-color="#000000" offset="100%"></stop>
        </linearGradient>
        <linearGradient x1="-8.15998999%" y1="51.0690023%" x2="66.0973524%" y2="48.3847932%" id="linearGradient-7">
            <stop stop-color="#00A4DB" offset="0%"></stop>
            <stop stop-color="#CC00FF" offset="100%"></stop>
        </linearGradient>
        <linearGradient x1="-8.15998999%" y1="51.0690023%" x2="66.0973524%" y2="48.3847932%" id="linearGradient-8">
            <stop stop-color="#000000" offset="0%"></stop>
            <stop stop-color="#000000" offset="100%"></stop>
        </linearGradient>
        <linearGradient x1="-8.15998999%" y1="57.9596731%" x2="66.0973524%" y2="37.9733484%" id="linearGradient-9">
            <stop stop-color="#00A4DB" offset="0%"></stop>
            <stop stop-color="#CC00FF" offset="100%"></stop>
        </linearGradient>
        <linearGradient x1="-8.15998999%" y1="57.9596731%" x2="66.0973524%" y2="37.9733484%" id="linearGradient-10">
            <stop stop-color="#000000" offset="0%"></stop>
            <stop stop-color="#000000" offset="100%"></stop>
        </linearGradient>
        <linearGradient x1="11.6053191%" y1="70.2946817%" x2="60.6267678%" y2="19.3357929%" id="linearGradient-11">
            <stop stop-color="#00A4DB" offset="0%"></stop>
            <stop stop-color="#CC00FF" offset="100%"></stop>
        </linearGradient>
        <linearGradient x1="11.6053191%" y1="70.2946817%" x2="60.6267678%" y2="19.3357929%" id="linearGradient-12">
            <stop stop-color="#000000" offset="0%"></stop>
            <stop stop-color="#000000" offset="100%"></stop>
        </linearGradient>
        <linearGradient x1="14.1652692%" y1="70.2946817%" x2="59.9182323%" y2="19.3357929%" id="linearGradient-13">
            <stop stop-color="#00A4DB" offset="0%"></stop>
            <stop stop-color="#CC00FF" offset="100%"></stop>
        </linearGradient>
        <linearGradient x1="14.1652692%" y1="70.2946817%" x2="59.9182323%" y2="19.3357929%" id="linearGradient-14">
            <stop stop-color="#000000" offset="0%"></stop>
            <stop stop-color="#000000" offset="100%"></stop>
        </linearGradient>
    </defs>
    <g id="logos" stroke="none" stroke-width="1" fill="none" fill-rule="evenodd">
        <g id="Validated-Logo" transform="translate(-2196.000000, -943.000000)">
            <g id="AE-Public-Blockchain" transform="translate(2196.000000, 943.000000)">
                <g id="AE" transform="translate(103.000000, 0.000000)">
                    <path d="M97.4069019,118 C100.142839,118 102.24951,116.87619 103.726916,114.628571 C105.204322,112.326132 105.395838,109.941463 104.301463,107.474564 L59.3226599,4.52264808 C58.0094102,1.50754936 55.7112232,0 52.4280989,0 C49.1996933,0 46.9288656,1.50754936 45.6156159,4.52264808 L0.636812904,107.474564 C-0.183968172,109.393264 -0.211327542,111.311963 0.554734797,113.230662 C1.2660784,115.149361 2.57932812,116.519861 4.49448397,117.34216 C5.47942126,117.78072 6.49171792,118 7.53137395,118 C10.7597795,118 13.0306072,116.492451 14.3438569,113.477352 L52.4280989,26.2313589 L85.9980449,102.951916 L41.7579449,102.951916 C39.6786328,102.951916 37.9002738,103.691986 36.4228679,105.172125 C35.0001807,106.652265 34.2888371,108.433914 34.2888371,110.517073 C34.2888371,112.545412 35.0001807,114.299652 36.4228679,115.779791 C37.9002738,117.25993 39.6786328,118 41.7579449,118 L97.4069019,118 Z" id="Path" fill="url(#linearGradient-2)"></path>
                    <path d="M176.747126,14 C179.295019,14 181.474138,13.3114754 183.284483,11.9344262 C185.094828,10.557377 186,8.89981785 186,6.96174863 C186,5.07468124 185.094828,3.44262295 183.284483,2.06557377 C181.474138,0.68852459 179.295019,0 176.747126,0 L90.1522989,0 C87.6044061,0 85.4588123,0.68852459 83.7155172,2.06557377 C81.9051724,3.44262295 81,5.07468124 81,6.96174863 C81,8.89981785 81.9051724,10.557377 83.7155172,11.9344262 C85.4588123,13.3114754 87.6044061,14 90.1522989,14 L176.747126,14 Z" id="Path" fill="url(#linearGradient-4)"></path>
                    <path d="M177.685824,67 C179.699872,67 181.422414,66.2131148 182.853448,64.6393443 C184.284483,63.0655738 185,61.2003643 185,59.0437158 C185,56.8287796 184.284483,54.9344262 182.853448,53.3606557 C181.422414,51.7868852 179.699872,51 177.685824,51 L109.234674,51 C107.220626,51 105.524585,51.7868852 104.146552,53.3606557 C102.715517,54.9344262 102,56.8287796 102,59.0437158 C102,61.2003643 102.715517,63.0655738 104.146552,64.6393443 C105.524585,66.2131148 107.220626,67 109.234674,67 L177.685824,67 Z" id="Path" fill="url(#linearGradient-6)"></path>
                    <path d="M179.624521,118 C181.104725,118 182.37069,117.311475 183.422414,115.934426 C184.474138,114.608379 185,112.976321 185,111.038251 C185,109.100182 184.474138,107.442623 183.422414,106.065574 C182.37069,104.688525 181.104725,104 179.624521,104 L129.31705,104 C127.836845,104 126.590358,104.688525 125.577586,106.065574 C124.525862,107.442623 124,109.100182 124,111.038251 C124,112.976321 124.525862,114.608379 125.577586,115.934426 C126.590358,117.311475 127.836845,118 129.31705,118 L179.624521,118 Z" id="Path" fill="url(#linearGradient-8)"></path>
                </g>
                <g id="Group-7" fill-rule="nonzero">
                    <path d="M31.3264129,16.4557988 C32.6166682,16.2001383 36.6124171,15.4566418 41.7041428,15.5074029 C50.0533556,15.590731 56.5211277,17.7579415 60.48431,19.1209041 C65.0649503,20.6960574 75.2159538,24.6968277 85.4824615,33.6860271 C89.356905,37.0782855 92.2456521,40.3037849 94.2098767,42.6968949 C95.1260491,40.8599593 95.913577,38.9755826 96.5534171,37.0881729 C97.3944925,34.6069582 98.0145752,32.0420256 98.3962262,29.4653634 L99,25.3907498 C96.5545895,23.0173462 93.2674834,20.0891177 89.1313425,17.0710452 C87.1636693,15.6353146 80.9023734,11.1863395 72.8921709,7.59839237 C66.5405825,4.75332054 51.7629594,-1.86600947 32.7586227,0.502334725 C18.6537887,2.2600935 8.7388761,8.15658876 6.44927796,9.56542445 C4.7795883,10.5927101 3.16022656,11.6974847 1.63560879,12.8495976 L0.58672375,13.6421158 L0.430741123,14.9546515 C0.204401349,16.8580062 0.0655089924,18.8255481 0.0176358941,20.8013967 C-0.138342447,27.3047203 0.667273925,37.3575251 5.39159725,48.3159414 C6.75522512,51.4797855 8.39033928,54.5903367 10.2516361,57.5612464 C10.7672829,58.3841942 11.8010229,59.9655806 13.3352731,62 C13.1770098,60.8486753 13.0391792,59.6963399 12.9245589,58.5600009 C12.2532098,51.9136089 12.2578306,45.1257163 12.9375296,38.3854876 C13.5,32.8087757 14.4350382,28.3297012 15.1061071,25.5019282 C15.4111113,24.21696 15.6937334,23.1414965 15.9068266,22.3593112 C17.7266506,21.2787926 20.0330587,20.0690172 22.7964444,18.970977 C24.4935743,18.2964914 27.4703292,17.2200726 31.3264129,16.4557988 Z" id="Path" fill="url(#linearGradient-10)"></path>
                    <path d="M75.6513133,94.9143584 C70.5131896,97.2039521 66.1413709,98.6219895 63.3404071,99.4469077 C62.0676369,99.8219096 60.9884646,100.111714 60.1998771,100.315945 C58.337249,99.2699883 56.1155877,97.8646077 53.7595297,96.0058689 C52.3125254,94.8642105 49.86709,92.8086278 47.2477561,89.8320152 C46.3713157,88.8359251 43.699282,85.7273399 41.1628853,81.2684848 C37.0041221,73.9572254 35.6122972,67.2454483 34.7897449,63.1154172 C33.8391062,58.341965 32.1761623,47.5091668 34.7957286,34.0898651 C35.7843963,29.0257633 37.1273009,24.9029575 38.2144289,22 C36.1514961,22.1176459 34.1125413,22.3711884 32.1456926,22.7546876 C29.5602121,23.2589157 27.0140046,23.997317 24.5781604,24.9490747 L20.7262336,26.4540345 C19.9001814,29.7662357 19.0177573,34.0879094 18.4875383,39.193363 C18.2353218,41.6222137 17.5368997,49.2913426 18.4741632,58.0541677 C19.2172739,65.0025868 20.9461766,81.1686407 32.6385628,96.535782 C41.3165337,107.941262 51.4728225,113.635685 53.8591782,114.927121 C55.599308,115.868973 57.3816423,116.728376 59.1567532,117.481676 L60.3780028,118 L61.5992615,117.481676 C63.37036,116.73005 65.1529787,115.870646 66.896725,114.927514 C72.6352019,111.822286 80.975303,106.11068 88.1175035,96.5355598 C90.1796528,93.7714111 92.0579082,90.7974801 93.6999736,87.6962224 C94.154806,86.8370409 95.0071565,85.1486708 96,82.7990227 C95.0782553,83.5105606 94.1453267,84.2050267 93.214439,84.8710112 C87.7707228,88.767979 81.8613863,92.1469563 75.6513133,94.9143584 Z" id="Path" fill="url(#linearGradient-12)"></path>
                    <path d="M121.984576,20.5840257 C121.936832,18.6259829 121.796842,16.6728443 121.567929,14.7786378 L121.410539,13.4754494 L120.352089,12.6885752 C118.817061,11.5474022 117.182672,10.4502146 115.494968,9.42767995 C109.939249,6.06392259 100.823181,1.77190924 88.945256,0.429524954 C85.5161897,0.0416109353 81.9962392,-0.0844454602 78.4833088,0.05498819 C77.5100347,0.0937374885 75.6183021,0.205293741 73.08174,0.525866499 C74.1589954,0.960224337 75.2269337,1.41270203 76.2691912,1.87755741 C82.3663759,4.59476311 88.2448142,7.96844382 93.7415449,11.9041552 C98.2894902,15.1604779 101.698216,18.1951385 103.809595,20.1809439 C104.76894,21.0833344 105.558191,21.8624589 106.1282,22.4355273 C106.146165,24.5503963 106.030569,27.1513116 105.587746,30.093195 C105.315754,31.9000434 104.746414,35.0162093 103.462893,38.7400629 C103.033423,39.9862757 101.66153,43.8208476 99.0483552,48.2119375 C94.7635824,55.4121084 89.6227173,59.9458095 86.4422856,62.7066731 C82.766393,65.8976578 74.1783239,72.7159333 61.2101495,77.1576993 C56.3162309,78.8339742 52.0642696,79.7384276 49,80.2539591 C50.1291134,81.9604507 51.3643853,83.5789711 52.6766213,85.0709851 C54.4020832,87.0320902 56.3113448,88.8432349 58.3510911,90.4534952 L61.5767461,93 C64.8670051,92.057299 69.0624536,90.659832 73.763975,88.5708327 C76.0008501,87.5769536 83.0145136,84.3548591 90.1646879,79.1886642 C95.8343834,75.0921111 109.02523,65.5610792 116.562109,47.902241 C122.155904,34.7960997 122.049908,23.269343 121.984576,20.5840257 Z" id="Path" fill="url(#linearGradient-14)"></path>
                </g>
            </g>
        </g>
    </g>
</svg>