<?xml version="1.0" encoding="UTF-8"?>
<svg width="823px" height="118px" viewBox="0 0 823 118" version="1.1" xmlns="http://www.w3.org/2000/svg" xmlns:xlink="http://www.w3.org/1999/xlink">
    <title>AE Public Blockchain</title>
    <defs>
        <linearGradient x1="3.94901683%" y1="70.2946817%" x2="62.7458568%" y2="19.3357929%" id="linearGradient-1">
            <stop stop-color="#00A4DB" offset="0%"></stop>
            <stop stop-color="#CC00FF" offset="100%"></stop>
        </linearGradient>
        <linearGradient x1="-8.15998999%" y1="50.3607943%" x2="66.0973524%" y2="49.4548585%" id="linearGradient-2">
            <stop stop-color="#00A4DB" offset="0%"></stop>
            <stop stop-color="#CC00FF" offset="100%"></stop>
        </linearGradient>
        <linearGradient x1="-8.15998999%" y1="50.7541644%" x2="66.0973524%" y2="48.8604969%" id="linearGradient-3">
            <stop stop-color="#00A4DB" offset="0%"></stop>
            <stop stop-color="#CC00FF" offset="100%"></stop>
        </linearGradient>
        <linearGradient x1="-8.15998999%" y1="51.0690023%" x2="66.0973524%" y2="48.3847932%" id="linearGradient-4">
            <stop stop-color="#00A4DB" offset="0%"></stop>
            <stop stop-color="#CC00FF" offset="100%"></stop>
        </linearGradient>
        <linearGradient x1="50%" y1="0%" x2="50%" y2="100%" id="linearGradient-5">
            <stop stop-color="#00A4DB" offset="0%"></stop>
            <stop stop-color="#CC00FF" offset="100%"></stop>
        </linearGradient>
        <path d="M13.3875,4.27751766 C15.2158854,4.27751766 16.773112,4.92055151 18.0591797,6.20661922 C19.3607422,7.50818172 20.0115234,9.07315568 20.0115234,10.9015411 C20.0115234,12.7299265 19.3607422,14.2949005 18.0591797,15.596463 C16.773112,16.8825307 15.2158854,17.5255645 13.3875,17.5255645 L2.11503906,17.5255645 C1.52623698,17.5255645 1.03040365,17.7347442 0.627539063,18.1531036 C0.209179687,18.571463 0,19.0750437 0,19.6638458 L0,31.2616973 C0,31.8504994 0.209179687,32.3463328 0.627539063,32.7491973 C1.03040365,33.1675567 1.52623698,33.3767364 2.11503906,33.3767364 C2.70384115,33.3767364 3.20742187,33.1675567 3.62578125,32.7491973 C4.04414063,32.3463328 4.25332031,31.8504994 4.25332031,31.2616973 L4.25332031,21.7788848 L13.3875,21.7788848 C16.3779948,21.7788848 18.9346354,20.7174916 21.0574219,18.5947052 C23.1957031,16.4719187 24.2648438,13.9075307 24.2648438,10.9015411 C24.2648438,7.9110463 23.1957031,5.34665828 21.0574219,3.20837703 C18.9346354,1.08559058 16.3779948,0.0241973459 13.3875,0.0241973459 L2.11503906,0.0241973459 C1.52623698,0.0241973459 1.03040365,0.233377033 0.627539063,0.651736408 C0.209179687,1.07009578 0,1.56592912 0,2.13923641 C0,2.72803849 0.209179687,3.23161922 0.627539063,3.6499786 C1.03040365,4.06833797 1.52623698,4.27751766 2.11503906,4.27751766 L13.3875,4.27751766 Z" id="path-6"></path>
        <linearGradient x1="50%" y1="0%" x2="50%" y2="100%" id="linearGradient-7">
            <stop stop-color="#00A4DB" offset="0%"></stop>
            <stop stop-color="#CC00FF" offset="100%"></stop>
        </linearGradient>
        <path d="M44.8233333,33.3767364 C48.3251562,33.3767364 51.3233984,32.1294057 53.8180599,29.6347442 C56.3127214,27.1555776 57.5600521,24.1573354 57.5600521,20.6400177 L57.5600521,2.13923641 C57.5600521,1.56592912 57.3508724,1.07009578 56.932513,0.651736408 C56.5141536,0.233377033 56.0105729,0.0241973459 55.4217708,0.0241973459 C54.8484635,0.0241973459 54.3526302,0.233377033 53.9342708,0.651736408 C53.5159115,1.07009578 53.3067318,1.56592912 53.3067318,2.13923641 L53.3067318,20.6400177 C53.3067318,22.9797312 52.4777604,24.9785593 50.8198177,26.636502 C49.161875,28.2944447 47.1630469,29.1234161 44.8233333,29.1234161 C42.4836198,29.1234161 40.4847917,28.2944447 38.826849,26.636502 C37.1689062,24.9785593 36.3399349,22.9797312 36.3399349,20.6400177 L36.3399349,2.13923641 C36.3399349,1.56592912 36.1307552,1.07009578 35.7123958,0.651736408 C35.2940365,0.233377033 34.7904557,0.0241973459 34.2016536,0.0241973459 C33.6128516,0.0241973459 33.1170182,0.233377033 32.7141536,0.651736408 C32.2957943,1.07009578 32.0866146,1.56592912 32.0866146,2.13923641 L32.0866146,20.6400177 C32.0866146,24.1573354 33.3339453,27.1555776 35.8286068,29.6347442 C38.3077734,32.1294057 41.3060156,33.3767364 44.8233333,33.3767364 Z" id="path-8"></path>
        <path d="M69.6351432,18.827127 L81.4421745,18.827127 C82.8676953,18.827127 84.0840365,19.3307078 85.0911979,20.3378692 C86.0983594,21.3450307 86.6019401,22.5613718 86.6019401,23.9868927 C86.6019401,25.3969187 86.0983594,26.6055125 85.0911979,27.6126739 C84.0840365,28.6198354 82.8676953,29.1234161 81.4421745,29.1234161 L69.6351432,29.1234161 L69.6351432,18.827127 Z M69.6351432,4.27751766 L79.024987,4.27751766 C80.4505078,4.27751766 81.666849,4.78109839 82.6740104,5.78825985 C83.6811719,6.7954213 84.1847526,8.00401505 84.1847526,9.4140411 C84.1847526,10.8395619 83.6811719,12.0559031 82.6740104,13.0630645 C81.666849,14.070226 80.4505078,14.5738067 79.024987,14.5738067 L69.6351432,14.5738067 L69.6351432,4.27751766 Z M81.4421745,33.3767364 C84.0452995,33.3767364 86.2610547,32.4547963 88.0894401,30.6109161 C89.9333203,28.7825307 90.8552604,26.5745229 90.8552604,23.9868927 C90.8552604,22.2359812 90.4059115,20.6167755 89.5072135,19.1292755 C88.6240104,17.6882598 87.4464062,16.5571401 85.974401,15.7359161 C87.6013542,13.9540151 88.4148307,11.8467234 88.4148307,9.4140411 C88.4148307,6.82641089 87.500638,4.61840308 85.6722526,2.79001766 C83.8283724,0.94613745 81.6126172,0.0241973459 79.024987,0.0241973459 L67.496862,0.0241973459 C66.9080599,0.0241973459 66.4122266,0.233377033 66.009362,0.651736408 C65.5910026,1.07009578 65.3818229,1.56592912 65.3818229,2.13923641 L65.3818229,31.2616973 C65.3818229,31.8504994 65.5910026,32.3463328 66.009362,32.7491973 C66.4122266,33.1675567 66.9080599,33.3767364 67.496862,33.3767364 L81.4421745,33.3767364 Z" id="path-9"></path>
        <linearGradient x1="50%" y1="0%" x2="50%" y2="100%" id="linearGradient-10">
            <stop stop-color="#00A4DB" offset="0%"></stop>
            <stop stop-color="#CC00FF" offset="100%"></stop>
        </linearGradient>
        <path d="M121.407891,33.3767364 C121.996693,33.3767364 122.500273,33.1675567 122.918633,32.7491973 C123.336992,32.3463328 123.546172,31.8504994 123.546172,31.2616973 C123.546172,30.6728953 123.336992,30.1693145 122.918633,29.7509552 C122.500273,29.3325958 121.996693,29.1234161 121.407891,29.1234161 L102.930352,29.1234161 L102.930352,2.13923641 C102.930352,1.56592912 102.721172,1.07009578 102.302812,0.651736408 C101.884453,0.233377033 101.380872,0.0241973459 100.79207,0.0241973459 C100.203268,0.0241973459 99.7074349,0.233377033 99.3045703,0.651736408 C98.8862109,1.07009578 98.6770312,1.56592912 98.6770312,2.13923641 L98.6770312,31.2616973 C98.6770312,31.8504994 98.8862109,32.3463328 99.3045703,32.7491973 C99.7074349,33.1675567 100.203268,33.3767364 100.79207,33.3767364 L121.407891,33.3767364 Z" id="path-11"></path>
        <linearGradient x1="50%" y1="0%" x2="50%" y2="100%" id="linearGradient-12">
            <stop stop-color="#00A4DB" offset="0%"></stop>
            <stop stop-color="#CC00FF" offset="100%"></stop>
        </linearGradient>
        <path d="M133.482982,33.3767364 C134.071784,33.3767364 134.575365,33.1675567 134.993724,32.7491973 C135.412083,32.3463328 135.621263,31.8504994 135.621263,31.2616973 L135.621263,2.13923641 C135.621263,1.56592912 135.412083,1.07009578 134.993724,0.651736408 C134.575365,0.233377033 134.071784,0.0241973459 133.482982,0.0241973459 C132.89418,0.0241973459 132.398346,0.233377033 131.995482,0.651736408 C131.577122,1.07009578 131.367943,1.56592912 131.367943,2.13923641 L131.367943,31.2616973 C131.367943,31.8504994 131.577122,32.3463328 131.995482,32.7491973 C132.398346,33.1675567 132.89418,33.3767364 133.482982,33.3767364 Z" id="path-13"></path>
        <linearGradient x1="50%" y1="0%" x2="50%" y2="100%" id="linearGradient-14">
            <stop stop-color="#00A4DB" offset="0%"></stop>
            <stop stop-color="#CC00FF" offset="100%"></stop>
        </linearGradient>
        <path d="M160.107682,33.3767364 C164.72513,33.3767364 168.660807,31.7497833 171.914714,28.495877 C172.333073,28.0775177 172.542253,27.5739369 172.542253,26.9851348 C172.542253,26.3963328 172.333073,25.9004994 171.914714,25.4976348 C171.496354,25.0792755 170.992773,24.8700958 170.403971,24.8700958 C169.815169,24.8700958 169.319336,25.0792755 168.916471,25.4976348 C166.483789,27.9148223 163.547526,29.1234161 160.107682,29.1234161 C156.683333,29.1234161 153.754818,27.9148223 151.322135,25.4976348 C148.904948,23.0649526 147.696354,20.1364369 147.696354,16.712088 C147.696354,13.2722442 148.904948,10.3359812 151.322135,7.90329891 C153.754818,5.48611141 156.683333,4.27751766 160.107682,4.27751766 C163.547526,4.27751766 166.483789,5.48611141 168.916471,7.90329891 C169.319336,8.32165828 169.815169,8.53083797 170.403971,8.53083797 C170.992773,8.53083797 171.496354,8.32165828 171.914714,7.90329891 C172.333073,7.50043433 172.542253,7.00460099 172.542253,6.41579891 C172.542253,5.82699683 172.333073,5.3234161 171.914714,4.90505672 C168.660807,1.65115047 164.72513,0.0241973459 160.107682,0.0241973459 C155.505729,0.0241973459 151.577799,1.65115047 148.323893,4.90505672 C145.069987,8.15896297 143.443034,12.0946401 143.443034,16.712088 C143.443034,21.3140411 145.069987,25.2419708 148.323893,28.495877 C151.577799,31.7497833 155.505729,33.3767364 160.107682,33.3767364 Z" id="path-15"></path>
        <path d="M199.597708,18.827127 L211.40474,18.827127 C212.83026,18.827127 214.046602,19.3307078 215.053763,20.3378692 C216.060924,21.3450307 216.564505,22.5613718 216.564505,23.9868927 C216.564505,25.3969187 216.060924,26.6055125 215.053763,27.6126739 C214.046602,28.6198354 212.83026,29.1234161 211.40474,29.1234161 L199.597708,29.1234161 L199.597708,18.827127 Z M199.597708,4.27751766 L208.987552,4.27751766 C210.413073,4.27751766 211.629414,4.78109839 212.636576,5.78825985 C213.643737,6.7954213 214.147318,8.00401505 214.147318,9.4140411 C214.147318,10.8395619 213.643737,12.0559031 212.636576,13.0630645 C211.629414,14.070226 210.413073,14.5738067 208.987552,14.5738067 L199.597708,14.5738067 L199.597708,4.27751766 Z M211.40474,33.3767364 C214.007865,33.3767364 216.22362,32.4547963 218.052005,30.6109161 C219.895885,28.7825307 220.817826,26.5745229 220.817826,23.9868927 C220.817826,22.2359812 220.368477,20.6167755 219.469779,19.1292755 C218.586576,17.6882598 217.408971,16.5571401 215.936966,15.7359161 C217.563919,13.9540151 218.377396,11.8467234 218.377396,9.4140411 C218.377396,6.82641089 217.463203,4.61840308 215.634818,2.79001766 C213.790937,0.94613745 211.575182,0.0241973459 208.987552,0.0241973459 L197.459427,0.0241973459 C196.870625,0.0241973459 196.374792,0.233377033 195.971927,0.651736408 C195.553568,1.07009578 195.344388,1.56592912 195.344388,2.13923641 L195.344388,31.2616973 C195.344388,31.8504994 195.553568,32.3463328 195.971927,32.7491973 C196.374792,33.1675567 196.870625,33.3767364 197.459427,33.3767364 L211.40474,33.3767364 Z" id="path-16"></path>
        <path d="M251.370456,33.3767364 C251.959258,33.3767364 252.462839,33.1675567 252.881198,32.7491973 C253.299557,32.3463328 253.508737,31.8504994 253.508737,31.2616973 C253.508737,30.6728953 253.299557,30.1693145 252.881198,29.7509552 C252.462839,29.3325958 251.959258,29.1234161 251.370456,29.1234161 L232.892917,29.1234161 L232.892917,2.13923641 C232.892917,1.56592912 232.683737,1.07009578 232.265378,0.651736408 C231.847018,0.233377033 231.343437,0.0241973459 230.754635,0.0241973459 C230.165833,0.0241973459 229.67,0.233377033 229.267135,0.651736408 C228.848776,1.07009578 228.639596,1.56592912 228.639596,2.13923641 L228.639596,31.2616973 C228.639596,31.8504994 228.848776,32.3463328 229.267135,32.7491973 C229.67,33.1675567 230.165833,33.3767364 230.754635,33.3767364 L251.370456,33.3767364 Z" id="path-17"></path>
        <linearGradient x1="50%" y1="0%" x2="50%" y2="100%" id="linearGradient-18">
            <stop stop-color="#00A4DB" offset="0%"></stop>
            <stop stop-color="#CC00FF" offset="100%"></stop>
        </linearGradient>
        <path d="M274.973672,4.27751766 C278.413516,4.27751766 281.342031,5.4938588 283.759219,7.9265411 C286.191901,10.3437286 287.408242,13.2722442 287.408242,16.712088 C287.408242,20.1364369 286.191901,23.0649526 283.759219,25.4976348 C281.342031,27.9148223 278.413516,29.1234161 274.973672,29.1234161 C271.549323,29.1234161 268.620807,27.9148223 266.188125,25.4976348 C263.770937,23.0649526 262.562344,20.1364369 262.562344,16.712088 C262.562344,13.2722442 263.770937,10.3437286 266.188125,7.9265411 C268.620807,5.4938588 271.549323,4.27751766 274.973672,4.27751766 Z M274.973672,33.3767364 C279.59112,33.3767364 283.526797,31.7497833 286.780703,28.495877 C290.034609,25.2419708 291.661562,21.3140411 291.661562,16.712088 C291.661562,12.0946401 290.034609,8.15896297 286.780703,4.90505672 C283.526797,1.65115047 279.59112,0.0241973459 274.973672,0.0241973459 C270.371719,0.0241973459 266.443789,1.65115047 263.189883,4.90505672 C259.935977,8.15896297 258.309023,12.0946401 258.309023,16.712088 C258.309023,21.3140411 259.935977,25.2419708 263.189883,28.495877 C266.443789,31.7497833 270.371719,33.3767364 274.973672,33.3767364 Z" id="path-19"></path>
        <path d="M316.147982,33.3767364 C320.76543,33.3767364 324.701107,31.7497833 327.955013,28.495877 C328.373372,28.0775177 328.582552,27.5739369 328.582552,26.9851348 C328.582552,26.3963328 328.373372,25.9004994 327.955013,25.4976348 C327.536654,25.0792755 327.033073,24.8700958 326.444271,24.8700958 C325.855469,24.8700958 325.359635,25.0792755 324.956771,25.4976348 C322.524089,27.9148223 319.587826,29.1234161 316.147982,29.1234161 C312.723633,29.1234161 309.795117,27.9148223 307.362435,25.4976348 C304.945247,23.0649526 303.736654,20.1364369 303.736654,16.712088 C303.736654,13.2722442 304.945247,10.3359812 307.362435,7.90329891 C309.795117,5.48611141 312.723633,4.27751766 316.147982,4.27751766 C319.587826,4.27751766 322.524089,5.48611141 324.956771,7.90329891 C325.359635,8.32165828 325.855469,8.53083797 326.444271,8.53083797 C327.033073,8.53083797 327.536654,8.32165828 327.955013,7.90329891 C328.373372,7.50043433 328.582552,7.00460099 328.582552,6.41579891 C328.582552,5.82699683 328.373372,5.3234161 327.955013,4.90505672 C324.701107,1.65115047 320.76543,0.0241973459 316.147982,0.0241973459 C311.546029,0.0241973459 307.618099,1.65115047 304.364193,4.90505672 C301.110286,8.15896297 299.483333,12.0946401 299.483333,16.712088 C299.483333,21.3140411 301.110286,25.2419708 304.364193,28.495877 C307.618099,31.7497833 311.546029,33.3767364 316.147982,33.3767364 Z" id="path-20"></path>
        <linearGradient x1="50%" y1="0%" x2="50%" y2="100%" id="linearGradient-21">
            <stop stop-color="#00A4DB" offset="0%"></stop>
            <stop stop-color="#CC00FF" offset="100%"></stop>
        </linearGradient>
        <path d="M336.404323,31.2616973 C336.404323,31.8504994 336.613503,32.3463328 337.031862,32.7491973 C337.434727,33.1675567 337.93056,33.3767364 338.519362,33.3767364 C339.108164,33.3767364 339.611745,33.1675567 340.030104,32.7491973 C340.448464,32.3463328 340.657643,31.8504994 340.657643,31.2616973 L340.657643,20.6632598 L343.167799,18.3855255 L356.369362,32.702713 C356.787721,33.1520619 357.306797,33.3767364 357.926589,33.3767364 C358.484401,33.3767364 358.96474,33.1907989 359.367604,32.8189239 C359.801458,32.4160593 360.026133,31.920226 360.041628,31.3314239 C360.072617,30.7581166 359.88668,30.2545359 359.483815,29.8206817 L346.305495,15.5499786 L359.344362,3.71970516 C359.778216,3.33233537 360.010638,2.84424943 360.041628,2.25544735 C360.072617,1.66664526 359.894427,1.15531714 359.507057,0.721462971 C359.104193,0.287608804 358.616107,0.0551869292 358.042799,0.0241973459 C357.453997,-0.00679223744 356.942669,0.179145263 356.508815,0.582009846 L340.657643,14.9456817 L340.657643,2.13923641 C340.657643,1.56592912 340.448464,1.07009578 340.030104,0.651736408 C339.611745,0.233377033 339.108164,0.0241973459 338.519362,0.0241973459 C337.93056,0.0241973459 337.434727,0.233377033 337.031862,0.651736408 C336.613503,1.07009578 336.404323,1.56592912 336.404323,2.13923641 L336.404323,31.2616973 Z" id="path-22"></path>
        <path d="M384.574531,33.3767364 C389.191979,33.3767364 393.127656,31.7497833 396.381562,28.495877 C396.799922,28.0775177 397.009102,27.5739369 397.009102,26.9851348 C397.009102,26.3963328 396.799922,25.9004994 396.381562,25.4976348 C395.963203,25.0792755 395.459622,24.8700958 394.87082,24.8700958 C394.282018,24.8700958 393.786185,25.0792755 393.38332,25.4976348 C390.950638,27.9148223 388.014375,29.1234161 384.574531,29.1234161 C381.150182,29.1234161 378.221667,27.9148223 375.788984,25.4976348 C373.371797,23.0649526 372.163203,20.1364369 372.163203,16.712088 C372.163203,13.2722442 373.371797,10.3359812 375.788984,7.90329891 C378.221667,5.48611141 381.150182,4.27751766 384.574531,4.27751766 C388.014375,4.27751766 390.950638,5.48611141 393.38332,7.90329891 C393.786185,8.32165828 394.282018,8.53083797 394.87082,8.53083797 C395.459622,8.53083797 395.963203,8.32165828 396.381562,7.90329891 C396.799922,7.50043433 397.009102,7.00460099 397.009102,6.41579891 C397.009102,5.82699683 396.799922,5.3234161 396.381562,4.90505672 C393.127656,1.65115047 389.191979,0.0241973459 384.574531,0.0241973459 C379.972578,0.0241973459 376.044648,1.65115047 372.790742,4.90505672 C369.536836,8.15896297 367.909883,12.0946401 367.909883,16.712088 C367.909883,21.3140411 369.536836,25.2419708 372.790742,28.495877 C376.044648,31.7497833 379.972578,33.3767364 384.574531,33.3767364 Z" id="path-23"></path>
        <path d="M406.945911,33.3767364 C407.534714,33.3767364 408.038294,33.1675567 408.456654,32.7491973 C408.875013,32.3463328 409.084193,31.8504994 409.084193,31.2616973 L409.084193,18.827127 L426.05099,18.827127 L426.05099,31.2616973 C426.05099,31.8504994 426.260169,32.3463328 426.678529,32.7491973 C427.096888,33.1675567 427.592721,33.3767364 428.166029,33.3767364 C428.754831,33.3767364 429.258411,33.1675567 429.676771,32.7491973 C430.09513,32.3463328 430.30431,31.8504994 430.30431,31.2616973 L430.30431,2.13923641 C430.30431,1.56592912 430.09513,1.07009578 429.676771,0.651736408 C429.258411,0.233377033 428.754831,0.0241973459 428.166029,0.0241973459 C427.592721,0.0241973459 427.096888,0.233377033 426.678529,0.651736408 C426.260169,1.07009578 426.05099,1.56592912 426.05099,2.13923641 L426.05099,14.5738067 L409.084193,14.5738067 L409.084193,2.13923641 C409.084193,1.56592912 408.875013,1.07009578 408.456654,0.651736408 C408.038294,0.233377033 407.534714,0.0241973459 406.945911,0.0241973459 C406.357109,0.0241973459 405.861276,0.233377033 405.458411,0.651736408 C405.040052,1.07009578 404.830872,1.56592912 404.830872,2.13923641 L404.830872,31.2616973 C404.830872,31.8504994 405.040052,32.3463328 405.458411,32.7491973 C405.861276,33.1675567 406.357109,33.3767364 406.945911,33.3767364 Z" id="path-24"></path>
        <linearGradient x1="50%" y1="0%" x2="50%" y2="100%" id="linearGradient-25">
            <stop stop-color="#00A4DB" offset="0%"></stop>
            <stop stop-color="#CC00FF" offset="100%"></stop>
        </linearGradient>
        <path d="M447.911042,19.4314239 L453.140534,7.43845516 L458.393268,19.4314239 L447.911042,19.4314239 Z M455.092878,1.30251766 C454.721003,0.450304117 454.070221,0.0241973459 453.140534,0.0241973459 C452.226341,0.0241973459 451.583307,0.450304117 451.211432,1.30251766 L438.474714,30.4017364 C438.242292,30.9285593 438.234544,31.470877 438.451471,32.0286895 C438.652904,32.5710072 439.024779,32.958377 439.567096,33.1907989 C440.109414,33.4232208 440.651732,33.4309682 441.194049,33.2140411 C441.736367,33.0126088 442.123737,32.6407338 442.356159,32.0984161 L446.051667,23.661502 L460.252643,23.661502 L463.948151,32.0984161 C464.320026,32.9506296 464.96306,33.3767364 465.877253,33.3767364 C466.171654,33.3767364 466.458307,33.3147572 466.737214,33.1907989 C467.279531,32.958377 467.651406,32.5710072 467.852839,32.0286895 C468.069766,31.470877 468.062018,30.9285593 467.829596,30.4017364 L455.092878,1.30251766 Z" id="path-26"></path>
        <path d="M478.115039,33.3767364 C478.703841,33.3767364 479.207422,33.1675567 479.625781,32.7491973 C480.044141,32.3463328 480.25332,31.8504994 480.25332,31.2616973 L480.25332,2.13923641 C480.25332,1.56592912 480.044141,1.07009578 479.625781,0.651736408 C479.207422,0.233377033 478.703841,0.0241973459 478.115039,0.0241973459 C477.526237,0.0241973459 477.030404,0.233377033 476.627539,0.651736408 C476.20918,1.07009578 476,1.56592912 476,2.13923641 L476,31.2616973 C476,31.8504994 476.20918,32.3463328 476.627539,32.7491973 C477.030404,33.1675567 477.526237,33.3767364 478.115039,33.3767364 Z" id="path-27"></path>
        <linearGradient x1="50%" y1="0%" x2="50%" y2="100%" id="linearGradient-28">
            <stop stop-color="#00A4DB" offset="0%"></stop>
            <stop stop-color="#CC00FF" offset="100%"></stop>
        </linearGradient>
        <path d="M490.19013,33.3767364 C490.778932,33.3767364 491.282513,33.1675567 491.700872,32.7491973 C492.119232,32.3463328 492.328411,31.8504994 492.328411,31.2616973 L492.328411,8.36814266 L510.945404,32.5400177 C511.379258,33.0978302 511.944818,33.3767364 512.642083,33.3767364 C512.874505,33.3767364 513.09918,33.3379994 513.316107,33.2605255 C514.276784,32.9351348 514.757122,32.2688588 514.757122,31.2616973 L514.757122,2.13923641 C514.757122,1.56592912 514.547943,1.07009578 514.129583,0.651736408 C513.711224,0.233377033 513.215391,0.0241973459 512.642083,0.0241973459 C512.053281,0.0241973459 511.549701,0.233377033 511.131341,0.651736408 C510.712982,1.07009578 510.503802,1.56592912 510.503802,2.13923641 L510.503802,25.0327911 L491.88681,0.860916096 C491.267018,0.0551869292 490.476784,-0.184982342 489.516107,0.140408283 C488.55543,0.465798908 488.075091,1.13207495 488.075091,2.13923641 L488.075091,31.2616973 C488.075091,31.8504994 488.284271,32.3463328 488.70263,32.7491973 C489.105495,33.1675567 489.601328,33.3767364 490.19013,33.3767364 Z" id="path-29"></path>
        <linearGradient x1="50%" y1="0%" x2="50%" y2="100%" id="linearGradient-30">
            <stop stop-color="#00A4DB" offset="0%"></stop>
            <stop stop-color="#CC00FF" offset="100%"></stop>
        </linearGradient>
        <path d="M53.6850586,59.2177734 C54.449707,58.0283203 54.5488281,56.7963867 53.9824219,55.5219727 L30.703125,2.33642578 C30.0234375,0.778808594 28.8339844,0 27.1347656,0 C25.4638672,0 24.2885742,0.778808594 23.6088867,2.33642578 L0.329589844,55.5219727 C-0.0952148438,56.5131836 -0.109375,57.5043945 0.287109375,58.4956055 C0.655273438,59.4868164 1.33496094,60.1948242 2.32617188,60.6196289 C2.8359375,60.8461914 3.35986328,60.9594727 3.89794922,60.9594727 C5.56884766,60.9594727 6.74414062,60.1806641 7.42382812,58.6230469 L27.1347656,13.5512695 L44.5092773,53.1855469 L21.6123047,53.1855469 C20.5361328,53.1855469 19.6157227,53.5678711 18.8510742,54.3325195 C18.1147461,55.097168 17.746582,56.0175781 17.746582,57.09375 C17.746582,58.1416016 18.1147461,59.0478516 18.8510742,59.8125 C19.6157227,60.5771484 20.5361328,60.9594727 21.6123047,60.9594727 L50.4140625,60.9594727 C51.8300781,60.9594727 52.9204102,60.3789062 53.6850586,59.2177734 Z" id="path-31"></path>
        <linearGradient x1="50%" y1="0%" x2="50%" y2="100%" id="linearGradient-32">
            <stop stop-color="#00A4DB" offset="0%"></stop>
            <stop stop-color="#CC00FF" offset="100%"></stop>
        </linearGradient>
        <path d="M72.9938477,60.9594727 C74.0700195,60.9594727 74.9904297,60.5771484 75.7550781,59.8125 C76.5197266,59.0761719 76.9020508,58.1699219 76.9020508,57.09375 L76.9020508,39.7617188 L88.8390625,39.7617188 L107.233105,59.7275391 C107.997754,60.5488281 108.946484,60.9594727 110.079297,60.9594727 C111.098828,60.9594727 111.976758,60.6196289 112.713086,59.9399414 C113.506055,59.2036133 113.930859,58.2973633 113.9875,57.2211914 C114.01582,56.1733398 113.661816,55.2529297 112.925488,54.4599609 L98.7370117,39.0395508 C102.985059,37.878418 106.468457,35.5419922 109.187207,32.0302734 C111.962598,28.4619141 113.350293,24.4121094 113.350293,19.8808594 C113.350293,14.4150391 111.410352,9.72802734 107.530469,5.81982422 C103.650586,1.93994141 98.9635742,0 93.4694336,0 L72.9938477,0 C71.9176758,0 71.0114258,0.382324219 70.2750977,1.14697266 C69.5104492,1.91162109 69.128125,2.81787109 69.128125,3.86572266 C69.128125,4.94189453 69.5104492,5.86230469 70.2750977,6.62695312 C71.0114258,7.39160156 71.9176758,7.77392578 72.9938477,7.77392578 L93.4694336,7.77392578 C96.8112305,7.77392578 99.671582,8.94921875 102.050488,11.2998047 C104.401074,13.6787109 105.576367,16.5390625 105.576367,19.8808594 C105.576367,23.2226562 104.401074,26.0830078 102.050488,28.4619141 C99.671582,30.8125 96.8112305,31.987793 93.4694336,31.987793 L72.9938477,31.987793 C71.9176758,31.987793 71.0114258,32.3701172 70.2750977,33.1347656 C69.5104492,33.8994141 69.128125,34.8198242 69.128125,35.8959961 L69.128125,57.09375 C69.128125,58.1699219 69.5104492,59.0761719 70.2750977,59.8125 C71.0114258,60.5771484 71.9176758,60.9594727 72.9938477,60.9594727 Z" id="path-33"></path>
        <linearGradient x1="50%" y1="0%" x2="50%" y2="100%" id="linearGradient-34">
            <stop stop-color="#00A4DB" offset="0%"></stop>
            <stop stop-color="#CC00FF" offset="100%"></stop>
        </linearGradient>
        <path d="M158.78457,60.9594727 C167.224023,60.9594727 174.417383,57.9858398 180.364648,52.0385742 C181.129297,51.2739258 181.511621,50.3535156 181.511621,49.2773438 C181.511621,48.2011719 181.129297,47.2949219 180.364648,46.5585938 C179.6,45.7939453 178.67959,45.4116211 177.603418,45.4116211 C176.527246,45.4116211 175.620996,45.7939453 174.884668,46.5585938 C170.438379,50.9765625 165.07168,53.1855469 158.78457,53.1855469 C152.525781,53.1855469 147.173242,50.9765625 142.726953,46.5585938 C138.308984,42.1123047 136.1,36.7597656 136.1,30.5009766 C136.1,24.2138672 138.308984,18.847168 142.726953,14.4008789 C147.173242,9.98291016 152.525781,7.77392578 158.78457,7.77392578 C165.07168,7.77392578 170.438379,9.98291016 174.884668,14.4008789 C175.620996,15.1655273 176.527246,15.5478516 177.603418,15.5478516 C178.67959,15.5478516 179.6,15.1655273 180.364648,14.4008789 C181.129297,13.6645508 181.511621,12.7583008 181.511621,11.6821289 C181.511621,10.605957 181.129297,9.68554688 180.364648,8.92089844 C174.417383,2.97363281 167.224023,0 158.78457,0 C150.373437,0 143.194238,2.97363281 137.246973,8.92089844 C131.299707,14.8681641 128.326074,22.0615234 128.326074,30.5009766 C128.326074,38.9121094 131.299707,46.0913086 137.246973,52.0385742 C143.194238,57.9858398 150.373437,60.9594727 158.78457,60.9594727 Z" id="path-35"></path>
        <linearGradient x1="50%" y1="0%" x2="50%" y2="100%" id="linearGradient-36">
            <stop stop-color="#00A4DB" offset="0%"></stop>
            <stop stop-color="#CC00FF" offset="100%"></stop>
        </linearGradient>
        <path d="M199.673438,60.9594727 C200.749609,60.9594727 201.67002,60.5771484 202.434668,59.8125 C203.199316,59.0761719 203.581641,58.1699219 203.581641,57.09375 L203.581641,34.3666992 L234.592383,34.3666992 L234.592383,57.09375 C234.592383,58.1699219 234.974707,59.0761719 235.739355,59.8125 C236.504004,60.5771484 237.410254,60.9594727 238.458105,60.9594727 C239.534277,60.9594727 240.454688,60.5771484 241.219336,59.8125 C241.983984,59.0761719 242.366309,58.1699219 242.366309,57.09375 L242.366309,3.86572266 C242.366309,2.81787109 241.983984,1.91162109 241.219336,1.14697266 C240.454688,0.382324219 239.534277,0 238.458105,0 C237.410254,0 236.504004,0.382324219 235.739355,1.14697266 C234.974707,1.91162109 234.592383,2.81787109 234.592383,3.86572266 L234.592383,26.5927734 L203.581641,26.5927734 L203.581641,3.86572266 C203.581641,2.81787109 203.199316,1.91162109 202.434668,1.14697266 C201.67002,0.382324219 200.749609,0 199.673438,0 C198.597266,0 197.691016,0.382324219 196.954688,1.14697266 C196.190039,1.91162109 195.807715,2.81787109 195.807715,3.86572266 L195.807715,57.09375 C195.807715,58.1699219 196.190039,59.0761719 196.954688,59.8125 C197.691016,60.5771484 198.597266,60.9594727 199.673438,60.9594727 Z" id="path-37"></path>
        <linearGradient x1="50%" y1="0%" x2="50%" y2="100%" id="linearGradient-38">
            <stop stop-color="#00A4DB" offset="0%"></stop>
            <stop stop-color="#CC00FF" offset="100%"></stop>
        </linearGradient>
        <path d="M301.012012,57.09375 C301.012012,56.0175781 300.629687,55.097168 299.865039,54.3325195 C299.100391,53.5678711 298.17998,53.1855469 297.103809,53.1855469 L260.528125,53.1855469 C259.451953,53.1855469 258.545703,53.5678711 257.809375,54.3325195 C257.044727,55.097168 256.662402,56.0175781 256.662402,57.09375 C256.662402,58.1699219 257.044727,59.0761719 257.809375,59.8125 C258.545703,60.5771484 259.451953,60.9594727 260.528125,60.9594727 L297.103809,60.9594727 C298.17998,60.9594727 299.100391,60.5771484 299.865039,59.8125 C300.629687,59.0761719 301.012012,58.1699219 301.012012,57.09375 Z M260.528125,0 C259.451953,0 258.545703,0.382324219 257.809375,1.14697266 C257.044727,1.91162109 256.662402,2.81787109 256.662402,3.86572266 C256.662402,4.94189453 257.044727,5.86230469 257.809375,6.62695312 C258.545703,7.39160156 259.451953,7.77392578 260.528125,7.77392578 L297.103809,7.77392578 C298.17998,7.77392578 299.100391,7.39160156 299.865039,6.62695312 C300.629687,5.86230469 301.012012,4.94189453 301.012012,3.86572266 C301.012012,2.81787109 300.629687,1.91162109 299.865039,1.14697266 C299.100391,0.382324219 298.17998,0 297.103809,0 L260.528125,0 Z M260.528125,26.5927734 C259.451953,26.5927734 258.545703,26.9750977 257.809375,27.7397461 C257.044727,28.5043945 256.662402,29.4248047 256.662402,30.5009766 C256.662402,31.5488281 257.044727,32.4550781 257.809375,33.2197266 C258.545703,33.984375 259.451953,34.3666992 260.528125,34.3666992 L297.103809,34.3666992 C298.17998,34.3666992 299.100391,33.984375 299.865039,33.2197266 C300.629687,32.4550781 301.012012,31.5488281 301.012012,30.5009766 C301.012012,29.4248047 300.629687,28.5043945 299.865039,27.7397461 C299.100391,26.9750977 298.17998,26.5927734 297.103809,26.5927734 L260.528125,26.5927734 Z" id="path-39"></path>
        <linearGradient x1="50%" y1="0%" x2="50%" y2="100%" id="linearGradient-40">
            <stop stop-color="#00A4DB" offset="0%"></stop>
            <stop stop-color="#CC00FF" offset="100%"></stop>
        </linearGradient>
        <path d="M335.826172,7.77392578 L335.826172,57.09375 C335.826172,58.1699219 336.194336,59.0761719 336.930664,59.8125 C337.695312,60.5771484 338.615723,60.9594727 339.691895,60.9594727 C340.768066,60.9594727 341.688477,60.5771484 342.453125,59.8125 C343.189453,59.0761719 343.557617,58.1699219 343.557617,57.09375 L343.557617,7.77392578 L360.209961,7.77392578 C361.257812,7.77392578 362.164062,7.39160156 362.928711,6.62695312 C363.693359,5.86230469 364.075684,4.94189453 364.075684,3.86572266 C364.075684,2.81787109 363.693359,1.91162109 362.928711,1.14697266 C362.164062,0.382324219 361.257812,0 360.209961,0 L319.173828,0 C318.097656,0 317.191406,0.382324219 316.455078,1.14697266 C315.69043,1.91162109 315.308105,2.81787109 315.308105,3.86572266 C315.308105,4.94189453 315.69043,5.86230469 316.455078,6.62695312 C317.191406,7.39160156 318.097656,7.77392578 319.173828,7.77392578 L335.826172,7.77392578 Z" id="path-41"></path>
        <path d="M382.2375,60.9594727 C383.313672,60.9594727 384.234082,60.5771484 384.99873,59.8125 C385.763379,59.0761719 386.145703,58.1699219 386.145703,57.09375 L386.145703,34.3666992 L417.156445,34.3666992 L417.156445,57.09375 C417.156445,58.1699219 417.53877,59.0761719 418.303418,59.8125 C419.068066,60.5771484 419.974316,60.9594727 421.022168,60.9594727 C422.09834,60.9594727 423.01875,60.5771484 423.783398,59.8125 C424.548047,59.0761719 424.930371,58.1699219 424.930371,57.09375 L424.930371,3.86572266 C424.930371,2.81787109 424.548047,1.91162109 423.783398,1.14697266 C423.01875,0.382324219 422.09834,0 421.022168,0 C419.974316,0 419.068066,0.382324219 418.303418,1.14697266 C417.53877,1.91162109 417.156445,2.81787109 417.156445,3.86572266 L417.156445,26.5927734 L386.145703,26.5927734 L386.145703,3.86572266 C386.145703,2.81787109 385.763379,1.91162109 384.99873,1.14697266 C384.234082,0.382324219 383.313672,0 382.2375,0 C381.161328,0 380.255078,0.382324219 379.51875,1.14697266 C378.754102,1.91162109 378.371777,2.81787109 378.371777,3.86572266 L378.371777,57.09375 C378.371777,58.1699219 378.754102,59.0761719 379.51875,59.8125 C380.255078,60.5771484 381.161328,60.9594727 382.2375,60.9594727 Z" id="path-42"></path>
        <linearGradient x1="50%" y1="0%" x2="50%" y2="100%" id="linearGradient-43">
            <stop stop-color="#00A4DB" offset="0%"></stop>
            <stop stop-color="#CC00FF" offset="100%"></stop>
        </linearGradient>
        <path d="M443.092188,60.9594727 C444.168359,60.9594727 445.08877,60.5771484 445.853418,59.8125 C446.618066,59.0761719 447.000391,58.1699219 447.000391,57.09375 L447.000391,3.86572266 C447.000391,2.81787109 446.618066,1.91162109 445.853418,1.14697266 C445.08877,0.382324219 444.168359,0 443.092188,0 C442.016016,0 441.109766,0.382324219 440.373438,1.14697266 C439.608789,1.91162109 439.226465,2.81787109 439.226465,3.86572266 L439.226465,57.09375 C439.226465,58.1699219 439.608789,59.0761719 440.373438,59.8125 C441.109766,60.5771484 442.016016,60.9594727 443.092188,60.9594727 Z" id="path-44"></path>
        <path d="M491.75498,60.9594727 C500.194434,60.9594727 507.387793,57.9858398 513.335059,52.0385742 C514.099707,51.2739258 514.482031,50.3535156 514.482031,49.2773438 C514.482031,48.2011719 514.099707,47.2949219 513.335059,46.5585938 C512.57041,45.7939453 511.65,45.4116211 510.573828,45.4116211 C509.497656,45.4116211 508.591406,45.7939453 507.855078,46.5585938 C503.408789,50.9765625 498.04209,53.1855469 491.75498,53.1855469 C485.496191,53.1855469 480.143652,50.9765625 475.697363,46.5585938 C471.279395,42.1123047 469.07041,36.7597656 469.07041,30.5009766 C469.07041,24.2138672 471.279395,18.847168 475.697363,14.4008789 C480.143652,9.98291016 485.496191,7.77392578 491.75498,7.77392578 C498.04209,7.77392578 503.408789,9.98291016 507.855078,14.4008789 C508.591406,15.1655273 509.497656,15.5478516 510.573828,15.5478516 C511.65,15.5478516 512.57041,15.1655273 513.335059,14.4008789 C514.099707,13.6645508 514.482031,12.7583008 514.482031,11.6821289 C514.482031,10.605957 514.099707,9.68554688 513.335059,8.92089844 C507.387793,2.97363281 500.194434,0 491.75498,0 C483.343848,0 476.164648,2.97363281 470.217383,8.92089844 C464.270117,14.8681641 461.296484,22.0615234 461.296484,30.5009766 C461.296484,38.9121094 464.270117,46.0913086 470.217383,52.0385742 C476.164648,57.9858398 483.343848,60.9594727 491.75498,60.9594727 Z" id="path-45"></path>
        <linearGradient x1="-8.15998999%" y1="57.9596731%" x2="66.0973524%" y2="37.9733484%" id="linearGradient-46">
            <stop stop-color="#00A4DB" offset="0%"></stop>
            <stop stop-color="#CC00FF" offset="100%"></stop>
        </linearGradient>
        <linearGradient x1="11.6053191%" y1="70.2946817%" x2="60.6267678%" y2="19.3357929%" id="linearGradient-47">
            <stop stop-color="#00A4DB" offset="0%"></stop>
            <stop stop-color="#CC00FF" offset="100%"></stop>
        </linearGradient>
        <linearGradient x1="14.1652692%" y1="70.2946817%" x2="59.9182323%" y2="19.3357929%" id="linearGradient-48">
            <stop stop-color="#00A4DB" offset="0%"></stop>
            <stop stop-color="#CC00FF" offset="100%"></stop>
        </linearGradient>
    </defs>
    <g id="logos" stroke="none" stroke-width="1" fill="none" fill-rule="evenodd">
        <g id="Validated-Logo" transform="translate(-1146.000000, -143.000000)">
            <g id="AE-Public-Blockchain" transform="translate(1146.000000, 143.000000)">
                <g id="AE" transform="translate(103.000000, 0.000000)">
                    <path d="M97.4069019,118 C100.142839,118 102.24951,116.87619 103.726916,114.628571 C105.204322,112.326132 105.395838,109.941463 104.301463,107.474564 L59.3226599,4.52264808 C58.0094102,1.50754936 55.7112232,0 52.4280989,0 C49.1996933,0 46.9288656,1.50754936 45.6156159,4.52264808 L0.636812904,107.474564 C-0.183968172,109.393264 -0.211327542,111.311963 0.554734797,113.230662 C1.2660784,115.149361 2.57932812,116.519861 4.49448397,117.34216 C5.47942126,117.78072 6.49171792,118 7.53137395,118 C10.7597795,118 13.0306072,116.492451 14.3438569,113.477352 L52.4280989,26.2313589 L85.9980449,102.951916 L41.7579449,102.951916 C39.6786328,102.951916 37.9002738,103.691986 36.4228679,105.172125 C35.0001807,106.652265 34.2888371,108.433914 34.2888371,110.517073 C34.2888371,112.545412 35.0001807,114.299652 36.4228679,115.779791 C37.9002738,117.25993 39.6786328,118 41.7579449,118 L97.4069019,118 Z" id="Path" fill="url(#linearGradient-1)"></path>
                    <path d="M176.747126,14 C179.295019,14 181.474138,13.3114754 183.284483,11.9344262 C185.094828,10.557377 186,8.89981785 186,6.96174863 C186,5.07468124 185.094828,3.44262295 183.284483,2.06557377 C181.474138,0.68852459 179.295019,0 176.747126,0 L90.1522989,0 C87.6044061,0 85.4588123,0.68852459 83.7155172,2.06557377 C81.9051724,3.44262295 81,5.07468124 81,6.96174863 C81,8.89981785 81.9051724,10.557377 83.7155172,11.9344262 C85.4588123,13.3114754 87.6044061,14 90.1522989,14 L176.747126,14 Z" id="Path" fill="url(#linearGradient-2)"></path>
                    <path d="M177.685824,66 C179.699872,66 181.422414,65.2131148 182.853448,63.6393443 C184.284483,62.0655738 185,60.2003643 185,58.0437158 C185,55.8287796 184.284483,53.9344262 182.853448,52.3606557 C181.422414,50.7868852 179.699872,50 177.685824,50 L109.234674,50 C107.220626,50 105.524585,50.7868852 104.146552,52.3606557 C102.715517,53.9344262 102,55.8287796 102,58.0437158 C102,60.2003643 102.715517,62.0655738 104.146552,63.6393443 C105.524585,65.2131148 107.220626,66 109.234674,66 L177.685824,66 Z" id="Path" fill="url(#linearGradient-3)"></path>
                    <path d="M179.624521,118 C181.104725,118 182.37069,117.311475 183.422414,115.934426 C184.474138,114.608379 185,112.976321 185,111.038251 C185,109.100182 184.474138,107.442623 183.422414,106.065574 C182.37069,104.688525 181.104725,104 179.624521,104 L129.31705,104 C127.836845,104 126.590358,104.688525 125.577586,106.065574 C124.525862,107.442623 124,109.100182 124,111.038251 C124,112.976321 124.525862,114.608379 125.577586,115.934426 C126.590358,117.311475 127.836845,118 129.31705,118 L179.624521,118 Z" id="Path" fill="url(#linearGradient-4)"></path>
                </g>
                <g id="Group-6" transform="translate(307.534772, 0.040527)" fill-rule="nonzero">
                    <g id="PUBLIC-Blockchain" transform="translate(0.000000, 84.582736)">
                        <g id="Path">
                            <use fill="#00A4DB" xlink:href="#path-6"></use>
                            <use fill="url(#linearGradient-5)" xlink:href="#path-6"></use>
                        </g>
                        <g id="Path">
                            <use fill="#00A4DB" xlink:href="#path-8"></use>
                            <use fill="url(#linearGradient-7)" xlink:href="#path-8"></use>
                        </g>
                        <g id="Shape">
                            <use fill="#00A4DB" xlink:href="#path-9"></use>
                            <use fill="url(#linearGradient-7)" xlink:href="#path-9"></use>
                        </g>
                        <g id="Path">
                            <use fill="#00A4DB" xlink:href="#path-11"></use>
                            <use fill="url(#linearGradient-10)" xlink:href="#path-11"></use>
                        </g>
                        <g id="Path">
                            <use fill="#00A4DB" xlink:href="#path-13"></use>
                            <use fill="url(#linearGradient-12)" xlink:href="#path-13"></use>
                        </g>
                        <g id="Path">
                            <use fill="#00A4DB" xlink:href="#path-15"></use>
                            <use fill="url(#linearGradient-14)" xlink:href="#path-15"></use>
                        </g>
                        <g id="Shape">
                            <use fill="#00A4DB" xlink:href="#path-16"></use>
                            <use fill="url(#linearGradient-7)" xlink:href="#path-16"></use>
                        </g>
                        <g id="Path">
                            <use fill="#00A4DB" xlink:href="#path-17"></use>
                            <use fill="url(#linearGradient-10)" xlink:href="#path-17"></use>
                        </g>
                        <g id="Shape">
                            <use fill="#00A4DB" xlink:href="#path-19"></use>
                            <use fill="url(#linearGradient-18)" xlink:href="#path-19"></use>
                        </g>
                        <g id="Path">
                            <use fill="#00A4DB" xlink:href="#path-20"></use>
                            <use fill="url(#linearGradient-14)" xlink:href="#path-20"></use>
                        </g>
                        <g id="Path">
                            <use fill="#00A4DB" xlink:href="#path-22"></use>
                            <use fill="url(#linearGradient-21)" xlink:href="#path-22"></use>
                        </g>
                        <g id="Path">
                            <use fill="#00A4DB" xlink:href="#path-23"></use>
                            <use fill="url(#linearGradient-14)" xlink:href="#path-23"></use>
                        </g>
                        <g id="Path">
                            <use fill="#00A4DB" xlink:href="#path-24"></use>
                            <use fill="url(#linearGradient-7)" xlink:href="#path-24"></use>
                        </g>
                        <g id="Shape">
                            <use fill="#00A4DB" xlink:href="#path-26"></use>
                            <use fill="url(#linearGradient-25)" xlink:href="#path-26"></use>
                        </g>
                        <g id="Path">
                            <use fill="#00A4DB" xlink:href="#path-27"></use>
                            <use fill="url(#linearGradient-12)" xlink:href="#path-27"></use>
                        </g>
                        <g id="Path">
                            <use fill="#00A4DB" xlink:href="#path-29"></use>
                            <use fill="url(#linearGradient-28)" xlink:href="#path-29"></use>
                        </g>
                    </g>
                    <g id="ARCHETHIC" transform="translate(0.478021, 0.000000)">
                        <g id="Path">
                            <use fill="#00A4DB" xlink:href="#path-31"></use>
                            <use fill="url(#linearGradient-30)" xlink:href="#path-31"></use>
                        </g>
                        <g id="Path">
                            <use fill="#00A4DB" xlink:href="#path-33"></use>
                            <use fill="url(#linearGradient-32)" xlink:href="#path-33"></use>
                        </g>
                        <g id="Path">
                            <use fill="#00A4DB" xlink:href="#path-35"></use>
                            <use fill="url(#linearGradient-34)" xlink:href="#path-35"></use>
                        </g>
                        <g id="Path">
                            <use fill="#00A4DB" xlink:href="#path-37"></use>
                            <use fill="url(#linearGradient-36)" xlink:href="#path-37"></use>
                        </g>
                        <g id="Shape">
                            <use fill="#00A4DB" xlink:href="#path-39"></use>
                            <use fill="url(#linearGradient-38)" xlink:href="#path-39"></use>
                        </g>
                        <g id="Path">
                            <use fill="#00A4DB" xlink:href="#path-41"></use>
                            <use fill="url(#linearGradient-40)" xlink:href="#path-41"></use>
                        </g>
                        <g id="Path">
                            <use fill="#00A4DB" xlink:href="#path-42"></use>
                            <use fill="url(#linearGradient-36)" xlink:href="#path-42"></use>
                        </g>
                        <g id="Path">
                            <use fill="#00A4DB" xlink:href="#path-44"></use>
                            <use fill="url(#linearGradient-43)" xlink:href="#path-44"></use>
                        </g>
                        <g id="Path">
                            <use fill="#00A4DB" xlink:href="#path-45"></use>
                            <use fill="url(#linearGradient-34)" xlink:href="#path-45"></use>
                        </g>
                    </g>
                </g>
                <g id="Group-7" fill-rule="nonzero">
                    <path d="M31.3264129,16.4557988 C32.6166682,16.2001383 36.6124171,15.4566418 41.7041428,15.5074029 C50.0533556,15.590731 56.5211277,17.7579415 60.48431,19.1209041 C65.0649503,20.6960574 75.2159538,24.6968277 85.4824615,33.6860271 C89.356905,37.0782855 92.2456521,40.3037849 94.2098767,42.6968949 C95.1260491,40.8599593 95.913577,38.9755826 96.5534171,37.0881729 C97.3944925,34.6069582 98.0145752,32.0420256 98.3962262,29.4653634 L99,25.3907498 C96.5545895,23.0173462 93.2674834,20.0891177 89.1313425,17.0710452 C87.1636693,15.6353146 80.9023734,11.1863395 72.8921709,7.59839237 C66.5405825,4.75332054 51.7629594,-1.86600947 32.7586227,0.502334725 C18.6537887,2.2600935 8.7388761,8.15658876 6.44927796,9.56542445 C4.7795883,10.5927101 3.16022656,11.6974847 1.63560879,12.8495976 L0.58672375,13.6421158 L0.430741123,14.9546515 C0.204401349,16.8580062 0.0655089924,18.8255481 0.0176358941,20.8013967 C-0.138342447,27.3047203 0.667273925,37.3575251 5.39159725,48.3159414 C6.75522512,51.4797855 8.39033928,54.5903367 10.2516361,57.5612464 C10.7672829,58.3841942 11.8010229,59.9655806 13.3352731,62 C13.1770098,60.8486753 13.0391792,59.6963399 12.9245589,58.5600009 C12.2532098,51.9136089 12.2578306,45.1257163 12.9375296,38.3854876 C13.5,32.8087757 14.4350382,28.3297012 15.1061071,25.5019282 C15.4111113,24.21696 15.6937334,23.1414965 15.9068266,22.3593112 C17.7266506,21.2787926 20.0330587,20.0690172 22.7964444,18.970977 C24.4935743,18.2964914 27.4703292,17.2200726 31.3264129,16.4557988 Z" id="Path" fill="url(#linearGradient-46)"></path>
                    <path d="M75.6513133,94.9143584 C70.5131896,97.2039521 66.1413709,98.6219895 63.3404071,99.4469077 C62.0676369,99.8219096 60.9884646,100.111714 60.1998771,100.315945 C58.337249,99.2699883 56.1155877,97.8646077 53.7595297,96.0058689 C52.3125254,94.8642105 49.86709,92.8086278 47.2477561,89.8320152 C46.3713157,88.8359251 43.699282,85.7273399 41.1628853,81.2684848 C37.0041221,73.9572254 35.6122972,67.2454483 34.7897449,63.1154172 C33.8391062,58.341965 32.1761623,47.5091668 34.7957286,34.0898651 C35.7843963,29.0257633 37.1273009,24.9029575 38.2144289,22 C36.1514961,22.1176459 34.1125413,22.3711884 32.1456926,22.7546876 C29.5602121,23.2589157 27.0140046,23.997317 24.5781604,24.9490747 L20.7262336,26.4540345 C19.9001814,29.7662357 19.0177573,34.0879094 18.4875383,39.193363 C18.2353218,41.6222137 17.5368997,49.2913426 18.4741632,58.0541677 C19.2172739,65.0025868 20.9461766,81.1686407 32.6385628,96.535782 C41.3165337,107.941262 51.4728225,113.635685 53.8591782,114.927121 C55.599308,115.868973 57.3816423,116.728376 59.1567532,117.481676 L60.3780028,118 L61.5992615,117.481676 C63.37036,116.73005 65.1529787,115.870646 66.896725,114.927514 C72.6352019,111.822286 80.975303,106.11068 88.1175035,96.5355598 C90.1796528,93.7714111 92.0579082,90.7974801 93.6999736,87.6962224 C94.154806,86.8370409 95.0071565,85.1486708 96,82.7990227 C95.0782553,83.5105606 94.1453267,84.2050267 93.214439,84.8710112 C87.7707228,88.767979 81.8613863,92.1469563 75.6513133,94.9143584 Z" id="Path" fill="url(#linearGradient-47)"></path>
                    <path d="M121.984576,20.5840257 C121.936832,18.6259829 121.796842,16.6728443 121.567929,14.7786378 L121.410539,13.4754494 L120.352089,12.6885752 C118.817061,11.5474022 117.182672,10.4502146 115.494968,9.42767995 C109.939249,6.06392259 100.823181,1.77190924 88.945256,0.429524954 C85.5161897,0.0416109353 81.9962392,-0.0844454602 78.4833088,0.05498819 C77.5100347,0.0937374885 75.6183021,0.205293741 73.08174,0.525866499 C74.1589954,0.960224337 75.2269337,1.41270203 76.2691912,1.87755741 C82.3663759,4.59476311 88.2448142,7.96844382 93.7415449,11.9041552 C98.2894902,15.1604779 101.698216,18.1951385 103.809595,20.1809439 C104.76894,21.0833344 105.558191,21.8624589 106.1282,22.4355273 C106.146165,24.5503963 106.030569,27.1513116 105.587746,30.093195 C105.315754,31.9000434 104.746414,35.0162093 103.462893,38.7400629 C103.033423,39.9862757 101.66153,43.8208476 99.0483552,48.2119375 C94.7635824,55.4121084 89.6227173,59.9458095 86.4422856,62.7066731 C82.766393,65.8976578 74.1783239,72.7159333 61.2101495,77.1576993 C56.3162309,78.8339742 52.0642696,79.7384276 49,80.2539591 C50.1291134,81.9604507 51.3643853,83.5789711 52.6766213,85.0709851 C54.4020832,87.0320902 56.3113448,88.8432349 58.3510911,90.4534952 L61.5767461,93 C64.8670051,92.057299 69.0624536,90.659832 73.763975,88.5708327 C76.0008501,87.5769536 83.0145136,84.3548591 90.1646879,79.1886642 C95.8343834,75.0921111 109.02523,65.5610792 116.562109,47.902241 C122.155904,34.7960997 122.049908,23.269343 121.984576,20.5840257 Z" id="Path" fill="url(#linearGradient-48)"></path>
                </g>
            </g>
        </g>
    </g>
</svg>