<?xml version="1.0" encoding="UTF-8"?>
<svg width="821px" height="118px" viewBox="0 0 821 118" version="1.1" xmlns="http://www.w3.org/2000/svg" xmlns:xlink="http://www.w3.org/1999/xlink">
    <title>AE Public Blockchain</title>
    <defs>
        <linearGradient x1="3.94901683%" y1="70.2946817%" x2="62.7458568%" y2="19.3357929%" id="linearGradient-1">
            <stop stop-color="#00A4DB" offset="0%"></stop>
            <stop stop-color="#CC00FF" offset="100%"></stop>
        </linearGradient>
        <linearGradient x1="3.94901683%" y1="70.2946817%" x2="62.7458568%" y2="19.3357929%" id="linearGradient-2">
            <stop stop-color="#FFFFFF" offset="0%"></stop>
            <stop stop-color="#FFFFFF" offset="100%"></stop>
        </linearGradient>
        <linearGradient x1="-8.15998999%" y1="50.3607943%" x2="66.0973524%" y2="49.4548585%" id="linearGradient-3">
            <stop stop-color="#00A4DB" offset="0%"></stop>
            <stop stop-color="#CC00FF" offset="100%"></stop>
        </linearGradient>
        <linearGradient x1="-8.15998999%" y1="50.3607943%" x2="66.0973524%" y2="49.4548585%" id="linearGradient-4">
            <stop stop-color="#FFFFFF" offset="0%"></stop>
            <stop stop-color="#FFFFFF" offset="100%"></stop>
        </linearGradient>
        <linearGradient x1="-8.15998999%" y1="50.7541644%" x2="66.0973524%" y2="48.8604969%" id="linearGradient-5">
            <stop stop-color="#00A4DB" offset="0%"></stop>
            <stop stop-color="#CC00FF" offset="100%"></stop>
        </linearGradient>
        <linearGradient x1="-8.15998999%" y1="50.7541644%" x2="66.0973524%" y2="48.8604969%" id="linearGradient-6">
            <stop stop-color="#FFFFFF" offset="0%"></stop>
            <stop stop-color="#FFFFFF" offset="100%"></stop>
        </linearGradient>
        <linearGradient x1="-8.15998999%" y1="51.0690023%" x2="66.0973524%" y2="48.3847932%" id="linearGradient-7">
            <stop stop-color="#00A4DB" offset="0%"></stop>
            <stop stop-color="#CC00FF" offset="100%"></stop>
        </linearGradient>
        <linearGradient x1="-8.15998999%" y1="51.0690023%" x2="66.0973524%" y2="48.3847932%" id="linearGradient-8">
            <stop stop-color="#FFFFFF" offset="0%"></stop>
            <stop stop-color="#FFFFFF" offset="100%"></stop>
        </linearGradient>
        <linearGradient x1="50%" y1="0%" x2="50%" y2="100%" id="linearGradient-9">
            <stop stop-color="#00A4DB" offset="0%"></stop>
            <stop stop-color="#CC00FF" offset="100%"></stop>
        </linearGradient>
        <path d="M53.6850586,59.2177734 C54.449707,58.0283203 54.5488281,56.7963867 53.9824219,55.5219727 L30.703125,2.33642578 C30.0234375,0.778808594 28.8339844,0 27.1347656,0 C25.4638672,0 24.2885742,0.778808594 23.6088867,2.33642578 L0.329589844,55.5219727 C-0.0952148438,56.5131836 -0.109375,57.5043945 0.287109375,58.4956055 C0.655273438,59.4868164 1.33496094,60.1948242 2.32617188,60.6196289 C2.8359375,60.8461914 3.35986328,60.9594727 3.89794922,60.9594727 C5.56884766,60.9594727 6.74414062,60.1806641 7.42382812,58.6230469 L27.1347656,13.5512695 L44.5092773,53.1855469 L21.6123047,53.1855469 C20.5361328,53.1855469 19.6157227,53.5678711 18.8510742,54.3325195 C18.1147461,55.097168 17.746582,56.0175781 17.746582,57.09375 C17.746582,58.1416016 18.1147461,59.0478516 18.8510742,59.8125 C19.6157227,60.5771484 20.5361328,60.9594727 21.6123047,60.9594727 L50.4140625,60.9594727 C51.8300781,60.9594727 52.9204102,60.3789062 53.6850586,59.2177734 Z" id="path-10"></path>
        <linearGradient x1="50%" y1="0%" x2="50%" y2="100%" id="linearGradient-11">
            <stop stop-color="#FFFFFF" offset="0%"></stop>
            <stop stop-color="#FFFFFF" offset="100%"></stop>
        </linearGradient>
        <linearGradient x1="50%" y1="0%" x2="50%" y2="100%" id="linearGradient-12">
            <stop stop-color="#00A4DB" offset="0%"></stop>
            <stop stop-color="#CC00FF" offset="100%"></stop>
        </linearGradient>
        <path d="M72.9938477,60.9594727 C74.0700195,60.9594727 74.9904297,60.5771484 75.7550781,59.8125 C76.5197266,59.0761719 76.9020508,58.1699219 76.9020508,57.09375 L76.9020508,39.7617188 L88.8390625,39.7617188 L107.233105,59.7275391 C107.997754,60.5488281 108.946484,60.9594727 110.079297,60.9594727 C111.098828,60.9594727 111.976758,60.6196289 112.713086,59.9399414 C113.506055,59.2036133 113.930859,58.2973633 113.9875,57.2211914 C114.01582,56.1733398 113.661816,55.2529297 112.925488,54.4599609 L98.7370117,39.0395508 C102.985059,37.878418 106.468457,35.5419922 109.187207,32.0302734 C111.962598,28.4619141 113.350293,24.4121094 113.350293,19.8808594 C113.350293,14.4150391 111.410352,9.72802734 107.530469,5.81982422 C103.650586,1.93994141 98.9635742,0 93.4694336,0 L72.9938477,0 C71.9176758,0 71.0114258,0.382324219 70.2750977,1.14697266 C69.5104492,1.91162109 69.128125,2.81787109 69.128125,3.86572266 C69.128125,4.94189453 69.5104492,5.86230469 70.2750977,6.62695312 C71.0114258,7.39160156 71.9176758,7.77392578 72.9938477,7.77392578 L93.4694336,7.77392578 C96.8112305,7.77392578 99.671582,8.94921875 102.050488,11.2998047 C104.401074,13.6787109 105.576367,16.5390625 105.576367,19.8808594 C105.576367,23.2226562 104.401074,26.0830078 102.050488,28.4619141 C99.671582,30.8125 96.8112305,31.987793 93.4694336,31.987793 L72.9938477,31.987793 C71.9176758,31.987793 71.0114258,32.3701172 70.2750977,33.1347656 C69.5104492,33.8994141 69.128125,34.8198242 69.128125,35.8959961 L69.128125,57.09375 C69.128125,58.1699219 69.5104492,59.0761719 70.2750977,59.8125 C71.0114258,60.5771484 71.9176758,60.9594727 72.9938477,60.9594727 Z" id="path-13"></path>
        <linearGradient x1="50%" y1="0%" x2="50%" y2="100%" id="linearGradient-14">
            <stop stop-color="#FFFFFF" offset="0%"></stop>
            <stop stop-color="#FFFFFF" offset="100%"></stop>
        </linearGradient>
        <linearGradient x1="50%" y1="0%" x2="50%" y2="100%" id="linearGradient-15">
            <stop stop-color="#00A4DB" offset="0%"></stop>
            <stop stop-color="#CC00FF" offset="100%"></stop>
        </linearGradient>
        <path d="M158.78457,60.9594727 C167.224023,60.9594727 174.417383,57.9858398 180.364648,52.0385742 C181.129297,51.2739258 181.511621,50.3535156 181.511621,49.2773438 C181.511621,48.2011719 181.129297,47.2949219 180.364648,46.5585938 C179.6,45.7939453 178.67959,45.4116211 177.603418,45.4116211 C176.527246,45.4116211 175.620996,45.7939453 174.884668,46.5585938 C170.438379,50.9765625 165.07168,53.1855469 158.78457,53.1855469 C152.525781,53.1855469 147.173242,50.9765625 142.726953,46.5585938 C138.308984,42.1123047 136.1,36.7597656 136.1,30.5009766 C136.1,24.2138672 138.308984,18.847168 142.726953,14.4008789 C147.173242,9.98291016 152.525781,7.77392578 158.78457,7.77392578 C165.07168,7.77392578 170.438379,9.98291016 174.884668,14.4008789 C175.620996,15.1655273 176.527246,15.5478516 177.603418,15.5478516 C178.67959,15.5478516 179.6,15.1655273 180.364648,14.4008789 C181.129297,13.6645508 181.511621,12.7583008 181.511621,11.6821289 C181.511621,10.605957 181.129297,9.68554688 180.364648,8.92089844 C174.417383,2.97363281 167.224023,0 158.78457,0 C150.373437,0 143.194238,2.97363281 137.246973,8.92089844 C131.299707,14.8681641 128.326074,22.0615234 128.326074,30.5009766 C128.326074,38.9121094 131.299707,46.0913086 137.246973,52.0385742 C143.194238,57.9858398 150.373437,60.9594727 158.78457,60.9594727 Z" id="path-16"></path>
        <linearGradient x1="50%" y1="0%" x2="50%" y2="100%" id="linearGradient-17">
            <stop stop-color="#FFFFFF" offset="0%"></stop>
            <stop stop-color="#FFFFFF" offset="100%"></stop>
        </linearGradient>
        <linearGradient x1="50%" y1="0%" x2="50%" y2="100%" id="linearGradient-18">
            <stop stop-color="#00A4DB" offset="0%"></stop>
            <stop stop-color="#CC00FF" offset="100%"></stop>
        </linearGradient>
        <path d="M199.673438,60.9594727 C200.749609,60.9594727 201.67002,60.5771484 202.434668,59.8125 C203.199316,59.0761719 203.581641,58.1699219 203.581641,57.09375 L203.581641,34.3666992 L234.592383,34.3666992 L234.592383,57.09375 C234.592383,58.1699219 234.974707,59.0761719 235.739355,59.8125 C236.504004,60.5771484 237.410254,60.9594727 238.458105,60.9594727 C239.534277,60.9594727 240.454688,60.5771484 241.219336,59.8125 C241.983984,59.0761719 242.366309,58.1699219 242.366309,57.09375 L242.366309,3.86572266 C242.366309,2.81787109 241.983984,1.91162109 241.219336,1.14697266 C240.454688,0.382324219 239.534277,0 238.458105,0 C237.410254,0 236.504004,0.382324219 235.739355,1.14697266 C234.974707,1.91162109 234.592383,2.81787109 234.592383,3.86572266 L234.592383,26.5927734 L203.581641,26.5927734 L203.581641,3.86572266 C203.581641,2.81787109 203.199316,1.91162109 202.434668,1.14697266 C201.67002,0.382324219 200.749609,0 199.673438,0 C198.597266,0 197.691016,0.382324219 196.954688,1.14697266 C196.190039,1.91162109 195.807715,2.81787109 195.807715,3.86572266 L195.807715,57.09375 C195.807715,58.1699219 196.190039,59.0761719 196.954688,59.8125 C197.691016,60.5771484 198.597266,60.9594727 199.673438,60.9594727 Z" id="path-19"></path>
        <linearGradient x1="50%" y1="0%" x2="50%" y2="100%" id="linearGradient-20">
            <stop stop-color="#FFFFFF" offset="0%"></stop>
            <stop stop-color="#FFFFFF" offset="100%"></stop>
        </linearGradient>
        <linearGradient x1="50%" y1="0%" x2="50%" y2="100%" id="linearGradient-21">
            <stop stop-color="#00A4DB" offset="0%"></stop>
            <stop stop-color="#CC00FF" offset="100%"></stop>
        </linearGradient>
        <path d="M301.012012,57.09375 C301.012012,56.0175781 300.629687,55.097168 299.865039,54.3325195 C299.100391,53.5678711 298.17998,53.1855469 297.103809,53.1855469 L260.528125,53.1855469 C259.451953,53.1855469 258.545703,53.5678711 257.809375,54.3325195 C257.044727,55.097168 256.662402,56.0175781 256.662402,57.09375 C256.662402,58.1699219 257.044727,59.0761719 257.809375,59.8125 C258.545703,60.5771484 259.451953,60.9594727 260.528125,60.9594727 L297.103809,60.9594727 C298.17998,60.9594727 299.100391,60.5771484 299.865039,59.8125 C300.629687,59.0761719 301.012012,58.1699219 301.012012,57.09375 Z M260.528125,0 C259.451953,0 258.545703,0.382324219 257.809375,1.14697266 C257.044727,1.91162109 256.662402,2.81787109 256.662402,3.86572266 C256.662402,4.94189453 257.044727,5.86230469 257.809375,6.62695312 C258.545703,7.39160156 259.451953,7.77392578 260.528125,7.77392578 L297.103809,7.77392578 C298.17998,7.77392578 299.100391,7.39160156 299.865039,6.62695312 C300.629687,5.86230469 301.012012,4.94189453 301.012012,3.86572266 C301.012012,2.81787109 300.629687,1.91162109 299.865039,1.14697266 C299.100391,0.382324219 298.17998,0 297.103809,0 L260.528125,0 Z M260.528125,26.5927734 C259.451953,26.5927734 258.545703,26.9750977 257.809375,27.7397461 C257.044727,28.5043945 256.662402,29.4248047 256.662402,30.5009766 C256.662402,31.5488281 257.044727,32.4550781 257.809375,33.2197266 C258.545703,33.984375 259.451953,34.3666992 260.528125,34.3666992 L297.103809,34.3666992 C298.17998,34.3666992 299.100391,33.984375 299.865039,33.2197266 C300.629687,32.4550781 301.012012,31.5488281 301.012012,30.5009766 C301.012012,29.4248047 300.629687,28.5043945 299.865039,27.7397461 C299.100391,26.9750977 298.17998,26.5927734 297.103809,26.5927734 L260.528125,26.5927734 Z" id="path-22"></path>
        <linearGradient x1="50%" y1="0%" x2="50%" y2="100%" id="linearGradient-23">
            <stop stop-color="#FFFFFF" offset="0%"></stop>
            <stop stop-color="#FFFFFF" offset="100%"></stop>
        </linearGradient>
        <linearGradient x1="50%" y1="0%" x2="50%" y2="100%" id="linearGradient-24">
            <stop stop-color="#00A4DB" offset="0%"></stop>
            <stop stop-color="#CC00FF" offset="100%"></stop>
        </linearGradient>
        <path d="M335.826172,7.77392578 L335.826172,57.09375 C335.826172,58.1699219 336.194336,59.0761719 336.930664,59.8125 C337.695312,60.5771484 338.615723,60.9594727 339.691895,60.9594727 C340.768066,60.9594727 341.688477,60.5771484 342.453125,59.8125 C343.189453,59.0761719 343.557617,58.1699219 343.557617,57.09375 L343.557617,7.77392578 L360.209961,7.77392578 C361.257812,7.77392578 362.164062,7.39160156 362.928711,6.62695312 C363.693359,5.86230469 364.075684,4.94189453 364.075684,3.86572266 C364.075684,2.81787109 363.693359,1.91162109 362.928711,1.14697266 C362.164062,0.382324219 361.257812,0 360.209961,0 L319.173828,0 C318.097656,0 317.191406,0.382324219 316.455078,1.14697266 C315.69043,1.91162109 315.308105,2.81787109 315.308105,3.86572266 C315.308105,4.94189453 315.69043,5.86230469 316.455078,6.62695312 C317.191406,7.39160156 318.097656,7.77392578 319.173828,7.77392578 L335.826172,7.77392578 Z" id="path-25"></path>
        <linearGradient x1="50%" y1="0%" x2="50%" y2="100%" id="linearGradient-26">
            <stop stop-color="#FFFFFF" offset="0%"></stop>
            <stop stop-color="#FFFFFF" offset="100%"></stop>
        </linearGradient>
        <path d="M382.2375,60.9594727 C383.313672,60.9594727 384.234082,60.5771484 384.99873,59.8125 C385.763379,59.0761719 386.145703,58.1699219 386.145703,57.09375 L386.145703,34.3666992 L417.156445,34.3666992 L417.156445,57.09375 C417.156445,58.1699219 417.53877,59.0761719 418.303418,59.8125 C419.068066,60.5771484 419.974316,60.9594727 421.022168,60.9594727 C422.09834,60.9594727 423.01875,60.5771484 423.783398,59.8125 C424.548047,59.0761719 424.930371,58.1699219 424.930371,57.09375 L424.930371,3.86572266 C424.930371,2.81787109 424.548047,1.91162109 423.783398,1.14697266 C423.01875,0.382324219 422.09834,0 421.022168,0 C419.974316,0 419.068066,0.382324219 418.303418,1.14697266 C417.53877,1.91162109 417.156445,2.81787109 417.156445,3.86572266 L417.156445,26.5927734 L386.145703,26.5927734 L386.145703,3.86572266 C386.145703,2.81787109 385.763379,1.91162109 384.99873,1.14697266 C384.234082,0.382324219 383.313672,0 382.2375,0 C381.161328,0 380.255078,0.382324219 379.51875,1.14697266 C378.754102,1.91162109 378.371777,2.81787109 378.371777,3.86572266 L378.371777,57.09375 C378.371777,58.1699219 378.754102,59.0761719 379.51875,59.8125 C380.255078,60.5771484 381.161328,60.9594727 382.2375,60.9594727 Z" id="path-27"></path>
        <linearGradient x1="50%" y1="0%" x2="50%" y2="100%" id="linearGradient-28">
            <stop stop-color="#00A4DB" offset="0%"></stop>
            <stop stop-color="#CC00FF" offset="100%"></stop>
        </linearGradient>
        <path d="M443.092188,60.9594727 C444.168359,60.9594727 445.08877,60.5771484 445.853418,59.8125 C446.618066,59.0761719 447.000391,58.1699219 447.000391,57.09375 L447.000391,3.86572266 C447.000391,2.81787109 446.618066,1.91162109 445.853418,1.14697266 C445.08877,0.382324219 444.168359,0 443.092188,0 C442.016016,0 441.109766,0.382324219 440.373438,1.14697266 C439.608789,1.91162109 439.226465,2.81787109 439.226465,3.86572266 L439.226465,57.09375 C439.226465,58.1699219 439.608789,59.0761719 440.373438,59.8125 C441.109766,60.5771484 442.016016,60.9594727 443.092188,60.9594727 Z" id="path-29"></path>
        <linearGradient x1="50%" y1="0%" x2="50%" y2="100%" id="linearGradient-30">
            <stop stop-color="#FFFFFF" offset="0%"></stop>
            <stop stop-color="#FFFFFF" offset="100%"></stop>
        </linearGradient>
        <path d="M491.75498,60.9594727 C500.194434,60.9594727 507.387793,57.9858398 513.335059,52.0385742 C514.099707,51.2739258 514.482031,50.3535156 514.482031,49.2773438 C514.482031,48.2011719 514.099707,47.2949219 513.335059,46.5585938 C512.57041,45.7939453 511.65,45.4116211 510.573828,45.4116211 C509.497656,45.4116211 508.591406,45.7939453 507.855078,46.5585938 C503.408789,50.9765625 498.04209,53.1855469 491.75498,53.1855469 C485.496191,53.1855469 480.143652,50.9765625 475.697363,46.5585938 C471.279395,42.1123047 469.07041,36.7597656 469.07041,30.5009766 C469.07041,24.2138672 471.279395,18.847168 475.697363,14.4008789 C480.143652,9.98291016 485.496191,7.77392578 491.75498,7.77392578 C498.04209,7.77392578 503.408789,9.98291016 507.855078,14.4008789 C508.591406,15.1655273 509.497656,15.5478516 510.573828,15.5478516 C511.65,15.5478516 512.57041,15.1655273 513.335059,14.4008789 C514.099707,13.6645508 514.482031,12.7583008 514.482031,11.6821289 C514.482031,10.605957 514.099707,9.68554688 513.335059,8.92089844 C507.387793,2.97363281 500.194434,0 491.75498,0 C483.343848,0 476.164648,2.97363281 470.217383,8.92089844 C464.270117,14.8681641 461.296484,22.0615234 461.296484,30.5009766 C461.296484,38.9121094 464.270117,46.0913086 470.217383,52.0385742 C476.164648,57.9858398 483.343848,60.9594727 491.75498,60.9594727 Z" id="path-31"></path>
        <linearGradient x1="50%" y1="0%" x2="50%" y2="100%" id="linearGradient-32">
            <stop stop-color="#00A4DB" offset="0%"></stop>
            <stop stop-color="#CC00FF" offset="100%"></stop>
        </linearGradient>
        <path d="M14.8579102,5.66142043 L14.8579102,41.3757759 C14.8579102,42.1550728 15.1245117,42.8113228 15.6577148,43.3445259 C16.2114258,43.8982368 16.8779297,44.1750923 17.6572266,44.1750923 C18.4365234,44.1750923 19.1030273,43.8982368 19.6567383,43.3445259 C20.1899414,42.8113228 20.456543,42.1550728 20.456543,41.3757759 L20.456543,5.66142043 L32.5151367,5.66142043 C33.2739258,5.66142043 33.9301758,5.38456496 34.4838867,4.83085402 C35.0375977,4.27714309 35.3144531,3.61063918 35.3144531,2.83134231 C35.3144531,2.07255324 35.0375977,1.41630324 34.4838867,0.862592305 C33.9301758,0.308881368 33.2739258,0.032025899 32.5151367,0.032025899 L2.79931641,0.032025899 C2.02001953,0.032025899 1.36376953,0.308881368 0.830566406,0.862592305 C0.276855469,1.41630324 0,2.07255324 0,2.83134231 C0,3.61063918 0.276855469,4.27714309 0.830566406,4.83085402 C1.36376953,5.38456496 2.02001953,5.66142043 2.79931641,5.66142043 L14.8579102,5.66142043 Z" id="path-33"></path>
        <linearGradient x1="50%" y1="0%" x2="50%" y2="100%" id="linearGradient-34">
            <stop stop-color="#FFFFFF" offset="0%"></stop>
            <stop stop-color="#FFFFFF" offset="100%"></stop>
        </linearGradient>
        <linearGradient x1="50%" y1="0%" x2="50%" y2="100%" id="linearGradient-35">
            <stop stop-color="#00A4DB" offset="0%"></stop>
            <stop stop-color="#CC00FF" offset="100%"></stop>
        </linearGradient>
        <path d="M77.7820313,41.3757759 C77.7820313,40.596479 77.5051758,39.9299751 76.9514648,39.3762642 C76.3977539,38.8225532 75.73125,38.5456978 74.9519531,38.5456978 L48.4661133,38.5456978 C47.6868164,38.5456978 47.0305664,38.8225532 46.4973633,39.3762642 C45.9436523,39.9299751 45.6667969,40.596479 45.6667969,41.3757759 C45.6667969,42.1550728 45.9436523,42.8113228 46.4973633,43.3445259 C47.0305664,43.8982368 47.6868164,44.1750923 48.4661133,44.1750923 L74.9519531,44.1750923 C75.73125,44.1750923 76.3977539,43.8982368 76.9514648,43.3445259 C77.5051758,42.8113228 77.7820313,42.1550728 77.7820313,41.3757759 Z M48.4661133,0.032025899 C47.6868164,0.032025899 47.0305664,0.308881368 46.4973633,0.862592305 C45.9436523,1.41630324 45.6667969,2.07255324 45.6667969,2.83134231 C45.6667969,3.61063918 45.9436523,4.27714309 46.4973633,4.83085402 C47.0305664,5.38456496 47.6868164,5.66142043 48.4661133,5.66142043 L74.9519531,5.66142043 C75.73125,5.66142043 76.3977539,5.38456496 76.9514648,4.83085402 C77.5051758,4.27714309 77.7820313,3.61063918 77.7820313,2.83134231 C77.7820313,2.07255324 77.5051758,1.41630324 76.9514648,0.862592305 C76.3977539,0.308881368 75.73125,0.032025899 74.9519531,0.032025899 L48.4661133,0.032025899 Z M48.4661133,19.2888618 C47.6868164,19.2888618 47.0305664,19.5657173 46.4973633,20.1194282 C45.9436523,20.6731392 45.6667969,21.3396431 45.6667969,22.11894 C45.6667969,22.877729 45.9436523,23.533979 46.4973633,24.08769 C47.0305664,24.6414009 47.6868164,24.9182564 48.4661133,24.9182564 L74.9519531,24.9182564 C75.73125,24.9182564 76.3977539,24.6414009 76.9514648,24.08769 C77.5051758,23.533979 77.7820313,22.877729 77.7820313,22.11894 C77.7820313,21.3396431 77.5051758,20.6731392 76.9514648,20.1194282 C76.3977539,19.5657173 75.73125,19.2888618 74.9519531,19.2888618 L48.4661133,19.2888618 Z" id="path-36"></path>
        <linearGradient x1="50%" y1="0%" x2="50%" y2="100%" id="linearGradient-37">
            <stop stop-color="#FFFFFF" offset="0%"></stop>
            <stop stop-color="#FFFFFF" offset="100%"></stop>
        </linearGradient>
        <linearGradient x1="50%" y1="0%" x2="50%" y2="100%" id="linearGradient-38">
            <stop stop-color="#00A4DB" offset="0%"></stop>
            <stop stop-color="#CC00FF" offset="100%"></stop>
        </linearGradient>
        <path d="M110.190527,44.1750923 C116.301855,44.1750923 121.51084,42.021772 125.81748,37.7151314 C126.371191,37.1614204 126.648047,36.4949165 126.648047,35.7156196 C126.648047,34.9363228 126.371191,34.2800728 125.81748,33.7468696 C125.26377,33.1931587 124.597266,32.9163032 123.817969,32.9163032 C123.038672,32.9163032 122.382422,33.1931587 121.849219,33.7468696 C118.629492,36.9460884 114.743262,38.5456978 110.190527,38.5456978 C105.658301,38.5456978 101.782324,36.9460884 98.5625977,33.7468696 C95.3633789,30.5271431 93.7637695,26.6511665 93.7637695,22.11894 C93.7637695,17.5662056 95.3633789,13.6799751 98.5625977,10.4602486 C101.782324,7.26102981 105.658301,5.66142043 110.190527,5.66142043 C114.743262,5.66142043 118.629492,7.26102981 121.849219,10.4602486 C122.382422,11.0139595 123.038672,11.290815 123.817969,11.290815 C124.597266,11.290815 125.26377,11.0139595 125.81748,10.4602486 C126.371191,9.92704543 126.648047,9.27079543 126.648047,8.49149856 C126.648047,7.71220168 126.371191,7.04569777 125.81748,6.49198684 C121.51084,2.18534621 116.301855,0.032025899 110.190527,0.032025899 C104.099707,0.032025899 98.9009766,2.18534621 94.5943359,6.49198684 C90.2876953,10.7986275 88.134375,16.0076118 88.134375,22.11894 C88.134375,28.2097603 90.2876953,33.4084907 94.5943359,37.7151314 C98.9009766,42.021772 104.099707,44.1750923 110.190527,44.1750923 Z" id="path-39"></path>
        <linearGradient x1="50%" y1="0%" x2="50%" y2="100%" id="linearGradient-40">
            <stop stop-color="#FFFFFF" offset="0%"></stop>
            <stop stop-color="#FFFFFF" offset="100%"></stop>
        </linearGradient>
        <linearGradient x1="50%" y1="0%" x2="50%" y2="100%" id="linearGradient-41">
            <stop stop-color="#00A4DB" offset="0%"></stop>
            <stop stop-color="#CC00FF" offset="100%"></stop>
        </linearGradient>
        <path d="M139.799707,44.1750923 C140.579004,44.1750923 141.245508,43.8982368 141.799219,43.3445259 C142.35293,42.8113228 142.629785,42.1550728 142.629785,41.3757759 L142.629785,24.9182564 L165.08584,24.9182564 L165.08584,41.3757759 C165.08584,42.1550728 165.362695,42.8113228 165.916406,43.3445259 C166.470117,43.8982368 167.126367,44.1750923 167.885156,44.1750923 C168.664453,44.1750923 169.330957,43.8982368 169.884668,43.3445259 C170.438379,42.8113228 170.715234,42.1550728 170.715234,41.3757759 L170.715234,2.83134231 C170.715234,2.07255324 170.438379,1.41630324 169.884668,0.862592305 C169.330957,0.308881368 168.664453,0.032025899 167.885156,0.032025899 C167.126367,0.032025899 166.470117,0.308881368 165.916406,0.862592305 C165.362695,1.41630324 165.08584,2.07255324 165.08584,2.83134231 L165.08584,19.2888618 L142.629785,19.2888618 L142.629785,2.83134231 C142.629785,2.07255324 142.35293,1.41630324 141.799219,0.862592305 C141.245508,0.308881368 140.579004,0.032025899 139.799707,0.032025899 C139.02041,0.032025899 138.36416,0.308881368 137.830957,0.862592305 C137.277246,1.41630324 137.000391,2.07255324 137.000391,2.83134231 L137.000391,41.3757759 C137.000391,42.1550728 137.277246,42.8113228 137.830957,43.3445259 C138.36416,43.8982368 139.02041,44.1750923 139.799707,44.1750923 Z" id="path-42"></path>
        <linearGradient x1="50%" y1="0%" x2="50%" y2="100%" id="linearGradient-43">
            <stop stop-color="#FFFFFF" offset="0%"></stop>
            <stop stop-color="#FFFFFF" offset="100%"></stop>
        </linearGradient>
        <linearGradient x1="50%" y1="0%" x2="50%" y2="100%" id="linearGradient-44">
            <stop stop-color="#00A4DB" offset="0%"></stop>
            <stop stop-color="#CC00FF" offset="100%"></stop>
        </linearGradient>
        <path d="M183.866895,44.1750923 C184.646191,44.1750923 185.312695,43.8982368 185.866406,43.3445259 C186.420117,42.8113228 186.696973,42.1550728 186.696973,41.3757759 L186.696973,11.0754829 L211.337109,43.0676704 C211.911328,43.8059517 212.659863,44.1750923 213.582715,44.1750923 C213.890332,44.1750923 214.187695,44.1238228 214.474805,44.0212837 C215.746289,43.5906196 216.382031,42.7087837 216.382031,41.3757759 L216.382031,2.83134231 C216.382031,2.07255324 216.105176,1.41630324 215.551465,0.862592305 C214.997754,0.308881368 214.341504,0.032025899 213.582715,0.032025899 C212.803418,0.032025899 212.136914,0.308881368 211.583203,0.862592305 C211.029492,1.41630324 210.752637,2.07255324 210.752637,2.83134231 L210.752637,33.1316353 L186.1125,1.13944777 C185.292188,0.073041524 184.246289,-0.24482957 182.974805,0.185834493 C181.70332,0.616498555 181.067578,1.49833449 181.067578,2.83134231 L181.067578,41.3757759 C181.067578,42.1550728 181.344434,42.8113228 181.898145,43.3445259 C182.431348,43.8982368 183.087598,44.1750923 183.866895,44.1750923 Z" id="path-45"></path>
        <linearGradient x1="50%" y1="0%" x2="50%" y2="100%" id="linearGradient-46">
            <stop stop-color="#FFFFFF" offset="0%"></stop>
            <stop stop-color="#FFFFFF" offset="100%"></stop>
        </linearGradient>
        <linearGradient x1="50%" y1="0%" x2="50%" y2="100%" id="linearGradient-47">
            <stop stop-color="#00A4DB" offset="0%"></stop>
            <stop stop-color="#CC00FF" offset="100%"></stop>
        </linearGradient>
        <path d="M248.790527,5.66142043 C253.343262,5.66142043 257.219238,7.27128371 260.418457,10.4910103 C263.638184,13.690229 265.248047,17.5662056 265.248047,22.11894 C265.248047,26.6511665 263.638184,30.5271431 260.418457,33.7468696 C257.219238,36.9460884 253.343262,38.5456978 248.790527,38.5456978 C244.258301,38.5456978 240.382324,36.9460884 237.162598,33.7468696 C233.963379,30.5271431 232.36377,26.6511665 232.36377,22.11894 C232.36377,17.5662056 233.963379,13.690229 237.162598,10.4910103 C240.382324,7.27128371 244.258301,5.66142043 248.790527,5.66142043 Z M248.790527,44.1750923 C254.901855,44.1750923 260.11084,42.021772 264.41748,37.7151314 C268.724121,33.4084907 270.877441,28.2097603 270.877441,22.11894 C270.877441,16.0076118 268.724121,10.7986275 264.41748,6.49198684 C260.11084,2.18534621 254.901855,0.032025899 248.790527,0.032025899 C242.699707,0.032025899 237.500977,2.18534621 233.194336,6.49198684 C228.887695,10.7986275 226.734375,16.0076118 226.734375,22.11894 C226.734375,28.2097603 228.887695,33.4084907 233.194336,37.7151314 C237.500977,42.021772 242.699707,44.1750923 248.790527,44.1750923 Z" id="path-48"></path>
        <linearGradient x1="50%" y1="0%" x2="50%" y2="100%" id="linearGradient-49">
            <stop stop-color="#FFFFFF" offset="0%"></stop>
            <stop stop-color="#FFFFFF" offset="100%"></stop>
        </linearGradient>
        <linearGradient x1="50%" y1="0%" x2="50%" y2="100%" id="linearGradient-50">
            <stop stop-color="#00A4DB" offset="0%"></stop>
            <stop stop-color="#CC00FF" offset="100%"></stop>
        </linearGradient>
        <path d="M311.314746,44.1750923 C312.094043,44.1750923 312.760547,43.8982368 313.314258,43.3445259 C313.867969,42.8113228 314.144824,42.1550728 314.144824,41.3757759 C314.144824,40.596479 313.867969,39.9299751 313.314258,39.3762642 C312.760547,38.8225532 312.094043,38.5456978 311.314746,38.5456978 L286.85918,38.5456978 L286.85918,2.83134231 C286.85918,2.07255324 286.582324,1.41630324 286.028613,0.862592305 C285.474902,0.308881368 284.808398,0.032025899 284.029102,0.032025899 C283.249805,0.032025899 282.593555,0.308881368 282.060352,0.862592305 C281.506641,1.41630324 281.229785,2.07255324 281.229785,2.83134231 L281.229785,41.3757759 C281.229785,42.1550728 281.506641,42.8113228 282.060352,43.3445259 C282.593555,43.8982368 283.249805,44.1750923 284.029102,44.1750923 L311.314746,44.1750923 Z" id="path-51"></path>
        <linearGradient x1="50%" y1="0%" x2="50%" y2="100%" id="linearGradient-52">
            <stop stop-color="#FFFFFF" offset="0%"></stop>
            <stop stop-color="#FFFFFF" offset="100%"></stop>
        </linearGradient>
        <path d="M342.554297,5.66142043 C347.107031,5.66142043 350.983008,7.27128371 354.182227,10.4910103 C357.401953,13.690229 359.011816,17.5662056 359.011816,22.11894 C359.011816,26.6511665 357.401953,30.5271431 354.182227,33.7468696 C350.983008,36.9460884 347.107031,38.5456978 342.554297,38.5456978 C338.02207,38.5456978 334.146094,36.9460884 330.926367,33.7468696 C327.727148,30.5271431 326.127539,26.6511665 326.127539,22.11894 C326.127539,17.5662056 327.727148,13.690229 330.926367,10.4910103 C334.146094,7.27128371 338.02207,5.66142043 342.554297,5.66142043 Z M342.554297,44.1750923 C348.665625,44.1750923 353.874609,42.021772 358.18125,37.7151314 C362.487891,33.4084907 364.641211,28.2097603 364.641211,22.11894 C364.641211,16.0076118 362.487891,10.7986275 358.18125,6.49198684 C353.874609,2.18534621 348.665625,0.032025899 342.554297,0.032025899 C336.463477,0.032025899 331.264746,2.18534621 326.958105,6.49198684 C322.651465,10.7986275 320.498145,16.0076118 320.498145,22.11894 C320.498145,28.2097603 322.651465,33.4084907 326.958105,37.7151314 C331.264746,42.021772 336.463477,44.1750923 342.554297,44.1750923 Z" id="path-53"></path>
        <linearGradient x1="50%" y1="0%" x2="50%" y2="100%" id="linearGradient-54">
            <stop stop-color="#00A4DB" offset="0%"></stop>
            <stop stop-color="#CC00FF" offset="100%"></stop>
        </linearGradient>
        <path d="M381.453516,37.7151314 C385.760156,42.021772 390.958887,44.1750923 397.049707,44.1750923 C403.161035,44.1750923 408.37002,42.021772 412.67666,37.7151314 C413.209863,37.1614204 413.476465,36.4949165 413.476465,35.7156196 L413.476465,22.11894 C413.476465,21.3396431 413.209863,20.6731392 412.67666,20.1194282 C412.122949,19.5657173 411.456445,19.2888618 410.677148,19.2888618 L396.249902,19.2888618 C395.491113,19.2888618 394.834863,19.5657173 394.281152,20.1194282 C393.727441,20.6731392 393.450586,21.3396431 393.450586,22.11894 C393.450586,22.877729 393.727441,23.533979 394.281152,24.08769 C394.834863,24.6414009 395.491113,24.9182564 396.249902,24.9182564 L407.877832,24.9182564 L407.877832,34.5159126 C404.637598,37.3459907 400.853906,38.6892525 396.526758,38.5456978 C392.199609,38.4021431 388.497949,36.8025337 385.421777,33.7468696 C382.222559,30.5271431 380.622949,26.6511665 380.622949,22.11894 C380.622949,17.5662056 382.222559,13.6799751 385.421777,10.4602486 C388.641504,7.26102981 392.51748,5.66142043 397.049707,5.66142043 C401.602441,5.66142043 405.488672,7.26102981 408.708398,10.4602486 C409.241602,11.0139595 409.897852,11.290815 410.677148,11.290815 C411.456445,11.290815 412.122949,11.0139595 412.67666,10.4602486 C413.209863,9.92704543 413.476465,9.27079543 413.476465,8.49149856 C413.476465,7.71220168 413.209863,7.04569777 412.67666,6.49198684 C408.37002,2.18534621 403.161035,0.032025899 397.049707,0.032025899 C390.958887,0.032025899 385.760156,2.18534621 381.453516,6.49198684 C377.146875,10.7986275 374.993555,16.0076118 374.993555,22.11894 C374.993555,28.2097603 377.146875,33.4084907 381.453516,37.7151314 Z" id="path-55"></path>
        <linearGradient x1="50%" y1="0%" x2="50%" y2="100%" id="linearGradient-56">
            <stop stop-color="#FFFFFF" offset="0%"></stop>
            <stop stop-color="#FFFFFF" offset="100%"></stop>
        </linearGradient>
        <linearGradient x1="50%" y1="0%" x2="50%" y2="100%" id="linearGradient-57">
            <stop stop-color="#00A4DB" offset="0%"></stop>
            <stop stop-color="#CC00FF" offset="100%"></stop>
        </linearGradient>
        <path d="M426.628125,44.1750923 C427.407422,44.1750923 428.073926,43.8982368 428.627637,43.3445259 C429.181348,42.8113228 429.458203,42.1550728 429.458203,41.3757759 L429.458203,2.83134231 C429.458203,2.07255324 429.181348,1.41630324 428.627637,0.862592305 C428.073926,0.308881368 427.407422,0.032025899 426.628125,0.032025899 C425.848828,0.032025899 425.192578,0.308881368 424.659375,0.862592305 C424.105664,1.41630324 423.828809,2.07255324 423.828809,2.83134231 L423.828809,41.3757759 C423.828809,42.1550728 424.105664,42.8113228 424.659375,43.3445259 C425.192578,43.8982368 425.848828,44.1750923 426.628125,44.1750923 Z" id="path-58"></path>
        <linearGradient x1="50%" y1="0%" x2="50%" y2="100%" id="linearGradient-59">
            <stop stop-color="#FFFFFF" offset="0%"></stop>
            <stop stop-color="#FFFFFF" offset="100%"></stop>
        </linearGradient>
        <path d="M471.925781,41.3757759 C471.925781,40.596479 471.648926,39.9299751 471.095215,39.3762642 C470.541504,38.8225532 469.875,38.5456978 469.095703,38.5456978 L442.609863,38.5456978 C441.830566,38.5456978 441.174316,38.8225532 440.641113,39.3762642 C440.087402,39.9299751 439.810547,40.596479 439.810547,41.3757759 C439.810547,42.1550728 440.087402,42.8113228 440.641113,43.3445259 C441.174316,43.8982368 441.830566,44.1750923 442.609863,44.1750923 L469.095703,44.1750923 C469.875,44.1750923 470.541504,43.8982368 471.095215,43.3445259 C471.648926,42.8113228 471.925781,42.1550728 471.925781,41.3757759 Z M442.609863,0.032025899 C441.830566,0.032025899 441.174316,0.308881368 440.641113,0.862592305 C440.087402,1.41630324 439.810547,2.07255324 439.810547,2.83134231 C439.810547,3.61063918 440.087402,4.27714309 440.641113,4.83085402 C441.174316,5.38456496 441.830566,5.66142043 442.609863,5.66142043 L469.095703,5.66142043 C469.875,5.66142043 470.541504,5.38456496 471.095215,4.83085402 C471.648926,4.27714309 471.925781,3.61063918 471.925781,2.83134231 C471.925781,2.07255324 471.648926,1.41630324 471.095215,0.862592305 C470.541504,0.308881368 469.875,0.032025899 469.095703,0.032025899 L442.609863,0.032025899 Z M442.609863,19.2888618 C441.830566,19.2888618 441.174316,19.5657173 440.641113,20.1194282 C440.087402,20.6731392 439.810547,21.3396431 439.810547,22.11894 C439.810547,22.877729 440.087402,23.533979 440.641113,24.08769 C441.174316,24.6414009 441.830566,24.9182564 442.609863,24.9182564 L469.095703,24.9182564 C469.875,24.9182564 470.541504,24.6414009 471.095215,24.08769 C471.648926,23.533979 471.925781,22.877729 471.925781,22.11894 C471.925781,21.3396431 471.648926,20.6731392 471.095215,20.1194282 C470.541504,19.5657173 469.875,19.2888618 469.095703,19.2888618 L442.609863,19.2888618 Z" id="path-60"></path>
        <linearGradient x1="50%" y1="0%" x2="50%" y2="100%" id="linearGradient-61">
            <stop stop-color="#00A4DB" offset="0%"></stop>
            <stop stop-color="#CC00FF" offset="100%"></stop>
        </linearGradient>
        <path d="M494.705859,38.5456978 C492.839648,38.5456978 491.240039,37.8791939 489.907031,36.5461861 C488.574023,35.2131782 487.90752,33.6135689 487.90752,31.7473579 C487.90752,30.9680611 487.630664,30.3015571 487.076953,29.7478462 C486.523242,29.1941353 485.856738,28.9172798 485.077441,28.9172798 C484.298145,28.9172798 483.641895,29.1941353 483.108691,29.7478462 C482.55498,30.3015571 482.278125,30.9680611 482.278125,31.7473579 C482.278125,35.1721626 483.49834,38.0945259 485.93877,40.5144478 C488.358691,42.9548775 491.281055,44.1750923 494.705859,44.1750923 L502.365527,44.1750923 C505.790332,44.1750923 508.722949,42.9548775 511.163379,40.5144478 C513.603809,38.0945259 514.824023,35.1721626 514.824023,31.7473579 C514.824023,28.3020454 513.603809,25.3694282 511.163379,22.9495064 C508.722949,20.5090767 505.790332,19.2888618 502.365527,19.2888618 L494.705859,19.2888618 C492.839648,19.2888618 491.240039,18.6223579 489.907031,17.2893501 C488.574023,15.9563423 487.90752,14.346479 487.90752,12.4597603 C487.90752,10.5935493 488.574023,8.99393996 489.907031,7.66093215 C491.240039,6.32792434 492.839648,5.66142043 494.705859,5.66142043 L502.365527,5.66142043 C504.252246,5.66142043 505.862109,6.32792434 507.195117,7.66093215 C508.528125,8.99393996 509.194629,10.5935493 509.194629,12.4597603 C509.194629,13.2390571 509.471484,13.9055611 510.025195,14.459272 C510.558398,15.0129829 511.214648,15.2898384 511.993945,15.2898384 C512.773242,15.2898384 513.439746,15.0129829 513.993457,14.459272 C514.547168,13.9055611 514.824023,13.2390571 514.824023,12.4597603 C514.824023,9.03495559 513.603809,6.11259231 511.163379,3.69267043 C508.722949,1.25224074 505.790332,0.032025899 502.365527,0.032025899 L494.705859,0.032025899 C491.281055,0.032025899 488.358691,1.25224074 485.93877,3.69267043 C483.49834,6.11259231 482.278125,9.03495559 482.278125,12.4597603 C482.278125,15.9050728 483.49834,18.83769 485.93877,21.2576118 C488.358691,23.6980415 491.281055,24.9182564 494.705859,24.9182564 L502.365527,24.9182564 C504.252246,24.9182564 505.862109,25.5847603 507.195117,26.9177681 C508.528125,28.2507759 509.194629,29.8606392 509.194629,31.7473579 C509.194629,33.6135689 508.528125,35.2131782 507.195117,36.5461861 C505.862109,37.8791939 504.252246,38.5456978 502.365527,38.5456978 L494.705859,38.5456978 Z" id="path-62"></path>
        <linearGradient x1="50%" y1="0%" x2="50%" y2="100%" id="linearGradient-63">
            <stop stop-color="#FFFFFF" offset="0%"></stop>
            <stop stop-color="#FFFFFF" offset="100%"></stop>
        </linearGradient>
        <linearGradient x1="-8.15998999%" y1="57.9596731%" x2="66.0973524%" y2="37.9733484%" id="linearGradient-64">
            <stop stop-color="#00A4DB" offset="0%"></stop>
            <stop stop-color="#CC00FF" offset="100%"></stop>
        </linearGradient>
        <linearGradient x1="-8.15998999%" y1="57.9596731%" x2="66.0973524%" y2="37.9733484%" id="linearGradient-65">
            <stop stop-color="#FFFFFF" offset="0%"></stop>
            <stop stop-color="#FFFFFF" offset="100%"></stop>
        </linearGradient>
        <linearGradient x1="11.6053191%" y1="70.2946817%" x2="60.6267678%" y2="19.3357929%" id="linearGradient-66">
            <stop stop-color="#00A4DB" offset="0%"></stop>
            <stop stop-color="#CC00FF" offset="100%"></stop>
        </linearGradient>
        <linearGradient x1="11.6053191%" y1="70.2946817%" x2="60.6267678%" y2="19.3357929%" id="linearGradient-67">
            <stop stop-color="#FFFFFF" offset="0%"></stop>
            <stop stop-color="#FFFFFF" offset="100%"></stop>
        </linearGradient>
        <linearGradient x1="14.1652692%" y1="70.2946817%" x2="59.9182323%" y2="19.3357929%" id="linearGradient-68">
            <stop stop-color="#00A4DB" offset="0%"></stop>
            <stop stop-color="#CC00FF" offset="100%"></stop>
        </linearGradient>
        <linearGradient x1="14.1652692%" y1="70.2946817%" x2="59.9182323%" y2="19.3357929%" id="linearGradient-69">
            <stop stop-color="#FFFFFF" offset="0%"></stop>
            <stop stop-color="#FFFFFF" offset="100%"></stop>
        </linearGradient>
    </defs>
    <g id="logos" stroke="none" stroke-width="1" fill="none" fill-rule="evenodd">
        <g id="Validated-Logo" transform="translate(-3097.000000, -337.000000)">
            <g id="AE-Public-Blockchain" transform="translate(3097.000000, 337.000000)">
                <g id="AE" transform="translate(103.000000, 0.000000)">
                    <path d="M97.4069019,118 C100.142839,118 102.24951,116.87619 103.726916,114.628571 C105.204322,112.326132 105.395838,109.941463 104.301463,107.474564 L59.3226599,4.52264808 C58.0094102,1.50754936 55.7112232,0 52.4280989,0 C49.1996933,0 46.9288656,1.50754936 45.6156159,4.52264808 L0.636812904,107.474564 C-0.183968172,109.393264 -0.211327542,111.311963 0.554734797,113.230662 C1.2660784,115.149361 2.57932812,116.519861 4.49448397,117.34216 C5.47942126,117.78072 6.49171792,118 7.53137395,118 C10.7597795,118 13.0306072,116.492451 14.3438569,113.477352 L52.4280989,26.2313589 L85.9980449,102.951916 L41.7579449,102.951916 C39.6786328,102.951916 37.9002738,103.691986 36.4228679,105.172125 C35.0001807,106.652265 34.2888371,108.433914 34.2888371,110.517073 C34.2888371,112.545412 35.0001807,114.299652 36.4228679,115.779791 C37.9002738,117.25993 39.6786328,118 41.7579449,118 L97.4069019,118 Z" id="Path" fill="url(#linearGradient-2)"></path>
                    <path d="M176.747126,14 C179.295019,14 181.474138,13.3114754 183.284483,11.9344262 C185.094828,10.557377 186,8.89981785 186,6.96174863 C186,5.07468124 185.094828,3.44262295 183.284483,2.06557377 C181.474138,0.68852459 179.295019,0 176.747126,0 L90.1522989,0 C87.6044061,0 85.4588123,0.68852459 83.7155172,2.06557377 C81.9051724,3.44262295 81,5.07468124 81,6.96174863 C81,8.89981785 81.9051724,10.557377 83.7155172,11.9344262 C85.4588123,13.3114754 87.6044061,14 90.1522989,14 L176.747126,14 Z" id="Path" fill="url(#linearGradient-4)"></path>
                    <path d="M177.685824,67 C179.699872,67 181.422414,66.2131148 182.853448,64.6393443 C184.284483,63.0655738 185,61.2003643 185,59.0437158 C185,56.8287796 184.284483,54.9344262 182.853448,53.3606557 C181.422414,51.7868852 179.699872,51 177.685824,51 L109.234674,51 C107.220626,51 105.524585,51.7868852 104.146552,53.3606557 C102.715517,54.9344262 102,56.8287796 102,59.0437158 C102,61.2003643 102.715517,63.0655738 104.146552,64.6393443 C105.524585,66.2131148 107.220626,67 109.234674,67 L177.685824,67 Z" id="Path" fill="url(#linearGradient-6)"></path>
                    <path d="M179.624521,118 C181.104725,118 182.37069,117.311475 183.422414,115.934426 C184.474138,114.608379 185,112.976321 185,111.038251 C185,109.100182 184.474138,107.442623 183.422414,106.065574 C182.37069,104.688525 181.104725,104 179.624521,104 L129.31705,104 C127.836845,104 126.590358,104.688525 125.577586,106.065574 C124.525862,107.442623 124,109.100182 124,111.038251 C124,112.976321 124.525862,114.608379 125.577586,115.934426 C126.590358,117.311475 127.836845,118 129.31705,118 L179.624521,118 Z" id="Path" fill="url(#linearGradient-8)"></path>
                </g>
                <g id="Group-6" transform="translate(305.012793, 0.040527)" fill-rule="nonzero">
                    <g id="ARCHETHIC">
                        <g id="Path">
                            <use fill="#FFFFFF" xlink:href="#path-10"></use>
                            <use fill="url(#linearGradient-11)" xlink:href="#path-10"></use>
                        </g>
                        <g id="Path">
                            <use fill="#FFFFFF" xlink:href="#path-13"></use>
                            <use fill="url(#linearGradient-14)" xlink:href="#path-13"></use>
                        </g>
                        <g id="Path">
                            <use fill="#FFFFFF" xlink:href="#path-16"></use>
                            <use fill="url(#linearGradient-17)" xlink:href="#path-16"></use>
                        </g>
                        <g id="Path">
                            <use fill="#FFFFFF" xlink:href="#path-19"></use>
                            <use fill="url(#linearGradient-20)" xlink:href="#path-19"></use>
                        </g>
                        <g id="Shape">
                            <use fill="#FFFFFF" xlink:href="#path-22"></use>
                            <use fill="url(#linearGradient-23)" xlink:href="#path-22"></use>
                        </g>
                        <g id="Path">
                            <use fill="#FFFFFF" xlink:href="#path-25"></use>
                            <use fill="url(#linearGradient-26)" xlink:href="#path-25"></use>
                        </g>
                        <g id="Path">
                            <use fill="#FFFFFF" xlink:href="#path-27"></use>
                            <use fill="url(#linearGradient-20)" xlink:href="#path-27"></use>
                        </g>
                        <g id="Path">
                            <use fill="#FFFFFF" xlink:href="#path-29"></use>
                            <use fill="url(#linearGradient-30)" xlink:href="#path-29"></use>
                        </g>
                        <g id="Path">
                            <use fill="#FFFFFF" xlink:href="#path-31"></use>
                            <use fill="url(#linearGradient-17)" xlink:href="#path-31"></use>
                        </g>
                    </g>
                    <g id="TECHNOLOGIES" transform="translate(0.475195, 73.784380)">
                        <g id="Path">
                            <use fill="#FFFFFF" xlink:href="#path-33"></use>
                            <use fill="url(#linearGradient-34)" xlink:href="#path-33"></use>
                        </g>
                        <g id="Shape">
                            <use fill="#FFFFFF" xlink:href="#path-36"></use>
                            <use fill="url(#linearGradient-37)" xlink:href="#path-36"></use>
                        </g>
                        <g id="Path">
                            <use fill="#FFFFFF" xlink:href="#path-39"></use>
                            <use fill="url(#linearGradient-40)" xlink:href="#path-39"></use>
                        </g>
                        <g id="Path">
                            <use fill="#FFFFFF" xlink:href="#path-42"></use>
                            <use fill="url(#linearGradient-43)" xlink:href="#path-42"></use>
                        </g>
                        <g id="Path">
                            <use fill="#FFFFFF" xlink:href="#path-45"></use>
                            <use fill="url(#linearGradient-46)" xlink:href="#path-45"></use>
                        </g>
                        <g id="Shape">
                            <use fill="#FFFFFF" xlink:href="#path-48"></use>
                            <use fill="url(#linearGradient-49)" xlink:href="#path-48"></use>
                        </g>
                        <g id="Path">
                            <use fill="#FFFFFF" xlink:href="#path-51"></use>
                            <use fill="url(#linearGradient-52)" xlink:href="#path-51"></use>
                        </g>
                        <g id="Shape">
                            <use fill="#FFFFFF" xlink:href="#path-53"></use>
                            <use fill="url(#linearGradient-49)" xlink:href="#path-53"></use>
                        </g>
                        <g id="Path">
                            <use fill="#FFFFFF" xlink:href="#path-55"></use>
                            <use fill="url(#linearGradient-56)" xlink:href="#path-55"></use>
                        </g>
                        <g id="Path">
                            <use fill="#FFFFFF" xlink:href="#path-58"></use>
                            <use fill="url(#linearGradient-59)" xlink:href="#path-58"></use>
                        </g>
                        <g id="Shape">
                            <use fill="#FFFFFF" xlink:href="#path-60"></use>
                            <use fill="url(#linearGradient-37)" xlink:href="#path-60"></use>
                        </g>
                        <g id="Path">
                            <use fill="#FFFFFF" xlink:href="#path-62"></use>
                            <use fill="url(#linearGradient-63)" xlink:href="#path-62"></use>
                        </g>
                    </g>
                </g>
                <g id="Group-7" fill-rule="nonzero">
                    <path d="M31.3264129,16.4557988 C32.6166682,16.2001383 36.6124171,15.4566418 41.7041428,15.5074029 C50.0533556,15.590731 56.5211277,17.7579415 60.48431,19.1209041 C65.0649503,20.6960574 75.2159538,24.6968277 85.4824615,33.6860271 C89.356905,37.0782855 92.2456521,40.3037849 94.2098767,42.6968949 C95.1260491,40.8599593 95.913577,38.9755826 96.5534171,37.0881729 C97.3944925,34.6069582 98.0145752,32.0420256 98.3962262,29.4653634 L99,25.3907498 C96.5545895,23.0173462 93.2674834,20.0891177 89.1313425,17.0710452 C87.1636693,15.6353146 80.9023734,11.1863395 72.8921709,7.59839237 C66.5405825,4.75332054 51.7629594,-1.86600947 32.7586227,0.502334725 C18.6537887,2.2600935 8.7388761,8.15658876 6.44927796,9.56542445 C4.7795883,10.5927101 3.16022656,11.6974847 1.63560879,12.8495976 L0.58672375,13.6421158 L0.430741123,14.9546515 C0.204401349,16.8580062 0.0655089924,18.8255481 0.0176358941,20.8013967 C-0.138342447,27.3047203 0.667273925,37.3575251 5.39159725,48.3159414 C6.75522512,51.4797855 8.39033928,54.5903367 10.2516361,57.5612464 C10.7672829,58.3841942 11.8010229,59.9655806 13.3352731,62 C13.1770098,60.8486753 13.0391792,59.6963399 12.9245589,58.5600009 C12.2532098,51.9136089 12.2578306,45.1257163 12.9375296,38.3854876 C13.5,32.8087757 14.4350382,28.3297012 15.1061071,25.5019282 C15.4111113,24.21696 15.6937334,23.1414965 15.9068266,22.3593112 C17.7266506,21.2787926 20.0330587,20.0690172 22.7964444,18.970977 C24.4935743,18.2964914 27.4703292,17.2200726 31.3264129,16.4557988 Z" id="Path" fill="url(#linearGradient-65)"></path>
                    <path d="M75.6513133,94.9143584 C70.5131896,97.2039521 66.1413709,98.6219895 63.3404071,99.4469077 C62.0676369,99.8219096 60.9884646,100.111714 60.1998771,100.315945 C58.337249,99.2699883 56.1155877,97.8646077 53.7595297,96.0058689 C52.3125254,94.8642105 49.86709,92.8086278 47.2477561,89.8320152 C46.3713157,88.8359251 43.699282,85.7273399 41.1628853,81.2684848 C37.0041221,73.9572254 35.6122972,67.2454483 34.7897449,63.1154172 C33.8391062,58.341965 32.1761623,47.5091668 34.7957286,34.0898651 C35.7843963,29.0257633 37.1273009,24.9029575 38.2144289,22 C36.1514961,22.1176459 34.1125413,22.3711884 32.1456926,22.7546876 C29.5602121,23.2589157 27.0140046,23.997317 24.5781604,24.9490747 L20.7262336,26.4540345 C19.9001814,29.7662357 19.0177573,34.0879094 18.4875383,39.193363 C18.2353218,41.6222137 17.5368997,49.2913426 18.4741632,58.0541677 C19.2172739,65.0025868 20.9461766,81.1686407 32.6385628,96.535782 C41.3165337,107.941262 51.4728225,113.635685 53.8591782,114.927121 C55.599308,115.868973 57.3816423,116.728376 59.1567532,117.481676 L60.3780028,118 L61.5992615,117.481676 C63.37036,116.73005 65.1529787,115.870646 66.896725,114.927514 C72.6352019,111.822286 80.975303,106.11068 88.1175035,96.5355598 C90.1796528,93.7714111 92.0579082,90.7974801 93.6999736,87.6962224 C94.154806,86.8370409 95.0071565,85.1486708 96,82.7990227 C95.0782553,83.5105606 94.1453267,84.2050267 93.214439,84.8710112 C87.7707228,88.767979 81.8613863,92.1469563 75.6513133,94.9143584 Z" id="Path" fill="url(#linearGradient-67)"></path>
                    <path d="M121.984576,20.5840257 C121.936832,18.6259829 121.796842,16.6728443 121.567929,14.7786378 L121.410539,13.4754494 L120.352089,12.6885752 C118.817061,11.5474022 117.182672,10.4502146 115.494968,9.42767995 C109.939249,6.06392259 100.823181,1.77190924 88.945256,0.429524954 C85.5161897,0.0416109353 81.9962392,-0.0844454602 78.4833088,0.05498819 C77.5100347,0.0937374885 75.6183021,0.205293741 73.08174,0.525866499 C74.1589954,0.960224337 75.2269337,1.41270203 76.2691912,1.87755741 C82.3663759,4.59476311 88.2448142,7.96844382 93.7415449,11.9041552 C98.2894902,15.1604779 101.698216,18.1951385 103.809595,20.1809439 C104.76894,21.0833344 105.558191,21.8624589 106.1282,22.4355273 C106.146165,24.5503963 106.030569,27.1513116 105.587746,30.093195 C105.315754,31.9000434 104.746414,35.0162093 103.462893,38.7400629 C103.033423,39.9862757 101.66153,43.8208476 99.0483552,48.2119375 C94.7635824,55.4121084 89.6227173,59.9458095 86.4422856,62.7066731 C82.766393,65.8976578 74.1783239,72.7159333 61.2101495,77.1576993 C56.3162309,78.8339742 52.0642696,79.7384276 49,80.2539591 C50.1291134,81.9604507 51.3643853,83.5789711 52.6766213,85.0709851 C54.4020832,87.0320902 56.3113448,88.8432349 58.3510911,90.4534952 L61.5767461,93 C64.8670051,92.057299 69.0624536,90.659832 73.763975,88.5708327 C76.0008501,87.5769536 83.0145136,84.3548591 90.1646879,79.1886642 C95.8343834,75.0921111 109.02523,65.5610792 116.562109,47.902241 C122.155904,34.7960997 122.049908,23.269343 121.984576,20.5840257 Z" id="Path" fill="url(#linearGradient-69)"></path>
                </g>
            </g>
        </g>
    </g>
</svg>