<?xml version="1.0" encoding="UTF-8"?>
<svg width="826px" height="212px" viewBox="0 0 826 212" version="1.1" xmlns="http://www.w3.org/2000/svg" xmlns:xlink="http://www.w3.org/1999/xlink">
    <title>Uniris - White</title>
    <g id="Validated-logos" stroke="none" stroke-width="1" fill="none" fill-rule="evenodd">
        <g id="Validated-Logo" transform="translate(-2637.000000, -1309.000000)" fill="#FFFFFF" fill-rule="nonzero">
            <g id="08-Uniris-Logo-Blue-Left-RGB-copie" transform="translate(2637.000000, 1309.000000)">
                <g id="Group">
                    <path d="M56.9367395,29.5637529 C59.2817661,29.1039218 66.5443537,27.7683987 75.7987932,27.8597246 C90.9733411,28.0092155 102.728567,31.9028393 109.932007,34.3510593 C118.257666,37.1813539 136.707642,44.3689152 155.36748,60.5183822 C162.409165,66.6126246 167.659838,72.4073057 171.229507,76.7066209 C172.895067,73.4064935 174.326146,70.0212454 175.489041,66.6302037 C177.01771,62.1726312 178.144945,57.5647749 178.838633,52.9355431 L179.935774,45.6154908 C175.491243,41.3515627 169.516819,36.0906423 161.99929,30.668644 C158.423015,28.0893507 147.04283,20.0964447 132.483799,13.6508795 C120.939414,8.53923663 94.081204,-3.35229398 59.5399186,0.902455831 C33.9041341,4.06048695 15.8834847,14.6534672 11.7217563,17.1848104 C8.68744606,19.0303101 5.74392214,21.0151007 2.97278018,23.0848137 L1.0666988,24.5084608 L0.783284473,26.8663459 C0.371604211,30.2859593 0.119063706,33.820683 0.032069903,37.370394 C-0.25152802,49.053903 1.21300884,67.114414 9.79983295,86.8016082 C12.2779421,92.4853872 15.2497251,98.0738458 18.6327752,103.410708 C19.5697827,104.8897 21.4490121,107.730591 24.237204,111.385624 C23.9499821,109.316902 23.6992459,107.246777 23.4912038,105.205239 C22.2709808,93.2647523 22.2787948,81.0702606 23.5142482,68.9609199 C24.5364451,58.9422561 26.2362889,50.8954081 27.4559002,45.8151271 C28.0100979,43.5066099 28.523987,41.5743735 28.9116289,40.1695251 C32.2187257,38.2280953 36.4105022,36.054661 41.4330861,34.0818692 C44.5177055,32.8702533 49.9285122,30.9366295 56.9367395,29.5637529 Z" id="Path"></path>
                    <path d="M137.095682,170.390642 C127.882132,174.517688 120.043112,177.073411 115.020314,178.560208 C112.738442,179.236264 110.803077,179.758636 109.389064,180.126714 C106.048677,178.241467 102.06534,175.70831 97.8402742,172.358037 C95.2459031,170.300323 90.8607033,166.595724 86.1640445,161.230488 C84.5924666,159.435164 79.8009694,153.832511 75.2530211,145.795832 C67.7956339,132.618162 65.2996794,120.52079 63.8247138,113.076845 C62.1202521,104.473244 59.1384685,84.9485157 63.8359379,60.7619738 C65.6083401,51.6342024 68.0163068,44.2034459 69.9656787,38.9714938 C66.266949,39.183129 62.6105157,39.640155 59.0837399,40.3313957 C54.4478039,41.2404466 49.8818116,42.5713653 45.5142431,44.2863711 L38.6070167,46.9989636 C37.125644,52.9691157 35.5432549,60.7581774 34.5928062,69.9603055 C34.1406338,74.3381394 32.8879468,88.160504 34.5687526,103.954456 C35.9012159,116.478285 39.0012646,145.61559 59.9676399,173.313467 C75.5286217,193.870362 93.7398958,204.13402 98.0192473,206.461504 C101.139343,208.158946 104.335408,209.708071 107.51823,211.065762 L109.708322,212 L111.898231,211.065762 C115.074233,209.711272 118.270695,208.16233 121.397397,206.462327 C131.687291,200.865254 146.642374,190.570646 159.449417,173.312675 C163.146771,168.331129 166.514988,162.970467 169.459506,157.381231 C170.274853,155.832685 171.803523,152.789353 173.583739,148.554606 C171.93081,149.83695 170.258216,151.08874 168.589048,152.288966 C158.827691,159.312644 148.23117,165.40309 137.095682,170.390642 Z" id="Path"></path>
                    <path d="M219.388198,37.2452971 C219.302626,33.7027826 219.05007,30.168257 218.637993,26.7410356 L218.354578,24.3829523 L216.447901,22.9595186 C213.683365,20.8943947 210.739458,18.9090095 207.699735,17.0589054 C197.693255,10.9724693 181.274247,3.2063684 159.880365,0.777556982 C153.704306,0.0751251043 147.364902,-0.15268647 141.037334,0.0995040826 C139.284367,0.16963746 135.876881,0.371682784 131.308457,0.951807904 C133.24844,1.73757642 135.172153,2.5561095 137.049379,3.39742086 C148.030942,8.31422998 158.619053,14.4186571 168.519685,21.5400641 C176.710441,27.4318801 182.850229,32.9228074 186.653186,36.5162909 C188.381074,38.1491642 189.80255,39.5586171 190.828738,40.5957834 C190.861615,44.4224602 190.65316,49.1286406 189.855642,54.4519032 C189.365791,57.72105 188.340399,63.3596693 186.028647,70.0977819 C185.25477,72.3523574 182.784077,79.2911128 178.077387,87.2364503 C170.360027,100.264264 161.100572,108.467997 155.372098,113.463722 C148.751482,119.237028 133.283519,131.574607 109.926196,139.611682 C101.111696,142.644799 93.453056,144.280859 87.9342294,145.213908 C89.9679802,148.30179 92.1927536,151.230226 94.5562217,153.929813 C97.6639009,157.478533 101.102888,160.755471 104.776753,163.669697 L110.586212,168.277157 C116.512743,166.57136 124.068929,164.042807 132.537503,160.262494 C136.566134,158.464548 149.198852,152.63448 162.077062,143.286276 C172.288786,135.873907 196.047146,118.628331 209.621857,86.6761149 C219.69666,62.9611896 219.506249,42.1041548 219.388198,37.2452971 Z" id="Path"></path>
                </g>
                <g id="Group" transform="translate(283.089444, 60.787359)">
                    <path d="M61.1872475,51.7738983 C61.1872475,65.7645372 53.6637241,76.7260228 37.8968717,76.7260228 C22.1300805,76.7260228 14.3213079,65.7645372 14.3213079,51.7738983 L14.3213079,1.87367458 L0,1.87367458 L0,51.7738983 C0,74.2736099 14.3213079,90.4252724 37.8968717,90.4252724 C61.7638627,90.4252724 75.5061698,74.2736097 75.5061698,51.7738983 L75.5061698,1.87367458 L61.1872475,1.87367458 L61.1872475,51.7738983 L61.1872475,51.7738983 Z" id="Path"></path>
                    <polygon id="Path" points="184.04777 58.9854422 124.020635 1.87367458 120.260127 1.87367458 120.260127 88.4069246 134.580089 88.4069246 134.580089 30.4306561 194.608265 88.4069246 198.369078 88.4069246 198.369078 1.87367458 184.04777 1.87367458"></polygon>
                    <rect id="Rectangle" x="243.976551" y="1.87367458" width="14.3199163" height="86.5332424"></rect>
                    <path d="M358.412998,57.9760547 C369.404593,53.649784 376.492367,44.7074545 376.492367,31.1500724 C376.492367,12.4025132 363.183607,1.87367458 341.340978,1.87367458 L303.734494,1.87367458 L303.734494,88.4069246 L318.055863,88.4069246 L318.055863,61.0036071 L342.790499,61.0036071 L364.053515,88.4069246 L379.965026,88.4069246 L379.965026,86.3883632 L358.412998,58.8407538 L358.412998,57.9760547 Z M341.776727,48.6014898 L318.055862,48.6014898 L318.055862,14.5657629 L340.909449,14.5657629 C353.63878,14.5657629 361.740937,20.3340679 361.740937,31.7269959 C361.740937,43.2654202 353.783072,48.6014898 341.776727,48.6014898 Z" id="Shape"></path>
                    <rect id="Rectangle" x="418.643818" y="1.87367458" width="14.3185133" height="86.5332424"></rect>
                    <path d="M512.24419,37.2079521 C496.477521,32.8812698 491.414109,29.9986038 491.414109,24.0838115 C491.414109,17.1612478 498.068947,13.2672125 508.916862,13.2672125 C524.104836,13.2672125 533.074271,20.3340681 533.074271,20.3340681 L540.884175,8.65276994 C540.884175,8.65276994 531.336902,0 508.916862,0 C487.653846,0 475.792587,9.51746928 475.792587,24.6607506 C475.792587,38.2169284 485.483541,44.7074549 505.880748,50.4769643 C522.51341,55.2358972 526.998433,58.5533903 526.998433,65.1877971 C526.998433,72.1097815 521.647539,77.1580755 508.771531,77.1580755 C493.293934,77.1580755 482.880361,68.7926541 482.880361,68.7926541 L475.069234,79.6086586 C475.069234,79.6086586 486.063214,90.425273 509.061521,90.425273 C532.496188,90.425273 542.910556,78.8892729 542.910556,64.178623 C542.910556,50.7647244 534.231539,43.1205336 512.24419,37.2079521 Z" id="Path"></path>
                </g>
            </g>
        </g>
    </g>
</svg>